<svg version="1.2" xmlns="http://www.w3.org/2000/svg" viewBox="0 0 1746 2432" width="1746" height="2432">
	<style>
		.s0 { fill: #42424e } 
		.s1 { fill: #9a99a9 } 
		.s2 { fill: #9b98a9 } 
	</style>
	<path id="body-fill" class="s0" d="m850 97.92c-4.67 0.98-11.65 2.81-15.5 4.07-3.85 1.26-9.7 3.63-13 5.27-3.3 1.64-8.7 4.9-12 7.24-3.3 2.35-8.74 7.14-12.1 10.64-3.35 3.5-7.66 8.83-9.57 11.86-1.9 3.03-4.4 7.53-5.54 10-1.14 2.47-2.97 7.2-4.06 10.5-1.09 3.3-2.49 9.37-3.11 13.5-0.61 4.12-1.29 9.97-1.49 13-0.2 3.03 0.02 11.57 0.49 19 0.47 7.43 1.42 16.75 2.12 20.73l1.26 7.24c-4.65 0.05-7.11 0.62-8.46 1.29-1.36 0.68-3.49 3.04-4.74 5.24-1.83 3.23-2.27 5.53-2.28 12 0 5.63 0.85 11.26 2.87 19 1.59 6.05 4.23 13.93 5.87 17.5 1.64 3.57 4.39 8.41 6.11 10.75 1.82 2.47 4.91 5.06 7.38 6.18l4.25 1.94c2.8 13.66 5.03 22.36 6.76 28.13 3.04 10.11 3.16 11.19 3.2 29 0.04 17.77-0.06 18.7-2.46 23.5-1.83 3.65-4.38 6.41-9.5 10.26-3.85 2.89-10.38 7.21-14.5 9.61-4.13 2.39-19.88 10.78-35 18.64-15.13 7.86-33.8 18.01-41.5 22.56-7.7 4.55-16.48 9.25-19.5 10.43-3.02 1.19-10.67 3.27-17 4.63-6.33 1.36-15.55 3.83-20.5 5.48-4.95 1.65-11.92 4.6-15.5 6.55-3.58 1.95-9.42 5.64-13 8.2-3.57 2.55-10.14 8.24-14.59 12.64-4.46 4.4-10.06 10.93-12.45 14.5-2.39 3.58-6.48 11-9.08 16.5-2.6 5.5-6.3 14.73-8.22 20.5-1.92 5.77-4.52 15.67-5.78 22-1.93 9.71-2.29 14.77-2.33 32.5-0.03 11.55 0.35 28.65 0.83 38 0.75 14.49 0.64 17.92-0.75 23.25-0.9 3.44-3.94 11.31-6.76 17.5-2.83 6.19-7.29 17.77-9.91 25.75-2.62 7.98-5.92 19.9-7.34 26.5-1.41 6.6-3.94 20.1-5.62 30-1.68 9.9-3.5 19.58-4.03 21.5-0.53 1.92-2.43 6.09-4.22 9.25-1.79 3.16-8.04 11.93-13.9 19.5-5.85 7.56-13.2 17.8-16.34 22.75-3.13 4.95-7.96 13.5-10.73 19-2.78 5.5-6.5 14.05-8.29 19-1.78 4.95-4.86 15.75-6.84 24-1.99 8.25-7.25 32.1-11.69 53-4.45 20.9-9.39 42.5-10.99 48-1.59 5.5-4.45 14.5-6.34 20-1.9 5.5-5.3 14.95-7.56 21-2.27 6.05-6.92 17.69-10.34 25.86-3.86 9.2-7.56 16.41-9.73 18.92-1.93 2.24-12.05 9.77-22.5 16.73-10.45 6.97-20.35 14.26-22 16.2-1.65 1.94-8.18 11.99-14.5 22.34-6.32 10.35-13.88 21.55-16.78 24.88-2.9 3.34-5.53 7.2-5.84 8.57-0.4 1.79 0.11 3.17 1.78 4.85 2.02 2.02 3.09 2.28 7.84 1.93 3.02-0.22 7.27-1.28 9.44-2.34 2.16-1.07 5.76-3.55 8-5.52 2.23-1.97 6.99-7.49 10.56-12.27 3.57-4.77 6.73-8.66 7-8.64 0.27 0.03-0.9 5.55-2.6 12.27-1.71 6.72-5.67 19.87-8.8 29.22-3.14 9.35-7.49 23.53-9.68 31.5-2.19 7.97-4.86 18.89-5.95 24.25-1.08 5.36-1.97 11.44-1.97 13.5 0.01 2.06 0.91 5.21 2 7 1.68 2.72 2.61 3.25 5.75 3.28 2.63 0.01 4.39-0.66 5.88-2.25 1.18-1.26 2.82-3.63 3.65-5.28 0.83-1.65 3.08-8.17 5-14.5 1.91-6.33 5.94-17.8 8.96-25.5 3.01-7.7 6.33-16.19 7.37-18.88 1.04-2.68 2.32-5.15 2.84-5.5 0.58-0.38 0.68 0.93 0.26 3.38-0.37 2.2-2.49 9.63-4.71 16.5-2.21 6.88-5.14 17.22-6.5 23-1.37 5.78-3.88 16.58-5.59 24-1.72 7.42-3.18 15.63-3.26 18.23-0.12 3.83 0.33 5.2 2.35 7.22 1.37 1.38 3.85 2.77 5.5 3.1 2.18 0.43 3.95-0.04 6.5-1.73 1.93-1.28 4.49-4.35 5.71-6.82 1.21-2.48 4.52-11.92 7.34-21 2.83-9.08 7.91-24.31 11.29-33.85 3.39-9.55 6.29-16.75 6.46-16 0.16 0.74-1.49 8.55-3.68 17.35-2.19 8.8-5.37 23.88-7.05 33.5-1.68 9.63-3.06 18.29-3.07 19.25 0 0.96 1.13 2.88 2.5 4.25 1.71 1.71 3.6 2.5 6 2.5 2.21 0 4.51-0.86 6.25-2.33 1.78-1.5 3.93-5.48 6.07-11.25 1.83-4.9 5.35-16.12 7.82-24.92 2.48-8.8 6.14-21.17 8.14-27.5 2-6.33 3.79-10.6 3.98-9.5 0.19 1.1-0.78 10.1-2.15 20-1.37 9.9-2.78 21.38-3.14 25.5-0.59 6.75-0.45 7.73 1.44 9.75 1.18 1.27 3.28 2.25 4.84 2.26 1.51 0 3.76-0.67 5-1.5 1.24-0.83 3.19-4.1 4.34-7.26 1.15-3.16 4.27-14.08 6.93-24.25 2.66-10.17 6.4-22.78 8.3-28 1.91-5.22 5.36-13.55 7.67-18.5 2.31-4.95 5.09-11.25 6.18-14 1.1-2.75 3.15-8.83 4.57-13.5 2.3-7.6 2.64-10.78 3.17-30l0.6-21.5c11.23-25.58 17.23-37.95 20.59-44 3.36-6.05 9.4-15.95 13.43-22 4.04-6.05 11.9-16.62 17.47-23.5 5.58-6.87 14.85-18.35 20.61-25.5 5.76-7.15 14.48-18.62 19.39-25.5 4.9-6.87 12.08-17.9 15.95-24.5 3.86-6.6 8.78-16.05 10.93-21 2.15-4.95 5.49-13.73 7.43-19.5 1.94-5.77 4.28-14.55 5.21-19.5 0.93-4.95 1.87-9.9 2.09-11 0.22-1.1 1.32-8.98 2.44-17.5 1.13-8.52 2.72-18.2 3.54-21.5 0.81-3.3 3.39-9.83 5.73-14.5 2.34-4.67 7.82-14.58 12.18-22 4.35-7.42 10.6-19.35 13.89-26.5 3.28-7.15 7.42-17.5 9.19-23 1.81-5.62 3.47-9.34 3.8-8.5 0.32 0.83 4.36 12.98 8.98 27 4.63 14.02 11.79 35.17 15.93 47 4.13 11.83 8.89 26.23 10.57 32 1.68 5.77 3.72 13.65 4.53 17.5 0.82 3.85 1.94 11.5 2.5 17 0.69 6.79 0.69 13.53 0 21-0.7 7.49-3.05 18.99-7.37 36-3.49 13.75-6.89 28.6-7.56 33-0.79 5.23-0.98 12.86-0.56 22 0.49 10.47 0.28 15.89-0.82 21.5-0.8 4.13-3.07 12.22-5.03 18-1.96 5.78-4.44 14.55-5.5 19.5-1.07 4.95-3.56 20.25-5.54 34-1.97 13.75-4.49 29.72-5.59 35.5-1.1 5.78-4 19.72-6.44 31-2.45 11.28-6.28 28.83-8.52 39-2.24 10.17-5.62 26.15-7.53 35.5-1.9 9.35-4.57 23.75-5.93 32-1.36 8.25-3.35 22.42-4.44 31.5-1.08 9.08-2.44 23.14-3.02 31.25-0.57 8.11-1.04 25.66-1.04 39 0 13.34 0.46 30.33 1.02 37.75 0.56 7.42 1.69 18.9 2.52 25.5 0.83 6.6 2.42 17.63 3.54 24.5 1.12 6.88 3.17 18.35 4.55 25.5 1.38 7.15 4.95 22.67 7.94 34.5 2.98 11.83 7.19 28.25 9.35 36.5 2.17 8.25 4.91 20.63 6.1 27.5 2 11.6 2.17 16.3 2.38 65.5 0.16 37.81-0.13 55.87-1.03 63-0.69 5.5-3.1 17.88-5.35 27.5-2.25 9.63-5.62 24.92-7.49 34-1.87 9.08-4.31 22.8-5.43 30.5-1.12 7.7-2.56 21.65-3.21 31-0.64 9.35-0.87 22.63-0.52 29.5 0.35 6.88 1.56 18.8 2.69 26.5 1.14 7.7 2.94 18.5 4.02 24 1.08 5.5 3.55 17.42 5.51 26.5 1.95 9.08 5.97 27.3 8.94 40.5 2.96 13.2 6.56 29.85 7.98 37 1.43 7.15 4.59 22 7.03 33 2.44 11 5.57 24.95 6.96 31 1.38 6.05 4.07 18.88 5.97 28.5 1.9 9.63 4.21 23.13 5.15 30 1.03 7.64 1.68 18.91 1.67 29-0.02 10.92-0.63 20.22-1.8 27.5-0.98 6.05-2.05 15.92-2.39 21.94l-0.6 10.94c-9.41 7.84-21.78 17.52-33.57 26.55-11.79 9.04-23.23 17.47-25.43 18.73-2.2 1.26-6.92 3.03-10.5 3.94-3.58 0.9-7.96 2.71-9.75 4.02-1.79 1.31-4.15 3.84-5.25 5.63-1.19 1.95-2.01 5.05-2.02 7.75-0.03 3.06 0.69 5.59 2.24 7.91 1.25 1.87 3.41 4.26 4.78 5.3 1.38 1.04 8.35 3.22 15.5 4.85 7.15 1.63 19.08 4.07 26.5 5.41 7.42 1.34 16.2 2.72 19.5 3.08 3.3 0.35 9.15 1.33 13 2.18 3.85 0.84 12.4 3.55 19 6.02 6.6 2.47 16.05 5.33 21 6.36 4.95 1.02 12.71 1.87 17.25 1.88 4.54 0 11.74-0.71 16-1.59 4.26-0.88 10-2.73 12.75-4.1 2.75-1.38 6.73-4.15 8.84-6.15 2.11-2.01 4.92-5.79 6.25-8.4 1.32-2.61 2.92-8.24 3.55-12.5 1.06-7.18 0.89-9.16-2.17-26.75-2.44-14.01-3.33-22.15-3.38-31-0.04-7.6 0.62-15.85 1.8-22.5 1.37-7.65 1.72-13.08 1.33-20-0.41-7.04-1.52-12.61-4.3-21.5-2.06-6.6-4.53-14.93-5.48-18.5-0.96-3.57-2.24-9.99-2.84-14.25-0.61-4.26-1.1-15.74-1.11-25.5 0-9.76 0.69-24.72 1.54-33.25 0.84-8.53 2.87-24.28 4.51-35 1.63-10.72 4.34-26.25 6.02-34.5 1.67-8.25 5.94-26.47 9.48-40.5 3.55-14.03 8.47-33.38 10.94-43 2.47-9.62 5.19-22.22 6.05-28 0.97-6.59 1.55-17.4 1.54-29 0-10.17-0.47-23-1.04-28.5-0.58-5.5-1.73-14.72-2.57-20.5-0.83-5.78-2.67-16.12-4.09-23-1.41-6.87-4.28-19.47-6.38-28-2.09-8.53-4.34-19.33-4.99-24-0.65-4.67-0.88-10.75-0.51-13.5 0.37-2.75 1.74-9.05 3.05-14 1.3-4.95 3.99-13.95 5.97-20 1.98-6.05 5.14-17.08 7.02-24.5 1.89-7.42 4.1-18 4.93-23.5 0.83-5.5 1.89-14.95 2.36-21 0.47-6.05 0.94-19.78 1.04-30.5 0.1-10.72 0.64-27.37 1.22-37 0.57-9.62 2.6-31.67 4.52-49 1.93-17.33 4.84-38.03 6.48-46 1.64-7.97 4.74-23.28 6.88-34 2.14-10.72 5.47-28.72 7.38-40 1.92-11.28 4.19-25.22 5.06-31 0.86-5.78 2.24-16.35 3.05-23.5 0.82-7.15 2.04-18.4 2.71-25 0.66-6.6 1.24-26.51 1.27-44.25l0.07-32.25h13.5c-0.93 32.16-0.71 50.05-0.11 60.5 0.6 10.45 2.01 27.33 3.13 37.5 1.12 10.17 2.73 23 3.58 28.5 0.85 5.5 3.79 22.38 6.53 37.5 2.75 15.13 7 37.17 9.46 49 2.45 11.83 5.11 26 5.91 31.5 0.79 5.5 2.36 19.22 3.48 30.5 1.12 11.28 2.45 24.55 2.95 29.5 0.5 4.95 1.17 12.6 1.5 17 0.33 4.4 1.03 23.3 1.57 42 0.7 24.68 1.52 37.7 2.99 47.5 1.1 7.42 3.1 18 4.44 23.5 1.33 5.5 5.7 19.9 9.7 32 7.02 21.27 7.26 22.31 7.2 31.5-0.03 5.22-0.6 12.42-1.27 16-0.66 3.58-2.71 12.8-4.55 20.5-1.84 7.7-4.73 20.75-6.41 29-1.68 8.25-3.71 19.72-4.51 25.5-0.8 5.78-1.98 17.03-2.61 25-0.65 8.11-0.88 19.79-0.52 26.5 0.36 6.6 1.32 16.28 2.14 21.5 0.82 5.22 6.16 27.95 11.87 50.5 5.72 22.55 11.57 46.63 13.01 53.5 1.44 6.88 3.92 20.6 5.52 30.5 1.59 9.9 3.89 25.65 5.1 35 1.76 13.53 2.22 22.1 2.24 42 0.02 21.89-0.25 26.24-2.13 35-1.19 5.5-4.22 16.53-6.74 24.5-2.93 9.29-4.78 17.19-5.14 22-0.4 5.2 0.12 12.25 1.69 23 1.67 11.49 2.11 17.96 1.7 25-0.31 5.22-1.77 16.7-3.24 25.5-1.95 11.61-2.58 18.33-2.28 24.5 0.3 6.36 1.04 9.88 2.94 14 1.4 3.03 4.3 7.21 6.45 9.29 2.15 2.09 6.16 4.9 8.91 6.26 2.75 1.36 7.48 3.14 10.5 3.95 3.02 0.81 9.55 1.76 14.5 2.1 6.25 0.44 11.75 0.15 18-0.94 4.95-0.87 15.08-3.68 22.5-6.25 7.42-2.58 18.45-5.69 24.5-6.92 6.05-1.23 16.85-3.16 24-4.29 7.15-1.13 17.72-3.18 23.5-4.55 5.78-1.37 13.09-2.98 16.25-3.57 3.75-0.7 6.84-2.04 8.88-3.83 1.73-1.51 3.8-4.1 4.62-5.75 0.81-1.65 1.49-4.8 1.51-7 0.02-2.52-0.85-5.43-2.36-7.88-1.32-2.13-3.75-4.69-5.4-5.67-1.65-0.99-5.92-2.52-9.5-3.4-3.58-0.87-8.41-2.82-10.74-4.32-2.33-1.5-14.93-10.83-28-20.73-13.07-9.89-25.47-19.57-27.56-21.5-3.68-3.4-3.79-3.69-3.75-10.25 0.03-3.71-0.94-12.49-2.14-19.5-1.75-10.16-2.2-16.91-2.25-33.25-0.04-15.03 0.42-23.57 1.73-32 0.99-6.32 3.37-19.37 5.3-29 1.92-9.62 5.7-26.72 8.38-38 2.69-11.28 7.21-31.53 10.04-45 2.83-13.47 7.11-33.05 9.51-43.5 2.41-10.45 7.11-31.83 10.46-47.5 3.34-15.67 7.19-36.15 8.55-45.5 1.87-12.95 2.46-21.17 2.46-34.5 0-9.62-0.47-22.67-1.04-29-0.57-6.33-2.18-18.92-3.57-28-1.39-9.08-4.27-24.15-6.4-33.5-2.13-9.35-5.46-23.97-7.4-32.5-1.95-8.53-3.91-19.78-4.35-25-0.44-5.22-0.76-32.9-0.71-61.5 0.1-48.81 0.24-52.74 2.28-64 1.19-6.6 3.99-18.53 6.2-26.5 2.22-7.97 6.23-23.05 8.91-33.5 2.68-10.45 6.47-26.87 8.42-36.5 1.95-9.62 4.47-23.8 5.59-31.5 1.13-7.7 2.77-20.08 3.65-27.5 0.98-8.23 1.82-25.79 2.14-45 0.41-24.39 0.16-36.12-1.13-52-0.92-11.28-2.35-25.9-3.17-32.5-0.83-6.6-2.83-19.87-4.45-29.5-1.62-9.62-3.2-18.85-3.51-20.5-0.32-1.65-3.23-15.37-6.47-30.5-3.25-15.12-7.52-34.47-9.48-43-1.97-8.53-4.89-21.8-6.5-29.5-1.6-7.7-3.81-20.53-4.91-28.5-1.09-7.97-2.91-21.25-4.04-29.5-1.13-8.25-3.38-20.4-5.01-27-1.62-6.6-4.63-16.72-6.67-22.5l-3.72-10.5c-1.15-37.2-1.95-50.02-2.51-52.5-0.57-2.48-2.15-8.77-3.52-14-1.37-5.23-3.67-14-5.1-19.5-1.44-5.5-3.26-14.27-4.06-19.5-0.8-5.23-1.44-13.1-1.44-17.5 0.01-4.4 0.63-12.05 1.39-17 0.76-4.95 2.57-13.73 4.03-19.5 1.45-5.77 5.36-18.37 8.67-28 3.32-9.62 10.71-31.45 16.44-48.5 5.73-17.05 10.92-33.02 11.55-35.5l1.12-4.5c4.2 11.63 7.47 19.95 9.97 26 2.5 6.05 6.47 14.83 8.82 19.5 2.35 4.67 7.55 13.9 11.56 20.5 4.02 6.6 8.63 14.92 10.25 18.5 1.62 3.58 3.68 9.88 4.56 14 0.89 4.13 2.3 12.9 3.14 19.5 0.84 6.6 2.67 17.63 4.07 24.5 1.39 6.88 4.57 18.58 7.06 26 2.49 7.42 7 18.45 10.03 24.5 3.03 6.05 8.91 16.17 13.06 22.5 4.15 6.33 11.2 16.45 15.65 22.5 4.46 6.05 12.36 16.17 17.56 22.5 5.2 6.32 14.37 17.8 20.39 25.5 6.02 7.7 12.99 17.15 15.49 21 2.51 3.85 6.76 10.6 9.46 15 2.69 4.4 7.71 13.85 11.16 21 3.44 7.15 7.74 16.83 9.56 21.5l3.3 8.5c-1.17 20.91-1.04 29.33-0.39 34.5 0.58 4.67 2.24 12.55 3.68 17.5 1.44 4.95 5.68 15.75 9.42 24 3.74 8.25 8.22 19.28 9.95 24.5 1.73 5.22 4.96 16.47 7.17 25 2.21 8.53 4.9 17.97 5.97 21 1.07 3.03 2.95 6.52 4.17 7.78 1.43 1.46 3.38 2.26 5.47 2.25 2.35-0.02 3.83-0.79 5.35-2.78 1.85-2.43 2.02-3.57 1.43-9.75-0.36-3.85-1.72-13.75-3.02-22-1.29-8.25-2.63-17.47-2.97-20.5q-0.62-5.51 0.34-4c0.52 0.83 3.21 8.92 5.95 18 2.75 9.08 7.12 23.7 9.7 32.5 2.58 8.8 5.77 17.91 7.08 20.25 1.32 2.34 3.29 4.7 4.39 5.25 1.1 0.55 3.46 1.01 5.25 1.02 1.87 0.01 4.2-0.83 5.5-2 1.57-1.41 2.25-3.15 2.26-5.77 0-2.06-1.57-12.3-3.5-22.75-1.93-10.45-5.08-24.96-7.01-32.25-1.92-7.29-3.16-13.26-2.75-13.28 0.41-0.02 2.84 5.27 5.4 11.75 2.56 6.48 6.9 18.75 9.65 27.28 2.75 8.53 5.77 18.2 6.72 21.5 0.96 3.3 2.65 7.8 3.78 10 1.13 2.2 3.21 5.03 4.62 6.28 1.74 1.54 3.81 2.28 6.33 2.25 2.78-0.02 4.4-0.74 6.28-2.78 1.4-1.51 2.57-3.65 2.61-4.75 0.03-1.1-0.01-3.58-0.11-5.5-0.09-1.92-1.02-6.88-2.06-11-1.03-4.13-3.44-14.25-5.35-22.5-1.91-8.25-5.3-20.85-7.54-28-2.23-7.15-4.38-15.03-4.76-17.5-0.52-3.36-0.39-4.31 0.49-3.75 0.66 0.41 1.19 1.2 1.19 1.75 0 0.55 3.09 8.76 6.87 18.25 3.78 9.49 8.56 22.42 10.61 28.75 2.06 6.33 4.7 13.49 5.88 15.92 1.18 2.44 3.04 5.04 4.14 5.79 1.1 0.74 3.31 1.23 4.9 1.07 1.81-0.17 3.7-1.35 5-3.1 1.61-2.17 2.07-4.15 1.96-8.5-0.07-3.13-0.89-9.28-1.82-13.68-0.93-4.4-3.48-14.53-5.67-22.5-2.2-7.97-6.67-22.6-9.94-32.5-3.27-9.9-7.25-22.95-8.84-29-1.59-6.05-2.68-11.22-2.41-11.5 0.27-0.28 1.46 0.85 2.65 2.49 1.19 1.65 4.87 6.33 8.17 10.41 3.3 4.07 8.03 8.79 10.5 10.47 2.47 1.68 6.08 3.61 8 4.3 1.92 0.68 5.21 1.26 7.3 1.29 2.76 0.03 4.46-0.64 6.25-2.46 1.35-1.38 2.46-3.29 2.48-4.25 0.02-0.96-2.71-4.9-6.06-8.75-3.36-3.85-9.33-12.17-13.28-18.49-3.96-6.32-9.66-15.74-12.69-20.93l-5.5-9.44c-31.25-21.03-41.53-28.27-43.01-29.64-1.48-1.38-3.72-4.53-4.99-7-1.27-2.47-6.9-16.2-12.52-30.5-5.62-14.3-12.39-32.3-15.04-40-2.66-7.7-5.79-18.27-6.97-23.5-1.17-5.23-4.55-21.42-7.51-36-2.95-14.58-6.09-29.88-6.96-34-0.87-4.13-2.89-12.67-4.48-19-1.6-6.33-4.31-15.55-6.03-20.5-1.72-4.95-5.74-14.4-8.92-21-3.18-6.6-8.97-16.73-12.87-22.5-3.89-5.77-11.17-15.67-16.18-22-5.01-6.33-10.81-14.88-12.89-19-2.97-5.87-4.38-10.64-6.51-22-1.49-7.98-4.06-21.25-5.71-29.5-1.65-8.25-4.3-19.73-5.89-25.5-1.59-5.77-4.89-15.67-7.34-22-2.45-6.33-6.19-15.33-8.31-20l-3.87-8.5c0.19-23.25 0.42-42.15 0.62-57 0.36-25.34 0.24-27.64-1.94-37.5-1.28-5.77-3.92-15.45-5.86-21.5-1.95-6.05-5.87-15.95-8.73-22-2.86-6.05-7.03-13.7-9.28-17-2.25-3.3-6.95-8.8-10.45-12.23-3.5-3.43-9.96-8.99-14.36-12.36-4.4-3.37-11.38-7.81-15.5-9.88-4.13-2.06-10.42-4.71-14-5.89-3.58-1.17-12.58-3.44-20-5.02-7.42-1.59-16.42-4.22-20-5.85-3.58-1.63-10.78-5.57-16-8.76-5.22-3.19-22.78-12.76-39-21.28-16.23-8.52-32.65-17.3-36.5-19.52-3.85-2.22-10.15-6.15-14-8.73-3.85-2.58-8.69-6.56-10.75-8.84-2.75-3.03-3.94-5.41-4.47-8.89-0.4-2.61-0.68-11.27-0.63-19.25 0.08-13 0.4-15.59 3.11-25 1.66-5.77 4.08-15.16 5.38-20.85 2.2-9.63 2.57-10.43 5.36-11.6 1.65-0.69 4.49-2.78 6.32-4.65 1.82-1.87 5.08-7 7.23-11.4 2.15-4.4 5.09-12.05 6.53-17 1.49-5.12 2.86-12.88 3.18-18 0.49-7.84 0.29-9.61-1.6-13.75-1.39-3.05-3.23-5.29-5.16-6.25-1.65-0.82-4.35-1.5-6-1.5-2.38 0-2.9-0.36-2.5-1.75 0.28-0.96 0.96-4.45 1.52-7.75 0.56-3.3 1.42-11.4 1.91-18 0.51-6.86 0.52-16.5 0.03-22.5-0.48-5.78-1.82-14.1-2.99-18.5-1.17-4.4-3.07-10.25-4.23-13-1.15-2.75-4.1-8.15-6.56-12-2.45-3.85-6.08-8.96-8.07-11.36-1.99-2.4-6.76-6.75-10.61-9.65-3.85-2.91-10.15-6.85-14-8.76-3.85-1.91-10.38-4.63-14.5-6.05-4.13-1.41-11.55-3.28-16.5-4.14-5.41-0.94-14.39-1.53-22.5-1.48-8.8 0.05-16.46 0.7-22 1.86z"/>
	<path id="non-involved-parts" fill-rule="evenodd" class="s1" d="m1147.81 730.9c0.93 0.5 4.65 3.99 8.26 7.76 3.61 3.76 8.39 9.54 10.61 12.84 2.23 3.3 5.97 9.83 8.31 14.5 2.34 4.67 5.51 12.33 7.04 17 1.52 4.67 3.51 12.33 4.4 17 0.89 4.67 2.09 15.48 2.66 24 0.57 8.53 1.46 17.19 1.98 19.25 0.51 2.06 1.61 3.98 2.43 4.25 0.83 0.28 2.29 0.1 3.25-0.38 0.96-0.49 3.44-2.96 5.5-5.5 2.06-2.54 4.2-4.62 4.75-4.62 0.55 0 1.19 1.24 1.42 2.75 0.23 1.51-0.22 9.5-1 17.75-1.1 11.6-1.2 18.52-0.43 30.5 0.54 8.53 1.43 19.78 1.98 25 0.55 5.23 1 9.84 1.01 10.25 0.01 0.41-0.43 0.53-0.98 0.25-0.55-0.27-4.89-6.46-9.64-13.75-6.4-9.81-11.67-16.36-20.33-25.25-6.43-6.6-12.44-13.46-13.36-15.25-1.26-2.45-1.67-5.91-1.66-14 0.01-7.02-0.55-12.66-1.61-16.25-0.9-3.02-4.29-11.12-7.55-18-3.26-6.87-7.01-15.65-8.34-19.5-1.33-3.85-3.18-10.37-4.12-14.5-1.17-5.1-1.71-11.82-1.71-21 0.01-10.15 0.57-16.11 2.25-24 1.23-5.77 2.45-10.84 2.71-11.25 0.27-0.42 1.24-0.35 2.17 0.15zm-550.04 0.1c0.68 0 1.63 0.79 2.12 1.75 0.49 0.96 1.72 5.58 2.73 10.25 1.34 6.19 1.82 12.57 1.8 23.5-0.04 12.07-0.46 16.56-2.18 23-1.18 4.4-3.46 11.83-5.08 16.5-1.62 4.67-4.96 12.78-7.44 18-2.47 5.23-5.23 11.98-6.12 15-1 3.41-1.61 9.11-1.6 15 0.01 5.23-0.28 11.08-0.66 13-0.53 2.71-3.65 6.53-13.88 17-10.26 10.5-15.11 16.45-21.83 26.75-4.75 7.29-8.97 13.25-9.38 13.24-0.41 0-0.14-5.74 0.61-12.75 0.75-7 1.42-21.96 1.5-33.24 0.08-11.27-0.09-24.85-0.36-30.17-0.27-5.32-0.14-10.04 0.29-10.5 0.44-0.46 3.14 1.75 6 4.9 2.87 3.15 5.74 5.74 6.39 5.75 0.65 0.01 1.88-0.65 2.75-1.48 0.86-0.83 1.77-2.96 2.02-4.75 0.25-1.79 0.72-9.33 1.05-16.75 0.34-7.42 1.47-18.45 2.51-24.5 1.05-6.05 2.98-14.15 4.31-18 1.32-3.85 4.08-10.37 6.15-14.5 2.06-4.12 6.14-11.1 9.07-15.5 2.92-4.4 8.17-11.04 11.66-14.75 3.49-3.71 6.9-6.75 7.57-6.75zm138.44 857c1.6 5.22 4.65 14.45 6.77 20.5 2.12 6.05 6.2 17.08 14.32 38l-3.02 4.5c-1.66 2.47-4.58 7.65-6.5 11.5-1.91 3.85-4.78 10.27-6.38 14.28-1.59 4-3.13 7.27-3.4 7.27-0.27 0-1.12-1.93-1.87-4.28-0.75-2.35-3.18-8.55-5.41-13.77-2.22-5.22-5.93-12.42-8.24-16-2.31-3.58-5.4-7.62-6.86-9-1.47-1.37-2.66-3.06-2.65-3.75 0.02-0.69 1.11-3.39 2.43-6 1.32-2.61 4.19-9.25 6.38-14.75 2.19-5.5 5.34-14.95 7.01-21 1.66-6.05 3.36-12.35 3.77-14 0.67-2.71 1.02-2.09 3.65 6.5zm276.39-8.5c0.2 0.55 2.14 7.3 4.32 15 2.17 7.7 5.71 18.28 7.88 23.5 2.17 5.22 5.01 11.81 8.7 19.78l-5.27 5.86c-2.89 3.22-6.69 8.56-8.44 11.86-1.75 3.3-5.01 10.65-7.24 16.34-2.23 5.69-4.5 10.34-5.05 10.34-0.55 0-2.91-4.65-5.25-10.34-2.33-5.69-6.27-13.83-13.25-25.84l1.89-5.25c1.05-2.89 4.22-11.1 7.05-18.25 2.83-7.15 6.73-18.33 8.66-24.84 1.93-6.51 3.53-12.22 3.55-12.69 0.03-0.46 0.51-2.11 1.07-3.65 0.56-1.55 1.18-2.37 1.38-1.82z"/>
	<path id="forearms" fill-rule="evenodd" class="s1" d="m532.38 794.73l0.88 3.88c0.48 2.14 0.58 7.04 0.22 10.89-0.37 3.85-1.47 10.15-2.45 14-0.98 3.85-3.26 9.92-5.05 13.5-1.79 3.58-4.43 8.07-5.87 9.98-1.44 1.92-5.94 7.77-10.02 13-4.07 5.24-9.36 12.56-11.75 16.27-2.39 3.71-6.08 10.24-8.2 14.5-2.12 4.26-7.81 17.87-12.65 30.25-4.84 12.37-9.19 22.95-9.66 23.5-0.55 0.63-0.86 0.45-0.86-0.5 0.01-0.83 0.71-5.55 1.56-10.5 0.85-4.95 2.69-14.17 4.08-20.5 1.4-6.33 3.9-16.23 5.56-22 1.67-5.77 5.02-15.45 7.46-21.5 2.43-6.05 6.98-15.5 10.11-21 3.13-5.5 10.62-16.52 16.65-24.5 6.02-7.98 12.99-17.82 15.47-21.89zm681.29 0.28c0.39 0 1.82 2.13 3.19 4.75 1.37 2.61 7.94 12.17 14.6 21.25 6.66 9.07 13.95 19.42 16.19 23 2.24 3.57 5.43 9.2 7.09 12.5 1.66 3.3 4.61 10.27 6.55 15.5 1.94 5.22 4.91 14.22 6.58 20 1.68 5.77 4.86 19.5 7.07 30.5 2.21 11 3.69 20.33 3.29 20.75-0.4 0.41-4.95-9.94-10.11-23-5.17-13.07-10.86-26.68-12.65-30.25-1.79-3.58-5.97-10.55-9.29-15.5-3.32-4.95-9.69-13.73-14.15-19.5-4.46-5.78-9.64-13.2-11.49-16.5-1.86-3.3-4.36-8.93-5.55-12.5-1.38-4.16-2.37-10.29-2.74-17-0.32-5.78-0.29-11.29 0.06-12.25 0.36-0.97 0.96-1.75 1.36-1.75zm-686.45 59.7c0.45 0.44 1.31 4.17 1.92 8.3 0.66 4.49 0.86 13.31 0.5 22-0.33 7.97-1.72 22.15-3.1 31.5-1.38 9.35-3.84 22.4-5.47 29-1.63 6.6-4.06 15.15-5.39 19-1.34 3.85-5.14 13.3-8.46 21-3.32 7.7-10.39 23-15.71 34-5.33 11-14.87 31.02-21.2 44.5-6.32 13.47-12.36 25.96-13.4 27.75-1.67 2.84-2.43 3.25-6.16 3.27-2.33 0.02-4.58-0.21-5-0.5-0.41-0.29 1.05-5.59 3.23-11.77 2.19-6.19 6.42-19.8 9.39-30.25 2.97-10.45 6.57-24.85 8-32 1.42-7.15 3.96-21.33 5.63-31.5 1.68-10.18 4.2-24.35 5.61-31.5 1.4-7.15 3.9-18.4 5.55-25 1.64-6.6 4.75-16.5 6.9-22 2.14-5.5 6.21-14.05 9.03-19 2.82-4.95 8.66-13.95 12.98-20 4.32-6.05 9.31-12.49 11.09-14.3 1.79-1.81 3.61-2.93 4.06-2.5zm691.76-0.7c0.56 0 3.54 3.03 6.61 6.75 3.07 3.71 9.22 12.15 13.66 18.75 4.44 6.6 9.74 15.6 11.78 20 2.04 4.4 4.93 11.37 6.42 15.5 1.49 4.12 4.22 13.8 6.05 21.5 1.84 7.7 4.76 22.32 6.49 32.5 1.73 10.17 4.48 25.92 6.09 35 1.62 9.07 4.56 23.02 6.54 31 1.97 7.97 5.99 22.37 8.93 32 2.93 9.62 6.04 19.52 6.9 22 0.87 2.47 1.23 4.79 0.81 5.14-0.41 0.36-2.11 0.94-3.76 1.3-2.2 0.48-3.44 0.18-4.69-1.14-0.94-0.99-6.84-12.6-13.12-25.8-6.28-13.2-16.91-35.48-23.63-49.5-6.71-14.03-14.16-30-16.55-35.5-2.39-5.5-5.91-14.5-7.82-20-1.91-5.5-4.62-15.4-6.01-22-1.4-6.6-3.56-18.53-4.82-26.5-1.84-11.7-2.29-18.66-2.32-36-0.02-11.83 0.29-22.29 0.69-23.25 0.4-0.97 1.19-1.75 1.75-1.75zm-615.13 10.18c0.2 0.73-0.41 5.82-1.36 11.32-0.95 5.5-3.21 15.4-5.02 22-1.8 6.6-5.39 16.95-7.96 23-2.57 6.05-6.29 13.92-8.26 17.5-1.97 3.57-6.73 11.22-10.58 17-3.85 5.77-11.53 16.57-17.08 23.98-5.55 7.42-14.75 19.12-20.45 26-5.7 6.89-14.18 17.69-18.85 24.02-4.66 6.32-11.6 16.45-15.41 22.5-3.82 6.05-11.31 19.69-26.38 49.66l-3-0.61c-1.65-0.34-3.56-1.16-4.25-1.83-1.01-0.98-0.76-2.47 1.25-7.47 1.38-3.44 6.5-14.69 11.38-25 4.88-10.32 13.49-27.98 19.14-39.25 5.64-11.28 15.18-31.3 21.19-44.5 6-13.2 14.55-30.98 18.98-39.5 4.43-8.53 10.59-19.55 13.69-24.5 3.1-4.95 8.41-12.38 11.8-16.5 3.39-4.13 12.16-13.43 19.49-20.67 7.34-7.24 15.13-14.35 17.33-15.81 2.87-1.91 4.09-2.28 4.35-1.34zm538.02-1.47l3.32 1.89c1.82 1.04 10.77 9.32 19.89 18.39 9.11 9.08 19.07 19.88 22.13 24.01 3.07 4.12 8.15 12 11.3 17.5 3.16 5.5 9 16.52 12.99 24.5 3.99 7.97 10.64 21.92 14.78 31 4.15 9.07 15.69 32.92 25.65 53 9.96 20.07 20.81 42.91 24.09 50.75 3.29 7.83 5.76 14.7 5.48 15.25-0.27 0.55-2.18 1.26-4.25 1.59-2.52 0.4-4.12 0.15-4.91-0.75-0.64-0.74-3.36-6.29-6.04-12.34-2.69-6.05-8.18-16.85-12.21-24-4.02-7.15-9.82-16.6-12.89-21-3.06-4.4-9.27-12.95-13.8-19-4.53-6.05-11.54-14.83-15.58-19.5-4.04-4.68-13.25-16.38-20.47-26-7.22-9.63-15.82-21.78-19.11-27-3.29-5.23-8.25-14-11.02-19.5-2.77-5.5-6.83-15.18-9.01-21.5-2.19-6.33-5.13-16.68-6.54-23-1.41-6.33-2.84-14.38-3.18-17.9zm139.05 112.29c0.48 0.82 3.81 9.37 7.41 19 3.6 9.62 12.16 31.22 19.03 48 6.86 16.77 12.78 31.62 13.16 33 0.4 1.49 0.09 3.7-0.78 5.5-0.81 1.65-2.88 4.24-4.6 5.75-1.72 1.51-4.03 2.75-5.13 2.75-1.53 0-2.51-1.37-4.12-5.75-1.16-3.16-3.43-9.58-5.03-14.25-1.61-4.68-4.3-13.23-5.98-19-1.69-5.78-4.13-15.23-5.43-21-1.3-5.78-3.96-20.06-5.91-31.75-1.94-11.69-3.52-21.81-3.5-22.5q0.03-1.23 0.88 0.25zm-816.04 0.45c0.35 0.23 0.06 4.38-0.63 9.23-0.7 4.85-2.44 15.34-3.88 23.32-1.43 7.97-3.88 19.67-5.43 26-1.55 6.32-5.6 20.05-8.99 30.5-3.39 10.45-6.79 20.24-7.55 21.75-0.77 1.51-2.07 2.75-2.89 2.75-0.83 0-2.91-1.24-4.64-2.75-1.72-1.51-3.79-4.1-4.59-5.75-0.88-1.79-1.19-4.01-0.79-5.5 0.38-1.38 7.78-20.28 16.46-42 8.68-21.73 17.26-43.65 19.05-48.73 1.79-5.08 3.54-9.05 3.88-8.82z"/>
	<path id="triceps" fill-rule="evenodd" class="s1" d="m647.08 606.98c0.78-0.01 2.25 0.56 3.26 1.25 1.11 0.76 2.19 3.27 2.69 6.27 0.47 2.75 0.88 8.37 0.91 12.5 0.03 4.12 1.2 21.9 2.59 39.5 2.18 27.56 2.38 33.6 1.45 43.5-0.59 6.33-1.97 15.55-3.08 20.5-1.1 4.95-3.64 13.95-5.64 20-1.99 6.05-7.04 17.75-11.22 26-4.18 8.25-10.96 19.94-15.07 25.97-4.11 6.03-11.3 14.97-15.97 19.87-4.67 4.89-8.61 8.39-8.75 7.78-0.14-0.62 1.73-5.51 4.14-10.87 2.41-5.36 5.53-13.35 6.92-17.75 1.39-4.4 3.29-13.17 4.23-19.5 1.27-8.52 1.54-14.35 1.04-22.5-0.37-6.05-1.81-17.08-3.19-24.5-1.67-8.91-2.51-16.9-2.49-23.5 0.02-5.5 1-15.63 2.18-22.5 1.17-6.88 3.44-17.11 5.03-22.75 1.59-5.64 4.52-14.41 6.51-19.5 1.99-5.09 6.15-14.2 9.23-20.25 3.1-6.07 7.45-12.91 9.71-15.25 2.26-2.34 4.74-4.26 5.52-4.27zm448.95 0.02c0.53 0 2.32 0.67 3.97 1.5 1.65 0.83 5.06 4.31 7.57 7.75 2.52 3.44 6.74 10.75 9.4 16.25 2.65 5.5 6.2 13.83 7.89 18.5 1.69 4.67 4.22 12.77 5.62 18 1.41 5.23 3.45 14.9 4.54 21.5 1.09 6.6 1.98 16.05 1.99 21 0.01 5.92-0.89 13.27-2.62 21.5-1.9 9.02-2.76 16.67-3.12 27.5-0.35 10.94-0.06 17.43 1.07 24 0.86 4.95 2.68 12.6 4.06 17 1.38 4.4 4.51 12.5 6.95 18 2.44 5.5 4.2 10.45 3.93 11-0.28 0.55-2.96-1.48-5.95-4.5-3-3.02-8.48-9.55-12.2-14.5-3.71-4.95-8.9-12.38-11.53-16.5-2.63-4.13-7.87-13.8-11.64-21.5-3.78-7.7-8.24-18.27-9.92-23.5-1.68-5.23-3.97-13.77-5.09-19-1.12-5.23-2.41-13.77-2.86-19-0.46-5.23-0.68-14.67-0.5-21 0.18-6.33 0.83-16.67 1.43-23 0.6-6.33 1.67-21.63 2.36-34 0.74-13.12 1.77-23.44 2.47-24.75 0.67-1.24 1.64-2.25 2.18-2.25zm-475.89 13c0.47 0 1.1 0.56 1.39 1.25 0.29 0.69-1.9 8-4.86 16.25-2.96 8.25-7.44 21.98-9.95 30.5-2.51 8.52-5.47 19.77-6.59 25-1.12 5.23-2.55 12.2-3.19 15.5-0.64 3.3-1.56 6.79-2.05 7.75-0.49 0.96-3.89 5.01-7.56 9-3.67 3.99-9.36 10.62-12.63 14.75-3.28 4.12-7.42 10.42-9.21 14-1.79 3.58-4.62 10.55-6.28 15.5-1.66 4.95-3.93 12.6-5.04 17-1.12 4.4-2.85 11.95-3.85 16.77-1 4.82-2.05 8.77-2.32 8.77-0.28 0-1.34-3.72-2.37-8.27-1.22-5.41-2.03-13.8-2.33-24.27-0.38-13.01-0.07-18.52 1.64-29.5 1.16-7.42 3.26-18.67 4.68-25 1.42-6.33 4.35-16.9 6.53-23.5 2.17-6.6 5.63-15.38 7.7-19.5 2.06-4.13 7.1-12.45 11.19-18.5 4.92-7.27 11.52-15.1 19.45-23.09 6.61-6.65 14.89-13.96 18.4-16.25 3.51-2.29 6.78-4.16 7.25-4.16zm505.66 0.97c0.93-0.01 4.62 1.85 8.2 4.14 3.57 2.29 11.23 8.94 17.01 14.78 5.77 5.84 12.52 13.43 15 16.88 2.47 3.44 6.97 10.19 10.01 15 3.03 4.8 7.49 13.23 9.9 18.73 2.41 5.5 5.91 16.08 7.77 23.5 1.86 7.42 4.57 20.02 6.01 28 2.2 12.1 2.64 17.57 2.7 33 0.05 14.32-0.35 20.42-1.76 27-1.01 4.67-2.21 8.95-2.67 9.5-0.49 0.58-1.53-2.37-2.48-7-0.9-4.4-2.72-12.5-4.04-18-1.33-5.5-3.36-12.92-4.53-16.5-1.16-3.58-3.69-9.65-5.61-13.5-1.92-3.85-5.43-9.7-7.79-13-2.37-3.3-8.23-10.5-13.04-16-4.8-5.5-9.13-10.79-9.61-11.75-0.48-0.96-2.01-7.49-3.4-14.5-1.4-7.01-3.85-17.7-5.46-23.75-1.6-6.05-4.5-15.73-6.43-21.5-1.94-5.77-5.52-15.67-7.96-22-2.44-6.33-4.23-11.84-3.98-12.25 0.25-0.41 1.22-0.76 2.16-0.78z"/>
	<path id="calves" fill-rule="evenodd" class="s1" d="m708.05 1651.98c1.07 0.56 3.05 2.48 4.39 4.27 1.34 1.79 4.47 7.53 6.95 12.75 2.48 5.22 5.64 13.78 7.02 19 1.39 5.22 3.02 12.65 3.64 16.5 0.61 3.85 1.12 13.08 1.13 20.5 0.01 7.42-0.52 29.7-1.18 49.5-0.89 27.03-0.91 42.36-0.08 61.5 0.61 14.03 1.77 33.15 2.58 42.5 0.8 9.35 1.46 21.5 1.47 27 0 6.14-0.76 13.67-1.98 19.5-1.09 5.22-3.24 12.2-4.79 15.5-1.54 3.3-4.58 7.81-6.75 10.03-2.71 2.77-5.52 4.46-8.95 5.39-4.12 1.12-5.71 1.14-9 0.08-2.2-0.71-6.16-3.36-8.81-5.89-2.77-2.66-6.43-7.78-8.66-12.11-2.11-4.13-5.43-12.22-7.35-18-1.93-5.78-4.89-15.67-6.58-22-1.68-6.33-3.98-16.9-5.09-23.5-1.12-6.6-2.3-17.4-2.64-24-0.33-6.6-0.08-18.08 0.55-25.5 0.63-7.42 2.28-20.92 3.66-30 1.39-9.08 4.27-25.28 6.41-36 2.13-10.72 6.44-30.53 9.56-44 3.12-13.47 7.02-28.33 8.67-33 1.66-4.67 4.77-12.55 6.91-17.5 2.15-4.95 4.6-10.02 5.44-11.27 1.23-1.82 1.91-2.07 3.48-1.25zm330.82-0.98c0.62 0 2.54 2.81 4.27 6.25 1.72 3.44 4.7 10.3 6.61 15.25 1.91 4.95 4.79 13.28 6.39 18.5 1.61 5.22 5.8 22.55 9.33 38.5 3.53 15.95 7.54 34.85 8.92 42 1.38 7.15 3.4 19.3 4.5 27 1.1 7.7 2.54 20.3 3.19 28 0.67 7.91 0.89 18.56 0.52 24.5-0.37 5.78-1.36 15.22-2.21 21-0.85 5.78-3.05 16.35-4.89 23.5-1.85 7.15-4.76 17.28-6.49 22.5-1.72 5.22-4.81 13.1-6.86 17.5-2.05 4.4-5.74 10.21-8.19 12.9-2.45 2.7-6.49 5.79-8.96 6.87-3.19 1.39-5.66 1.78-8.5 1.36-2.2-0.33-5.55-1.62-7.45-2.87-1.89-1.24-4.84-4.06-6.55-6.26-1.7-2.2-4.13-6.7-5.39-10-1.26-3.3-2.97-9.38-3.8-13.5-0.85-4.17-1.53-12.83-1.54-19.5-0.02-6.6 0.47-16.5 1.08-22 0.61-5.5 1.58-17.42 2.17-26.5 0.58-9.08 1.06-30.67 1.06-48 0-17.33-0.52-42.75-1.16-56.5-0.64-13.75-0.89-29.5-0.56-35 0.32-5.5 1.26-13.6 2.09-18 0.83-4.4 2.67-11.6 4.11-16 1.43-4.4 4.31-11.6 6.4-16 2.09-4.4 5.37-9.69 7.29-11.75 1.92-2.06 4-3.75 4.62-3.75zm-275.54 13.96c0.65-0.03 1.68 0.53 2.31 1.25 0.63 0.71 2.26 4.89 3.63 9.29 1.37 4.4 3.88 14.08 5.58 21.5 1.71 7.42 5.62 24.53 8.69 38 3.08 13.47 8 34.17 10.94 46 2.95 11.83 6.27 26 7.38 31.5 1.12 5.5 2.84 15.17 3.83 21.5 1.43 9.1 1.81 17.35 1.79 39.5-0.01 24.33-0.3 29.57-2.19 40-1.19 6.6-4.68 20.78-7.75 31.5-3.07 10.72-6.69 21.86-8.06 24.75-1.61 3.42-3.26 5.46-4.73 5.85-1.24 0.32-3.26 0.32-4.5 0-1.24-0.33-5.06-3.43-8.5-6.9-3.57-3.6-7.83-9.27-9.93-13.25-2.02-3.82-5.04-11-6.7-15.95-1.65-4.95-3.9-13.05-4.99-18-1.09-4.95-2.67-13.95-3.51-20-0.84-6.05-2-15.95-2.58-22-0.57-6.05-1.49-19.33-2.04-29.5-0.55-10.17-0.99-34.92-0.98-55 0.01-20.08 0.46-45.72 0.99-57 0.53-11.28 1.7-24.78 2.59-30 0.89-5.22 2.72-13.33 4.07-18 1.35-4.67 3.66-11.16 5.14-14.4 1.48-3.25 3.97-6.96 5.52-8.25 1.56-1.29 3.36-2.37 4-2.39zm219.44 0.02c0.95-0.01 2.94 1.22 4.43 2.75 1.48 1.52 3.88 5.47 5.34 8.77 1.45 3.3 3.91 10.95 5.46 17 1.56 6.05 3.32 14.49 3.91 18.75 0.6 4.26 1.59 20.24 2.21 35.5 0.64 15.96 0.88 43.9 0.55 65.75-0.31 20.9-1.05 44.08-1.63 51.5-0.59 7.42-1.77 19.35-2.62 26.5-0.85 7.15-2.18 16.37-2.97 20.5-0.78 4.12-2.78 12.34-4.43 18.25-1.66 5.91-4.83 14.91-7.05 20-2.21 5.09-5.81 11.61-8 14.5-2.18 2.89-5.88 6.61-8.22 8.28-2.34 1.66-5.49 3.01-7 3-1.87-0.02-3.34-0.91-4.58-2.78-1.01-1.51-2.59-4.66-3.5-7-0.92-2.34-3.94-12.24-6.71-22-2.77-9.76-6.02-22.92-7.23-29.25-1.94-10.17-2.19-14.86-2.21-40.5-0.02-22.91 0.35-31.42 1.76-40.5 0.98-6.33 2.71-16.22 3.84-22 1.13-5.78 5.64-25.13 10.01-43 4.37-17.88 11.06-46 14.87-62.5 3.81-16.5 7.41-31.58 7.99-33.5 0.58-1.92 1.73-4.51 2.55-5.75 0.83-1.24 2.28-2.26 3.23-2.27zm-241.89 273.98c0.34-0.03 1.15 0.53 1.81 1.25 0.65 0.71 2.37 4.44 3.83 8.29 1.46 3.85 4.61 10.83 7.02 15.5 2.4 4.67 6.8 11.2 9.78 14.5 2.98 3.3 8.62 8.03 12.52 10.5 4.88 3.09 7.12 5.13 7.14 6.5 0.02 1.1-1.33 8.75-3 17-1.67 8.25-4.36 24.22-5.98 35.5-1.62 11.28-3.62 27.25-4.43 35.5-0.82 8.25-2.01 24.22-2.65 35.5-0.69 12.3-0.95 34.3-0.65 55 0.36 24.1 1.04 38.57 2.25 48 1.67 13.07 1.67 13.63-0.15 17.48-1.31 2.8-2.91 4.39-5.37 5.36-1.92 0.76-4.74 1.1-6.25 0.77-1.51-0.34-3.99-1.7-8.25-5.44l-0.68-21.84c-0.37-12-1.61-30.94-2.75-42.08-1.14-11.14-3.42-28.91-5.08-39.5-1.65-10.59-4.6-28.03-6.54-38.75-1.95-10.72-5.53-28.5-7.97-39.5-2.43-11-6.65-28.1-9.37-38-2.72-9.9-6.54-22.72-8.48-28.5-1.94-5.78-4.64-13.2-5.99-16.5-1.35-3.3-2.27-6.34-2.05-6.75 0.23-0.41 3.22-0.75 6.66-0.74 3.44 0.01 8.61-0.67 11.5-1.5 3.86-1.11 6.47-2.77 9.86-6.26 2.64-2.72 6.33-8.27 8.63-13 2.21-4.54 4.3-8.27 4.64-8.29zm263.17 0.04c0.52 0 2.5 3.26 4.4 7.25 1.9 3.99 5.16 9.21 7.25 11.6 2.09 2.39 6.05 5.45 8.8 6.78 3.22 1.57 7.8 2.69 12.86 3.15 4.32 0.4 8.03 1.06 8.25 1.47 0.21 0.41-1.8 6.71-4.48 14-2.68 7.29-6.25 17.97-7.94 23.75-1.7 5.78-5.11 18.37-7.59 28-2.48 9.62-5.9 24.25-7.59 32.5-1.7 8.25-4.65 24-6.56 35-1.92 11-4.58 27.2-5.91 36-1.34 8.8-2.91 19.82-3.49 24.5-0.57 4.68-1.71 16.37-2.53 26-0.82 9.62-1.55 24.25-1.61 32.5-0.06 8.25-0.4 16.07-0.76 17.39-0.36 1.31-1.92 3.33-3.47 4.5-1.9 1.42-4.3 2.11-7.34 2.11-3.9 0-4.92-0.47-7.58-3.5-3.06-3.48-3.07-3.56-2.46-12 0.35-4.68 1.19-13.68 1.88-20 0.81-7.34 1.24-25.24 1.2-49.5-0.05-25.78-0.61-44.75-1.74-59-0.91-11.55-2.34-26.63-3.18-33.5-0.83-6.88-2.66-19.93-4.07-29-1.4-9.08-3.64-21.9-4.98-28.5-1.34-6.6-2.43-13.13-2.43-14.5 0.01-1.97 1.22-3.22 5.76-5.95 3.17-1.9 7.93-5.5 10.59-8 2.65-2.5 6.58-7.25 8.73-10.55 2.14-3.3 6.2-11.63 9.01-18.5 2.8-6.88 5.31-12.84 5.56-13.25 0.26-0.41 0.9-0.75 1.42-0.75zm-322.25 20.13c0.73 0.75 4.19 7.22 7.69 14.37 3.5 7.15 8.37 18.62 10.82 25.5 2.45 6.87 6.06 18.8 8.02 26.5 1.96 7.7 5.6 24.35 8.09 37 2.49 12.65 5.88 31.1 7.55 41 1.66 9.9 3.59 23.28 4.28 29.74 0.69 6.46 0.91 11.75 0.5 11.75-0.41 0.01-1.4-2.35-2.2-5.24-0.8-2.89-3.7-13.35-6.45-23.25-2.75-9.9-9.03-31.05-13.96-47-4.93-15.95-10.56-35.75-12.51-44-1.96-8.25-5.83-26.25-8.61-40-2.78-13.75-4.94-25.62-4.8-26.37 0.21-1.17 0.45-1.17 1.58 0zm383.32-1.13c0.49 0 0.88 0.56 0.87 1.25-0.01 0.69-1.39 8.45-3.08 17.25-1.69 8.8-4.63 22.97-6.52 31.5-1.89 8.53-4.97 21.35-6.85 28.5-1.88 7.15-6.98 24.25-11.34 38-4.36 13.75-10.76 35.12-14.23 47.5-3.48 12.37-6.46 22.72-6.64 23-0.18 0.28-0.57 0.28-0.86 0-0.29-0.28 0.2-6.13 1.08-13 0.88-6.88 2.71-19.25 4.06-27.5 1.36-8.25 3.83-22.2 5.49-31 1.67-8.8 4.62-23.2 6.56-32 1.94-8.8 5.34-21.85 7.54-29 2.2-7.15 5.79-17.5 7.98-23 2.19-5.5 6.47-14.84 9.52-20.75 3.05-5.91 5.94-10.75 6.42-10.75z"/>
	<path id="hamstrings" fill-rule="evenodd" class="s1" d="m676.31 1176c0.64 0 3.06 6.19 5.37 13.75 2.31 7.56 5.33 18.25 6.71 23.75 1.38 5.5 3.54 15.63 4.79 22.5 2 10.87 2.29 15.75 2.29 37.5 0 21.59-0.3 26.57-2.2 36.5-1.21 6.33-3.3 15.33-4.66 20-1.35 4.67-4.06 14.8-6.02 22.5-1.95 7.7-4.45 19.4-5.55 26-1.11 6.6-2.68 18.53-3.49 26.5-0.82 7.97-1.78 22.83-2.15 33-0.39 11.06-0.17 27.15 0.56 40 0.67 11.83 1.79 29.15 2.49 38.5 0.7 9.35 0.99 17.33 0.66 17.73-0.34 0.4-2.96-8.15-5.83-19-2.88-10.85-6.79-26.93-8.69-35.73-1.91-8.8-4.6-23.42-5.99-32.5-1.39-9.08-3.31-24.38-4.26-34-1.22-12.44-1.71-26.17-1.68-47.5 0.03-19.63 0.63-36.57 1.74-49 0.93-10.45 2.81-26.88 4.17-36.5 1.36-9.63 3.62-23.58 5.02-31 1.4-7.42 4.52-22.72 6.93-34 2.41-11.28 5.34-24.66 6.51-29.75 1.18-5.16 2.63-9.25 3.28-9.25zm393.83 0c0.5 0 1.11 1.46 1.34 3.25 0.23 1.79 2.2 11.12 4.38 20.75 2.18 9.62 5.78 26.5 8.01 37.5 2.22 11 4.94 25.85 6.03 33 1.09 7.15 2.68 19.3 3.53 27 0.85 7.7 2.03 20.97 2.61 29.5 0.59 8.53 1.07 26.75 1.07 40.5 0 13.75-0.5 31.3-1.11 39-0.61 7.7-1.97 20.75-3.02 29-1.05 8.25-3.07 21.3-4.49 29-1.42 7.7-5.02 23.67-8.01 35.5-2.98 11.83-6.23 24.34-7.2 27.81-0.98 3.48-2.12 5.95-2.53 5.5-0.41-0.44-0.54-1.71-0.27-2.81 0.26-1.1 1.14-13.92 1.96-28.5 0.81-14.58 1.74-32.13 2.06-39 0.32-6.88 0.11-21.95-0.47-33.5-0.58-11.55-1.74-26.63-2.58-33.5-0.83-6.88-2.64-18.13-4.01-25-1.38-6.88-4.74-20.83-7.47-31-2.74-10.17-5.84-23-6.89-28.5-1.06-5.5-2.46-16.08-3.11-23.5-0.67-7.68-0.9-18.25-0.53-24.5 0.36-6.05 1.57-16.63 2.7-23.5 1.13-6.88 3.3-17.45 4.82-23.5 1.53-6.05 4.91-17.64 7.52-25.75 2.61-8.11 5.15-14.75 5.66-14.75zm-219.39 69.08c0.97-0.06 1.25 5.85 1.25 26.42 0 14.58-0.47 33.14-1.04 41.25-0.58 8.11-2.19 24.2-3.58 35.75-1.4 11.55-3.87 29.1-5.49 39-1.62 9.9-4.31 25.2-5.99 34-1.68 8.8-5.27 26.12-7.99 38.5-2.71 12.37-4.93 23.29-4.92 24.25 0.01 0.96-0.44 1.75-0.99 1.75-0.55 0-1.64-3.04-2.42-6.75-0.78-3.71-2.12-10.35-2.99-14.75-0.86-4.4-2.23-12.5-3.04-18-0.81-5.5-2.86-25.53-4.56-44.5-1.71-18.97-4-41.25-5.09-49.5-1.1-8.25-4.47-28.5-7.49-45-3.02-16.5-5.37-31.13-5.2-32.5 0.23-1.96 1.15-2.75 4.29-3.64 2.2-0.63 7.6-2.12 12-3.31 4.4-1.18 12.95-4.57 19-7.52 6.05-2.96 13.7-7.62 17-10.37 3.3-2.75 6.56-5.04 7.25-5.08zm44.6 0.57c0.63 0.42 4.75 3.21 9.15 6.21 4.4 3 12.05 7.39 17 9.77 4.95 2.38 13.05 5.42 18 6.77 4.95 1.35 10.24 2.71 11.75 3.02 1.51 0.32 3.04 1.37 3.4 2.33 0.36 0.96-0.53 8.05-1.98 15.75-1.45 7.7-3.97 21.42-5.59 30.5-1.62 9.08-3.84 23.03-4.93 31-1.1 7.97-2.28 18.33-2.63 23-0.35 4.67-1.29 16.37-2.1 26-0.8 9.62-2.15 23.35-3 30.5-0.84 7.15-2.42 18.17-3.49 24.5-1.08 6.33-2.85 15.66-3.94 20.75-1.1 5.09-1.99 9.47-1.99 9.75 0 0.28-0.45 0.5-1 0.5-0.55 0-1-0.79-1-1.75 0-0.96-1.37-8.05-3.05-15.75-1.68-7.7-4.19-19.4-5.58-26-1.4-6.6-4.27-21.22-6.4-32.5-2.12-11.28-4.99-28.38-6.38-38-1.38-9.63-3.19-23.58-4.03-31-0.84-7.42-1.97-18.67-2.51-25-0.54-6.33-1.03-20.05-1.08-30.5-0.05-10.45-0.02-23.86 0.07-29.81 0.12-7.88 0.47-10.6 1.31-10.04zm73.35 29.85c0.85 1.1 3.13 5.37 5.07 9.5 1.94 4.12 5.29 12.45 7.46 18.5 2.16 6.05 5.21 15.95 6.77 22 1.57 6.05 4.01 17.3 5.44 25 1.42 7.7 3.69 23.9 5.02 36 1.34 12.1 3.17 32.58 4.07 45.5 0.9 12.92 1.93 37.06 2.3 53.63 0.37 16.56 0.37 37.26 0 46-0.37 8.73-1.41 20.82-2.3 26.87-0.9 6.05-2.76 16.62-4.14 23.5-1.38 6.87-4.34 18.12-6.58 25-2.23 6.87-7.33 21.05-11.32 31.5-3.99 10.45-8.63 23.28-10.3 28.5-1.67 5.22-4.08 13.44-5.36 18.26-1.58 5.94-2.65 8.42-3.33 7.7-0.62-0.65-0.98-11.09-0.95-27.26 0.05-21.45 0.46-29.01 2.26-41.7 1.21-8.53 2.75-19.78 3.42-25 0.73-5.7 1.21-22.48 1.22-42 0-19.5-0.5-37.1-1.26-44-0.69-6.33-2.37-18.92-3.71-28-1.35-9.08-3.56-23.47-4.92-32-1.35-8.53-3.47-22.7-4.71-31.5-1.85-13.11-2.26-20.52-2.27-41-0.01-22.68 0.25-26.58 2.78-42 1.54-9.35 4.75-25.78 7.15-36.5 2.39-10.72 4.57-20.17 4.84-21 0.26-0.83 0.78-2.85 1.15-4.5 0.65-2.92 0.7-2.95 2.2-1zm-189.6 0.71c0.38 0.71 2.73 10.51 5.22 21.79 2.5 11.28 5.66 27.25 7.04 35.5 1.37 8.25 3.04 20.62 3.7 27.5 0.71 7.35 0.97 18.47 0.62 27-0.32 7.97-1.74 23.5-3.16 34.5-1.42 11-4.58 32.37-7.04 47.5-2.45 15.12-5.18 34.92-6.07 44-0.98 10.06-1.61 25.87-1.61 40.5 0 13.2 0.52 29.62 1.16 36.5 0.63 6.87 2.35 20.6 3.83 30.5 2.3 15.39 2.69 21.26 2.7 40.5 0 12.37-0.35 24.75-0.79 27.5-0.45 2.82-1.15 4.56-1.61 4-0.45-0.55-1.81-5.05-3.02-10-1.22-4.95-3.82-13.95-5.77-20-1.96-6.05-6.37-18.2-9.81-27-3.43-8.8-8.14-21.85-10.46-29-2.33-7.15-5.28-18.17-6.56-24.5-1.28-6.33-3.02-16.45-3.86-22.5-0.83-6.05-1.76-15.05-2.05-20-0.29-4.95-0.77-15.3-1.05-23-0.29-7.7-0.07-26.83 0.48-42.5 0.56-15.67 1.92-40.2 3.04-54.5 1.11-14.3 2.94-33.42 4.07-42.5 1.13-9.08 3.37-23.25 5-31.5 1.62-8.25 4.33-20.17 6.01-26.5 1.68-6.33 4.53-15.33 6.33-20 1.81-4.67 4.75-11.42 6.53-15 1.79-3.58 3.97-7.3 4.85-8.29 1.22-1.37 1.75-1.49 2.28-0.5zm-19.85 0.84c0.41-0.03 0.75 0.51 0.76 1.2 0.01 0.69-1.36 5.3-3.03 10.25-1.68 4.95-4.8 15.75-6.95 24-2.15 8.25-4.83 19.72-5.96 25.5-1.13 5.78-2.93 16.58-4.01 24-1.07 7.42-2.64 19.12-3.47 26-0.84 6.87-2.2 20.37-3.02 30-0.82 9.62-1.98 27.85-2.56 40.5-0.59 12.65-1.73 35.83-2.55 51.5-0.81 15.67-2.4 34.8-3.53 42.5-1.12 7.7-3.41 20.53-5.09 28.5-1.67 7.97-5.18 21.03-7.81 29-2.62 7.97-8.14 21.7-12.26 30.5-4.12 8.8-8.41 18.25-9.54 21-1.12 2.75-2.38 5.9-2.79 7-0.57 1.51-0.98 0.66-1.68-3.5-0.61-3.61-0.47-14.44 0.39-31.5 0.72-14.3 1.26-37.47 1.2-51.5-0.07-14.56-1.26-44.16-2.78-69-1.47-23.92-2.67-52.95-2.67-64.5 0-11.55 0.49-27.08 1.08-34.5 0.59-7.42 1.99-19.8 3.11-27.5 1.12-7.7 2.93-17.6 4.02-22 1.09-4.4 3.14-11.6 4.57-16 1.42-4.4 4.69-12.5 7.27-18 2.57-5.5 6.88-13.38 9.56-17.5 2.69-4.13 8.51-11.14 12.94-15.59 4.43-4.44 11.2-9.96 15.05-12.25 3.85-2.29 9.7-5.04 13-6.11 3.3-1.07 6.34-1.97 6.75-2zm226.35-0.05c0.49 0 4.5 1.22 8.9 2.7 4.4 1.48 10.7 4.51 14 6.72 3.3 2.22 9.35 7.41 13.45 11.55 4.09 4.14 9.32 10.45 11.62 14.03 2.3 3.58 6.21 10.55 8.69 15.5 2.48 4.95 5.93 13.05 7.68 18 1.74 4.95 4.23 13.28 5.53 18.5 1.3 5.22 3.06 13.78 3.9 19 0.85 5.22 2.12 14.9 2.83 21.5 0.81 7.49 1.29 24.77 1.27 46-0.02 26.24-0.67 43.81-2.85 77-2.4 36.46-2.75 47.11-2.29 70 0.29 14.85 1.06 34.2 1.71 43q1.17 16 0.23 23c-0.69 5.15-1.15 6.47-1.74 5-0.45-1.1-4.4-9.88-8.79-19.5-4.39-9.63-8.88-19.75-9.99-22.5-1.11-2.75-3.99-10.85-6.4-18-2.42-7.15-5.93-19.97-7.81-28.5-1.88-8.53-4.1-20.22-4.93-26-0.83-5.78-1.98-15.9-2.55-22.5-0.57-6.6-1.72-29.33-2.56-50.5-0.84-21.17-1.98-45.25-2.54-53.5-0.56-8.25-1.9-23.33-2.99-33.5-1.08-10.17-3.55-27.95-5.48-39.5-1.94-11.55-5.3-28.2-7.48-37-2.17-8.8-5.55-20.72-7.5-26.5-1.95-5.78-3.83-11.29-4.18-12.25-0.35-0.96-0.23-1.75 0.27-1.75zm-183.53 166c0.51 0 0.92 0.11 0.92 0.25-0.01 0.14 1.36 8.58 3.05 18.75 1.68 10.17 4.92 26.76 7.2 36.86 3.14 13.98 4.09 20.19 3.95 26-0.1 4.2-0.84 16.86-1.65 28.14-0.8 11.28-1.94 32.87-2.52 48-0.58 15.12-1.51 33.12-2.07 40-0.55 6.87-1.94 18.12-3.09 25-1.14 6.87-3.33 16.78-4.86 22-1.54 5.22-4.65 14.67-6.92 21-2.27 6.33-4.35 11.72-4.63 12-0.28 0.28-0.49-0.96-0.48-2.75 0.02-1.79 0.76-12.81 1.64-24.5q1.61-21.25 1.08-39.25c-0.32-10.75-1.66-26.66-3.33-39.5-2.52-19.43-2.79-24.49-2.83-52.5-0.02-26.4 0.32-33.89 2.31-50.5 1.28-10.72 3.66-27.6 5.29-37.5 1.62-9.9 3.64-21.04 4.48-24.75 0.84-3.71 1.94-6.75 2.46-6.75zm141.95 0.5c0.48 0.55 2 7.08 3.36 14.5 1.37 7.42 3.4 20.25 4.52 28.5 1.12 8.25 2.71 21.08 3.53 28.5 0.83 7.42 2.02 20.47 2.65 29 0.66 8.86 0.88 22.14 0.52 31-0.35 8.53-1.77 25.4-3.17 37.5-1.43 12.46-2.78 31.1-3.12 43-0.45 16.05-0.16 25.95 1.23 42 1.01 11.55 1.5 21.9 1.1 23-0.53 1.47-2.16-2.26-6.09-14-2.95-8.8-6.28-19.6-7.39-24-1.12-4.4-2.54-10.92-3.18-14.5-0.63-3.58-1.79-11.67-2.58-18-0.79-6.33-2.1-27.7-2.93-47.5-0.82-19.8-2.16-44.33-2.98-54.5-0.82-10.17-1.49-20.97-1.49-24 0-3.03 1.77-13.15 3.94-22.5 2.18-9.35 5.06-23.08 6.41-30.5 1.35-7.42 2.98-16.88 3.62-21 0.7-4.49 1.52-7.1 2.05-6.5z"/>
	<path id="glutes" fill-rule="evenodd" class="s1" d="m756 1008.57c4.67 0.26 11.88 1.43 16 2.59 4.13 1.16 10.2 3.33 13.5 4.81 3.3 1.49 9.11 4.69 12.92 7.12 3.8 2.42 7.74 5.42 8.75 6.66 1 1.24 1.6 2.7 1.33 3.25-0.27 0.55-3.09 1.5-6.25 2.11-3.16 0.61-10.92 2.8-17.25 4.86-6.33 2.07-14.65 5.34-18.5 7.27-3.85 1.93-10.6 6.21-15 9.52-4.4 3.31-12.06 10.23-17.03 15.38-4.97 5.15-11.89 13.64-15.37 18.86-3.48 5.22-7.69 12.2-9.36 15.5-1.66 3.3-4.91 10.72-7.22 16.5-2.32 5.78-6.19 16.92-8.61 24.77-2.43 7.85-4.75 14.26-5.16 14.25-0.41-0.01-1.04-4.41-1.39-9.77-0.35-5.36-0.37-16.28-0.05-24.25 0.33-7.97 1.55-21.47 2.71-30 1.17-8.53 3.48-22.03 5.14-30 1.66-7.97 4.34-18.1 5.95-22.5 1.62-4.4 4.13-9.8 5.58-12 1.45-2.2 4.08-5.8 5.85-8 1.77-2.2 5.64-5.68 8.59-7.74 2.95-2.06 8.07-4.69 11.37-5.86 3.3-1.16 8.02-2.49 10.5-2.95 2.48-0.47 8.33-0.63 13-0.38zm239.5-0.03c4.4 0.24 10.48 1.16 13.5 2.06 3.02 0.89 7.98 2.87 11 4.39 3.02 1.51 7.03 4.05 8.9 5.63 1.87 1.59 5.33 5.58 7.68 8.88 2.35 3.3 5.84 10.05 7.76 15 1.92 4.95 4.65 14.51 6.07 21.25 1.43 6.74 3.29 16.86 4.14 22.5 0.85 5.64 2.19 16.32 2.99 23.75 0.79 7.42 1.4 18.67 1.35 25-0.05 6.32-0.41 15.32-0.79 20-0.39 4.67-0.98 7.82-1.31 7-0.33-0.83-2.25-7.13-4.27-14-2.01-6.88-5.59-17.45-7.96-23.5-2.36-6.05-6.2-14.83-8.53-19.5-2.34-4.68-6.78-12.32-9.89-16.98-3.1-4.66-9.07-12.09-13.26-16.5-4.18-4.41-11.05-10.72-15.25-14.02-4.2-3.3-10.44-7.7-13.88-9.77-3.44-2.08-9.4-4.98-13.25-6.45-3.85-1.47-12.63-4.3-19.5-6.3-10.3-2.99-12.5-3.96-12.5-5.51 0-1.07 2.01-3.41 4.67-5.43 2.57-1.95 8.19-5.4 12.5-7.67 4.31-2.28 10.75-5.12 14.33-6.33 3.58-1.2 8.98-2.58 12-3.06 3.02-0.47 9.1-0.67 13.5-0.44zm-186 37.5c4.13-0.04 9.05 0.63 12 1.64 3.15 1.07 6.69 3.38 9.58 6.26 2.52 2.51 7.55 9.06 11.18 14.56 3.63 5.5 8.61 14.05 11.06 19 2.46 4.95 5.83 13.28 7.5 18.5 1.67 5.22 3.52 12.42 4.11 16 0.59 3.57 1.36 15.28 1.71 26 0.41 12.84 0.21 23.26-0.59 30.5-0.67 6.05-2.34 14.82-3.71 19.5-1.37 4.67-4.7 12.78-7.39 18-3.04 5.89-7.28 12.12-11.17 16.41-3.46 3.8-9.66 9.17-13.78 11.93-4.13 2.76-10.2 6.27-13.5 7.8-3.3 1.52-10.05 3.93-15 5.35-4.95 1.42-17.1 3.91-27 5.53-9.9 1.63-21.15 4.02-25 5.32-3.85 1.3-9.92 3.82-13.5 5.59-3.58 1.78-9.99 5.67-14.25 8.65-4.26 2.98-8.42 5.64-9.25 5.92-1.21 0.4-1.5-0.53-1.5-4.75 0-2.89-0.46-10.2-1.01-16.25-0.55-6.05-1.94-15.95-3.08-22-1.13-6.05-3.61-17.3-5.51-25-3.01-12.23-3.45-15.64-3.49-27-0.02-7.15 0.65-17.28 1.49-22.5 0.84-5.22 3.05-14.45 4.91-20.5 1.86-6.05 5.07-15.28 7.13-20.5 2.07-5.22 6.01-13.78 8.76-19 2.75-5.22 7.55-13.04 10.65-17.36 3.11-4.32 9.59-11.63 14.4-16.25 4.81-4.61 12.69-10.96 17.5-14.09 4.81-3.14 12.35-7.39 16.75-9.46 4.4-2.07 11.37-4.65 15.5-5.74 4.12-1.1 10.65-2.02 14.5-2.06zm128.5 0.37c4.82 0.23 11.53 1.34 15.5 2.58 3.85 1.2 10.83 4.09 15.5 6.42 4.67 2.33 11.99 6.56 16.25 9.41 4.26 2.85 10.95 8.22 14.86 11.93 3.9 3.71 9.99 10.57 13.52 15.25 3.53 4.67 9.7 15.03 13.71 23 4.16 8.28 9.27 20.51 11.89 28.5 2.54 7.7 5.4 18.28 6.36 23.5 1.2 6.47 1.76 14.59 1.77 25.5 0.02 14.96-0.22 17-3.64 31.5-2.01 8.53-4.58 20.9-5.72 27.5-1.13 6.6-2.38 17.56-2.78 24.35-0.4 6.8-0.94 12.52-1.22 12.73-0.28 0.21-5.67-3-12-7.13-6.33-4.13-14.88-8.9-19-10.61-4.13-1.7-12.45-4.1-18.5-5.35-6.05-1.24-16.4-3.26-23-4.49-6.6-1.23-16.73-3.78-22.5-5.66-5.77-1.87-13.88-5.31-18-7.63-4.9-2.75-10.45-7.17-16-12.75-5.35-5.37-10.07-11.3-12.74-16-2.34-4.1-5.39-10.84-6.79-14.96-1.4-4.13-3.31-11.1-4.26-15.5-1.38-6.46-1.69-13-1.63-34 0.05-16.46 0.55-28.75 1.38-33.5 0.71-4.13 2.39-10.88 3.72-15 1.34-4.13 4.69-12 7.47-17.5 2.77-5.5 8.03-14.48 11.69-19.95 3.66-5.48 8.68-12.05 11.16-14.62 3.04-3.15 6.12-5.19 9.5-6.29 3.57-1.16 7.43-1.52 13.5-1.23z"/>
	<path id="obliques" fill-rule="evenodd" class="s1" d="m1020.5 881.5l0.66 16.5c0.37 9.08 1.39 19.88 2.28 24 0.88 4.13 3.37 13.8 5.53 21.5 2.16 7.7 4.65 17.6 5.53 22 0.89 4.4 2.04 12.5 2.58 18 0.53 5.5 0.68 13.83 0.33 18.5-0.34 4.67-0.83 8.73-1.09 9-0.25 0.27-2.34-0.57-4.64-1.88-2.3-1.31-6.65-3.65-9.68-5.2-3.02-1.55-8.2-3.58-11.5-4.51-4.21-1.19-10.15-1.73-33.91-1.91l-0.69-2.5c-0.39-1.38-0.74-6.1-0.79-10.5-0.05-4.4 0.38-10.92 0.96-14.5 0.58-3.58 2.18-9.88 3.56-14 1.38-4.13 6.05-14.7 10.37-23.5 4.32-8.8 11.74-22.3 16.5-30 4.75-7.7 9.85-15.58 11.32-17.5zm-294.6 2.54c0.33 0.02 1.19 0.81 1.9 1.75 0.72 0.94 4.95 7.11 9.4 13.71 4.54 6.73 12.19 20.35 17.42 31 5.13 10.45 10.77 23.27 12.53 28.5 2.88 8.52 3.24 10.94 3.57 23.5 0.21 7.7 0.01 14.53-0.42 15.18-0.61 0.89-2.72 0.91-8.8 0.07-5.97-0.83-10.34-0.81-17.25 0.07-5.09 0.65-12.06 2.23-15.5 3.52-3.44 1.28-8.95 4.01-12.25 6.06-3.3 2.05-6.36 3.36-6.81 2.92-0.45-0.45-0.85-7.8-0.91-16.32-0.06-10.89 0.42-18.18 1.63-24.5 0.95-4.95 2.63-12.38 3.72-16.5 1.1-4.13 3.05-11.33 4.34-16 1.29-4.67 3.08-12.1 3.97-16.5 0.9-4.4 1.91-14.41 2.24-22.25 0.34-7.84 0.89-14.23 1.22-14.21z"/>
	<path id="lower-back" fill-rule="evenodd" class="s1" d="m862 829.96c0.83-0.01 2.16 1.23 2.97 2.76 1.27 2.39 1.52 19.18 1.83 119.78 0.2 64.35 0.1 119.36-0.22 122.25-0.32 2.89-1.03 5.25-1.58 5.25-0.55 0-7.69-8.89-15.86-19.75-8.17-10.86-18.41-23.54-22.75-28.18-4.34-4.63-11.49-11.09-15.89-14.36-4.4-3.27-12.5-8.09-18-10.72-5.5-2.63-10.34-5.5-10.75-6.38-0.41-0.89-0.76-6.9-0.77-13.36-0.01-6.46-0.66-16.48-1.45-22.25-0.78-5.78-2.17-12.98-3.08-16-0.9-3.03-4.1-10.67-7.09-17-3-6.33-5.31-12.35-5.15-13.38 0.19-1.23 4.37-4.17 12.06-8.5 6.48-3.64 15.93-9.54 21-13.1 5.08-3.57 15.11-12.35 22.29-19.5 8.45-8.43 17.19-18.54 24.78-28.69 6.45-8.61 12.72-16.38 13.94-17.25 1.22-0.88 2.89-1.6 3.72-1.62zm21.61 0.04c0.77 0 3.25 1.69 5.52 3.75 2.27 2.06 7.79 8.9 12.25 15.2 4.58 6.46 13.79 17.31 21.12 24.88 7.15 7.39 17.57 16.86 23.16 21.05 5.59 4.19 15.62 10.54 22.3 14.12 6.68 3.58 12.9 7.31 13.84 8.3 1.61 1.7 1.37 2.45-4.45 14-3.38 6.71-6.84 14.45-7.68 17.2-0.85 2.75-2.07 7.7-2.71 11-0.65 3.3-1.47 13.95-1.82 23.66-0.35 9.72-0.87 17.85-1.14 18.08-0.27 0.23-4.55 2.58-9.5 5.22-4.95 2.64-12.36 7.1-16.46 9.92-4.1 2.81-11.3 8.98-16 13.7-4.7 4.72-14.91 16.87-22.7 27-7.79 10.13-15.1 19.32-16.26 20.42-1.15 1.1-2.43 1.63-2.84 1.17-0.41-0.46-0.74-55.86-0.74-123.1 0-101.71 0.23-122.54 1.36-123.92 0.75-0.91 1.99-1.65 2.75-1.65z"/>
	<path id="back" fill-rule="evenodd" class="s1" d="m674.65 597c1.59 0 3.18 1.21 4.92 3.75 1.41 2.06 5.06 8.02 8.1 13.25 3.04 5.23 8.72 13.77 12.62 19 3.9 5.23 12.74 15.15 19.65 22.05 8.87 8.85 15.67 14.59 23.13 19.5 5.82 3.82 12.68 8.19 15.25 9.7 2.58 1.51 4.68 3.42 4.68 4.25 0 0.84-1.64 2.05-3.75 2.75-2.3 0.77-9.16 1.24-17.75 1.23-10.01-0.01-16.28-0.55-22-1.87-4.4-1.02-11.83-3.5-16.5-5.52-4.67-2.03-11.65-5.75-15.5-8.28-3.85-2.53-9.81-7.58-13.25-11.21-4.77-5.04-6.6-7.84-7.75-11.85-0.82-2.89-1.78-10.2-2.13-16.25-0.36-6.34-0.16-14.6 0.48-19.5 0.61-4.67 1.82-10.52 2.69-13 0.86-2.48 2.29-5.29 3.16-6.25 0.88-0.96 2.65-1.75 3.95-1.75zm396.4 0c1.07 0 2.98 1.24 4.23 2.75 1.42 1.7 2.99 5.98 4.12 11.25 1.51 6.97 1.76 11.46 1.37 25-0.34 12.37-0.88 17.44-2.12 20.25-0.91 2.06-3.56 5.83-5.9 8.37-2.34 2.53-6.95 6.65-10.25 9.15-3.3 2.49-10.5 6.7-16 9.34-5.5 2.64-14.05 5.8-19 7.02-6.98 1.71-12.03 2.21-22.5 2.23-7.54 0.02-15.38-0.49-17.75-1.16-2.58-0.73-4.25-1.79-4.25-2.7 0-0.83 1.46-2.56 3.25-3.86 1.79-1.3 5.5-3.55 8.25-5.01 2.75-1.46 9.05-5.69 14-9.39 4.94-3.71 13.51-11.24 19.03-16.74 5.51-5.5 13.41-14.5 17.55-20 4.14-5.5 10.15-14.5 13.37-20 3.21-5.5 6.92-11.46 8.24-13.25 1.32-1.79 3.28-3.25 4.36-3.25zm-401.55 78c0.28 0 3.31 2.27 6.75 5.05 3.44 2.77 11.65 7.72 18.25 11 6.6 3.27 15.6 6.93 20 8.14 6.83 1.86 10.71 2.19 26.5 2.25 16.85 0.05 19.77-0.21 32.79-2.94 10.72-2.25 14.72-2.73 16-1.93 0.94 0.6 2.7 3.07 3.91 5.5 1.21 2.44 7.13 14.55 13.16 26.93 6.02 12.38 16.92 32.4 24.21 44.5 7.3 12.1 14.65 24.92 16.35 28.5 2.39 5.04 3.08 7.85 3.07 12.5-0.02 4.61-0.68 7.28-2.85 11.5-1.56 3.02-6.57 10.45-11.13 16.5-4.56 6.05-11.4 14.6-15.2 19-3.81 4.4-10.5 11.08-14.87 14.84-4.37 3.77-12.89 10.14-18.94 14.16-6.05 4.02-15.16 9.38-20.25 11.91-7.09 3.52-9.78 4.4-11.5 3.77-1.26-0.47-4.97-4.97-8.43-10.25-3.4-5.19-9.31-13.93-13.12-19.43-3.82-5.5-9.25-14.05-12.07-19-2.83-4.95-7.37-15.08-10.1-22.5-2.72-7.42-6.78-18.67-9.01-25-2.22-6.33-8.15-24.55-13.18-40.5-5.02-15.95-10.88-35.98-13.02-44.5-2.14-8.52-4.78-20.67-5.86-27-1.09-6.33-1.98-14.09-1.97-17.25 0.01-3.16 0.24-5.75 0.51-5.75zm406.75 0.09c0.41-0.05 0.75 2.05 0.75 4.66 0 2.61-0.9 10.26-2 17-1.1 6.74-3.14 17.09-4.53 23-1.4 5.91-4.59 17.73-7.1 26.25-2.5 8.52-8.17 26.75-12.59 40.5-4.41 13.75-11.13 33.1-14.92 43-3.79 9.9-8.8 21.34-11.13 25.42-2.33 4.09-10.6 17.14-18.38 29-7.78 11.87-14.84 22.03-15.69 22.58-1.17 0.75-4.13-0.29-11.86-4.17-5.66-2.84-15.7-8.76-22.3-13.15-6.6-4.38-14.92-10.52-18.5-13.63-3.57-3.1-9.13-8.66-12.35-12.35-3.22-3.68-10.08-12.33-15.25-19.2-5.17-6.88-10.74-15.2-12.38-18.5-2.07-4.19-2.97-7.51-2.99-11-0.02-3.45 0.85-6.86 2.8-11 1.55-3.3 8.47-15.45 15.37-27 6.9-11.55 16.82-29.33 22.06-39.5 5.23-10.17 11.47-23.18 13.88-28.89 2.7-6.45 5.12-10.76 6.36-11.36 1.42-0.69 6.18-0.14 16.5 1.89 12.88 2.54 16.56 2.85 33 2.81 17.28-0.05 19.09-0.24 27.5-2.82 4.95-1.52 13.05-4.78 18-7.25 4.95-2.47 12.6-7.13 17-10.34 4.4-3.22 8.34-5.9 8.75-5.95z"/>
	<path id="teres" fill-rule="evenodd" class="s1" d="m743.37 519.97c1.17-0.02 2.86 0.77 3.76 1.75 0.9 0.98 2.32 3.13 3.17 4.78 0.84 1.65 3.14 7.95 5.09 14 1.96 6.05 4.67 16.17 6.02 22.5 1.35 6.33 4.98 26.58 8.06 45 3.08 18.42 7.16 40.47 9.07 49 1.91 8.52 3.47 16.51 3.47 17.75-0.01 1.33-0.93 2.71-2.26 3.38-1.24 0.62-3.83 0.91-5.75 0.65-1.92-0.26-8.23-2.77-14-5.58-5.77-2.8-13.64-7.48-17.49-10.4-3.84-2.91-10.09-8.22-13.88-11.8-3.79-3.58-9.69-9.88-13.12-14-3.43-4.13-8.48-10.88-11.24-15-2.75-4.13-6.26-9.98-7.78-13-1.53-3.03-3.84-8.65-5.15-12.5-1.3-3.85-2.35-8.58-2.33-10.5 0.03-3.14 1.29-4.72 12.37-15.5 6.79-6.6 15.16-15.6 18.61-20 3.45-4.4 8.74-12.28 11.76-17.5 3.01-5.23 6.39-10.29 7.49-11.25 1.1-0.96 2.96-1.76 4.13-1.78zm259.38 0c0.96-0.01 2.71 1 3.88 2.25 1.17 1.26 4.76 6.55 7.97 11.78 3.21 5.22 9.29 13.77 13.51 19 4.22 5.22 12.38 14 18.13 19.5 5.75 5.5 10.69 10.9 10.98 12 0.29 1.1-0.46 5.15-1.67 9-1.21 3.85-3.9 10.37-5.99 14.5-2.08 4.12-5.62 10.2-7.85 13.5-2.23 3.3-6.61 9.15-9.73 13-3.11 3.85-9.45 10.74-14.07 15.32-4.63 4.58-12.68 11.19-17.91 14.69-5.23 3.5-12.42 7.92-16 9.8-3.58 1.89-8.3 3.76-10.5 4.16-2.65 0.47-4.94 0.26-6.79-0.63q-2.79-1.34-2.75-3.59c0.02-1.24 1.58-8.89 3.45-17 1.88-8.11 4.77-22.85 6.43-32.75 1.66-9.9 3.99-24.08 5.17-31.5 1.18-7.42 3.28-19.13 4.66-26 1.39-6.88 4.09-17.67 6.02-24 1.92-6.33 4.35-13.19 5.4-15.25 1.05-2.06 2.81-4.65 3.91-5.75 1.1-1.1 2.79-2.01 3.75-2.03z"/>
	<path id="shoulders" fill-rule="evenodd" class="s1" d="m664 474.7c-1.38 0.23-6.77 1.55-12 2.92-5.23 1.38-12.65 3.97-16.5 5.75-3.85 1.78-9.7 5.07-13 7.3-3.3 2.22-8.48 6.29-11.5 9.04-3.02 2.74-8.07 8.32-11.2 12.39-3.14 4.07-7.89 11.67-10.57 16.9-2.67 5.23-6.29 13.77-8.03 19-1.75 5.23-4.07 13.77-5.17 19-1.09 5.23-2.5 15.13-3.13 22-0.86 9.24-0.87 16.15-0.06 26.5 0.6 7.7 1.67 16.6 2.38 19.77 0.7 3.17 1.73 5.76 2.28 5.75 0.55-0.01 1.56-0.91 2.25-2.02 0.69-1.1 5.86-6.09 11.5-11.08 5.64-5 13.85-11.45 18.25-14.34 4.4-2.89 10.48-6.6 13.5-8.24 3.02-1.64 11.34-5.65 18.48-8.91 7.15-3.26 16.82-8.19 21.5-10.95 4.69-2.76 13.02-8.46 18.52-12.65 5.5-4.2 13.85-11.62 18.55-16.48 4.72-4.89 12.23-14.34 16.75-21.1 4.51-6.74 9.54-14.84 11.17-18 1.64-3.16 2.99-6.65 3-7.75 0.01-1.1-0.88-3.46-1.97-5.25-1.28-2.07-4.26-4.39-8.25-6.39-3.44-1.73-11.42-5.36-17.75-8.06-6.33-2.71-12.85-5.73-14.5-6.73-1.65-1-5.7-3.45-9-5.46-4.2-2.54-7.05-3.59-9.5-3.49-1.92 0.08-4.63 0.34-6 0.58zm408.5 0.02c-1.1 0.27-5.6 2.66-10 5.31-4.4 2.64-13.85 7.37-21 10.49-7.15 3.13-15.03 6.7-17.5 7.93-2.48 1.24-5.53 3.56-6.78 5.15-1.26 1.6-2.27 4.14-2.25 5.65 0.01 1.51 1 4.66 2.19 7 1.18 2.34 4.17 7.4 6.63 11.25 2.47 3.85 7.54 11.05 11.27 16 3.73 4.95 9.86 11.99 13.61 15.64 3.76 3.66 11.11 9.96 16.33 14.01 5.22 4.05 13.1 9.48 17.5 12.07 4.4 2.58 14.97 7.94 23.5 11.9 8.53 3.96 18.42 8.98 22 11.16 3.58 2.18 9.42 6.02 13 8.55 3.58 2.52 11.14 9.11 16.81 14.63 8.13 7.92 10.49 9.72 11.18 8.54 0.47-0.83 1.36-4.65 1.98-8.5 0.61-3.85 1.55-12.4 2.09-19 0.64-7.87 0.63-15.96-0.02-23.5-0.55-6.33-1.72-15.33-2.61-20-0.89-4.67-2.67-12.1-3.96-16.5-1.29-4.4-3.65-11.15-5.23-15-1.59-3.85-4.71-10.15-6.94-14-2.23-3.85-6.92-10.57-10.42-14.93-3.51-4.36-9.08-10.11-12.38-12.77-3.3-2.67-10.28-7.04-15.5-9.72-5.22-2.68-13.1-6-17.5-7.38-4.4-1.39-11.49-3.01-15.75-3.61-4.26-0.6-7.86-1.04-8-0.97-0.14 0.06-1.15 0.33-2.25 0.6z"/>
	<path id="trazepius" fill-rule="evenodd" class="s2" d="m849.09 316.73c-1.87 0.97-4.12 2.67-5.01 3.77-0.88 1.1-4.21 9.65-7.4 19-3.19 9.35-7.82 21.27-10.3 26.5-2.48 5.23-6.92 13.1-9.87 17.5-2.95 4.4-7.98 10.55-11.19 13.66-3.2 3.11-9.2 8.07-13.32 11.02-4.13 2.94-12.9 8.33-19.5 11.98-6.6 3.64-22.13 11.9-34.5 18.35-12.38 6.46-28.13 15.28-35 19.6-6.88 4.33-13.27 8.43-14.21 9.13-0.94 0.69-1.75 1.93-1.79 2.76-0.05 1.02 6.4 4.28 20.21 10.22 11.16 4.79 23.21 10.57 26.79 12.84 3.58 2.27 8.67 6.23 11.32 8.79 2.65 2.56 6.32 6.67 8.15 9.15 1.84 2.48 4.91 7.65 6.83 11.5 1.92 3.85 4.88 11.27 6.59 16.5 1.7 5.23 4.42 15.8 6.03 23.5 1.62 7.7 4.34 23 6.04 34 1.71 11 4.02 25.17 5.14 31.5 1.12 6.33 3.34 16.67 4.92 23 1.58 6.33 4.28 15.77 5.99 21 1.71 5.23 6.06 16.92 9.67 26 3.6 9.08 9.03 21.45 12.06 27.5 3.03 6.05 10.91 20.67 17.52 32.5 6.61 11.83 14.09 24.87 16.63 29 2.53 4.12 5.73 8.77 7.11 10.33 1.52 1.72 3.27 2.7 4.46 2.5 1.35-0.23 2.26-1.57 2.93-4.33 0.59-2.46 0.99-52.05 1.04-128.5 0.06-113.91-0.08-125.65-1.71-138-0.98-7.42-2.7-17.1-3.81-21.5-1.15-4.49-5.51-15.23-9.96-24.5-6.62-13.8-7.91-17.32-7.92-21.5-0.01-4.12 1.21-7.56 6.86-19.5 3.78-7.98 7.85-17.65 9.05-21.5 1.2-3.85 3.02-11.05 4.04-16 1.03-4.95 2.41-14.63 3.08-21.5 0.76-7.91 1-20.39 0.65-34-0.35-13.86-1.02-22.89-1.88-25.4-0.73-2.15-2.46-4.73-3.83-5.74-1.38-1.01-3.85-2.07-5.5-2.37-1.85-0.32-4.31 0.15-6.41 1.24zm37.16-0.19c-2.06 0.93-3.87 2.83-4.96 5.21-1.43 3.14-1.76 7.95-2.08 29.75-0.24 15.85 0.06 29.9 0.77 36 0.63 5.5 1.98 13.82 2.99 18.5 1.01 4.67 2.82 11.42 4.01 15 1.2 3.57 5.16 12.8 8.79 20.5 5.02 10.63 6.7 15.32 7 19.5 0.38 5.16-0.04 6.39-6.78 20-3.95 7.97-8.22 17.65-9.49 21.5-1.28 3.85-3.04 11.27-3.91 16.5-0.88 5.22-2.08 17.6-2.67 27.5-0.69 11.61-0.96 58.86-0.75 133.04 0.31 107.55 0.44 115.23 2.08 117.75 0.97 1.51 2.51 2.6 3.46 2.46 0.94-0.14 3.6-2.95 5.9-6.25 2.3-3.3 8.55-13.65 13.89-23 5.34-9.35 13.68-24.42 18.53-33.5 4.85-9.08 11.5-22.8 14.78-30.5 3.29-7.7 7.62-18.73 9.63-24.5 2.01-5.77 4.97-15 6.57-20.5 1.6-5.5 4.03-15.17 5.39-21.5 1.37-6.33 4.32-23.2 6.57-37.5 2.24-14.3 5.17-31.4 6.51-38 1.34-6.6 3.61-16.05 5.04-21 1.43-4.95 3.8-11.7 5.26-15 1.46-3.3 4.23-8.7 6.16-12 1.93-3.3 6.22-8.86 9.54-12.35 3.31-3.49 8.49-7.98 11.52-9.98 3.02-1.99 12.25-6.61 20.5-10.25 8.25-3.65 17.86-7.71 21.36-9.03 3.5-1.31 6.65-2.95 7-3.64 0.35-0.69-0.26-2.19-1.36-3.33-1.1-1.14-7.85-5.72-15-10.18-7.15-4.46-25.83-14.82-41.5-23.03-15.67-8.21-33.19-17.69-38.93-21.07-6.91-4.07-13.45-9.01-19.37-14.64-4.95-4.7-11.31-12.07-14.26-16.5-2.92-4.4-7.19-12.05-9.49-17-2.29-4.95-5.21-11.93-6.48-15.5-1.27-3.58-3.67-11-5.33-16.5-1.66-5.5-3.88-11.13-4.92-12.5-1.04-1.38-3.54-3.29-5.56-4.25-2.01-0.96-4.45-1.73-5.41-1.71-0.96 0.02-3.21 0.7-5 1.5z"/>
</svg>