<svg version="1.2" xmlns="http://www.w3.org/2000/svg" viewBox="0 0 1746 2432" width="1746" height="2432">
	<style>
		.s0 { fill: #403f4d } 
		.s1 { fill: #8c97a9 } 
		.s2 { fill: #8f97aa } 
	</style>
	<path id="Color Fill 1" fill-rule="evenodd" class="s0" d="m873.5 91.1c7.7-0.05 16.92 0.38 20.5 0.94 3.58 0.56 10.77 2.42 16 4.12 5.23 1.7 13.33 5.05 18 7.45 4.67 2.4 11.09 6.39 14.25 8.88 3.16 2.48 8.24 7.55 11.28 11.26 3.04 3.71 7.27 10.13 9.4 14.25 2.13 4.13 4.61 9.97 5.51 13 0.91 3.03 2.3 9.78 3.1 15 0.79 5.22 1.44 15.35 1.43 22.5 0 7.15-0.64 17.5-1.42 23-0.77 5.5-1.33 10.08-1.23 10.17 0.1 0.1 2.03-0.35 4.29-1 3.53-1 4.48-0.92 6.75 0.58 1.45 0.96 3.37 3.44 4.26 5.5 1.25 2.89 1.5 5.7 1.09 12.25-0.3 4.68-1.71 13-3.14 18.5-1.48 5.67-4.98 14.87-8.09 21.25-3.01 6.19-6.27 11.66-7.23 12.15-0.96 0.5-3.44 1.18-5.5 1.5-2.84 0.46-3.86 1.15-4.22 2.85-0.25 1.24-1.18 8.32-2.06 15.75-1.13 9.57-2.29 14.95-3.97 18.5-1.7 3.59-5.98 8.44-15.18 17.22-7.05 6.73-16.94 15.5-21.98 19.5-5.03 4.01-11.56 8.73-14.5 10.51-2.93 1.78-8.04 3.74-11.34 4.36-3.44 0.65-11.75 0.95-19.5 0.71-13.11-0.41-13.68-0.52-19.91-3.86-3.52-1.89-11.17-7.24-17-11.89-5.82-4.65-16.51-14.33-23.75-21.5-10.52-10.43-13.37-13.85-14.21-17.05-0.57-2.2-1.75-10.07-2.61-17.5-0.87-7.43-1.78-14.51-2.05-15.75-0.38-1.81-1.15-2.25-3.97-2.25-1.92 0-4.4-0.45-5.5-1-1.1-0.55-3.41-3.81-5.14-7.25-1.72-3.44-4.69-10.3-6.59-15.25-1.91-4.95-4.31-13.05-5.35-18-1.04-4.95-1.9-11.7-1.9-15-0.01-3.74 0.64-7.31 1.73-9.48 0.96-1.91 2.97-4.16 4.46-5 2.13-1.2 3.58-1.31 6.78-0.52 4.02 0.98 4.08 0.96 3.57-1.5-0.28-1.37-1.05-9.7-1.7-18.5-0.92-12.22-0.93-18.6-0.04-27 0.63-6.05 2.06-14.49 3.17-18.75 1.1-4.26 3.05-10.11 4.33-13 1.27-2.89 4.18-7.95 6.46-11.25 2.28-3.3 5.85-7.84 7.93-10.1 2.09-2.25 6.27-6.07 9.29-8.5 3.02-2.42 8.88-6.17 13-8.32 4.13-2.15 11.33-5.22 16-6.83 4.67-1.6 11.65-3.51 15.5-4.24 3.85-0.73 13.3-1.37 21-1.41zm-77.25 248.92c0.69 0 11.6 10.27 24.25 22.82 12.65 12.55 24.58 23.77 26.5 24.95 2.54 1.55 6.52 2.46 14.5 3.29 6.51 0.68 15.69 0.88 22.5 0.48 8.22-0.49 12.78-1.25 16-2.69 3.17-1.42 11.44-8.81 27.92-24.94 12.89-12.61 23.69-22.93 24-22.93 0.32-0.01 0.92 8.21 1.34 18.25 0.41 10.04 1.23 20.05 1.82 22.25 0.81 3.03 3.19 6.06 9.8 12.5 4.8 4.68 11.18 9.96 14.17 11.74 3 1.78 10.62 5.51 16.95 8.3 6.33 2.78 16.23 7.32 22 10.09 5.78 2.77 15.9 8.08 22.5 11.81 6.6 3.72 15.94 8.86 20.75 11.42 8.01 4.25 9.34 4.64 15.75 4.64 3.85 0 11.61 0.69 17.25 1.54 5.64 0.85 14.3 2.9 19.25 4.55 4.95 1.65 12.6 4.83 17 7.06 4.4 2.23 10.7 5.97 14 8.32 3.3 2.35 8.19 6.24 10.88 8.65 2.68 2.41 7.42 7.76 10.53 11.88 3.11 4.13 8.22 12.68 11.36 19 3.14 6.33 7.47 16.9 9.61 23.5 2.14 6.6 4.71 16.73 5.7 22.5 1.24 7.18 1.83 15.87 1.86 27.5 0.04 9.35-0.58 22.63-2.77 42l5.77 14c3.18 7.7 7.81 19.17 10.3 25.5 2.49 6.33 5.85 16 7.45 21.5 1.61 5.5 3.78 15.85 4.81 23 1.03 7.15 2.4 19.75 3.03 28 0.63 8.25 1.77 18.6 2.52 23 0.85 4.9 2.74 10.72 4.89 15 1.92 3.85 7.84 13.52 13.15 21.5 5.31 7.98 13.05 19.9 17.2 26.5 4.15 6.6 10.38 17.85 13.83 25 3.46 7.15 7.41 16.38 8.77 20.5 1.37 4.13 4.33 16.95 6.58 28.5 2.26 11.55 5.22 26.85 6.6 34 1.37 7.15 4.12 19.08 6.1 26.5 1.98 7.42 6.19 20.02 9.35 28 3.16 7.98 9.21 23.05 13.46 33.5 4.24 10.45 8.57 20.69 9.61 22.75 1.05 2.06 3.15 4.67 4.66 5.78 1.51 1.12 3.2 2.03 3.75 2.01 0.55-0.01 9.31 4.14 19.46 9.22 12.81 6.41 19.69 10.48 22.5 13.28 2.22 2.23 6.07 6.71 8.54 9.95 2.47 3.25 7.51 8.4 11.19 11.46 3.67 3.05 8.91 8.25 11.63 11.55 2.89 3.52 8.09 8.07 12.56 11 4.19 2.75 7.9 5.9 8.23 7 0.35 1.17-0.17 3.16-1.25 4.81-1.02 1.55-3.66 3.49-5.86 4.32-3.34 1.25-5.08 1.31-10.5 0.33-3.58-0.64-8.97-2.29-12-3.66q-5.5-2.49-14.5-11.24c-4.95-4.81-10.35-9.46-12-10.33-1.65-0.86-5.03-1.62-7.5-1.68-2.47-0.07-9.45 0.18-15.5 0.53-9.72 0.57-11.75 0.39-17.5-1.54-3.58-1.2-9.31-3.95-12.75-6.11-3.44-2.16-6.26-3.59-6.26-3.18-0.01 0.41 2.35 3.09 5.25 5.95 3.18 3.15 8.02 6.5 12.26 8.5 6.88 3.24 7.26 3.3 37 3.62l2.18 2.84c1.2 1.56 8.7 16.34 16.68 32.84 7.97 16.5 17.17 37.2 20.45 46 3.28 8.8 6.29 18.03 6.67 20.5 0.51 3.21 0.25 5.57-0.88 8.25-0.88 2.06-2.61 4.26-3.85 4.88-1.82 0.92-3.02 0.76-6.25-0.83-2.2-1.09-5.36-3.74-7.02-5.89-1.67-2.15-4.98-8.86-7.37-14.91-2.39-6.05-8.68-19-13.98-28.78-5.29-9.78-10.19-17.99-10.88-18.25-0.9-0.34-1.11 0.45-0.76 2.78 0.27 1.79 2.58 8.42 5.12 14.75 2.55 6.33 7.9 20.05 11.89 30.5 3.99 10.45 8.21 22.38 9.37 26.5 1.16 4.13 2.12 8.74 2.12 10.25 0.01 1.51-0.66 4.1-1.49 5.75-0.83 1.65-2.4 3.45-3.5 4-1.1 0.55-3.24 0.99-4.75 0.97-1.51-0.01-4.1-1.06-5.75-2.33-1.65-1.26-4.87-5.86-7.15-10.22-2.28-4.36-6.85-14.22-10.16-21.92-3.3-7.7-8.75-20.97-12.09-29.5-3.35-8.53-6.79-16.4-7.66-17.5-1.51-1.92-1.55-1.88-0.96 1 0.34 1.65 3.82 11.78 7.73 22.5 3.91 10.72 8.39 23.78 9.96 29 1.57 5.22 3.13 11.53 3.47 14 0.35 2.47 0.34 5.74-0.01 7.25-0.39 1.69-1.79 3.33-3.63 4.25-1.65 0.83-4.24 1.28-5.75 1-1.51-0.27-4.1-1.77-5.75-3.33-1.65-1.56-4.51-6.4-6.35-10.75-1.84-4.36-8.49-20.52-14.77-35.92-6.29-15.4-11.64-28.22-11.9-28.5-0.27-0.28-0.71-0.28-0.99 0-0.28 0.28 0.63 5.45 2.03 11.5 1.4 6.05 4.1 16.63 6 23.5 1.9 6.88 3.46 14.64 3.47 17.25 0.01 3.67-0.5 5.21-2.24 6.77-1.24 1.11-3.15 2.01-4.25 2.01-1.1-0.01-3.01-0.69-4.25-1.52-1.24-0.83-3.36-3.42-4.72-5.76-1.36-2.34-4.69-10.33-7.41-17.75-2.71-7.42-7.39-19.35-10.4-26.5-3-7.15-8.38-19.3-11.96-27-3.57-7.7-8.18-18.5-10.23-24-2.06-5.5-4.57-13.83-5.59-18.5-1.02-4.67-2.3-14.12-2.85-21-0.97-12.1-1.16-12.79-5.7-21.5-2.58-4.95-7.17-13.05-10.21-18-3.03-4.95-10.7-15.97-17.03-24.5-6.33-8.53-14.75-19.55-18.71-24.5-3.96-4.95-10.88-13.5-15.39-19-4.5-5.5-13.27-16.3-19.49-24-6.22-7.7-14.1-18.27-17.51-23.5-3.41-5.23-9.52-16.25-13.57-24.5-4.04-8.25-8.9-19.5-10.78-25-1.89-5.5-4.59-14.95-6.01-21-1.41-6.05-3.51-17.3-4.66-25-1.15-7.7-2.7-17.83-3.45-22.5-1.2-7.58-2.06-9.69-7.97-19.5-3.64-6.05-9.04-16.4-12-23-2.96-6.6-7.05-16.5-9.09-22-2.04-5.5-4.98-14.95-9.34-32l-1.73 6c-0.95 3.3-3.73 11.63-6.18 18.5-2.45 6.88-7.29 18.35-10.76 25.5-3.47 7.15-9.79 18.4-14.04 25-4.26 6.6-8.57 13.8-9.57 16-1.46 3.17-2.26 10.12-3.86 33.5-1.11 16.23-2.03 32.09-2.03 35.25-0.01 4.14 0.93 8.2 3.35 14.5 1.85 4.81 4.08 11.23 4.95 14.25 0.88 3.02 2.3 9.55 3.15 14.5 0.86 4.96 1.55 14.62 1.54 21.5-0.01 6.88-0.42 15.2-0.92 18.5-0.5 3.3-1.17 9.49-1.5 13.75-0.56 7.5-0.39 8.32 5.35 25.5 3.25 9.76 6.64 21.58 7.52 26.25 0.87 4.67 2.96 19.53 4.63 33 1.66 13.47 3.89 29.67 4.93 36 1.05 6.33 3.91 20.72 6.37 32 2.45 11.28 6.29 29.72 8.52 41 2.24 11.28 4.95 26.35 6.04 33.5 1.09 7.15 2.88 20.2 3.99 29 1.11 8.8 2.73 24.1 3.6 34 0.87 9.9 1.84 32.4 2.15 50 0.33 18.18 0.08 43.87-0.57 59.5-0.63 15.13-1.61 33.58-2.18 41-0.56 7.42-1.91 19.58-3 27-1.08 7.42-3.07 19.13-4.41 26-1.35 6.88-3.54 17.22-4.87 23-1.34 5.78-4.79 19.5-7.68 30.5-2.89 11-6.32 23.94-7.61 28.75-1.89 7.02-2.26 10.39-1.88 17 0.27 4.54 0.71 13.2 0.98 19.25 0.27 6.05 0.76 26.97 1.09 46.5 0.42 24.41 1.09 38.47 2.15 45 0.84 5.22 2.86 14.9 4.47 21.5 1.62 6.6 5.13 22.13 7.8 34.5 2.67 12.38 5.77 28.35 6.9 35.5 1.13 7.15 2.58 18.85 3.23 26 0.74 8.14 0.97 21.23 0.6 35-0.32 12.1-1.29 27.17-2.17 33.5-0.87 6.33-2.49 16.22-3.6 22-1.11 5.78-3.59 17.7-5.52 26.5-1.93 8.8-5.71 25-8.4 36-2.69 11-5.81 24.5-6.94 30-1.13 5.5-3.21 16.08-4.61 23.5-1.41 7.42-4.52 24.08-6.92 37-2.41 12.93-5.52 31.38-6.92 41-1.41 9.63-3.24 23.13-4.09 30-0.84 6.88-1.53 15.54-1.53 19.25 0 4.91 0.82 9.13 3.03 15.5 1.66 4.81 3.3 11.22 3.63 14.25 0.39 3.55-0.06 9.27-3.16 26.73l4.44 5.88c2.44 3.24 8.97 11.29 14.5 17.89 5.53 6.6 13.21 15.31 17.06 19.37 3.85 4.05 9.7 9.49 13 12.09 3.3 2.6 10.5 7.79 16 11.54 5.5 3.75 15.15 10.68 21.44 15.41 6.3 4.72 12.72 10.39 14.28 12.59 1.74 2.46 2.83 5.25 2.81 7.25-0.02 2.23-1.05 4.38-3.28 6.86-1.8 2.01-6.36 5.07-10.25 6.88-3.85 1.8-10.15 4.03-14 4.97-3.85 0.94-10.6 2.34-15 3.12-4.4 0.78-11.49 1.42-15.75 1.42-5.13 0-9.69-0.67-19.25-3.96l-4.5 3.52c-2.47 1.94-6.3 4.01-8.5 4.59-2.2 0.59-6.7 0.8-10 0.48-3.3-0.33-9.6-1.75-14-3.17-4.4-1.41-11.71-4.34-16.25-6.51-4.54-2.17-9.89-5.41-11.89-7.2-2.01-1.79-5.72-6.13-8.25-9.66-2.54-3.53-5.73-7.36-7.11-8.53-1.59-1.35-6.31-2.93-13-4.36-5.77-1.23-13.31-3.58-16.75-5.22-4.58-2.18-6.99-4.1-9-7.16-2.49-3.79-2.74-4.99-2.64-12.75 0.07-5.95 1.53-15.46 4.75-31.07 2.55-12.37 4.64-23.85 4.64-25.5 0-1.65-1.39-8.62-3.11-15.5-1.78-7.18-3.1-15.05-3.09-18.5 0.02-4.2 1.23-9.74 4.03-18.5 2.2-6.87 4.53-14.75 5.17-17.5 0.64-2.75 1.4-16.7 1.7-31 0.33-16.07 0.09-31.35-0.64-40-0.64-7.7-1.84-19.62-2.66-26.5-0.82-6.87-2.61-20.6-3.99-30.5-1.37-9.9-3.37-23.17-4.44-29.5-1.07-6.33-3.53-16.9-5.46-23.5-1.94-6.6-5.55-18.97-8.03-27.5-2.48-8.53-5.83-21.58-7.46-29-1.63-7.42-3.65-19.35-4.49-26.5-0.84-7.15-1.53-17.95-1.52-24 0.01-6.05 0.68-17.3 1.5-25 0.82-7.7 2.86-21.65 4.54-31 1.67-9.35 4.4-24.65 6.07-34 1.67-9.35 3.27-20.6 3.56-25 0.29-4.4 0.07-12.05-0.51-17-0.57-4.95-2.67-14.17-4.67-20.5-2-6.33-5.16-17.8-7.01-25.5-1.86-7.7-4.5-19.62-5.86-26.5-1.37-6.87-3.18-17.45-4.03-23.5-0.85-6.05-2.26-17.75-3.13-26-0.87-8.25-2.24-20.85-3.04-28-0.8-7.15-1.9-21.1-2.44-31-0.54-9.9-1.43-27.9-1.98-40-0.55-12.1-1.45-28.3-2.01-36-0.56-7.7-1.46-19.85-2.01-27-0.55-7.15-2.14-20.65-3.54-30-1.4-9.35-3.84-24.65-5.43-34-1.59-9.35-3.81-23.97-4.92-32.5-1.12-8.53-2.7-22.7-3.53-31.5-0.83-8.8-1.95-22.53-2.49-30.5-0.55-7.97-1.29-21.47-2.3-45.5h-10.39c-8.56 0-10.39 0.26-10.4 1.5 0 0.83-0.46 11.4-1.01 23.5-0.54 12.1-1.67 29.88-2.5 39.5-0.83 9.63-2.65 26.95-4.05 38.5-1.39 11.55-4.08 30.45-5.96 42-1.88 11.55-4.33 27.19-5.45 34.75-1.11 7.56-2.69 24.44-3.5 37.5-0.82 13.06-1.72 25.44-2 27.5-0.29 2.06-1.19 18.94-2 37.5-0.82 18.56-2.41 42.53-3.53 53.25-1.13 10.72-2.51 24-3.07 29.5-0.56 5.5-1.92 16.53-3.01 24.5-1.1 7.97-3.58 22.38-5.52 32-1.93 9.63-5.36 24.03-7.61 32-2.25 7.97-5.12 18.33-6.38 23-1.81 6.69-2.31 11.21-2.35 21.25-0.04 9.41 0.59 16.22 2.39 26 1.34 7.29 3.81 21.58 5.49 31.75 1.68 10.17 3.76 23 4.63 28.5 0.86 5.5 1.82 18.78 2.14 29.5 0.36 12.26 0.14 23.21-0.6 29.5-0.64 5.5-2.3 15.63-3.7 22.5-1.39 6.88-4.07 18.35-5.95 25.5-1.87 7.15-5.9 20.88-8.94 30.5-3.99 12.61-6.22 21.97-8.01 33.5-1.36 8.8-3.81 26.58-5.44 39.5-1.64 12.92-3.67 30.25-4.52 38.5-0.9 8.72-1.54 24-1.53 36.5 0.02 12.68 0.61 25.81 1.44 32 0.79 5.9 3.21 16.19 5.54 23.5 3.22 10.14 4.13 14.54 4.12 20-0.01 3.85-0.72 9.03-1.59 11.5-0.87 2.47-2.27 8.32-3.12 13-1.25 6.89-1.33 9.83-0.43 15.5 0.62 3.85 2.71 14.2 4.66 23 1.94 8.8 3.79 19.6 4.09 24 0.46 6.73 0.23 8.64-1.45 12-1.1 2.2-3.52 5.29-5.38 6.87-1.87 1.58-5.19 3.78-7.39 4.87-2.2 1.1-8.05 2.87-13 3.93-4.95 1.06-10.57 2.7-12.48 3.63-1.91 0.94-4.97 3.73-6.79 6.2-1.83 2.47-4.76 6.36-6.52 8.64-1.77 2.28-5.23 5.37-7.71 6.87-2.48 1.49-9.9 4.98-16.5 7.76-7.24 3.04-14.86 5.47-19.21 6.13-5.65 0.86-8.25 0.81-12-0.23-2.63-0.73-6.81-2.8-13.79-7.9l-5 1.79c-3.11 1.11-8.03 1.81-13 1.86-4.4 0.04-12.27-0.61-17.5-1.45-5.23-0.84-12.76-2.41-16.75-3.5-3.99-1.08-9.84-3.26-13-4.84-3.16-1.58-7.21-4.5-9-6.5-1.98-2.21-3.26-4.7-3.26-6.38-0.01-1.51 1.34-4.89 3-7.5 2.08-3.29 6.48-7.31 14.26-13.06 6.19-4.57 16.88-12.07 23.75-16.67 9.05-6.06 15.68-11.56 24.04-19.94 6.34-6.37 15.37-16.3 20.05-22.08 4.69-5.78 10.74-13.35 18.41-23.16l-1.9-9.67c-1.33-6.77-1.72-11.62-1.28-16.17 0.34-3.57 2.03-10.78 3.76-16 3.01-9.11 3.11-9.97 2.52-21-0.33-6.32-2.39-23.65-4.56-38.5-2.17-14.85-6.01-38.25-8.55-52-2.53-13.75-5.91-32.2-7.51-41-1.6-8.8-5.83-27.7-9.39-42-3.57-14.3-8.51-36.12-10.98-48.5-2.47-12.37-5.17-27.45-6.01-33.5-0.83-6.05-2.01-18.87-2.61-28.5-0.81-12.81-0.8-21.92 0.01-34 0.62-9.08 1.99-23.03 3.05-31 1.06-7.97 3.94-24.17 6.39-36 2.45-11.83 6.56-30.28 13.78-60.5l0.85-38c0.46-20.9 1.31-47.67 1.88-59.5 1.02-21.11 1-21.68-1.37-31.5-1.33-5.5-4.25-16.53-6.48-24.5-2.24-7.97-5.61-21.25-7.49-29.5-1.89-8.25-4.35-19.5-5.47-25-1.12-5.5-2.96-16.3-4.08-24-1.12-7.7-2.74-22.78-3.6-33.5-0.9-11.33-1.8-38.57-2.14-65-0.4-30.31-0.19-52.18 0.6-65.5 0.66-11 2.05-28.1 3.11-38 1.05-9.9 2.39-21.6 2.97-26 0.58-4.4 1.75-12.28 2.58-17.5 0.84-5.22 2.66-15.58 4.05-23 1.39-7.42 5.17-25.65 8.4-40.5 3.23-14.85 6.79-32.4 7.92-39 1.13-6.6 3.4-23.36 5.05-37.25 1.65-13.89 3.95-29.64 5.11-35 1.17-5.36 3.37-13.58 4.89-18.25 1.53-4.67 4-11.65 5.49-15.5 2.5-6.43 2.67-7.82 2.19-17-0.28-5.5-1.04-14.05-1.68-19-0.65-5.04-0.9-13.18-0.57-18.5 0.33-5.22 1.27-13.33 2.09-18 0.81-4.67 2.2-10.75 3.09-13.5 0.88-2.75 3.19-9.27 5.12-14.5 3.41-9.2 3.5-9.81 2.9-19.5-0.33-5.5-1.3-19.22-2.14-30.5-0.84-11.27-1.98-22.97-2.54-26-0.55-3.02-1.84-6.85-2.85-8.5-1.02-1.65-5.56-8.85-10.1-16-4.54-7.15-10.17-17.05-12.52-22-2.35-4.95-5.5-11.92-7.01-15.5-1.51-3.58-4.9-13.02-7.55-21-2.64-7.97-4.83-13.83-4.86-13-0.03 0.83-1.65 7.13-3.6 14-1.95 6.88-5.8 18.13-8.54 25-2.75 6.88-8.66 19.25-13.12 27.5-4.47 8.25-8.93 16.58-9.92 18.5-0.99 1.92-2.52 8.9-3.41 15.5-0.89 6.6-2.72 18.3-4.08 26-1.36 7.7-3.83 18.73-5.5 24.5-1.67 5.78-4.63 14.78-6.57 20-1.95 5.23-6.17 14.67-9.39 21-3.21 6.33-9.12 16.45-13.14 22.5-4.01 6.05-13.37 18.37-20.79 27.37-7.43 9.01-18.61 22.73-24.86 30.5-6.24 7.77-16.45 20.88-22.67 29.13-6.22 8.25-14.98 20.85-19.46 28-4.48 7.15-9.69 16.15-11.57 20-3.12 6.36-3.52 8.24-4.44 20.5-0.61 7.99-2.06 17.58-3.57 23.5-1.41 5.5-4.5 14.72-6.87 20.5-2.36 5.78-6.22 14.33-8.56 19-2.34 4.67-6.19 13.22-8.56 19-2.37 5.78-5.41 12.97-6.75 16-1.34 3.03-4.35 10.9-6.68 17.5-2.33 6.6-5.17 13.8-6.3 16-1.13 2.2-3.22 5.03-4.63 6.28-1.42 1.26-3.82 2.27-5.33 2.25-1.51-0.01-3.43-0.7-4.25-1.53-0.82-0.83-1.74-2.51-2.04-3.75-0.3-1.24 0.1-5.17 0.89-8.75 0.78-3.58 3.52-14.6 6.09-24.5 2.57-9.9 4.5-19.12 4.3-20.5-0.34-2.34-0.42-2.37-1.22-0.5-0.48 1.1-7.32 17.53-15.21 36.5-7.89 18.97-15.35 35.53-16.58 36.78-1.23 1.26-3.69 2.72-5.48 3.25-2.31 0.69-4.04 0.61-5.97-0.28-1.5-0.69-3.21-2.15-3.8-3.25-0.72-1.32-0.8-4.2-0.25-8.5 0.45-3.58 3.69-14.83 7.2-25 3.51-10.17 8.23-23.9 10.5-30.5 2.26-6.6 3.88-12.11 3.59-12.25-0.28-0.14-1.15 0.99-1.92 2.5-0.77 1.51-4.64 10.63-8.61 20.25-3.96 9.63-9.68 23.13-12.71 30-3.03 6.88-6.75 14.97-8.27 18-1.52 3.03-4.17 6.96-5.89 8.75-2.35 2.45-3.98 3.25-6.62 3.25-1.93 0-4.4-0.45-5.5-1-1.1-0.55-2.68-2.58-3.5-4.5-1.31-3.06-1.32-4.35-0.1-10.25 0.77-3.71 4.55-15.08 8.41-25.25 3.85-10.17 9.79-25.47 13.2-34 3.4-8.53 6.48-16.75 6.84-18.27 0.45-1.91 0.26-2.77-0.6-2.75-0.69 0.01-5.04 7.11-9.68 15.77-4.64 8.66-10.08 19.35-12.1 23.75-2.01 4.4-5.42 11.71-7.57 16.25-2.53 5.35-5.04 9.1-7.15 10.67-1.79 1.33-4.37 2.72-5.75 3.07-1.93 0.5-3.14 0-5.29-2.17-2.44-2.47-2.78-3.55-2.73-8.82 0.04-3.69 0.98-8.5 2.43-12.5 1.31-3.58 4.41-11.9 6.88-18.5 2.48-6.6 11.02-25.28 18.98-41.5 7.96-16.22 15.32-30.28 16.35-31.23 1.67-1.55 2.75-1.62 9.88-0.66 5.8 0.78 10.06 0.76 15.5-0.06 4.13-0.62 10.2-2.39 13.5-3.93 3.3-1.55 8.36-4.91 11.25-7.47 2.89-2.56 5.02-5.1 4.75-5.65-0.29-0.58-1.64-0.2-3.25 0.92-1.51 1.05-5.68 3.29-9.25 4.98-3.91 1.85-9.29 3.42-13.5 3.94-3.85 0.48-9.7 0.52-13 0.1-3.3-0.43-8.36-0.81-11.25-0.86-3.27-0.05-6.66 0.62-9 1.79-2.06 1.02-7.35 5.55-11.75 10.06-5.62 5.76-9.78 9.04-14 11.03-3.3 1.56-8.48 3.39-11.5 4.07-3.02 0.68-7.19 0.95-9.25 0.6-2.06-0.35-5.32-1.98-7.25-3.63-2.27-1.94-3.5-3.88-3.5-5.5 0-2.05 1.41-3.36 7.75-7.23 5.66-3.45 12.06-9.07 23.75-20.84 8.8-8.87 17.57-18.08 19.5-20.47 1.93-2.39 5.75-5.79 8.5-7.54 2.75-1.76 13.21-7.3 41.5-21.42l4.44-9.25c2.44-5.09 8.67-19.6 13.85-32.25 5.18-12.65 10.34-25.47 11.46-28.5 1.12-3.02 3.21-9.77 4.63-15 1.42-5.22 3.68-14.45 5.01-20.5 1.33-6.05 4.3-21.12 6.6-33.5 2.3-12.37 5.3-26.77 6.66-32 1.37-5.22 5.05-15.12 8.18-22 3.14-6.87 8.37-17 11.64-22.5 3.26-5.5 11.79-18.77 18.95-29.5 7.15-10.72 14.47-22.42 16.26-26 1.93-3.86 3.86-9.95 4.76-15 0.83-4.67 2.21-17.05 3.07-27.5 0.85-10.45 2.01-21.92 2.56-25.5 0.56-3.58 1.92-10.33 3.02-15 1.11-4.67 3.31-12.33 4.89-17 1.58-4.67 5.42-14.35 8.53-21.5 3.11-7.15 7.05-16.83 11.87-30l-1.44-14c-0.79-7.7-1.37-20.52-1.29-28.5 0.08-7.97 0.84-18.77 1.7-24 0.85-5.22 3.19-14.9 5.19-21.5 2-6.6 5.76-16.5 8.35-22 2.59-5.5 6.88-13.37 9.53-17.5 2.65-4.12 8.7-11.35 13.45-16.06 6.05-6 11.62-10.33 18.63-14.45 5.5-3.24 13.6-7.3 18-9.04 4.4-1.73 12.27-4.15 17.5-5.39 5.38-1.27 14.49-2.48 32.5-3.33l15-8.02c8.25-4.42 16.58-9.02 18.5-10.23 1.92-1.21 8.23-4.58 14-7.48 5.77-2.9 16.58-7.92 24-11.15 7.42-3.24 15.95-7.34 18.95-9.12 2.99-1.78 9.37-7.05 14.17-11.73 6.61-6.44 8.99-9.47 9.8-12.5 0.59-2.2 1.07-12.44 1.07-22.75 0.01-14.34 0.3-18.75 1.26-18.73zm161.75 2091.44c25.58 0 35.92 0.13 23 0.29-12.92 0.16-33.85 0.16-46.5 0-12.65-0.16-2.08-0.29 23.5-0.29z"/>
	<path id="calves" fill-rule="evenodd" class="s1" d="m695.79 1708.97c0.39-0.02 1.49 0.77 2.44 1.75 0.94 0.98 3.58 6.06 5.85 11.28 2.27 5.22 5.46 13.55 7.08 18.5 1.62 4.95 4.23 13.95 5.81 20 1.57 6.05 4.22 17.75 5.88 26 1.66 8.25 4.17 24.22 5.58 35.5 1.4 11.28 3.05 28.6 3.66 38.5 0.61 9.9 1.25 42.53 1.41 72.5 0.17 29.97 0.8 61.47 1.42 70 0.61 8.53 1.77 22.25 2.58 30.5 0.81 8.25 2.8 25.35 4.42 38 1.62 12.65 3.91 30.65 5.1 40 1.44 11.37 1.82 17.33 1.15 18q-1 1-1.98-1c-0.53-1.1-3.33-10.1-6.22-20-2.88-9.9-7.44-25.65-10.12-35-2.69-9.35-7.55-27.58-10.81-40.5-3.26-12.92-9.3-37.67-13.43-55-4.13-17.33-8.86-38.25-10.51-46.5-1.65-8.25-3.69-19.72-4.53-25.5-0.85-5.78-2.19-16.8-3-24.5-0.8-7.7-2-23.45-2.65-35-0.71-12.51-0.94-29.89-0.56-43 0.35-12.1 1.52-30.55 2.61-41 1.09-10.45 2.87-25.08 3.97-32.5 1.1-7.42 2.47-15.19 3.06-17.25 0.59-2.06 1.4-3.76 1.79-3.78zm357.91 0.03c1.36 0 2.03 2.11 3.52 11.25 1.02 6.19 2.7 18 3.75 26.25 1.05 8.25 2.45 22.42 3.1 31.5 0.78 10.67 1 28.33 0.64 50-0.33 19.79-1.22 39.64-2.16 48.5-0.89 8.25-2.29 19.72-3.12 25.5-0.82 5.78-2.63 16.35-4.02 23.5-1.38 7.15-4.49 21.78-6.91 32.5-2.41 10.72-8.66 36.83-13.88 58-5.22 21.17-14.27 54.93-20.11 75-5.85 20.07-11.05 36.95-11.55 37.5-0.51 0.55-1.27 0.63-1.69 0.18-0.42-0.46 1.43-18.68 4.12-40.5 2.69-21.83 5.71-47.78 6.71-57.68 1-9.9 2.28-26.55 2.85-37 0.57-10.45 1.04-38.58 1.04-62.5 0.01-23.92 0.46-51.83 1.01-62 0.55-10.17 1.48-23.45 2.07-29.5 0.59-6.05 1.94-17.3 3-25 1.05-7.7 3.06-19.85 4.45-27 1.39-7.15 4.14-19.08 6.11-26.5 1.97-7.42 5.39-18.67 7.61-25 2.21-6.33 5.77-14.99 7.9-19.25 2.53-5.06 4.46-7.75 5.56-7.75zm16.16 24.5c0.55 0.55 2.65 7.53 4.65 15.5 2 7.97 4.75 19.9 6.1 26.5 1.35 6.6 3.13 16.28 3.97 21.5 0.84 5.22 1.79 17.37 2.11 27 0.37 10.76 0.13 22.51-0.61 30.5-0.67 7.15-2.34 19.75-3.72 28-1.38 8.25-4.24 22.42-6.34 31.5-2.11 9.08-4.99 20.55-6.42 25.5-1.42 4.95-5.15 15.97-8.27 24.5-3.13 8.53-5.86 15.05-6.06 14.5-0.2-0.55 0.75-6.85 2.1-14 1.36-7.15 3.17-16.83 4.03-21.5 0.85-4.67 2.67-16.38 4.04-26 1.36-9.63 3.16-23.58 4-31 0.83-7.42 2.03-19.8 2.66-27.5 0.64-7.7 1.16-26.15 1.16-41 0-15.41-0.69-36.02-1.61-48-0.88-11.55-1.87-24.6-2.2-29-0.41-5.38-0.27-7.67 0.41-7zm-389.97 0.5c0.38 0 0.56 1.91 0.41 4.25-0.16 2.34-0.75 9.87-1.32 16.75-0.57 6.87-1.49 23.53-2.06 37-0.56 13.47-0.76 30.58-0.43 38 0.32 7.42 1.04 20.25 1.59 28.5 0.55 8.25 1.66 20.85 2.48 28 0.81 7.15 2.38 19.53 3.49 27.5 1.1 7.97 3.1 21.47 4.44 30 1.34 8.53 3.24 19.68 4.22 24.78 0.98 5.11 1.57 9.51 1.29 9.78-0.27 0.28-1.09-0.97-1.81-2.78-0.72-1.8-3.7-10.25-6.62-18.78-2.93-8.53-7.15-22.7-9.39-31.5-2.23-8.8-5.41-22.97-7.06-31.5-1.65-8.53-3.68-21.58-4.51-29-0.83-7.42-1.8-18-2.16-23.5-0.36-5.5-0.13-16.97 0.51-25.5 0.63-8.53 2.28-21.58 3.65-29 1.37-7.42 4.49-21.38 6.93-31 2.44-9.63 4.71-18.51 5.04-19.75 0.34-1.24 0.92-2.25 1.31-2.25zm115.46 13.26c0.63 0.22 2.59 7.33 4.36 15.82 1.76 8.48 4.33 22.62 5.71 31.42 1.38 8.8 3.02 22.75 3.66 31 0.63 8.28 0.86 20.16 0.5 26.5-0.35 6.33-1.12 15.55-1.7 20.5-0.58 4.95-2.16 14.62-3.51 21.5-1.35 6.87-3.35 15.65-4.45 19.5-1.1 3.85-3.1 10.26-4.46 14.25-1.35 3.99-2.91 7.25-3.46 7.25-0.55 0-2.78-3.04-4.95-6.75-2.17-3.71-6.42-11.92-9.43-18.25-3.02-6.33-7.05-16.22-8.97-22-1.91-5.78-4.29-14.55-5.27-19.5-1.26-6.33-1.78-13.46-1.75-24 0.03-11.34 0.56-17.44 2.16-25 1.17-5.5 3.53-14.05 5.27-19 1.73-4.95 4.95-13.28 7.16-18.5 2.21-5.22 6.06-13.55 8.54-18.5 2.49-4.95 5.63-10.72 6.98-12.82 1.36-2.09 2.98-3.63 3.61-3.42zm159.29-0.26c0.75 0 3.36 3.49 5.81 7.75 2.45 4.26 6.44 12.03 8.87 17.25 2.43 5.22 6.09 13.78 8.14 19 2.05 5.22 5.03 14.56 6.63 20.75 1.73 6.7 3.27 16 3.79 23 0.52 6.78 0.52 15.55 0.01 20.75-0.48 4.95-1.58 12.37-2.42 16.5-0.85 4.12-2.84 11.33-4.43 16-1.58 4.67-4.48 12.33-6.45 17-1.97 4.67-6.2 13.22-9.4 19-3.21 5.78-6.48 10.5-7.26 10.5-0.93 0-2.71-3.85-5.1-11-2.02-6.05-4.82-16.17-6.23-22.5-1.41-6.33-3.26-16.22-4.1-22-0.85-5.78-1.82-17.7-2.17-26.5-0.38-9.73-0.14-21.88 0.61-31 0.68-8.25 2.29-21.3 3.58-29 1.29-7.7 3.79-21.09 5.56-29.75 2.24-11.02 3.61-15.75 4.56-15.75zm-196.75 145.5c0.51 0.55 2.14 3.92 3.62 7.5 1.49 3.58 6.5 14.37 11.14 24 4.64 9.62 9.32 20.42 10.41 24 1.09 3.58 2.24 9.2 2.55 12.5 0.33 3.51-0.11 10.35-1.06 16.5-0.88 5.78-3.62 27.37-6.08 48-2.46 20.62-4.68 37.72-4.94 38-0.26 0.28-0.7-1.07-0.99-3-0.29-1.93-1.42-11.6-2.52-21.5-1.1-9.9-2.89-24.75-3.98-33-1.1-8.25-3.12-25.8-4.5-39-1.38-13.2-2.97-31.42-3.52-40.5-0.56-9.08-1.02-20.55-1.03-25.5-0.02-5.56 0.33-8.62 0.9-8zm233.61-1l0.32 10.5c0.18 5.78-0.18 19.05-0.81 29.5-0.62 10.45-2.47 30.7-4.1 45-1.64 14.3-4.65 38.9-6.69 54.67-2.05 15.76-3.94 28.9-4.22 29.19-0.27 0.29-1.1-4.51-1.82-10.67-0.73-6.15-2.44-20.64-3.8-32.19-1.36-11.55-3.35-26.96-4.43-34.25-1.07-7.29-1.95-16.29-1.96-20 0-3.71 0.69-9.45 1.53-12.75 0.84-3.3 6.01-15.22 11.48-26.5 5.46-11.28 9.95-20.84 9.97-21.25 0.02-0.41 1.04-3.11 2.28-6z"/>
	<path id="quadriceps" fill-rule="evenodd" class="s1" d="m1005 1059.5c0.39 1.1 1.02 6.95 1.4 13 0.38 6.05 1.31 15.5 2.08 21 0.77 5.5 2.52 15.17 3.9 21.5 1.37 6.33 4.02 16.45 5.9 22.5 1.87 6.05 5.54 17.75 8.15 26 2.6 8.25 7.14 24.45 10.08 36 2.94 11.55 6.7 29.1 8.35 39 1.65 9.9 3.71 24.3 4.57 32 0.86 7.7 2.01 20.08 2.56 27.5 0.56 7.42 1 21.15 1 30.5 0 9.35-0.45 23.3-1 31-0.54 7.7-1.92 21.42-3.06 30.5-1.14 9.08-3.61 23.92-5.47 33-1.87 9.08-5.24 23.25-7.49 31.5-2.26 8.25-5.89 20.4-8.07 27-2.19 6.6-5.94 16.05-8.34 21-2.39 4.95-5.31 9.9-6.46 11-1.16 1.1-2.28 1.78-2.48 1.5-0.2-0.28-4.96-12.65-10.59-27.5-5.62-14.85-13.3-35.1-17.07-45-3.77-9.9-8.42-23.4-10.32-30-1.91-6.6-4.88-18.75-6.6-27-1.72-8.25-4.32-22.42-5.78-31.5-2.36-14.69-2.66-19.3-2.72-67.5l6.34-24c3.49-13.2 8.5-33 11.14-44 2.64-11 6.4-27.2 8.36-36 1.96-8.8 5.13-24.55 7.04-35 1.91-10.45 5.54-33.4 8.06-51 2.52-17.6 4.86-33.58 5.2-35.5 0.51-2.89 0.74-3.15 1.32-1.5zm-258.87 5c0.44 2.75 2.21 14.22 3.92 25.5 1.71 11.28 4.64 29.61 6.53 40.75 1.88 11.14 4.97 27.79 6.85 37 1.89 9.21 5.75 26.65 8.58 38.75 2.82 12.1 6.94 28.97 9.14 37.5 2.21 8.53 5.28 20.45 6.83 26.5 1.55 6.05 3.32 15.05 3.92 20 0.6 4.95 1.1 14.4 1.1 21 0 6.6-0.47 16.95-1.03 23-0.57 6.05-2.16 17.75-3.54 26-1.38 8.25-4.11 21.97-6.07 30.5-1.97 8.53-5.14 20.67-7.05 27-1.91 6.33-8.58 24.55-14.81 40.5-6.23 15.95-12.52 32.38-13.98 36.5-1.46 4.13-3.64 10.32-4.84 13.76-1.2 3.45-2.52 6.26-2.93 6.25-0.41 0-1.61-1.25-2.65-2.76-1.05-1.51-3.77-6.58-6.04-11.25-2.27-4.67-6.77-16.6-10.01-26.5-3.23-9.9-7.23-23.4-8.89-30-1.65-6.6-4.15-17.85-5.55-25-1.4-7.15-3.21-17.72-4.02-23.5-0.82-5.78-2.07-16.13-2.79-23-0.79-7.63-1.29-25.16-1.27-45 0.02-23.71 0.51-37.23 1.81-50 0.98-9.63 3.1-25.38 4.73-35 1.62-9.63 4.12-22.45 5.56-28.5 1.43-6.05 4.54-18.2 6.92-27 2.37-8.8 6.41-22.75 8.99-31 2.57-8.25 5.76-18.6 7.08-23 1.32-4.4 3.51-12.95 4.85-19 1.34-6.05 3.11-16.4 3.94-23 0.82-6.6 1.78-15.83 2.12-20.5 0.34-4.67 0.88-9.17 1.2-10 0.32-0.83 0.95 0.75 1.4 3.5zm-46.35 144.5c0.2 0.83-1.01 8.25-2.68 16.5-1.67 8.25-3.93 20.63-5.02 27.5-1.1 6.88-2.78 19.03-3.74 27-1.38 11.42-1.75 22.57-1.77 52.5-0.01 33.63 0.24 39.93 2.21 54.75 1.22 9.21 3.57 23.39 5.23 31.5 1.66 8.11 4.33 19.7 5.95 25.75 1.61 6.05 5.69 19.78 9.05 30.5 3.36 10.72 7.06 23.78 8.22 29 1.51 6.82 2.12 13.16 2.17 22.5 0.03 7.15-0.49 15.25-1.16 18-0.67 2.75-2.35 6.24-3.73 7.75q-2.51 2.75-5.51 2.75c-2.07 0-4.28-1.17-7.12-3.75-2.86-2.6-5.76-7.12-9.48-14.75-2.95-6.05-7.6-17.75-10.35-26-2.75-8.25-6.76-21.97-8.92-30.5-2.16-8.53-5.1-22.03-6.53-30-1.43-7.97-3.28-20.35-4.1-27.5-0.83-7.15-2.01-21.78-2.62-32.5-0.62-10.72-0.86-28.5-0.54-39.5 0.31-11 1.07-24.28 1.68-29.5 0.61-5.22 2.25-15.35 3.64-22.5 1.38-7.15 4.08-18.17 5.98-24.5 1.9-6.33 5.75-17.8 8.54-25.5 2.8-7.7 7.02-18.05 9.38-23 2.37-4.95 5.78-11.03 7.59-13.5 2.15-2.94 3.4-3.98 3.63-3zm350.29-1.5l2.49 3c1.37 1.65 4.92 7.95 7.88 14 2.97 6.05 7.68 17.19 10.48 24.75 2.79 7.56 6.83 19.94 8.97 27.5 2.13 7.56 4.6 17.35 5.48 21.75 0.88 4.4 2.31 13.17 3.17 19.5 0.86 6.33 1.83 22.08 2.15 35 0.34 13.91 0.09 31.05-0.61 42-0.64 10.17-2.07 25.25-3.17 33.5-1.1 8.25-3.38 21.75-5.06 30-1.68 8.25-4.77 21.08-6.87 28.5-2.1 7.42-6.15 20.03-9 28-2.85 7.97-7.35 18.78-10 24-2.73 5.38-6.37 10.91-8.4 12.75-2.37 2.15-4.6 3.25-6.58 3.25-1.83 0-3.88-0.91-5.25-2.33-1.24-1.28-2.84-4.32-3.56-6.75-0.72-2.43-1.56-9.59-1.87-15.92-0.46-9.26-0.16-13.64 1.53-22.5 1.15-6.05 4.98-20 8.5-31 3.53-11 8.47-28.1 10.99-38 2.51-9.9 5.48-23.17 6.59-29.5 1.1-6.33 2.8-18.03 3.78-26 1.38-11.33 1.77-22.26 1.78-50 0.01-22.04-0.48-40.24-1.28-48-0.72-6.88-2.19-18.13-3.28-25-1.09-6.88-3.55-20.38-5.46-30-1.92-9.63-3.47-18.63-3.44-20zm-246.45 114.68c0.14 0.18 2.05 7.74 4.22 16.82 2.18 9.08 4.91 21.22 6.06 27 1.15 5.78 3.19 19.28 4.53 30 1.35 10.72 3.14 26.47 3.99 35 0.85 8.53 2 22.92 2.56 32 0.55 9.08 1.01 22.35 1.01 29.5 0 7.15-0.48 19.3-1.06 27-0.58 7.7-1.91 18.95-2.94 25-1.04 6.05-3.07 15.05-4.51 20-1.44 4.95-4.32 12.6-6.4 17-2.08 4.4-5.82 10.7-8.31 14-2.81 3.71-6.39 7.04-9.4 8.72-3.35 1.86-6.36 2.73-9.62 2.75-2.62 0.02-6.22-0.57-8-1.3-1.79-0.72-4.83-2.92-6.75-4.87-1.93-1.95-4.72-5.74-6.2-8.43-1.48-2.68-3.82-9.15-5.2-14.37-1.37-5.22-3.03-14.22-3.69-20-0.68-6.09-0.91-14.7-0.53-20.5 0.35-5.5 1.31-14.16 2.13-19.25 0.82-5.09 3.07-15.44 5.02-23 1.94-7.56 9.12-30.4 15.95-50.75 6.84-20.35 14.01-43.53 15.93-51.5 1.93-7.97 4.62-21.92 5.98-31 1.37-9.08 2.79-21.45 3.16-27.5 0.38-6.05 0.94-11.37 1.24-11.82 0.31-0.45 0.68-0.67 0.83-0.5zm143.58 0.32c0.55 0.34 0.95 3.4 0.89 6.81-0.06 3.4 0.36 10.91 0.94 16.69 0.58 5.78 1.95 15.9 3.05 22.5 1.11 6.6 3.38 17.62 5.06 24.5 1.68 6.87 8.67 29.37 15.54 50 6.87 20.62 14.24 44.47 16.38 53 2.15 8.53 4.58 20 5.41 25.5 0.83 5.5 1.52 16.08 1.53 23.5 0.01 7.82-0.64 17.29-1.55 22.5-0.86 4.95-2.7 12.37-4.1 16.5-1.4 4.12-4.18 9.92-6.2 12.87-2.01 2.95-5.23 6.3-7.15 7.44-1.93 1.14-5.08 2.43-7 2.86-2.35 0.52-5.31 0.25-9-0.82-4.3-1.25-6.71-2.83-11.04-7.23-3.31-3.36-7.19-8.83-9.66-13.62-2.26-4.4-5.49-12.5-7.17-18-1.67-5.5-3.94-14.72-5.02-20.5-1.09-5.78-2.53-16.35-3.2-23.5-0.81-8.78-1.01-22.58-0.6-42.5 0.33-16.22 1.28-36.03 2.09-44 0.81-7.97 2.64-23.95 4.06-35.5 1.43-11.55 3.93-27.64 5.56-35.75 1.64-8.11 4.56-21.16 6.49-29 1.93-7.84 3.55-14.39 3.6-14.56 0.05-0.17 0.54-0.03 1.09 0.31z"/>
	<path id="adductors" fill-rule="evenodd" class="s1" d="m762.1 1065c1 1.38 4.51 7.22 7.8 13 3.29 5.78 7.86 14.55 10.15 19.5 2.29 4.95 8.34 18.9 13.45 31 5.1 12.1 12.05 30.1 15.44 40 3.39 9.9 8.82 26.78 12.06 37.5 3.25 10.72 7.26 25.13 8.93 32 1.66 6.88 4.12 18.58 5.48 26 1.35 7.42 3.15 19.58 3.99 27 0.84 7.42 1.82 19.13 2.17 26 0.36 6.88 0.12 20.38-0.52 30-0.64 9.63-1.81 22.22-2.59 28-0.79 5.78-2.4 16.35-3.59 23.5-1.18 7.15-2.54 13.45-3.03 14q-0.86 0.97-0.86-0.25c0.01-0.69-3.13-17.9-6.98-38.25-3.85-20.35-9.42-46.56-12.39-58.25-2.96-11.69-8.4-31.83-12.09-44.75-3.69-12.92-9.37-33.4-12.62-45.5-3.26-12.1-7.47-28.97-9.36-37.5-1.89-8.53-5.45-26.3-7.92-39.5-2.46-13.2-5.39-31.42-6.52-40.5-1.13-9.08-2.51-22.46-3.07-29.75-0.57-7.29-0.74-13.81-0.39-14.5 0.45-0.87 1.2-0.49 2.46 1.25zm227.69-1c0.39 0 0.57 3.71 0.41 8.25-0.17 4.54-1.2 16.13-2.29 25.75-1.09 9.63-3.12 24.25-4.51 32.5-1.39 8.25-4.33 24-6.53 35-2.2 11-6.18 29-8.85 40-2.67 11-8.97 34.63-14.01 52.5-5.03 17.88-11.15 39.92-13.59 49-2.45 9.08-6.44 26.17-8.87 38-2.43 11.83-6.06 31.17-8.07 43-2 11.83-3.99 22.4-4.42 23.5-0.59 1.52-1.15 0.34-2.36-5-0.87-3.85-2.26-11.72-3.1-17.5-0.84-5.78-2.28-17.47-3.2-26-0.98-9.07-1.71-24.21-1.76-36.5-0.04-11.55 0.49-25.95 1.18-32 0.69-6.05 2.61-18.88 4.27-28.5 1.66-9.63 4.37-22.9 6.02-29.5 1.66-6.6 5.94-21.45 9.53-33 3.59-11.55 8.58-27.08 11.08-34.5 2.51-7.42 7.38-20.47 10.83-29 3.45-8.53 9.71-23.15 13.93-32.5 4.21-9.35 9.95-21.05 12.76-26 2.81-4.95 6.4-10.91 7.97-13.25 1.58-2.34 3.19-4.25 3.58-4.25z"/>
	<path id="abductors" fill-rule="evenodd" class="s1" d="m711.72 1004.92c-0.22 0.51-0.93 4.67-1.58 9.25-0.64 4.58-1.65 12.38-2.24 17.33-0.58 4.95-2.12 13.72-3.41 19.5-1.29 5.78-5.05 19.5-8.34 30.5-3.3 11-7.37 25.17-9.06 31.5-1.68 6.33-4.39 17.8-6.02 25.5-1.64 7.7-4.1 21.88-5.48 31.5-1.39 9.63-3.23 25.15-4.1 34.5-0.86 9.35-1.44 21.28-1.28 26.5l0.29 9.5c8.81-17.83 14.37-28.17 18.04-34.5 3.68-6.33 10.54-18.47 15.27-27 4.72-8.53 10.24-19.55 12.25-24.5 2.02-4.95 5.07-13.95 6.77-20 1.7-6.05 3.99-15.5 5.09-21 1.1-5.5 2.7-15.62 3.54-22.5 0.9-7.24 1.53-20.28 1.52-31-0.01-10.17-0.47-21.65-1.02-25.5-0.55-3.87-2.22-9.4-3.73-12.36-1.5-2.95-4.98-7.84-7.73-10.88-2.75-3.04-5.76-5.92-6.69-6.39-0.99-0.51-1.85-0.49-2.09 0.05zm318.29 5.83c-3.39 3.71-7.49 9.45-9.11 12.75-2.23 4.53-3.22 8.46-4.03 16-0.63 5.83-0.83 17.09-0.47 27 0.33 9.35 1.53 23.3 2.66 31 1.12 7.7 3.34 19.4 4.93 26 1.59 6.6 4.06 15.6 5.5 20 1.44 4.4 5 12.95 7.93 19 2.92 6.05 10.58 20.22 17.02 31.5 6.44 11.28 14.37 26.01 17.63 32.75 3.26 6.74 6.38 12.25 6.93 12.25 0.64 0 0.8-4.22 0.45-11.75-0.3-6.46-1.23-19.62-2.06-29.25-0.83-9.62-2.4-23.58-3.48-31-1.08-7.42-2.88-18-4-23.5-1.12-5.5-3.4-15.62-5.08-22.5-1.67-6.87-5.93-21.95-9.47-33.5-3.54-11.55-7.52-25.28-8.86-30.5-1.33-5.22-3.08-14-3.88-19.5-0.81-5.5-1.77-13.6-2.13-18-0.37-4.4-1.07-9.69-1.58-11.75-0.5-2.06-1.32-3.75-1.83-3.75-0.5 0-3.68 3.04-7.07 6.75z"/>
	<path id="obliques" fill-rule="evenodd" class="s1" d="m683.86 649.98c2.55 3.02 6.66 7.41 9.14 9.77 2.48 2.35 8.33 6.91 13 10.14 4.67 3.22 12.21 7.71 16.75 9.98 4.54 2.27 8.02 4.58 7.75 5.13-0.27 0.55-3.54 1.92-7.25 3.05-4.44 1.35-9.41 2.04-14.5 2-4.7-0.03-9.22-0.67-11.5-1.63-2.06-0.87-5.7-3.01-8.08-4.75-2.38-1.74-5.88-5.19-11.22-12.17l0.04-11c0.02-6.05 0.3-12.13 0.63-13.5 0.57-2.41 0.76-2.31 5.24 2.98zm386.32-4.12c0.43 0.35 1.08 5.37 1.45 11.14 0.37 5.77 0.38 11.74 0.02 13.25-0.36 1.51-3.06 5.34-6 8.5-3.64 3.93-7.37 6.69-11.75 8.72-5.51 2.55-7.51 2.95-14.4 2.86-5.91-0.08-9.7-0.75-14.5-2.58-3.58-1.37-6.59-2.88-6.7-3.37-0.11-0.48 4.16-3.01 9.5-5.61 5.33-2.6 13.53-7.6 18.2-11.11 4.67-3.51 11.85-10 15.95-14.41 4.1-4.42 7.8-7.74 8.23-7.39zm-392.11 37.14c0.51 0 6.67 5.23 13.68 11.63 7.01 6.4 16.69 15.17 21.5 19.5 4.81 4.33 8.64 8.38 8.5 9-0.14 0.63-2.05 1.79-4.25 2.59-2.2 0.8-6.7 1.47-10 1.5-3.79 0.03-8.02-0.72-11.5-2.05-3.02-1.15-7.48-3.8-9.89-5.88-2.42-2.09-5.4-5.81-6.63-8.29-1.23-2.48-2.57-6.98-2.97-10-0.4-3.02-0.42-8.31-0.05-11.75 0.38-3.44 1.1-6.25 1.61-6.25zm393.34 0.02c0.5-0.01 1.13 1.67 1.39 3.73 0.27 2.06 0.26 7.12 0 11.25-0.3 4.58-1.3 9.25-2.57 12-1.15 2.48-4.03 6.27-6.41 8.44-2.37 2.17-6.79 5.07-9.82 6.45-4.15 1.89-7.09 2.49-12 2.44-3.68-0.04-8.13-0.77-10.25-1.7-2.93-1.27-3.59-2.01-3-3.35 0.41-0.94 9.97-10.16 21.25-20.48 11.28-10.32 20.91-18.77 21.41-18.78zm-331.41 8.27c2.48 0.2 6.27 1.24 8.44 2.29 2.16 1.06 5.92 3.72 8.35 5.92 2.51 2.27 5.66 6.59 7.28 10 1.58 3.3 3.75 10.5 4.83 16 1.08 5.5 2.22 12.14 2.53 14.75 0.51 4.27 0.37 4.75-1.43 4.75-1.1 0-4.14-0.94-6.75-2.08-2.61-1.14-7.67-4.02-11.25-6.4-3.57-2.38-9.54-7.29-13.25-10.92-3.71-3.63-8.56-9.41-10.78-12.85-2.21-3.44-4.29-7.6-4.61-9.25-0.32-1.65-0.08-4.01 0.53-5.25 0.61-1.24 3.47-3.4 6.36-4.8 3.9-1.89 6.41-2.45 9.75-2.16zm269.5-0.21c1.1-0.04 3.8 0.43 6 1.04 2.2 0.61 5.24 1.96 6.75 2.99 1.51 1.04 3.15 2.9 3.63 4.14 0.61 1.54 0.36 3.68-0.78 6.75-0.92 2.48-3.75 7.2-6.29 10.5-2.54 3.3-6.58 7.86-8.97 10.13-2.39 2.27-6.59 5.82-9.34 7.87-2.75 2.06-7.47 5-10.5 6.53-3.02 1.53-6.85 2.94-8.5 3.13-2.69 0.3-3.03 0.03-3.3-2.66-0.16-1.65 0.85-8.4 2.25-15 1.4-6.6 3.63-14.25 4.96-17 1.32-2.75 4.81-7.26 7.75-10.03 2.94-2.77 7.37-5.77 9.84-6.67 2.48-0.9 5.4-1.68 6.5-1.72zm-329.98 29.1c0.09 0.18 6.21 7.74 13.6 16.82 7.39 9.08 14.66 18.19 16.16 20.25 1.59 2.19 2.49 4.48 2.17 5.5-0.47 1.51-1.29 1.65-6 1-3-0.41-7.59-1.64-10.2-2.73-2.61-1.09-5.74-3-6.94-4.25-1.21-1.25-3.1-4.29-4.21-6.77-1.11-2.48-2.93-9.79-4.06-16.25-1.12-6.46-1.74-12.23-1.36-12.82 0.37-0.58 0.75-0.92 0.84-0.75zm390.6 0.7c0.4 0.34 0.07 4.89-0.71 10.12-0.79 5.23-2.2 12.2-3.13 15.5-1.24 4.38-2.79 7.08-5.74 10.02-2.45 2.44-5.81 4.54-8.54 5.35-2.47 0.72-6.53 1.57-9 1.88-2.87 0.35-4.77 0.14-5.25-0.6-0.41-0.63 0.13-2.61 1.22-4.4 1.08-1.79 8.37-11.18 16.2-20.87 7.83-9.7 14.56-17.35 14.95-17zm-45.12 12.79c1.93 0.29 4.63 1.09 6 1.79 1.38 0.7 3.09 2.57 3.8 4.15 1.09 2.43 1.05 3.61-0.25 7.39-0.85 2.48-3.01 6.92-4.8 9.87-1.79 2.95-6.17 8.53-9.75 12.39-3.57 3.87-10.1 9.92-14.5 13.45-4.4 3.53-11.26 8.64-15.25 11.35-3.99 2.72-8.37 4.94-9.75 4.94-1.58 0-2.92-0.82-3.65-2.25-0.8-1.55-0.97-6.29-0.55-15.25 0.34-7.15 1.08-14.69 1.66-16.75 0.61-2.21 2.78-5.41 5.29-7.79 2.34-2.22 8.3-6.92 13.25-10.46 4.95-3.54 11.25-7.65 14-9.15 2.75-1.5 6.35-3.06 8-3.46 1.65-0.41 4.58-0.51 6.5-0.22zm-298.32 0.33c3.45 0 6.81 0.75 9.57 2.14 2.34 1.18 7.63 4.4 11.75 7.16 4.13 2.76 10.37 7.31 13.87 10.11 3.5 2.8 7.2 6.44 8.22 8.09 1.22 1.98 2.25 6.73 3.02 14 0.64 6.05 0.88 13.48 0.54 16.5-0.34 3.03-1.3 6.06-2.13 6.75-1.24 1.02-2.31 0.86-5.77-0.88-2.34-1.16-6.5-3.73-9.25-5.7-2.75-1.97-9.47-7.2-14.93-11.63-5.46-4.42-12.35-10.96-15.31-14.54-2.96-3.58-6.95-9.65-8.88-13.5-2.56-5.14-3.38-7.91-3.06-10.41 0.31-2.43 1.38-4.07 3.74-5.75 2.47-1.75 4.65-2.34 8.62-2.34zm-11.75 42.32c2.51 0.31 7.39 2.04 10.83 3.87 3.44 1.82 12.19 7.58 19.44 12.81 7.25 5.23 15.75 11.98 18.88 15 4.57 4.42 6.05 6.68 7.53 11.5 1.45 4.7 1.86 9.29 1.87 21.2 0.01 10.67-0.35 15.59-1.21 16.5-1.01 1.06-2 0.99-5.5-0.41-2.35-0.94-7.87-4.04-12.27-6.9-4.4-2.86-11.37-8.64-15.5-12.83-4.12-4.2-9.82-10.99-12.65-15.1-2.83-4.1-6.72-10.61-8.64-14.46-1.93-3.85-4.4-9.92-5.5-13.5-1.1-3.58-2.33-8.52-2.74-11-0.41-2.48-0.37-5.11 0.08-5.87 0.58-0.97 2.11-1.2 5.38-0.81zm321.32-0.25c2.32-0.04 3.79 0.41 3.86 1.18 0.05 0.69 0.03 2.6-0.06 4.25-0.09 1.65-1.04 6.26-2.11 10.25-1.07 3.99-3.35 10.06-5.07 13.5-1.72 3.44-5.88 10.26-9.25 15.17-3.37 4.91-9.04 12.05-12.62 15.88-3.57 3.83-10.32 9.51-15 12.64-4.67 3.12-10.67 6.55-13.33 7.62-4.23 1.7-4.94 1.76-5.8 0.44-0.59-0.9-0.81-8.14-0.55-18 0.32-12.22 0.88-17.67 2.13-21 0.93-2.48 2.67-5.82 3.87-7.44 1.2-1.62 7.58-7 14.18-11.96 6.6-4.96 15.6-11.25 20-13.97 4.4-2.72 9.8-5.74 12-6.72 2.2-0.97 5.69-1.8 7.75-1.84zm-9.09 56.93c0.41 0 0.99 3.26 1.31 7.25 0.32 3.99 0.09 13.77-0.5 21.75-0.59 7.98-1.73 17.65-2.53 21.5-0.81 3.85-2.34 8.8-3.4 11-1.06 2.2-4.57 7.15-7.79 11-3.22 3.85-11.23 11.84-17.8 17.77-6.57 5.92-13.82 11.77-16.1 13-3.71 1.99-4.33 2.07-5.8 0.73-1.36-1.24-1.63-3.63-1.58-14 0.04-6.88 0.7-17 1.48-22.5 0.78-5.5 1.95-12.25 2.61-15 0.67-2.75 2.38-7.21 3.82-9.91 2.03-3.81 6.09-7.76 18.12-17.65 8.53-7.01 18.19-15.48 21.47-18.84 3.28-3.35 6.29-6.1 6.69-6.1zm-304.35 0.99c0.38 0 4.98 3.94 10.23 8.75 5.25 4.82 14.62 13.03 20.81 18.26 6.2 5.23 12.6 11.52 14.22 14 1.62 2.48 3.62 7.54 4.44 11.25 0.82 3.71 2.17 12.49 2.99 19.5 0.83 7.01 1.49 16.12 1.49 20.25-0.01 4.14-0.6 8.62-1.31 10-0.84 1.63-1.97 2.38-3.24 2.17-1.06-0.18-5.31-2.88-9.44-6-4.12-3.12-12.28-10.4-18.11-16.17-5.84-5.77-12.18-12.98-14.08-16-1.91-3.02-4.17-7.3-5.03-9.5-0.86-2.2-2.04-8.05-2.62-13-0.59-4.95-1.37-14.17-1.74-20.5-0.38-6.33-0.37-14.09 0.01-17.25 0.38-3.16 1.01-5.75 1.38-5.76zm306.58 69.03c0.5-0.01 2.17 4.59 3.73 10.23 1.56 5.64 3.61 14.3 4.54 19.25 1.13 5.97 1.68 13.71 1.63 23-0.04 8.91-0.66 16.72-1.69 21.5-0.9 4.12-2.97 10.31-4.61 13.75-2.53 5.29-4.94 7.99-15.74 17.63-7.01 6.25-16.15 14.92-20.31 19.25-4.16 4.33-9.63 10.79-12.16 14.37-2.53 3.58-8.61 13.03-13.51 21-4.9 7.97-11.1 17.65-13.77 21.5-2.67 3.85-9.17 12.61-14.43 19.48-5.26 6.86-11.14 14.04-13.07 15.96-3.11 3.1-3.54 3.27-3.82 1.52-0.18-1.08 1.5-9.38 3.74-18.46 2.24-9.08 6.82-27.75 10.18-41.5 3.36-13.75 8.95-34.45 12.43-46 3.48-11.55 7.87-25.27 9.76-30.5 1.89-5.23 4.67-11.98 6.18-15 1.51-3.02 4.95-8.42 7.64-12 2.69-3.58 11.53-12.84 19.64-20.58 8.11-7.75 18.8-18.66 23.75-24.24 4.95-5.58 9.4-10.15 9.89-10.16zm-283 26.65c13.81 14.11 26.54 27.49 28.29 29.74 1.75 2.25 4.63 7.01 6.39 10.59 1.77 3.58 5.6 13.7 8.52 22.5 2.92 8.8 7.85 24.77 10.96 35.5 3.12 10.72 9.02 33 13.14 49.5 4.11 16.5 8.08 33.15 8.83 37 0.83 4.31 0.99 7.29 0.42 7.75-0.52 0.41-4.25-3.41-8.29-8.5-4.04-5.09-11.13-14.27-15.75-20.41-4.62-6.14-12.67-17.97-17.9-26.28-5.22-8.32-12.4-19.27-15.95-24.34-3.55-5.07-11.43-14.17-17.5-20.22-6.08-6.05-14.83-14.38-19.44-18.5-4.62-4.13-9.42-9.3-10.68-11.5-1.25-2.2-2.98-6.7-3.83-10-0.85-3.3-2.05-10.73-2.67-16.5-0.83-7.76-0.83-13.5-0.01-22 0.62-6.33 2.2-16 3.53-21.5 1.33-5.5 3.08-11.58 3.9-13.5 0.81-1.92 1.8-3.83 2.2-4.24 0.4-0.4 12.02 10.81 25.84 24.91z"/>
	<path id="abs" fill-rule="evenodd" class="s1" d="m849 669.12c0.83-0.06 3.19 0.34 5.25 0.89 2.06 0.54 5.16 2.23 6.89 3.74 1.72 1.51 3.97 4.44 5 6.5 1.02 2.06 2.4 7.24 3.05 11.5 0.93 5.98 0.93 9.23 0.02 14.25-0.65 3.58-2.02 7.62-3.04 9-1.02 1.37-3.39 3.53-5.26 4.79-1.88 1.26-10.61 4.6-19.41 7.43-10.65 3.43-20.85 7.61-45 19.84l-4.43-1.78c-2.49-1-5.89-3.52-7.77-5.78-1.84-2.2-4.13-6.25-5.07-9-1.17-3.38-1.72-8.07-1.71-14.5 0.01-7.76 0.42-10.33 2.22-14 1.22-2.48 4.13-6.46 6.49-8.86 2.35-2.39 6.86-5.65 10.02-7.25 3.16-1.59 13.96-5.59 24-8.89 10.04-3.31 20.27-6.41 22.75-6.89 2.48-0.49 5.17-0.94 6-0.99zm52.5 0.43c1.1 0.18 3.8 0.62 6 0.96 2.2 0.35 12.33 3.36 22.5 6.69 10.17 3.33 20.52 7.08 23 8.34 2.48 1.25 6.3 3.83 8.5 5.73 2.2 1.89 5.22 5.64 6.71 8.34 1.48 2.69 3.17 7.25 3.75 10.14 0.78 3.95 0.7 7.18-0.32 13-0.76 4.26-2.29 9.55-3.41 11.75-1.13 2.2-3.33 5.19-4.89 6.64-1.56 1.45-4.42 3.4-9.84 6.03l-15-7.54c-9.28-4.66-20.53-9.33-29.5-12.23-7.98-2.58-16.08-5.47-18-6.41-1.92-0.95-4.65-3.02-6.06-4.6-1.82-2.05-2.96-5.07-3.92-10.39-1.09-6-1.13-8.95-0.19-14.75 0.64-3.99 2.01-8.94 3.03-11 1.03-2.06 3.28-4.99 5-6.5 1.73-1.51 4.38-3.01 5.89-3.34 1.51-0.32 3.2-0.72 3.75-0.89 0.55-0.17 1.9-0.16 3 0.03zm-50.5 66.5c1.37-0.03 4.08 0.41 6 0.97 1.92 0.56 4.76 2.25 6.3 3.75 1.54 1.5 3.47 4.98 4.28 7.73 0.81 2.75 1.81 11.08 2.21 18.5 0.4 7.42 0.39 18-0.04 23.5-0.57 7.42-1.41 11.36-3.26 15.25-2.01 4.25-3.3 5.61-6.74 7.13-2.88 1.27-7.8 2.08-15.25 2.51-6.05 0.34-15.05 1.28-20 2.08-4.95 0.81-11.92 1.9-15.5 2.43-3.85 0.58-7.93 0.62-10 0.1-2.07-0.52-5.03-2.54-7.25-4.94-2.06-2.23-4.2-5.75-4.74-7.81-0.55-2.06-1.01-8.48-1.03-14.25-0.04-10.27 0.05-10.68 3.94-18.5 2.43-4.87 6.06-10.12 9.28-13.4 2.92-2.97 8.45-7.48 12.3-10.03 3.85-2.55 10.6-6.13 15-7.97 4.4-1.84 11.15-4.16 15-5.17 3.85-1 8.13-1.85 9.5-1.88zm50.5 0.66c2.75 0.3 8.26 1.61 12.25 2.92 3.99 1.3 10.51 4 14.5 5.99 3.99 1.99 9.95 5.53 13.25 7.87 3.3 2.34 7.91 6.33 10.25 8.88 2.34 2.55 5.93 8.12 7.98 12.38 3.53 7.34 3.73 8.28 3.75 17.75 0.01 6.08-0.57 11.95-1.48 14.98-0.83 2.73-2.85 6.39-4.5 8.13-1.65 1.73-4.8 3.63-7 4.22-3.23 0.86-6.77 0.6-18.5-1.38-7.98-1.35-20.13-2.82-27-3.27-9.38-0.61-13.36-1.3-15.93-2.75-2.04-1.15-4.37-3.76-5.74-6.43-1.57-3.05-2.66-7.71-3.39-14.5-0.76-7.07-0.78-14.4-0.04-25 0.57-8.25 1.57-16.58 2.22-18.5 0.65-1.92 1.96-4.68 2.9-6.12 0.95-1.44 3.02-3.1 4.6-3.69 1.58-0.59 3.78-1.29 4.88-1.55 1.1-0.25 4.25-0.22 7 0.07zm-56.5 87.79c4.67 0.23 10.19 0.89 12.25 1.46 2.06 0.57 5.33 2.62 7.25 4.54 2.51 2.51 3.82 4.99 4.62 8.75 0.72 3.35 0.94 12.11 0.63 24.25-0.32 12.22-1.07 21.5-2.11 26-0.95 4.14-2.84 8.74-4.62 11.25-1.66 2.34-4.48 5.18-6.27 6.33-2.98 1.9-4.29 2.03-15.75 1.54-6.88-0.29-18.13-1.47-25-2.62-6.88-1.15-13.51-2.74-14.75-3.54-1.24-0.8-3.38-2.7-4.76-4.21-1.37-1.51-3.17-4.77-4-7.25-0.82-2.48-2.39-9.11-3.49-14.75-1.1-5.64-2-13.4-2-17.25 0-3.85 0.53-9.36 1.18-12.25 0.73-3.26 2.34-6.54 4.25-8.67 1.69-1.88 4.87-4.2 7.07-5.17 2.2-0.97 7.83-2.75 12.5-3.96 4.67-1.21 12.1-2.8 16.5-3.54 4.43-0.74 11.8-1.15 16.5-0.91zm66-0.05c5.23 0.21 14.11 1.31 19.75 2.46 5.64 1.15 12.84 3.08 16 4.29 3.16 1.21 7.1 3.38 8.75 4.84 1.65 1.45 3.79 4.51 4.75 6.8 0.96 2.29 2.03 6.52 2.38 9.41 0.35 2.89 0.08 9.75-0.6 15.25-0.68 5.5-2.35 13.83-3.7 18.5-1.36 4.67-3.56 9.96-4.9 11.75-1.34 1.79-3.89 3.99-5.68 4.88-1.79 0.9-8.65 2.54-15.25 3.63-7.13 1.19-17.27 2.05-25 2.12-11.76 0.11-13.29-0.08-16-2.01-1.65-1.16-4.22-4.31-5.72-7-1.49-2.68-3.4-8.02-4.23-11.87-1.05-4.87-1.53-12.94-1.55-26.5-0.02-12.31 0.4-20.79 1.14-23 0.64-1.92 1.91-4.68 2.81-6.13 0.91-1.44 3.43-3.41 5.6-4.37 2.17-0.97 5.75-2.13 7.95-2.58 2.2-0.46 8.27-0.67 13.5-0.47zm-90.5 91.71c4.4 0.39 12.73 1.67 18.5 2.86 5.77 1.18 11.85 2.84 13.5 3.68 1.65 0.84 4.28 2.71 5.84 4.16 1.56 1.45 3.65 4.22 4.64 6.14 0.99 1.92 2.29 5.3 2.9 7.5 0.61 2.2 1.82 12.33 2.69 22.5 1.24 14.53 1.61 35.14 1.75 96.14 0.18 76.39 0.15 77.68-1.82 79.79-1.32 1.4-3.2 2.13-5.5 2.12-2.09-0.01-5.32-1.16-8-2.85-2.48-1.55-6.08-4.65-8-6.88-1.92-2.23-4.91-6.92-6.63-10.43-1.73-3.52-5.4-12.47-8.18-19.89-2.77-7.42-7.74-22.28-11.05-33-3.3-10.72-7.37-24.67-9.04-31-1.67-6.33-5.09-20.73-7.61-32-2.51-11.27-5.47-26.13-6.57-33-1.1-6.88-2.26-17.9-2.59-24.5-0.4-8.14-0.18-13.93 0.69-18 0.9-4.19 2.23-6.99 4.39-9.28 2.19-2.32 4.39-3.49 7.59-4.02 2.48-0.41 8.1-0.43 12.5-0.04zm119.03-0.16c2.77 0.27 6.26 1.29 7.75 2.25 1.5 0.96 3.38 2.76 4.2 4 0.81 1.24 1.93 5.85 2.49 10.25 0.68 5.35 0.69 11.64 0.03 19-0.54 6.05-1.9 16.62-3.02 23.5-1.12 6.87-4.5 23.3-7.49 36.5-3 13.2-7.51 31.2-10.03 40-2.52 8.8-7.65 25.22-11.4 36.5-3.75 11.28-8.8 24.78-11.23 30-2.61 5.64-6.22 11.48-8.87 14.37-2.45 2.67-6.15 5.71-8.21 6.75-2.3 1.15-5.38 1.78-7.98 1.63-3.34-0.2-4.5-0.77-5.57-2.75-1.11-2.06-1.25-16.85-0.8-84 0.3-44.83 1.03-87.13 1.62-94 0.6-6.88 1.76-15.2 2.58-18.5 0.82-3.3 2.6-7.91 3.95-10.25 1.64-2.85 4.18-5.23 7.7-7.23 2.89-1.63 9.3-3.92 14.25-5.08 4.95-1.16 12.6-2.41 17-2.78 4.4-0.36 10.27-0.44 13.03-0.16z"/>
	<path id="forearms" fill-rule="evenodd" class="s1" d="m636.5 766.5l0.3 3c0.16 1.65-0.45 5.48-1.35 8.5-0.9 3.02-2.76 8.2-4.13 11.5-1.37 3.3-4.44 9.15-6.81 13-2.37 3.85-6.49 9.06-9.16 11.57-2.98 2.82-7.16 5.45-10.85 6.85-3.3 1.25-8.02 2.34-10.5 2.43-3.8 0.13-4.55-0.16-4.79-1.85-0.16-1.1 1.19-4.22 3-6.94 1.81-2.71 9.07-10.14 16.14-16.5 7.07-6.36 15.21-14.48 18.08-18.06 2.87-3.58 6.32-8.08 7.65-10zm476.77 2.5c0.83 0.83 4.93 5.66 9.12 10.75 4.18 5.09 12.82 13.86 19.18 19.5 6.36 5.64 13.15 12.5 15.07 15.25 1.97 2.81 3.34 5.87 3.14 7-0.31 1.73-1.03 1.96-5.32 1.72-3.02-0.16-7.66-1.54-11.84-3.5-4.46-2.09-8.51-4.97-11.55-8.22-2.57-2.75-6.52-8.38-8.77-12.5-2.25-4.13-5.22-10.65-6.59-14.5-1.38-3.85-2.83-9.25-3.22-12-0.64-4.44-0.55-4.83 0.78-3.5zm-584.12 15c0.46 0 1.75 1.46 2.86 3.25 1.11 1.79 3.09 6.63 4.4 10.75 1.32 4.13 3.18 12.45 4.14 18.5 1.02 6.46 1.75 16.57 1.75 24.5 0.01 9.13-0.55 16.09-1.73 21.5-0.96 4.4-3.32 12.27-5.24 17.5-1.93 5.23-5.98 14.67-9 21-3.02 6.33-7.99 15.33-11.04 20-3.06 4.67-9.27 13.67-13.82 20-4.54 6.33-13.95 18.7-20.91 27.5-6.96 8.8-15.88 20.73-19.82 26.5-3.95 5.77-11.34 17.48-16.43 26-5.1 8.53-10.4 17.41-11.79 19.75-1.66 2.8-3.12 4.15-4.27 3.97-1.3-0.21-1.73-1.18-1.65-3.75 0.06-2.03 3.33-10.54 7.87-20.47 4.27-9.35 9.99-22.4 12.71-29 2.72-6.6 6.73-18.08 8.91-25.5 2.19-7.42 6.22-25.42 8.98-40 2.75-14.58 6.16-31.45 7.58-37.5 1.42-6.05 4.16-15.27 6.09-20.5 1.93-5.23 5.93-14.34 8.88-20.25 2.96-5.91 7.23-13.79 9.5-17.5 2.27-3.71 9.54-14.85 16.15-24.75 6.61-9.9 12.69-18.79 13.52-19.75 0.83-0.96 1.89-1.75 2.36-1.75zm691.61 0.2c0.83 0.16 8.76 11.35 17.62 24.86 8.87 13.5 18.43 29.03 21.26 34.5 2.82 5.46 6.8 14.21 8.84 19.44 2.04 5.23 5 14.67 6.58 21 1.58 6.33 4.94 22.52 7.48 36 2.54 13.48 5.51 28.33 6.62 33 1.1 4.67 3.83 14.12 6.06 21 2.23 6.87 8.66 22.85 14.29 35.5 5.62 12.65 10.98 25.25 11.89 28 1.47 4.42 1.49 5.17 0.18 6.5-1.12 1.13-1.81 1.22-2.78 0.37-0.72-0.62-3.82-5.57-6.9-11-3.07-5.43-9.44-16.17-14.15-23.87-4.71-7.7-12.78-19.63-17.94-26.5-5.16-6.88-14.68-19.25-21.15-27.5-6.47-8.25-15.87-21.08-20.88-28.5-5.02-7.42-11.71-18.9-14.87-25.5-3.16-6.6-7.36-16.39-9.33-21.75-1.97-5.36-4.31-13.91-5.2-19-1.24-7.14-1.49-13.12-1.07-26.25 0.38-11.6 1.2-20.02 2.61-26.5 1.13-5.23 2.72-11.52 3.53-14 0.81-2.48 2.45-5.76 3.64-7.3 1.19-1.54 2.84-2.67 3.67-2.5zm-606.62 40.87c0.35-0.04 0.41 1.62 0.13 3.68-0.28 2.06-1.24 5.28-2.14 7.16-0.9 1.87-3.43 4.61-5.63 6.08-2.2 1.47-10.75 6.26-19 10.65-8.25 4.39-20.07 11.21-26.25 15.17-6.19 3.95-11.7 7.19-12.25 7.19-0.55 0-0.79-0.79-0.53-1.75 0.26-0.96 1.1-6.02 1.87-11.25 0.77-5.23 2.08-10.85 2.92-12.5 0.84-1.65 2.36-3.76 3.38-4.69 1.02-0.92 4.33-2.81 7.36-4.2 3.02-1.38 15.4-5.42 27.5-8.98 12.1-3.57 22.29-6.51 22.64-6.56zm522.3 0.93c0.86 0 11.79 2.95 24.31 6.55 12.51 3.6 24.94 7.76 27.62 9.25 2.68 1.48 5.8 4.05 6.94 5.7 1.27 1.86 2.52 6.23 3.28 11.5 0.67 4.67 1.49 10.19 1.82 12.25 0.32 2.06 0.25 3.76-0.16 3.78-0.42 0.01-5.93-3.31-12.25-7.38-6.33-4.07-18.03-10.77-26-14.88-7.98-4.11-16.25-8.56-18.4-9.87-2.14-1.32-4.66-3.98-5.61-5.9-0.95-1.92-2.03-5.19-2.41-7.25-0.56-3.02-0.39-3.75 0.86-3.75zm-528.97 27c0.92 0 1.52 0.89 1.52 2.25 0 1.24-0.93 6.08-2.06 10.75-1.13 4.67-3 10.75-4.17 13.5-1.16 2.75-4.44 8.6-7.29 13-2.86 4.4-6.64 9.8-8.41 12-1.78 2.2-9.9 10.75-18.05 19-8.15 8.25-22.35 22.42-31.54 31.5-9.19 9.08-20.61 21-25.36 26.5-4.76 5.5-12.06 14.5-16.21 20-4.16 5.5-10.9 14.95-14.98 21-4.09 6.05-10.69 16.06-14.68 22.25-5.26 8.17-7.79 11.25-9.24 11.25-1.1 0-2.9-0.45-4-1-1.1-0.55-2-1.56-1.99-2.25 0.01-0.69 4.33-8.9 9.61-18.25 5.28-9.35 16.74-29.71 25.49-45.25 8.74-15.54 22.13-38.71 29.76-51.5 7.64-12.79 16.58-26.85 19.88-31.25 3.3-4.4 10.22-12.44 15.38-17.88 5.83-6.14 12.58-11.99 17.87-15.49 4.67-3.09 14.9-8.89 22.72-12.88 7.82-3.99 14.91-7.25 15.75-7.25zm534.03 0c0.27 0 3.08 1.08 6.25 2.4 3.16 1.31 10.47 4.97 16.25 8.11 5.77 3.15 12.75 7.22 15.5 9.05 2.75 1.83 7.55 5.49 10.66 8.14 3.12 2.64 8.67 8.18 12.34 12.3 3.67 4.13 8.92 10.65 11.67 14.5 2.74 3.85 12.52 19.6 21.73 35 9.21 15.4 21.28 36.33 26.84 46.5 5.55 10.17 15.76 28.4 22.69 40.5 6.93 12.1 12.59 22.56 12.58 23.25-0.01 0.69-0.91 1.7-2.01 2.25-1.1 0.55-2.9 1-4 1-1.39 0-3.42-2.21-6.64-7.25-2.56-3.99-8.33-12.88-12.84-19.75-4.5-6.88-12.92-18.8-18.69-26.5-5.78-7.7-15.49-19.63-21.57-26.5-6.08-6.88-20.44-21.47-31.91-32.43-11.47-10.96-24.68-24.03-29.35-29.05-4.68-5.01-10.86-12.24-13.74-16.07-2.88-3.82-6.78-10.1-8.66-13.95-1.88-3.85-4.33-10.6-5.44-15-1.11-4.4-2.1-9.58-2.19-11.5-0.1-1.92-0.13-3.84-0.07-4.25 0.05-0.41 0.32-0.75 0.6-0.75zm-557.44 70c0.31 0-0.53 2.36-1.87 5.25-1.34 2.89-4.79 8.85-7.66 13.25-2.88 4.4-8.38 12.05-12.23 17-3.85 4.95-16.34 20.02-27.76 33.5-11.41 13.48-24.46 29.45-29 35.5-4.54 6.05-10.14 13.92-12.46 17.5-2.31 3.58-5.86 10-7.89 14.27-3 6.33-4.11 7.77-5.94 7.75-1.24-0.01-3.83-0.69-5.75-1.52-2.12-0.91-3.49-2.19-3.48-3.25 0.01-0.96 1.42-4.22 3.13-7.25 1.72-3.03 7.72-12.47 13.34-21 5.63-8.53 14.62-21.35 20-28.5 5.37-7.15 13.61-17.5 18.31-23 4.69-5.5 19.82-21.14 33.61-34.75 13.8-13.61 25.34-24.75 25.65-24.75zm580.79 0c0.63 0 13.01 11.81 27.51 26.25 14.51 14.44 29.72 30.3 33.82 35.25 4.1 4.95 11.21 13.95 15.8 20 4.58 6.05 12.24 16.85 17.01 24 4.77 7.15 11 16.94 13.84 21.75 2.84 4.81 5.39 9.88 5.67 11.25 0.42 2.11-0.06 2.74-3 4-1.93 0.83-4.52 1.52-5.75 1.54-1.84 0.03-3-1.47-6.32-8.25-2.24-4.56-6.48-11.89-9.42-16.29-2.95-4.4-9.19-12.95-13.86-19-4.68-6.05-15.3-19.1-23.6-29-8.31-9.9-18.94-22.73-23.64-28.5-4.7-5.77-11.27-14.33-14.61-19-3.34-4.67-7.99-11.99-10.33-16.25-2.35-4.26-3.75-7.75-3.12-7.75z"/>
	<path id="triceps-from-front" fill-rule="evenodd" class="s1" d="m1187.53 645c0.26 0 2.27 3.6 4.47 8 2.2 4.4 5.75 12.39 7.88 17.75 2.14 5.36 5.25 14.02 6.93 19.25 1.67 5.23 3.8 14.67 4.73 21 1.18 7.97 1.5 14.11 1.05 20-0.35 4.67-1.82 14.35-3.26 21.5-1.43 7.15-2.99 13.45-3.45 14-0.47 0.55-1.06 0.77-1.33 0.5-0.26-0.27-2.49-12.42-4.96-27-2.46-14.58-6.11-32.13-8.09-39-1.99-6.88-5.4-17.23-7.57-23-2.18-5.77-3.95-11.74-3.94-13.25 0-1.51 1.07-5.56 2.36-9 1.29-3.44 2.88-7.26 3.53-8.5 0.65-1.24 1.39-2.25 1.65-2.25zm-625.67 0.96c0.35-0.02 1.84 2.57 3.31 5.75 1.46 3.19 3.15 7.59 3.75 9.79 1 3.67 0.71 4.99-3.45 16-2.49 6.6-5.84 16.5-7.44 22-1.61 5.5-3.81 14.5-4.91 20-1.09 5.5-3.26 18.04-4.8 27.87-1.55 9.83-3.13 18.38-3.51 19-0.39 0.62-0.9 0.9-1.16 0.63-0.25-0.27-1.66-5.9-3.14-12.5-1.48-6.6-3-16.27-3.38-21.5-0.38-5.23-0.36-13.1 0.04-17.5 0.4-4.4 1.83-12.27 3.16-17.5 1.34-5.23 4.12-14 6.17-19.5 2.05-5.5 5.77-14.5 8.26-20 2.49-5.5 4.96-10.56 5.49-11.25 0.54-0.69 1.26-1.27 1.61-1.29z"/>
	<path id="biceps" fill-rule="evenodd" class="s1" d="m638.5 615.68c-1.1 0.25-4.92 1.37-8.5 2.49-3.58 1.13-9.42 3.62-13 5.54-3.58 1.91-8.86 5.24-11.75 7.39-2.89 2.14-7.68 7.16-10.64 11.15-2.97 3.99-7.43 11.08-9.92 15.75-2.49 4.68-6.53 13.45-8.98 19.5-2.45 6.05-5.61 14.6-7.02 19-1.41 4.4-3.47 11.38-4.57 15.5-1.11 4.13-3.18 13.13-4.61 20-1.43 6.88-3.25 18.13-4.05 25-0.81 6.88-1.45 18.13-1.44 25 0.01 6.88 0.67 17.23 1.47 23 0.8 5.78 2.14 13.2 2.96 16.5 0.83 3.3 1.76 6.23 2.05 6.5 0.3 0.28 2.11-0.29 4.02-1.25 1.92-0.96 6.52-4.37 10.23-7.58 3.71-3.21 10.76-9.62 15.67-14.25 4.91-4.63 12.93-12.92 17.84-18.42 4.91-5.5 11.77-14.27 15.26-19.5 3.49-5.22 8.37-13.32 10.86-18 2.48-4.67 6.16-12.77 8.17-18 2.01-5.22 5.14-14.9 6.95-21.5 1.81-6.6 4.1-17.85 5.09-25 1.2-8.65 1.81-19.35 1.83-32 0.02-10.45-0.34-21.7-0.81-25-0.7-4.92-1.45-6.58-4.23-9.25-2.67-2.57-4.17-3.23-7.13-3.13-2.06 0.06-4.65 0.31-5.75 0.56zm461.5 1.06c-1.92 0.97-4.14 3.11-4.93 4.76-1.04 2.19-1.55 8.65-1.88 24-0.28 12.96 0.01 25.02 0.75 31.5 0.66 5.78 2.11 15.23 3.22 21 1.1 5.78 4 16.58 6.44 24 2.44 7.43 6.64 18 9.33 23.5 2.69 5.5 8.47 15.4 12.85 22 4.38 6.6 11.96 16.24 16.84 21.42 4.89 5.19 15.52 15.42 23.63 22.75 8.11 7.33 16.31 14.12 18.23 15.08 1.91 0.96 3.69 1.53 3.96 1.25 0.27-0.27 1.64-5 3.04-10.5 1.41-5.5 3.03-14.95 3.61-21 0.57-6.05 0.75-15.95 0.39-22-0.35-6.05-1.31-16.17-2.11-22.5-0.81-6.32-2.58-16.67-3.95-23-1.37-6.32-4.06-16.9-5.99-23.5-1.93-6.6-5.12-16.27-7.1-21.5-1.97-5.22-6.14-14.67-9.26-21-3.11-6.32-7.49-14.2-9.71-17.5-2.23-3.3-6.94-8.61-10.46-11.79-3.52-3.19-9.77-7.53-13.9-9.65-4.12-2.12-10.42-4.75-14-5.83-3.58-1.08-8.53-2.26-11-2.61-3.31-0.47-5.42-0.18-8 1.12z"/>
	<path id="chest" fill-rule="evenodd" class="s1" d="m760.5 479.64c1.65 0.17 14.92 1.91 29.5 3.85 14.58 1.94 30.1 3.99 34.5 4.54 4.54 0.57 10.27 2.08 13.25 3.49 2.89 1.36 7.62 4.84 10.52 7.73 2.9 2.89 7.04 7.95 9.2 11.25 2.16 3.3 4.7 8.48 5.64 11.5 0.95 3.02 2.28 10.45 2.97 16.5 0.76 6.66 1.29 25.21 1.34 47 0.07 32.69-0.09 36.51-1.79 41.5-1.03 3.02-3.16 7.98-4.73 11-1.57 3.02-5 7.68-7.63 10.34-2.62 2.66-6.57 5.88-8.77 7.16-2.2 1.28-7.83 3.66-12.5 5.28-4.67 1.63-13.45 4.13-19.5 5.56-6.05 1.43-16.85 3.59-24 4.79-9.08 1.53-17.37 2.2-27.5 2.22-13.06 0.04-15.39-0.24-23.5-2.73-4.95-1.52-11.48-4.09-14.5-5.71-3.02-1.62-8.2-4.97-11.5-7.45-3.3-2.47-8.45-6.63-11.45-9.23-3-2.6-8.79-8.56-12.87-13.23-4.08-4.67-11.13-14.12-15.67-21-4.54-6.87-8.77-14.08-9.4-16-0.63-1.92-1.14-4.51-1.13-5.75 0.01-1.24 1.17-5.74 2.57-10 1.4-4.26 6.53-15.85 11.4-25.75 4.87-9.9 11.6-22.16 14.95-27.25 3.36-5.09 9.81-13.13 14.35-17.87 4.54-4.73 11.85-11.31 16.25-14.61 4.4-3.29 12.5-8.2 18-10.91 5.5-2.71 12.02-5.28 14.5-5.73 2.48-0.44 5.85-0.66 7.5-0.49zm233.5 0.03c2.65 0.24 8.82 2.49 15 5.47 5.77 2.78 13.86 7.37 17.96 10.21 4.1 2.83 11.3 8.98 16 13.66 4.7 4.67 11.41 12.77 14.92 18 3.52 5.22 10.56 18.04 15.67 28.49 5.1 10.45 10.44 22.26 11.86 26.25 1.43 3.99 2.59 9.05 2.59 11.25 0 2.63-1.21 6.31-3.52 10.75-1.93 3.71-7.18 11.7-11.67 17.75-4.48 6.05-12.23 15.08-17.23 20.06-4.99 4.98-12.45 11.57-16.58 14.64-4.13 3.07-9.97 6.95-13 8.63-3.02 1.68-9.55 4.29-14.5 5.8-7.93 2.42-10.6 2.74-22.5 2.73-7.57-0.01-18.55-0.78-25-1.74-6.33-0.95-17.8-3.25-25.5-5.11-7.7-1.87-16.48-4.25-19.5-5.3-3.02-1.06-8.16-3.22-11.4-4.81-3.25-1.6-8.2-5.16-11-7.93-2.81-2.77-6.52-7.72-8.27-11-1.74-3.28-3.97-8.89-4.97-12.47-1.58-5.69-1.79-10.42-1.67-38 0.07-17.33 0.65-36.9 1.27-43.5 0.63-6.6 1.82-14.7 2.65-18 0.83-3.3 2.94-8.69 4.7-11.97 1.75-3.29 5.72-8.69 8.81-12 3.09-3.32 7.81-7.23 10.5-8.69 2.68-1.46 6.68-3.13 8.88-3.7 2.2-0.58 8.95-1.54 15-2.14 6.05-0.61 19.55-2.4 30-4 10.45-1.6 20.58-3.09 22.5-3.33 1.92-0.23 5.52-0.23 8 0z"/>
	<path id="shoulders" fill-rule="evenodd" class="s2" d="m677.5 462.5c5.12 0.27 13.96 1.72 20.5 3.38 6.33 1.6 14.09 3.85 17.25 5.01 3.16 1.16 6.42 2.79 7.25 3.61 0.83 0.82 1.51 2.06 1.53 2.75 0.01 0.69-1 2.19-2.25 3.35-1.26 1.15-4.53 3.6-7.28 5.44-2.75 1.83-9.5 7.86-15 13.4-5.51 5.53-12.55 13.89-15.65 18.56-3.1 4.67-10.91 17.95-17.35 29.5-6.44 11.55-13.77 24.15-16.29 28-2.52 3.85-10.47 12.87-17.65 20.04-7.18 7.17-18.46 17.14-25.06 22.15-6.6 5.01-13.53 10.61-15.4 12.46-1.87 1.84-5.24 5.73-7.5 8.65-2.26 2.91-4.89 5.27-5.85 5.25-0.96-0.03-2.66-1.29-3.77-2.8-1.11-1.51-2.95-6.8-4.09-11.75-1.13-4.95-2.75-14.17-3.59-20.5-1.1-8.27-1.37-15.99-0.96-27.5 0.42-11.97 1.19-18.65 3.04-26.5 1.36-5.77 3.66-14.1 5.12-18.5 1.46-4.4 4.23-11.37 6.15-15.5 1.92-4.12 5.59-10.64 8.17-14.48 2.57-3.83 7.6-9.93 11.18-13.54 3.58-3.62 9.87-8.86 14-11.64 4.12-2.78 10.2-6.43 13.5-8.09 3.3-1.67 9.37-4.06 13.5-5.31 4.12-1.25 12-3.09 17.5-4.09 6.89-1.25 12.8-1.67 19-1.35zm395.5-0.35c1.37-0.09 6.33 0.32 11 0.89 4.67 0.58 12.33 1.95 17 3.06 4.67 1.1 11.87 3.37 16 5.04 4.12 1.66 11.1 5.38 15.5 8.25 4.4 2.88 10.92 7.95 14.5 11.28 3.58 3.32 8.95 9.6 11.95 13.94 3 4.34 7.11 11.49 9.13 15.89 2.02 4.4 5.04 12.27 6.72 17.5 1.67 5.23 4.01 14 5.18 19.5 1.39 6.52 2.33 15.4 2.69 25.5 0.39 11.01 0.11 18.83-0.97 27-0.84 6.33-2.54 15.77-3.78 21-1.53 6.49-2.97 10.21-4.54 11.75-1.26 1.24-2.65 2.26-3.08 2.28-0.44 0.02-3.61-3.58-7.05-8-4.87-6.26-9.39-10.4-20.5-18.77-7.84-5.91-19.42-15.93-25.75-22.26-6.33-6.33-13.81-14.88-16.64-19-2.83-4.13-10.41-16.95-16.86-28.5-6.45-11.55-14.26-24.82-17.36-29.48-3.1-4.66-9.06-12.09-13.24-16.5-4.18-4.41-11.94-11.28-17.25-15.27-5.31-3.99-9.95-8.04-10.31-9-0.44-1.19 0.2-2.47 2-4 1.46-1.24 6.82-3.55 11.91-5.15 5.09-1.59 12.85-3.6 17.25-4.46 4.4-0.86 9.35-1.74 11-1.95 1.65-0.22 4.12-0.46 5.5-0.54z"/>
	<path id="trapezius-from-front" fill-rule="evenodd" class="s2" d="m796.92 396.56c0.32 0.33 0.43 4.05 0.25 8.27-0.19 4.22-0.99 10.82-1.8 14.67-0.8 3.85-2.65 9.7-4.11 13-1.45 3.3-4.92 9.56-7.7 13.92-2.78 4.35-7.53 10.14-10.56 12.87-3.02 2.73-6.85 5.65-8.5 6.5-1.65 0.84-5.02 1.49-7.5 1.44-2.47-0.05-8.77-0.81-14-1.69-5.22-0.88-17.15-3.43-26.5-5.67-9.35-2.23-17.67-4.28-18.5-4.54-1.13-0.37-0.76-1.08 1.5-2.89 1.65-1.33 8.85-5.9 16-10.17 7.15-4.27 23.8-13.11 37-19.64 13.2-6.54 27.83-14.48 32.5-17.66 4.67-3.18 9.14-6.51 9.92-7.4 0.78-0.89 1.68-1.35 2-1.01zm155.38-0.73l2.6 2.12c1.43 1.17 5.75 4.41 9.6 7.22 3.85 2.8 17.35 10.14 30 16.31 12.65 6.17 27.5 13.83 33 17.02 5.5 3.19 13.6 8.19 18 11.12 5.04 3.34 7.44 5.48 6.5 5.77-0.82 0.25-9.15 2.29-18.5 4.53-9.35 2.24-22.85 4.95-30 6.03-12.48 1.89-13.16 1.9-17 0.21-2.2-0.97-5.95-3.31-8.34-5.21-2.39-1.9-6.75-6.6-9.7-10.45-2.95-3.85-7.14-10.82-9.33-15.5-2.18-4.68-4.68-11.99-5.55-16.25-0.87-4.26-1.51-11.16-1.43-15.33zm-147.09 16.69c0.55 0.33 0.94 1.13 0.87 1.78-0.07 0.66 3.94 13.57 8.91 28.69 4.97 15.13 9.31 28.85 9.64 30.5 0.36 1.76 0.14 3.31-0.51 3.75-0.62 0.42-3.71 0.31-6.87-0.23-3.16-0.55-13.51-1.9-23-3-9.49-1.11-17.7-2.24-18.25-2.52-0.55-0.27 2.07-3.76 5.84-7.75 3.76-3.98 8.01-9.05 9.45-11.25 1.45-2.2 3.73-6.92 5.07-10.5 1.35-3.57 3.35-10.1 4.44-14.5 1.1-4.4 2.32-9.7 2.71-11.77 0.39-2.08 1.15-3.52 1.7-3.2zm139.48 0.58c0.16 0.22 1.17 4.44 2.24 9.39 1.07 4.95 2.9 11.7 4.06 15 1.16 3.3 3.44 8.48 5.06 11.5 1.61 3.03 6.08 8.65 9.93 12.5 3.84 3.85 6.99 7.57 7 8.25 0.01 0.69-0.54 1.46-1.23 1.71-0.69 0.26-10.7 1.67-22.25 3.14-11.55 1.47-21.9 2.73-23 2.79-1.66 0.09-1.96-0.44-1.75-3.14 0.14-1.78 4.31-15.73 9.27-31 4.96-15.26 9.33-28.37 9.7-29.14 0.37-0.77 0.8-1.22 0.97-1z"/>
	<path id="neck" fill-rule="evenodd" class="s2" d="m941.3 354.75c-2.69 3.16-6.29 7.55-8.01 9.75-1.71 2.2-6.04 9.63-9.62 16.5-3.58 6.88-7.87 16.77-9.53 22-1.66 5.23-4.46 14.45-6.23 20.5-1.77 6.05-5.86 18.43-9.09 27.5-3.22 9.07-8.44 22.9-11.59 30.72-3.15 7.83-5.38 14.58-4.96 15 0.42 0.43 2.67-0.31 5-1.64 2.33-1.33 6.14-3.69 8.48-5.25 2.89-1.93 6.52-6.26 11.37-13.58 3.92-5.91 11.26-19.07 16.32-29.25 5.73-11.53 10.92-23.77 13.8-32.5 2.53-7.7 5.57-18.73 6.76-24.5 1.38-6.69 2.36-16.04 2.71-25.75 0.3-8.39 0.3-15.25 0.01-15.25-0.29 0-2.74 2.59-5.42 5.75zm-139.07 8.98c0.41 7.57 1.44 17.82 2.29 22.77 0.86 4.95 2.46 12.15 3.57 16 1.11 3.85 3.2 10.38 4.65 14.5 1.45 4.13 5.05 12.9 7.99 19.5 2.95 6.6 8.11 16.95 11.48 23 3.36 6.05 8.02 13.93 10.36 17.5 2.33 3.57 6.3 8.41 8.83 10.75 2.53 2.34 6.85 5.38 9.6 6.75 2.75 1.38 5.41 2.39 5.91 2.25 0.5-0.14-0.87-4.52-3.05-9.75-2.18-5.23-6.61-16.93-9.85-26-3.23-9.07-7.02-19.88-8.41-24-1.38-4.12-4.14-13.12-6.11-20-1.98-6.87-4.51-14.98-5.63-18-1.11-3.02-4.3-10-7.07-15.5-2.77-5.5-6.73-12.48-8.8-15.5-2.07-3.02-6.14-8.2-9.03-11.5-2.89-3.3-5.75-6.12-6.36-6.27-0.79-0.2-0.89 3.63-0.37 13.5z"/>
</svg>