<svg version="1.2" xmlns="http://www.w3.org/2000/svg" viewBox="0 0 1062 1480" width="1062" height="1480">
	<style>
		.s0 { fill: #444451 } 
		.s1 { fill: #949dae } 
		.s2 { fill: #929aab } 
		.s3 { fill: #949dad } 
	</style>
	<path id="body-bg" fill-rule="evenodd" class="s0" d="m533 41.62c2.48 0.27 6.3 1.13 8.5 1.9 2.2 0.76 4.9 2.32 6 3.46 1.26 1.31 2.18 1.66 2.5 0.96 0.28-0.62 1.5-0.86 2.75-0.53 1.24 0.32 4.5 2.84 7.25 5.59 2.75 2.75 6.19 7.59 7.64 10.75 2.27 4.95 2.56 6.66 2.1 12.25-0.29 3.58-0.81 7.4-1.15 8.5-0.48 1.58 0.26 2.53 3.5 4.5 2.27 1.38 6.66 5.2 9.76 8.51 3.11 3.3 7.52 9.6 9.81 14 2.29 4.39 4.93 10.92 5.87 14.49 0.93 3.57 1.98 10.21 2.33 14.74 0.59 7.53 0.49 8.19-1.11 7.75-1.28-0.36-0.72 1.05 2.11 5.26 2.13 3.16 4.63 8 5.56 10.75 0.94 2.75 1.97 8.15 2.29 12 0.44 5.33 0.23 7.36-0.86 8.5-0.91 0.96-1.85 5.84-2.6 13.5-0.64 6.6-1.64 13.13-2.22 14.5-0.85 2.01-0.96 1.38-0.54-3.25 0.28-3.16 0.28-5.75 0.01-5.75-0.27 0-2.17 3.26-4.21 7.25-3.29 6.42-3.72 8.1-3.75 14.75-0.04 6.85 0.26 7.98 3.4 13 1.89 3.03 3.64 7.3 3.88 9.5 0.24 2.2-0.27 6.25-1.14 9-0.87 2.75-2.34 5.68-3.26 6.5-1.57 1.4-1.57 1.24-0.02-2.5 0.9-2.2 1.64-5.91 1.62-8.25-0.01-3.11-1.27-6.59-4.69-13-4.17-7.82-4.67-9.44-4.69-15.25-0.01-5.09 0.7-8.24 3.27-14.5 2.97-7.21 3.25-8.74 2.85-15.5-0.31-5.16-1.2-9.05-2.86-12.46-1.32-2.72-4.24-7-6.49-9.5-2.25-2.5-8.1-7.3-13-10.67-4.9-3.37-11.28-8.54-14.18-11.5-2.9-2.95-7.17-8.3-9.49-11.87-2.55-3.94-5.44-10.43-10.44-26.5l-0.76 4c-0.41 2.2-1.86 6.47-3.22 9.5-1.35 3.03-4.39 8.2-6.74 11.5-2.35 3.3-6.48 7.86-9.18 10.12-2.69 2.27-7.15 5.54-9.9 7.27-2.75 1.72-5.34 3.13-5.75 3.12-0.41 0 0.77-2.15 2.63-4.76 1.85-2.61 4.54-7 5.96-9.75 1.42-2.75 2.27-5.34 1.87-5.75-0.39-0.41-2.11 1.39-3.83 4-1.72 2.61-5.54 7.03-8.5 9.82-2.96 2.79-9.88 8.02-15.38 11.61-5.5 3.6-11.7 8.51-13.78 10.93-2.08 2.41-4.71 6.42-5.86 8.89-1.14 2.47-2.52 6.97-3.06 10-0.75 4.21-0.64 6.79 0.49 11 0.81 3.03 2.43 8.09 3.59 11.25 1.17 3.16 2.13 7.89 2.15 10.5 0.02 3.75-1.04 6.85-5.03 14.75-3.05 6.04-5.04 11.29-5.03 13.25 0.02 1.79 0.49 4.49 1.04 6 0.56 1.51 0.79 2.98 0.51 3.25-0.28 0.27-1.19-1.19-2.02-3.25-0.82-2.06-1.51-6.11-1.52-9-0.02-4.16 0.74-6.7 3.69-12.25 2.87-5.42 3.71-8.13 3.69-12-0.01-3.47-0.99-7.14-3.22-12-1.76-3.85-3.78-7.45-4.49-8-0.71-0.55-2.54-5.5-4.06-11-2.37-8.53-2.72-11.39-2.37-19.5 0.3-7.08 0.98-10.77 2.67-14.5 1.24-2.75 3.65-7.03 5.36-9.5q3.11-4.51 1.42-3.75c-1.42 0.64-1.67 0.09-1.67-3.75 0-2.47 0.72-7.99 1.6-12.25 0.88-4.26 2.44-10 3.47-12.75 1.03-2.75 3.57-7.81 5.65-11.24 2.08-3.43 6.03-8.55 8.78-11.38 2.75-2.82 6.91-6.42 13.5-10.88l-1.62-3.75c-1.18-2.74-1.45-5.37-1.02-9.75 0.32-3.3 1.54-7.8 2.7-10 1.16-2.2 3.54-5.52 5.28-7.38 1.74-1.86 5.18-4.67 7.65-6.25 2.47-1.58 4.92-2.87 5.46-2.87 0.53 0-0.2 1.24-1.63 2.75-1.43 1.51-3.32 4.21-4.21 6-0.88 1.79-1.49 4.04-1.35 5 0.16 1.04 1.38-0.59 3-4 2-4.2 3.96-6.56 7.24-8.75 2.48-1.65 6.86-3.65 9.75-4.45 2.92-0.8 7.25-1.22 9.75-0.93zm6.32 82.35l3.14 7.26c1.73 4 4.53 9.3 6.23 11.77 1.7 2.48 4.87 6.53 7.05 9 2.18 2.48 8.81 7.88 14.75 12 5.93 4.13 11.4 8.4 12.16 9.5 0.83 1.22 1.4 4.93 1.54 17l1.66-4.77c0.91-2.62 1.88-4.77 2.15-4.78 0.27-0.01 1.4 1.9 2.5 4.24 1.46 3.11 1.99 6.29 1.97 11.79-0.03 5.78-0.55 8.51-2.25 11.77-1.22 2.34-3.23 4.93-4.47 5.76-1.24 0.83-3.15 1.5-4.25 1.49-1.62-0.01-2.25 1.09-3.33 5.75-0.73 3.16-2.34 8-3.57 10.75-1.23 2.75-3.79 6.76-9.1 12.82l0.68 15.59c0.38 8.57 1.23 17.39 1.88 19.59 0.8 2.65 3.27 6.05 7.32 10.05 4.3 4.25 8.64 7.27 14.62 10.17 4.67 2.26 13.23 6.02 19 8.35 8.3 3.35 12.39 4.4 19.5 5.01 4.95 0.43 11.25 1.33 14 2.01 2.75 0.68 7.02 2.11 9.5 3.17 2.48 1.07 6.98 3.63 10 5.69 3.02 2.06 7.69 6.18 10.36 9.15 2.9 3.22 6.81 9.44 9.68 15.4 2.64 5.5 5.77 14.05 6.96 19 1.18 4.95 2.6 12.83 3.15 17.5 0.55 4.68 0.71 13.9-0.25 32.5l4.9 14.5c2.69 7.98 6.06 19.45 7.49 25.5 1.42 6.05 3.53 18.43 4.68 27.5 1.15 9.08 2.81 19.43 3.69 23 0.88 3.58 2.27 7.85 3.09 9.5 0.83 1.65 5.91 9.75 11.3 18 5.39 8.25 12.06 19.73 14.82 25.5 2.77 5.77 6.61 15.23 8.53 21 1.93 5.77 5.73 19.05 8.45 29.5 2.72 10.45 7.05 24.63 9.62 31.5 2.57 6.88 6.55 16.55 8.84 21.5 2.29 4.95 5.97 12.29 8.17 16.32 3.96 7.21 4.13 7.36 11.02 10.05 3.85 1.5 10.78 4.73 15.41 7.18 5.91 3.13 9.47 5.8 12 9 1.97 2.5 5.37 6.1 7.54 8 2.17 1.9 5.55 5.19 7.5 7.31 1.95 2.13 5.91 5.28 8.8 7 2.88 1.73 5.47 3.7 5.75 4.39 0.27 0.69-0.51 2.16-1.75 3.27-1.49 1.34-3.6 2.01-6.25 1.98-2.2-0.03-5.91-0.93-8.25-2.02-2.34-1.09-6.16-3.72-8.5-5.85-2.34-2.13-6.05-4.79-8.25-5.92-3.27-1.68-4.73-1.89-8-1.16-2.2 0.5-5.8 0.93-8 0.96-3.57 0.05-3.79 0.18-2 1.26 1.1 0.66 4.84 1.21 14.61 1.23l7.26 18c4 9.9 7.97 19.35 8.83 21 0.86 1.65 3.22 8.17 5.25 14.5 2.38 7.44 3.57 12.91 3.37 15.49-0.25 3.09-0.77 4.06-2.32 4.31-1.1 0.17-3.02-0.72-4.27-1.99-1.24-1.27-4.1-6.81-6.34-12.31-2.25-5.5-6.41-14.4-9.24-19.78-2.83-5.38-5.49-9.77-5.9-9.75-0.41 0.02-0.75 0.48-0.75 1.03 0 0.55 1.99 5.84 4.41 11.75 2.43 5.91 6.26 16.15 8.52 22.75 2.27 6.6 4.12 13.35 4.13 15 0 1.72-0.87 3.85-2.05 5-1.67 1.63-2.46 1.8-4.28 0.91-1.23-0.6-3.1-2.85-4.16-5-1.06-2.15-5.11-11.68-9-21.17-3.89-9.5-7.41-17.03-7.82-16.75-0.41 0.28-0.32 1.52 0.21 2.76 0.53 1.24 3.23 8.66 6 16.5 2.77 7.84 5.05 15.26 5.06 16.5 0.01 1.24-0.53 2.81-1.2 3.5-0.67 0.69-2.25 1.25-3.52 1.25-1.4 0-3.02-1.08-4.14-2.75-1.01-1.51-4.58-9.27-7.94-17.25-3.35-7.98-6.97-16.75-8.05-19.5-1.08-2.75-2.46-5.11-3.06-5.25-0.77-0.17-0.82 0.45-0.18 2 0.5 1.24 2.56 7.88 4.57 14.75 2.01 6.88 3.51 13.58 3.33 14.9-0.18 1.32-1.14 2.89-2.14 3.5-1.48 0.9-2.22 0.64-4.02-1.4-1.21-1.37-4.53-8.35-7.37-15.5-2.84-7.15-8.31-19.52-12.15-27.5-3.84-7.98-8.42-18.77-10.16-24-2.12-6.36-3.35-12.31-3.71-18-0.5-7.88-0.97-9.34-6.37-20-3.2-6.33-10.01-17.69-15.12-25.25-5.11-7.56-15.89-22.41-23.95-33-8.06-10.59-17.22-23.3-20.35-28.25-3.13-4.95-7.26-12.37-9.18-16.5-1.92-4.12-4.83-11.1-6.46-15.5-1.67-4.47-4.24-15.27-5.85-24.5-1.57-9.08-3.52-18.3-4.33-20.5-0.81-2.2-3.26-7.6-5.45-12-2.2-4.4-6-12.73-8.46-18.5-2.46-5.77-6.1-15.23-8.1-21-1.99-5.77-3.63-11.29-3.64-12.25-0.01-0.96-0.36-1.75-0.77-1.75-0.41 0-2.18 4.39-3.92 9.75-1.75 5.36-5.66 16.95-8.69 25.75-3.03 8.8-6.48 19.6-7.66 24-1.27 4.73-2.35 12.49-2.66 19-0.36 7.66-0.07 13.12 0.96 18 0.81 3.85 4.68 14.31 8.6 23.25 3.92 8.94 8.41 20.64 9.99 26 1.58 5.36 3.4 12.9 4.05 16.75 0.66 3.85 2.32 10.6 3.69 15 1.38 4.4 4.71 16.33 7.39 26.5 2.69 10.17 6.45 25.92 8.35 35 1.91 9.08 4.3 22.8 5.31 30.5 1.42 10.84 1.82 20.1 1.75 41-0.07 17.51-0.69 32.63-1.77 43-0.92 8.8-2.36 21.63-3.22 28.5-0.85 6.88-2.89 20.6-4.53 30.5-1.64 9.9-4.53 25.2-6.43 34-1.89 8.8-5.49 23.65-8 33-2.5 9.35-5.01 19.02-5.57 21.5-0.57 2.48-1.17 17.77-1.67 63.5l6.28 25.5c3.45 14.03 7.07 31.13 8.03 38 1.4 9.96 1.65 16.57 1.22 32.5-0.44 16.15-1.14 23.42-3.65 37.75-1.7 9.76-4.43 23.71-6.06 31-1.62 7.29-5.92 25.63-9.54 40.75-3.62 15.13-7.69 33.8-9.03 41.5-1.35 7.7-2.73 17.83-3.06 22.5-0.46 6.66-0.14 10.51 1.5 17.75 1.46 6.46 1.92 10.99 0.94 20.75l9.25 13.5c6.21 9.08 11.86 15.96 17.23 21 4.4 4.13 11.96 11.33 16.81 16 7.99 7.7 8.82 8.85 8.84 12.25 0.01 2.13-0.66 4.4-1.55 5.25-0.87 0.83-2.1 1.5-2.75 1.5-0.65-0.01-1.74 0.89-2.43 2-0.69 1.1-2.15 2-3.25 2-1.1 0-3.24 0.95-4.75 2.11-1.81 1.39-3.52 1.9-5 1.5-1.43-0.39-2.71-0.05-3.5 0.93-0.74 0.92-2.78 1.53-5 1.5-2.06-0.02-4.65-0.49-5.75-1.04-1.56-0.78-2.82-0.45-5.75 1.53-2.52 1.7-5.06 2.51-7.75 2.48-2.2-0.03-5.8-0.88-8-1.9-2.2-1.02-5.12-3.07-6.5-4.56-1.37-1.5-4.86-3.81-7.75-5.14-2.89-1.32-6.12-3.65-7.18-5.16-1.07-1.51-2.39-4.1-2.95-5.75-0.56-1.65-1.49-4.91-2.07-7.25-0.91-3.69-1.74-4.63-6.3-7.14-2.89-1.59-6.49-4.29-8-6-1.8-2.04-2.97-4.74-3.39-7.86-0.48-3.57 0.14-7.98 2.49-17.75 2.55-10.56 2.95-13.66 2.14-16.5-0.55-1.92-0.99-5.19-0.99-7.25 0-2.06 0.9-7.46 1.99-12 1.45-5.99 1.99-11.67 1.99-20.75-0.01-6.87-0.65-20.15-1.42-29.5-0.78-9.35-2.83-26.9-4.56-39-1.73-12.1-4.02-26.28-5.09-31.5-1.07-5.22-3.03-13.55-4.36-18.5-1.32-4.95-3.09-12.83-3.93-17.5-0.83-4.67-2.05-13.22-2.7-19-0.69-6.07-0.93-14.93-0.56-21 0.34-5.78 2.49-21.53 4.77-35 3.2-18.9 4.13-27.01 4.09-35.5-0.04-6.87-0.65-13.07-1.64-16.5-0.86-3.03-3.15-11.8-5.08-19.5-2.53-10.1-3.94-18.88-5.05-31.5-0.85-9.62-1.96-32.35-2.47-50.5-0.5-18.15-1.4-37.95-2-44-0.59-6.05-2.83-22.7-4.98-37-2.15-14.3-4.67-33.2-5.61-42-0.95-8.97-1.74-24.89-1.89-56.5h-14l-0.13 15.25c-0.07 8.39-0.87 22.45-1.79 31.25-0.91 8.8-2.33 20.95-3.14 27-0.82 6.05-3.25 21.8-5.41 35-2.17 13.2-4.41 29.85-4.99 37-0.58 7.15-1.51 24.7-2.06 39-0.56 14.3-1.47 31.17-2.03 37.5-0.56 6.33-1.87 16.67-2.93 23-1.05 6.33-3.75 17.58-5.99 25-2.25 7.42-4.56 16.88-5.15 21-0.58 4.13-0.76 10.42-0.4 14 0.36 3.58 2.06 15.72 3.77 27 2.65 17.44 3.12 23.33 3.13 39.5 0.01 14.01-0.45 21.49-1.76 28.5-0.98 5.22-4.18 18.95-7.11 30.5-3 11.83-6.88 30.83-8.89 43.5-1.95 12.38-4.27 30.15-5.14 39.5-0.88 9.35-1.65 23.3-1.72 31-0.1 10.24 0.3 15.61 1.51 20 0.9 3.3 1.72 7.58 1.81 9.5 0.09 1.92-0.17 6.42-0.57 10-0.61 5.42-0.3 8.07 1.88 16 1.43 5.22 2.61 11.75 2.61 14.5 0 2.76-0.79 6.57-1.75 8.5-1.11 2.22-4.13 5.07-8.25 7.78-3.57 2.35-7.01 5.28-7.63 6.5-0.63 1.22-1.42 4.02-1.78 6.22-0.37 2.33-1.98 5.63-3.86 7.89-1.78 2.15-5.03 4.79-7.23 5.89-2.2 1.09-5.8 3.58-8 5.53-2.2 1.96-5.46 4.15-7.25 4.87-1.79 0.73-5.27 1.32-7.75 1.32-3.49 0-5.2-0.62-7.61-2.75-2.66-2.36-3.38-2.57-5-1.5-1.04 0.69-3.58 1.27-5.64 1.29-2.22 0.03-4.26-0.58-5-1.5-0.78-0.95-2.54-1.45-4.65-1.29-2.12 0.16-4.09-0.4-5.25-1.47-1.02-0.95-2.64-1.74-3.6-1.75-0.96-0.02-2.65-0.93-3.75-2.03-1.1-1.1-2.34-1.99-2.75-1.97-0.41 0.02-1.65-0.91-2.75-2.06-1.62-1.69-1.86-2.79-1.25-5.78 0.42-2.03 1.99-4.98 3.5-6.55 1.51-1.58 8.38-7.7 15.25-13.62 6.88-5.91 14.35-13.18 16.6-16.14 2.26-2.96 7.05-9.66 17.19-24.38l0.46-9.5c0.26-5.22 1.23-12.87 2.17-17 1.46-6.45 1.54-8.98 0.6-18-0.61-5.78-3.09-20.17-5.5-32-2.41-11.83-7.07-33.65-10.34-48.5-3.27-14.85-6.66-31.28-7.53-36.5-0.87-5.22-2.28-15.12-3.12-22-0.85-6.93-1.53-20.29-1.52-30 0-10.5 0.63-21.7 1.55-28 0.85-5.78 2.63-15.22 3.96-21 1.33-5.78 4.48-18.37 11.57-45.5l0.37-63-5.29-21c-2.9-11.55-6.81-28.42-8.67-37.5-1.86-9.08-4.29-21.9-5.39-28.5-1.1-6.6-2.9-19.65-4.01-29-1.1-9.35-2.49-22.17-3.07-28.5-0.58-6.33-1.48-20.73-2-32-0.59-12.92-0.59-25.49 0.01-34 0.53-7.42 1.67-18.45 2.54-24.5 0.87-6.05 2.91-17.3 4.55-25 1.63-7.7 4.72-20.98 6.86-29.5 2.15-8.52 5.9-22.48 8.34-31 2.44-8.52 5-18.65 5.68-22.5 0.68-3.85 2.59-11.27 4.24-16.5 1.65-5.23 5.59-15.35 8.76-22.5 3.17-7.15 6.54-15.7 7.49-19q1.73-6 1.81-17.5c0.05-7.28-0.57-14.81-1.69-20.5-0.97-4.95-3.35-14.62-5.28-21.5-1.93-6.87-4.85-15.65-6.47-19.5-1.63-3.85-3.39-8.69-3.91-10.75-0.53-2.06-1.45-5.66-3.15-12.25l-5.25 14.5c-2.88 7.98-7.83 20.13-10.99 27-3.17 6.88-7.48 16.55-9.6 21.5-2.68 6.3-4.64 13.36-6.51 23.5-1.47 7.98-4.03 18.33-5.68 23-1.65 4.67-4.5 11.65-6.32 15.5-1.83 3.85-6.51 12.06-10.39 18.25-3.89 6.19-13.73 20.14-21.86 31-8.14 10.86-18.21 24.92-22.39 31.25-4.18 6.33-10.34 16.45-13.69 22.5-5.71 10.33-6.15 11.58-7.1 20.5-0.56 5.23-1.65 11.75-2.42 14.5-0.78 2.75-2.07 6.8-2.87 9-0.81 2.2-3.85 8.73-6.76 14.5-2.91 5.77-8.61 18.38-12.67 28-4.05 9.63-8.03 18.51-8.84 19.75-0.93 1.42-2.3 2.16-3.72 2-1.78-0.2-2.32-0.98-2.58-3.75-0.19-2.04 1.11-8.08 3.12-14.5 1.89-6.05 3.78-12.58 4.18-14.5 0.5-2.37 0.41-3.18-0.28-2.5-0.56 0.55-3.58 7.3-6.72 15-3.14 7.7-7.06 16.7-8.7 20-1.65 3.3-3.73 6.8-4.63 7.78-0.9 0.98-2.54 1.79-3.64 1.8-1.1 0-2.68-0.73-3.5-1.64-1.35-1.49-0.97-3.17 3.6-16.3 2.8-8.05 6.29-17.68 7.75-21.39 1.46-3.71 2.31-6.76 1.9-6.78-0.41-0.02-3.85 7.3-7.64 16.25-3.78 8.95-8.4 19.54-10.25 23.53-2.14 4.63-4.26 7.7-5.84 8.5-2.14 1.08-2.75 0.98-4.53-0.75-1.13-1.1-2.03-3.12-2-4.5 0.03-1.37 1.44-6.55 3.15-11.5 1.7-4.95 5.53-15.3 8.52-23 2.98-7.7 5.28-14.67 5.11-15.5-0.17-0.83-2.59 2.77-5.38 8-2.79 5.23-6 11.52-7.12 14-1.13 2.48-3.67 7.99-5.66 12.25-2.56 5.5-4.26 7.93-5.86 8.37-1.24 0.34-2.81 0.34-3.5 0-0.72-0.36-1.25-2.52-1.25-5.12 0-2.49 1.39-8.41 3.1-13.25 1.71-4.81 4.24-11.45 5.62-14.75 1.39-3.3 3.77-8.7 5.29-12 1.53-3.3 4.97-11.11 12.49-28.69l4.5 0.22c2.47 0.13 5.51 0.17 6.75 0.1 1.24-0.07 2.25-0.58 2.25-1.13 0-0.55-1.24-1-2.75-1-1.51 0-4.32-0.44-6.25-0.97-2.79-0.77-4.31-0.59-7.5 0.9-2.2 1.03-5.8 3.51-8 5.52-2.2 2-6.25 4.75-9 6.11-2.75 1.35-6.8 2.48-9 2.49-2.33 0.02-5.01-0.72-6.41-1.76-1.63-1.21-2.19-2.35-1.75-3.54 0.37-0.96 3.02-3.06 5.91-4.67 2.89-1.61 7.14-4.87 9.44-7.25 2.31-2.38 7.93-8.01 12.5-12.5 6.55-6.44 10.22-9.11 17.31-12.61 4.95-2.45 11.22-5.29 13.94-6.33 3.95-1.51 5.58-2.89 8.11-6.89 1.74-2.75 5.87-11.08 9.19-18.5 3.31-7.42 7.6-17.77 9.54-23 1.94-5.23 5.41-16.48 7.72-25 2.31-8.52 5.68-20.45 7.5-26.5 1.81-6.05 4.72-14.6 6.47-19 1.75-4.4 4.79-10.92 6.76-14.5 1.96-3.58 7.49-12.35 12.28-19.5 4.78-7.15 9.83-15.25 11.22-18 1.39-2.75 3.23-8.15 4.09-12 0.87-3.85 2.74-15.1 4.16-25 1.43-9.9 3.45-21.6 4.5-26 1.05-4.4 4.18-14.75 12.02-38v-16c0.01-9.21 0.63-19.82 1.47-25 0.8-4.95 2.63-12.6 4.07-17 1.43-4.4 4.25-11.15 6.26-15 2.39-4.56 6.28-9.62 11.18-14.52 5.53-5.54 9.5-8.48 15.02-11.15 4.13-1.99 9.3-4.13 11.5-4.75 2.2-0.62 8.73-1.58 14.5-2.12 8.53-0.81 12.38-1.76 20.5-5.06 5.5-2.23 14.45-6.39 19.89-9.23 6.93-3.62 11.27-6.68 14.5-10.22 2.53-2.77 5.2-6.82 5.92-9 0.72-2.17 1.58-10.7 2.5-33.95l-5.16-7.5c-3.78-5.5-5.66-9.5-7.05-15-1.79-7.12-2.06-7.54-5.24-8.34-1.85-0.46-4-1.36-4.77-2-0.78-0.64-2.2-2.96-3.17-5.16-0.97-2.2-2.04-6.02-2.4-8.5-0.46-3.21-0.05-6.44 1.42-11.25 1.13-3.71 2.51-6.75 3.06-6.75 0.55 0 1.23 1.58 1.5 3.5 0.27 1.93 0.95 3.28 1.5 3 0.55-0.27 1-2.97 1-6 0-4.84 0.41-5.95 3.37-9.25 1.86-2.06 5.8-5.05 8.75-6.65 2.96-1.59 7.4-4.48 14.38-9.94l-3.77 3.92c-2.07 2.16-3.54 4.15-3.26 4.42 0.28 0.28 4.22-1.3 8.77-3.51 4.54-2.2 10.28-5.4 12.76-7.1 2.48-1.7 7.12-5.97 10.32-9.49 3.2-3.52 7.44-9.67 9.41-13.67zm-31.36 135.06c0.02 0.53 1.73 2.81 3.79 5.05 2.06 2.24 5.55 4.93 7.75 5.98 2.4 1.15 6.19 1.93 9.5 1.94 3.02 0.02 7.07-0.28 9-0.65 2.52-0.49 5.11-2.39 9.24-6.76 3.16-3.35 5.52-6.2 5.25-6.33-0.27-0.14-2.85 1.3-5.74 3.21-2.89 1.91-7.73 3.98-10.75 4.61-3.03 0.63-7.75 0.87-10.5 0.54-3.38-0.41-7.04-1.9-11.29-4.59-3.46-2.19-6.27-3.54-6.25-3z"/>
	<path id="calves" fill-rule="evenodd" class="s1" d="m436.21 1036.48c0.71 0.24 2.46 1.92 3.9 3.73 1.43 1.81 3.74 5.54 5.13 8.29 1.39 2.75 3.73 8.83 5.2 13.5 1.48 4.67 3.57 13.67 4.65 20 1.08 6.33 2.24 17.58 2.57 25 0.33 7.42 0.1 27.22-0.52 44-0.61 16.78-1.57 49.85-2.13 73.5-0.55 23.65-1.24 52.11-1.51 63.25-0.38 15.52-0.79 20.17-1.75 19.92-0.72-0.19-1.97-4.3-2.95-9.75-0.93-5.18-3.04-18.42-4.69-29.42-1.65-11-4.17-28.33-5.61-38.5-1.44-10.17-5.27-34.03-8.51-53-3.25-18.97-6.48-38.33-7.2-43-0.76-5.05-1.29-17.64-1.29-31 0-17.69 0.4-24.64 1.86-32.5 1.03-5.5 3.16-14.05 4.74-19 1.58-4.95 3.76-10.45 4.84-12.23 1.09-1.78 2.56-3.03 3.27-2.79zm182.76 0.74c0.84 0.15 2.52 2.31 3.73 4.78 1.22 2.47 3.13 8.1 4.25 12.5 1.12 4.4 2.71 12.5 3.54 18 0.84 5.64 1.5 16.97 1.51 26 0.01 10.36-0.68 21.29-1.97 31-1.1 8.25-3.14 20.62-4.54 27.5-1.41 6.87-4.35 22.4-6.55 34.5-2.2 12.1-7.36 42.92-11.47 68.5-4.11 25.58-7.47 46.84-7.47 47.25 0 0.41-0.67 0.75-1.5 0.75-1.23 0-1.59-2.24-1.98-12.25-0.27-6.74-0.83-42.85-1.25-80.25-0.42-37.4-0.74-77.22-0.7-88.5 0.04-11.28 0.64-25.22 1.33-31 0.7-5.78 2.14-14.33 3.21-19 1.06-4.67 2.89-11.42 4.05-15 1.17-3.58 3.45-9.2 5.08-12.5 1.63-3.3 4.37-7.48 6.08-9.28 1.71-1.8 3.8-3.15 4.65-3zm-45.25 31.96c0.91 0.18 2.39 2.66 3.46 5.82 1.03 3.03 2.85 10 4.03 15.5 1.83 8.45 2.16 13.26 2.16 31 0.01 16.62-0.45 23.92-2.17 35-1.2 7.7-2.89 18.05-3.76 23-0.88 4.95-2.21 9.67-2.97 10.5-1.21 1.32-1.51 1.2-2.4-1-0.56-1.38-1.91-6.1-2.98-10.5-1.08-4.4-2.93-12.95-4.1-19-1.19-6.09-2.4-17.25-2.71-25-0.35-8.65-0.1-17.82 0.66-24 0.68-5.5 2.11-14.28 3.17-19.5 1.06-5.22 2.62-11.75 3.48-14.5 0.86-2.75 1.78-5.6 2.05-6.32 0.26-0.73 1.2-1.18 2.08-1zm-93.5 0.82c0.61 0 2.15 4.84 3.4 10.75 1.26 5.91 2.87 13.9 3.58 17.75 0.78 4.2 1.3 14.8 1.3 26.5 0 11.68-0.53 22.51-1.32 27-0.73 4.12-2.91 14.03-4.86 22-1.94 7.97-3.9 14.95-4.35 15.5-0.5 0.61-1.02 0.22-1.33-1-0.28-1.1-1.65-9.2-3.04-18-1.39-8.8-3.05-21.85-3.69-29-0.63-7.15-0.88-17.95-0.53-24 0.34-6.05 1.29-15.16 2.12-20.25 0.82-5.09 2.67-12.96 4.11-17.5 1.44-4.54 2.81-8.59 3.05-9 0.24-0.41 0.94-0.75 1.56-0.75zm157.69 14c0.47 0.83 1.47 6.22 2.22 12 0.8 6.13 1.34 18.82 1.29 30.5-0.06 13.58-0.65 23.69-1.83 31.5-0.96 6.33-3.08 18.25-4.7 26.5-1.63 8.25-4.75 22.42-6.94 31.5-2.19 9.08-6.48 26.4-9.54 38.5-3.05 12.1-5.78 22.9-6.06 24-0.31 1.22-0.82 1.61-1.32 1-0.45-0.55-0.41-3.7 0.08-7 0.5-3.3 2.69-18.38 4.86-33.5 2.17-15.13 5.77-36.95 8.02-48.5 2.24-11.55 5.42-28.2 7.07-37 1.66-8.8 3.67-21.63 4.47-28.5 0.81-6.88 1.48-19.25 1.5-27.5 0.02-8.76 0.38-14.38 0.88-13.5zm-222.08 0.33c0.37 0.46 0.52 7.66 0.35 16-0.18 8.34 0.18 20.12 0.8 26.17 0.62 6.05 2.65 19.78 4.5 30.5 1.86 10.72 4.95 28.5 6.86 39.5 1.91 11 4.42 26.53 5.57 34.5 1.15 7.97 2.96 22.15 4.03 31.5 1.06 9.35 1.67 17.45 1.34 18-0.32 0.55-3.23-9.58-6.45-22.5-3.21-12.92-8.1-33.63-10.86-46-2.76-12.38-6.22-30.38-7.68-40-2.31-15.13-2.68-20.75-2.73-41.5-0.05-18.61 0.35-26.58 1.77-35.5 1-6.33 2.13-11.13 2.5-10.67zm54.33 93.67c0.48 0 1.83 6.41 5.14 28.5l-3.73 27c-2.06 14.85-3.93 28.12-4.18 29.5-0.24 1.37-0.67 2.28-0.94 2-0.28-0.28-0.04-14.67 0.53-32 0.56-17.33 1.31-36.79 1.67-43.25 0.35-6.46 1.03-11.75 1.51-11.75zm112 17.5c0.42 8.8 1.19 28.37 1.71 43.5 0.51 15.12 0.55 27.95 0.09 28.5-0.49 0.58-1.13-1.97-1.5-6-0.35-3.85-1.95-16.56-3.55-28.25-1.6-11.69-2.92-23.39-2.92-26-0.01-2.61 0.89-9.25 2.01-14.75 1.11-5.5 2.33-10.67 2.7-11.5 0.38-0.83 1.03 5.7 1.46 14.5z"/>
	<path id="quadriceps" fill-rule="evenodd" class="s1" d="m445 676.5c0.43 1.1 1.54 6.95 2.48 13 0.94 6.05 3.46 18.65 5.61 28 2.15 9.35 7.45 29.38 11.79 44.5 4.33 15.13 8.72 31.33 9.75 36 1.56 7.1 1.86 12.62 1.81 33.5-0.05 20.67-0.45 27.51-2.3 39.5-1.23 7.98-3.58 20.35-5.22 27.5-1.65 7.15-5.92 21.55-9.5 32-3.58 10.45-6.93 19.45-7.45 20-0.61 0.64-2.55-2.47-5.46-8.75-2.48-5.36-6.3-15.26-8.49-22-2.19-6.74-5.08-17.2-6.44-23.25-1.35-6.05-3.15-15.05-3.99-20-0.84-4.95-2.23-15.98-3.08-24.5-0.89-8.93-1.56-25.46-1.58-39-0.02-12.92 0.47-28.67 1.09-35 0.62-6.33 2.19-17.8 3.48-25.5 1.29-7.7 4.84-23.9 7.89-36 3.05-12.1 6.06-25.38 6.68-29.5 0.63-4.13 1.37-8.63 1.65-10 0.47-2.33 0.56-2.36 1.28-0.5zm170.47 9.5c1.24 5.77 4.38 18.83 6.97 29 2.59 10.17 5.76 24.8 7.06 32.5 1.29 7.7 2.86 19.17 3.48 25.5 0.62 6.33 1.11 21.85 1.09 34.5-0.02 12.65-0.7 30.42-1.51 39.5-0.8 9.08-2.19 21-3.07 26.5-0.88 5.5-2.68 14.95-3.98 21-1.31 6.05-4.01 16.4-5.99 23-1.99 6.6-5.84 16.61-8.57 22.25-2.94 6.08-5.46 10.11-6.2 9.91-0.69-0.19-3.86-7.96-7.04-17.25-3.18-9.3-7.08-22.31-8.66-28.91-1.58-6.6-3.57-16.5-4.43-22-0.86-5.5-2.05-14.27-2.66-19.5-0.6-5.23-1.08-17.83-1.06-28 0.01-10.17 0.47-21.88 1.01-26 0.55-4.13 1.72-10.65 2.61-14.5 0.89-3.85 5.37-20.05 9.96-36 4.58-15.95 9.77-35.3 11.52-43 1.76-7.7 4.05-19.17 5.08-25.5 1.04-6.33 1.94-11.95 2-12.5 0.07-0.55 1.14 3.73 2.39 9.5zm22.53 73c0.55 0 2.4 3.04 4.12 6.75 1.71 3.71 4.87 11.7 7.02 17.75 2.68 7.57 4.21 13.96 4.89 20.5 0.65 6.29 0.65 13.05-0.02 20-0.55 5.77-1.48 15.23-2.08 21-0.6 5.77-2.2 17.7-3.56 26.5-1.36 8.8-4.06 23.2-6.01 32-1.95 8.8-5.49 22.75-7.86 31-2.38 8.25-5.72 18.83-7.42 23.5-1.7 4.67-4.02 10.08-5.15 12-1.97 3.34-2.14 3.42-3.75 1.71-1.26-1.34-1.77-4.11-2.04-11-0.2-5.07 0.19-11.91 0.85-15.21 0.66-3.3 2.99-11.63 5.16-18.5 2.18-6.87 5.32-17.9 6.98-24.5 1.66-6.6 4.08-17.85 5.37-25 1.29-7.15 2.61-14.8 2.94-17 0.33-2.2 0.77-6.02 0.98-8.5 0.21-2.48 0.93-10.35 1.59-17.5 0.72-7.89 1.02-22.43 0.74-37-0.35-18.6-0.82-25.13-2.09-29-0.9-2.75-1.64-6.01-1.65-7.25-0.01-1.24 0.44-2.25 0.99-2.25zm-218.96 5c0.53 0 0.96 1.01 0.95 2.25-0.01 1.24-0.69 4.5-1.53 7.25-0.83 2.75-1.93 11.08-2.43 18.5-0.56 8.26-0.54 20.87 0.03 32.5 0.52 10.45 2.08 26.88 3.48 36.5 1.39 9.63 4.08 24.25 5.99 32.5 1.91 8.25 5.32 21.08 7.58 28.5 2.26 7.42 4.73 16.42 5.5 20 0.76 3.58 1.39 10.1 1.38 14.5 0 4.4-0.45 9.69-1 11.75-0.54 2.06-1.44 3.98-1.99 4.25-0.55 0.27-1.65-0.29-2.44-1.25-0.79-0.96-2.35-4.23-3.46-7.25-1.11-3.02-3.41-10-5.11-15.5-1.69-5.5-4.82-16.75-6.95-25-2.13-8.25-5.25-21.75-6.93-30-1.68-8.25-4.47-25.8-6.2-39-2.01-15.41-3.15-28.47-3.17-36.5-0.04-10.84 0.33-13.76 2.76-22 1.54-5.23 4.04-12.42 5.55-16 1.5-3.58 3.7-8.64 4.88-11.25 1.18-2.61 2.58-4.75 3.11-4.75zm65.53 62c0.27 0 1.81 5.74 3.43 12.75 1.62 7.01 4.06 20.63 5.41 30.25 1.36 9.63 2.95 24.36 3.53 32.75 0.58 8.39 1.05 20.76 1.04 27.5-0.01 6.74-0.46 16.52-1.01 21.75-0.55 5.23-2.15 13.77-3.54 19-1.4 5.23-3.98 12.15-5.74 15.4-1.75 3.24-4.43 6.95-5.94 8.25-1.51 1.29-3.76 2.62-5 2.95-1.24 0.32-3.6-0.07-5.25-0.89-1.72-0.84-4.16-3.55-5.72-6.34-1.49-2.68-3.4-8.02-4.23-11.87-0.83-3.85-1.52-9.81-1.53-13.25-0.01-3.44 0.47-9.74 1.07-14 0.6-4.26 2.63-12.92 4.5-19.25 1.87-6.33 5-17.58 6.95-25 1.95-7.42 4.42-18.45 5.49-24.5 1.06-6.05 2.61-16.85 3.43-24 0.82-7.15 1.55-16.83 1.63-21.5 0.07-4.67 0.33-8.84 0.57-9.25 0.24-0.41 0.65-0.75 0.91-0.75zm88.93-0.5l0.24 4.5c0.13 2.48 0.95 12.83 1.83 23 0.87 10.17 2.67 24.35 4 31.5 1.32 7.15 4.22 19.75 6.44 28 2.22 8.25 5.22 19.27 6.67 24.5 2.25 8.07 2.66 11.61 2.73 23.5 0.08 11.87-0.25 15.1-2.16 21.25-1.24 4-3.53 8.71-5.09 10.5-1.56 1.79-4.04 3.59-5.5 4-1.69 0.48-3.66 0.24-5.41-0.65-1.51-0.78-3.73-2.47-4.94-3.75-1.2-1.29-3.55-5.27-5.22-8.85-1.68-3.58-3.91-9.88-4.98-14-1.06-4.13-2.46-13.13-3.12-20-0.69-7.35-0.92-17.85-0.55-25.5 0.35-7.15 1.09-18.4 1.64-25 0.56-6.6 1.91-18.3 3.01-26 1.09-7.7 3.05-18.73 4.35-24.5 1.29-5.77 3.18-13.2 4.2-16.5z"/>
	<path id="adductors" fill-rule="evenodd" class="s1" d="m451.95 669.5c-0.07 0.55-0.06 3.25 0.03 6 0.08 2.75 1.25 11.86 2.59 20.25 1.34 8.39 4.48 23.24 6.98 33 2.5 9.76 7.62 26.98 11.38 38.25 3.76 11.27 7.31 22.08 7.88 24 0.58 1.92 2.68 8.67 4.67 15 2 6.33 5.38 19.38 7.51 29 2.13 9.63 4.62 22.9 5.52 29.5 0.9 6.6 1.88 12.67 2.16 13.5 0.42 1.19 0.7 1.09 1.33-0.5 0.45-1.1 1.74-8.75 2.89-17 1.14-8.25 2.53-21.75 3.08-30 0.66-10.03 0.66-19.47-0.01-28.5-0.55-7.42-1.68-17.77-2.51-23-0.83-5.23-3.1-15.58-5.05-23-1.95-7.42-5.14-17.77-7.08-23-1.95-5.23-5.95-14.23-8.9-20-3.01-5.91-9.5-15.97-14.84-23-5.22-6.88-11.29-14.52-13.49-17-2.2-2.48-4.06-4.05-4.14-3.5zm144.43 10.8c-5.02 6.16-12.11 15.59-15.75 20.95-3.65 5.36-8.37 13.24-10.51 17.5-2.13 4.26-5.54 12.92-7.58 19.25-2.04 6.33-5.01 16.9-6.6 23.5-1.6 6.6-3.59 16.5-4.44 22-0.85 5.5-1.82 17.2-2.15 26-0.35 9.28-0.13 21.25 0.53 28.5 0.62 6.88 2.14 19.1 3.37 27.17 1.24 8.08 2.59 14.49 3 14.25 0.41-0.23 1.02-3.23 1.35-6.67 0.32-3.44 1.89-13.23 3.49-21.75 1.59-8.52 4.25-20.67 5.92-27 1.66-6.33 7.72-25.9 13.45-43.5 5.73-17.6 12.04-37.63 14.01-44.5 1.97-6.88 5.34-21.27 7.49-32 2.15-10.73 4.18-22.99 4.52-27.25 0.34-4.26 0.25-7.73-0.19-7.7-0.43 0.02-4.9 5.09-9.91 11.25z"/>
	<path id="abductors" fill-rule="evenodd" class="s2" d="m623.4 647.7c-1.57 3.96-1.88 7.26-1.81 18.8 0.06 8.66 0.75 17.43 1.81 23 0.94 4.95 3.32 15.07 5.27 22.5 1.96 7.42 5.27 18.22 7.36 24 2.09 5.77 7.46 17.7 11.93 26.5 4.47 8.8 8.39 16.22 8.72 16.5 0.33 0.27 0.3-6.7-0.06-15.5-0.36-8.8-1.52-21.85-2.57-29-1.06-7.15-3.29-18.18-4.96-24.5-1.66-6.33-7.2-23.85-12.31-38.94-5.1-15.1-9.78-27.61-10.38-27.8-0.61-0.2-1.96 1.8-3 4.44zm-194.24 2.05c-0.5 0.96-5.21 14.8-10.46 30.75-5.25 15.95-10.69 33.72-12.07 39.5-1.39 5.77-3.23 15.67-4.1 22-0.88 6.32-1.86 18.47-2.2 27-0.33 8.52-0.34 15.27-0.01 15 0.33-0.28 4.25-7.7 8.72-16.5 4.47-8.8 9.92-20.95 12.11-27 2.19-6.05 5.92-18.65 8.3-28 2.38-9.35 4.89-22.18 5.58-28.5 0.69-6.33 1.01-15.1 0.72-19.5-0.29-4.4-1.25-9.91-2.14-12.25-0.89-2.34-2.05-4.25-2.58-4.25-0.54 0-1.38 0.79-1.87 1.75z"/>
	<path id="abs" fill-rule="evenodd" class="s1" d="m512.5 449.7c-1.1 0.25-6.27 1.77-11.5 3.38-5.23 1.6-11.3 3.93-13.5 5.17-2.6 1.47-4.81 3.83-6.32 6.75-2.04 3.96-2.28 5.65-2 14.07 0.28 8.47 0.64 10.05 3.07 13.75 1.51 2.3 3.76 4.45 5 4.77 1.39 0.37 4.16-0.35 7.25-1.88 2.75-1.35 9.05-3.66 14-5.13 4.95-1.47 10.3-3.22 11.89-3.88 1.58-0.66 3.57-2.55 4.41-4.2 1.04-2.04 1.54-5.89 1.54-12 0-4.95-0.53-10.91-1.17-13.25-0.7-2.56-2.26-5.06-3.92-6.28-1.51-1.12-3.65-1.97-4.75-1.89-1.1 0.08-2.9 0.36-4 0.62zm24.7 1.3c-1.21 1.1-2.65 3.13-3.2 4.5-0.55 1.38-1.28 6.21-1.62 10.75-0.35 4.76-0.17 9.94 0.44 12.25 0.58 2.2 1.87 5.01 2.87 6.24 1.23 1.53 5 3.15 11.81 5.08 5.5 1.56 12.7 4.05 16 5.54 3.3 1.48 6.56 2.68 7.25 2.67 0.69-0.02 2.38-1.38 3.75-3.03 1.38-1.65 3.01-4.91 3.64-7.25 0.62-2.34 1.19-7.62 1.25-11.75 0.09-6.31-0.29-8.18-2.39-11.81-1.84-3.17-3.83-4.93-7.5-6.64-2.75-1.28-9.39-3.73-14.75-5.44-5.36-1.71-11.01-3.11-12.55-3.11-1.55 0-3.8 0.9-5 2zm-31.2 45.89c-4.13 1.54-8.85 3.49-10.5 4.33-1.65 0.85-4.61 3.28-6.59 5.41-2.66 2.87-3.92 5.42-4.86 9.87-0.71 3.3-1.06 8.02-0.78 10.5 0.28 2.48 1.23 5.96 2.12 7.75 0.88 1.79 2.62 3.75 3.86 4.36 1.7 0.84 4.88 0.72 13-0.5 5.91-0.89 12.55-1.61 14.75-1.61q4 0 6-2c1.1-1.1 2.34-3.69 2.75-5.75 0.41-2.06 0.75-7.8 0.75-12.75 0-4.95-0.34-11.02-0.75-13.5-0.4-2.48-1.64-5.51-2.75-6.75-1.42-1.6-3.08-2.24-5.75-2.2-2.06 0.03-7.13 1.3-11.25 2.84zm30.14-1.01c-1.18 1.17-2.64 4.03-3.24 6.37-0.62 2.4-0.94 9.25-0.72 15.75 0.24 7.45 0.9 12.52 1.85 14.41 0.81 1.6 2.14 3.25 2.97 3.66 0.83 0.42 7.69 1.47 15.25 2.34 9.62 1.11 14.5 1.29 16.25 0.59 1.37-0.55 3.29-2.46 4.25-4.25 1.29-2.39 1.74-5.5 1.71-11.75-0.03-7.37-0.39-9.13-2.75-13.25-1.49-2.61-4.4-5.8-6.46-7.09-2.06-1.29-6.9-3.61-10.75-5.15-3.85-1.55-9.08-3.02-11.61-3.28-3.75-0.38-5.02-0.06-6.75 1.65zm-36.64 47.57c-3.3 0.71-7.35 1.96-9 2.78-1.69 0.84-3.62 2.98-4.41 4.88-0.99 2.38-1.28 5.94-0.97 11.89 0.34 6.36 1.07 9.76 2.92 13.5 1.35 2.75 3.58 5.54 4.96 6.21 1.37 0.66 7.45 1.96 13.5 2.87 8.37 1.26 11.54 1.39 13.25 0.54 1.24-0.62 2.98-2.58 3.88-4.37 0.9-1.79 2.05-6.17 2.56-9.75 0.51-3.58 0.61-10.55 0.23-15.5-0.64-8.14-0.98-9.26-3.56-11.75-2.61-2.5-3.51-2.74-10.11-2.67-3.99 0.04-9.95 0.66-13.25 1.37zm38.75-0.2c-1.24 0.75-3.15 2.91-4.25 4.81-1.67 2.88-2 5.26-2 14.69 0 8.75 0.44 12.47 2 16.75 1.77 4.87 2.43 5.63 5.75 6.61 2.96 0.88 5.85 0.75 13.75-0.62 5.5-0.95 10.9-2.13 12-2.63 1.1-0.5 2.74-2.13 3.65-3.63 0.91-1.5 2.2-5.43 2.86-8.73 0.66-3.3 1.04-9.21 0.84-13.14-0.23-4.8-0.89-7.75-1.99-9-0.91-1.02-4.06-2.67-7-3.65-2.95-0.99-9.41-2.03-14.36-2.31-6.6-0.38-9.6-0.16-11.25 0.85zm-47.05 47.75c-1.21 1.1-2.49 3.69-2.85 5.75-0.35 2.06-0.39 9.6-0.08 16.75 0.31 7.15 1.51 17.5 2.67 23 1.16 5.5 3.24 14.27 4.62 19.5 1.39 5.23 4.38 14.67 6.66 21 2.27 6.33 5.68 14.88 7.56 19 1.88 4.13 4.71 9.3 6.28 11.5 1.56 2.2 3.97 4.67 5.35 5.5 2.22 1.33 2.67 1.33 4.09 0 1.41-1.33 1.58-6.82 1.52-49-0.03-26.12-0.5-50.54-1.04-54.25-0.54-3.71-1.77-8.61-2.73-10.89-0.96-2.28-2.88-4.71-4.25-5.4-1.38-0.68-6.33-1.97-11-2.85-4.68-0.88-9.87-1.6-11.55-1.6-1.68-0.01-4.05 0.89-5.25 1.99zm57.8-0.62c-3.02 0.66-7 1.86-8.82 2.66-2.2 0.96-3.97 2.82-5.22 5.46-1.15 2.45-2.28 8.25-2.92 15-0.57 6.05-1.04 30.69-1.04 54.75 0 40.65 0.12 43.81 1.75 44.66 1.12 0.58 2.55 0.49 3.95-0.25 1.21-0.64 3.41-2.74 4.87-4.66 1.47-1.92 4.37-7.1 6.45-11.5 2.07-4.4 5.87-14.08 8.44-21.5 2.56-7.42 6.21-19.46 8.1-26.75 1.89-7.29 4.17-19.21 5.05-26.5 0.91-7.46 1.38-16.31 1.08-20.25-0.37-4.73-1.17-7.81-2.47-9.5-1.63-2.12-2.82-2.53-7.82-2.67-3.25-0.09-8.38 0.38-11.4 1.05z"/>
	<path id="obliques" fill-rule="evenodd" class="s1" d="m432.08 426c0.59 0 2.5 2.53 4.25 5.61 1.74 3.09 5.42 7.54 8.17 9.88 2.75 2.35 7.36 5.67 10.25 7.39 2.89 1.72 5.24 3.46 5.22 3.87-0.01 0.41-2.04 1.76-4.5 3-2.46 1.24-5.59 2.25-6.97 2.25-1.37 0-3.74-0.61-5.25-1.36-1.51-0.75-4.32-3.16-6.25-5.36-1.92-2.2-4.06-5.74-4.73-7.89-0.68-2.14-1.24-6.93-1.25-10.64-0.01-4.17 0.39-6.75 1.06-6.75zm195.21-0.24l0.87 4.37c0.48 2.4 0.59 6.17 0.24 8.37-0.35 2.2-1.43 5.57-2.4 7.5-0.97 1.93-3.84 5.41-6.38 7.75-3.93 3.62-5.25 4.25-8.87 4.24-2.34-0.01-6.16-0.91-8.5-2-2.34-1.1-4.24-2.33-4.24-2.74 0.01-0.41 2.15-1.94 4.75-3.4 2.61-1.46 7.66-5.08 11.24-8.04 3.58-2.96 8.03-7.78 9.9-10.71zm-194.42 26.73l5.81 6.01c3.2 3.3 7.95 8.81 15.31 18.49l-2.75 1.07c-1.51 0.59-4.21 0.81-6 0.5-1.78-0.31-4.37-1.69-5.75-3.07-1.37-1.37-3.15-4.86-3.94-7.75-0.8-2.88-1.73-7.5-2.07-10.25zm192.99 0.97c0.35 0.22 0.3 2.57-0.12 5.22-0.42 2.65-1.41 7.06-2.19 9.81-0.79 2.75-2.48 6-3.74 7.23-1.27 1.22-3.89 2.69-5.81 3.25-1.93 0.56-4.18 1.03-5 1.04-0.83 0.01-2.4-0.62-3.5-1.39-1.95-1.37-1.9-1.53 1.96-6.27 2.18-2.67 7.06-8.11 10.86-12.08 3.79-3.97 7.19-7.04 7.54-6.81zm-164.55 4.52c1.75 0 4.09 0.61 5.19 1.35 1.1 0.75 3.07 3.79 4.38 6.76 1.5 3.41 2.79 9.15 3.5 15.58 0.61 5.6 0.77 10.55 0.34 11-0.42 0.45-3.26-1.65-6.31-4.68-3.05-3.02-7.32-8.2-9.5-11.5-2.17-3.3-4.51-7.74-5.18-9.86-1.18-3.69-1.1-3.97 1.58-6.25 1.67-1.42 4.1-2.39 6-2.4zm135.81 0.01c1.74 0 3.87 0.99 5.38 2.5 1.37 1.38 2.51 3.29 2.52 4.25 0.02 0.97-1.16 4-2.61 6.75-1.44 2.75-4.94 7.88-7.77 11.4-2.83 3.52-6.38 7.23-7.89 8.25-1.51 1.02-2.86 1.85-3 1.85-0.14 0 0.01-4.16 0.34-9.25 0.32-5.09 1.32-11.5 2.22-14.25 0.91-2.75 3.06-6.46 4.78-8.25 2.12-2.19 4.08-3.25 6.03-3.25zm-159.33 21.5l5.1 8.75c2.81 4.82 5.33 9.88 5.61 11.25 0.27 1.38 0.05 2.5-0.5 2.5-0.55 0-2.29-1.23-3.87-2.75-1.57-1.51-3.38-4.55-4.02-6.75-0.63-2.2-1.42-6.02-1.74-8.5zm182.32 3.02c0.49 0.26-0.22 3.97-1.59 8.23-1.72 5.37-3.33 8.44-5.25 10-1.52 1.23-3.1 2.24-3.52 2.25-0.41 0-0.73-0.78-0.71-1.75 0.01-0.96 2.31-5.68 5.1-10.48 2.79-4.81 5.48-8.52 5.97-8.25zm-164.96 0.48c2.15 0 4.61 1.67 9.99 6.75 4.31 4.08 7.93 8.54 9.14 11.25 1.37 3.1 2.16 7.62 2.53 14.5 0.43 7.99 0.25 10.18-0.89 10.87-1.04 0.63-3.56-1.37-9.46-7.5-5.6-5.83-9.29-10.8-12.16-16.37-2.27-4.4-4.42-9.8-4.78-12-0.51-3.07-0.27-4.4 1.06-5.75 0.94-0.96 3-1.75 4.57-1.75zm148.24 0.58c1.16 0.35 2.88 1.37 3.82 2.28 1.45 1.39 1.55 2.33 0.68 6.14-0.56 2.48-2.68 7.65-4.7 11.5-2.27 4.32-6.75 10.21-11.68 15.38-5.9 6.17-8.38 8.15-9.43 7.5-1.14-0.71-1.28-2.69-0.71-10.38 0.39-5.22 1.25-11.25 1.92-13.39 0.67-2.14 2.6-5.68 4.29-7.87 1.69-2.19 5.46-5.73 8.38-7.88 3.82-2.82 5.9-3.74 7.43-3.28zm-152.29 26.39c0.77-0.01 6.37 5.05 12.44 11.25 7.86 8.04 11.4 12.43 12.31 15.28 0.71 2.2 1.59 9.07 1.97 15.26 0.59 9.63 0.47 11.26-0.82 11.28-0.82 0.01-4.45-3.03-8.06-6.76-3.61-3.73-8.08-9.03-9.94-11.78-1.86-2.75-4.46-7.7-5.78-11-1.6-3.98-2.59-8.94-2.97-14.75-0.46-7.11-0.3-8.75 0.85-8.78zm155.78 0.03c0.94 0 1.62 1.14 1.82 3 0.17 1.65-0.19 5.59-0.8 8.75-0.6 3.17-2.21 8.68-3.58 12.25-1.36 3.58-3.88 8.53-5.59 11-1.71 2.48-6.06 7.55-9.66 11.28-3.61 3.73-7.24 6.77-8.07 6.76-1.28-0.02-1.41-1.68-0.9-11.28 0.46-8.51 1.15-12.48 2.83-16.26 1.49-3.36 5.54-8.36 12.33-15.25 5.57-5.63 10.8-10.25 11.62-10.25zm-1.94 33.47c0.4 0.23 0.55 5.06 0.32 10.72-0.22 5.67-1.05 13.46-1.85 17.31-0.79 3.85-2.6 9.48-4.01 12.5-1.41 3.03-5.68 9.67-9.48 14.75-3.8 5.09-7.82 9.7-8.92 10.25-1.1 0.55-2.33 1-2.75 1.01-0.41 0-0.45-6.64-0.09-14.75 0.38-8.46 1.31-16.89 2.18-19.76 1.13-3.69 3.54-7.22 9.21-13.5 4.23-4.67 9.25-10.85 11.17-13.73 1.93-2.87 3.82-5.04 4.22-4.8zm-151.29 0.5c0.47-0.01 1.37 1 1.99 2.25 0.63 1.26 5.04 6.56 9.8 11.78 4.76 5.23 9.54 11.3 10.62 13.5 1.18 2.41 2.54 8.78 3.42 16 0.8 6.6 1.47 14.03 1.48 16.5 0.01 2.48-0.37 5.18-0.85 6-0.69 1.22-1.55 0.74-4.51-2.5-2.01-2.2-6.79-8.61-10.62-14.25-4.42-6.49-7.77-12.72-9.14-17-1.59-4.96-2.28-10.13-2.6-19.5-0.24-7.01-0.06-12.76 0.41-12.78zm-5.36 34.53l2.93 3.5c1.61 1.93 5.75 7.78 9.21 13 3.46 5.23 8.84 14 11.95 19.5 3.11 5.5 7.84 15.63 10.51 22.5 2.66 6.88 6.66 18.13 8.89 25 2.22 6.88 5.95 18.58 8.28 26 2.33 7.43 5.52 17.67 7.09 22.75 1.57 5.09 2.52 9.46 2.1 9.71-0.41 0.24-4.17-3.02-8.35-7.25-4.18-4.24-14.53-15.8-23-25.69-8.47-9.89-22.26-25.19-30.65-34-10.62-11.16-15.55-17.08-16.24-19.52-0.55-1.92-0.99-5.07-0.99-7 0-1.92 0.89-7.21 1.99-11.75 1.1-4.53 3.93-12.63 6.3-18 2.37-5.36 5.59-11.77 7.15-14.25zm161.53 0.5c0.37 0 1.84 1.91 3.26 4.25 1.42 2.34 4.49 8.53 6.82 13.75 2.33 5.23 5.1 13.1 6.16 17.5 1.06 4.4 1.93 9.8 1.93 12 0 2.2-0.51 5.8-1.12 8-0.86 3.04-4.06 7.02-13.27 16.5-6.68 6.88-15.75 16.55-20.16 21.5-4.41 4.95-13.7 15.53-20.64 23.5-6.94 7.98-15.14 16.98-18.22 20-4.41 4.34-5.6 5.08-5.58 3.5 0.01-1.1 1.17-5.82 2.57-10.5 1.41-4.67 6.41-20.42 11.11-35 4.7-14.57 10.29-30.88 12.43-36.25 2.14-5.36 5.75-13.46 8.01-18 2.27-4.53 6.87-12.52 10.22-17.75 3.36-5.22 8.28-12.53 10.95-16.25 2.67-3.71 5.16-6.75 5.53-6.75z"/>
	<path id="forearms" fill-rule="evenodd" class="s1" d="m393.58 521.36c0.29 0.63-0.5 3.84-1.74 7.14-1.24 3.3-3.4 7.27-4.8 8.82-1.4 1.55-4.46 3.58-6.81 4.5-3.32 1.31-4.55 1.41-5.5 0.48-0.97-0.93 0.2-2.65 5.44-8 3.66-3.74 8.06-8.44 9.78-10.44 1.81-2.11 3.33-3.16 3.63-2.5zm271.28-0.4c0.35-0.02 4.27 3.69 8.7 8.25 4.44 4.56 8.68 9.41 10.81 13.29l-3.93-0.76c-2.17-0.41-4.95-1.43-6.19-2.25-1.24-0.82-2.91-2.5-3.72-3.74-0.8-1.24-2.55-5.06-3.89-8.5-1.33-3.44-2.13-6.27-1.78-6.29zm-317.47 5.96l0.85 2.29c0.47 1.26 1.23 7.02 1.68 12.79 0.47 5.94 0.44 13.32-0.07 17-0.5 3.58-1.83 9.65-2.96 13.5-1.13 3.85-4.2 11.27-6.82 16.5-2.61 5.23-9.18 16.48-14.58 25-5.4 8.52-11.71 18.2-14.02 21.5-2.31 3.3-8.25 12.75-13.2 21-4.95 8.25-10.3 17.44-11.89 20.41-1.58 2.98-3.33 5.23-3.88 5-0.55-0.22-0.94-1.31-0.88-2.41 0.07-1.1 2.7-7.63 5.84-14.5 3.15-6.88 7.95-19.02 10.67-27 2.72-7.98 7.47-23.27 10.54-34 3.08-10.73 7.15-23.55 9.03-28.5 1.89-4.95 5.27-12.38 7.52-16.5 2.24-4.13 7.23-12 11.08-17.5 3.85-5.5 7.92-11.03 9.04-12.29zm364.42 1.04c0.39-0.02 4.07 4.48 8.2 10.01 4.12 5.53 9.41 13.53 11.75 17.79 2.33 4.26 5.97 12.24 8.07 17.74 2.1 5.5 5 14.05 6.44 19 1.44 4.95 4.62 16.2 7.06 25 2.45 8.8 6.13 20.5 8.19 26 2.05 5.5 6.38 15.96 9.61 23.25 3.23 7.29 5.88 13.7 5.88 14.25 0 0.55-0.56 0.99-1.25 0.99-0.69-0.01-4.74-6.2-9-13.75-4.27-7.56-11.72-19.81-16.57-27.24-4.84-7.42-13.03-20.25-18.2-28.5-5.18-8.25-11.55-19.27-14.18-24.5-2.75-5.49-5.84-13.72-7.3-19.5-1.6-6.34-2.53-12.75-2.52-17.5 0-4.12 0.48-10.2 1.07-13.5 0.58-3.3 1.28-6.79 1.56-7.75 0.27-0.96 0.81-1.77 1.19-1.79zm-326.17 16.7c0.2 0.74-0.2 2.58-0.89 4.09-0.8 1.75-5.98 5.94-14.25 11.53-7.15 4.82-13.87 9.32-14.94 10-1.87 1.18-1.91 1-1.14-4.78 0.44-3.3 1.42-7.24 2.19-8.75 0.77-1.51 2.62-3.54 4.11-4.5 1.49-0.96 7.62-3.36 13.63-5.34 8.37-2.74 11.01-3.27 11.29-2.25zm297.99 1.91c5.98 1.86 11.95 4.18 13.26 5.16 1.31 0.97 3.21 2.9 4.22 4.27 1.01 1.38 2.19 5.12 2.62 8.32 0.43 3.21 0.55 5.98 0.28 6.18-0.28 0.2-3.65-2-7.5-4.88-3.85-2.88-9.7-6.86-13-8.85-3.3-1.98-6.97-4.66-8.16-5.94-1.19-1.28-2.26-3.23-2.37-4.33-0.11-1.1-0.21-2.3-0.21-2.66-0.01-0.36 4.88 0.87 10.86 2.73zm-4.33 12.05c1.76 0.92 5.91 3.49 9.21 5.73 3.3 2.23 8.02 6.12 10.5 8.65 2.47 2.54 7.25 8.63 10.61 13.55 3.36 4.93 9.5 14.58 13.63 21.45 4.14 6.88 11.22 19.48 15.74 28 4.52 8.53 12.45 23.04 17.62 32.25 5.17 9.21 9.17 17.43 8.9 18.25-0.28 0.83-1.18 1.5-2 1.5-0.83 0-2.35-1.69-3.38-3.75-1.04-2.06-5.14-8.92-9.13-15.25-3.98-6.32-10.62-16.22-14.76-22-4.13-5.77-10.69-14.32-14.57-19-3.88-4.67-10.27-12.1-14.19-16.5-3.92-4.4-10.36-12.05-14.31-17-3.95-4.95-8.71-11.92-10.57-15.5-1.87-3.57-4.12-8.97-5.01-12-0.88-3.02-1.58-6.52-1.55-7.77 0.05-2.25 0.1-2.25 3.26-0.61zm-297.72-0.55c0.64-0.04 0.9 1.25 0.65 3.18-0.24 1.79-1.73 6.51-3.32 10.5-1.6 3.99-5.08 10.51-7.75 14.5-2.67 3.99-7.26 10.18-10.21 13.75-2.95 3.58-9.62 11.23-14.81 17-5.2 5.78-11.8 13.43-14.68 17-2.88 3.58-8.49 11.23-12.47 17-3.98 5.78-10.78 16.46-15.11 23.75-4.33 7.29-8.1 13.25-8.37 13.25-0.28 0-1.18-0.22-2-0.5-0.83-0.27-1.5-0.95-1.5-1.5 0-0.55 1.27-3.14 2.83-5.75 1.55-2.61 5.11-8.8 7.9-13.75 2.79-4.95 6.18-11.02 7.54-13.5 1.35-2.47 6.06-11.25 10.47-19.5 4.41-8.25 11.61-21.07 16.01-28.5 4.39-7.42 10.86-17.3 14.37-21.94 3.51-4.64 8.4-10.17 10.88-12.3 2.47-2.13 7.65-5.83 11.5-8.24 3.85-2.41 7.48-4.41 8.07-4.45zm319.23 51.78c4.87 5.31 12.64 14.19 17.27 19.73 4.64 5.55 12.69 16.35 17.89 24 5.21 7.66 12.49 19.1 16.2 25.42 5.3 9.07 6.47 11.77 5.53 12.8-0.65 0.71-1.53 1.27-1.94 1.25-0.41-0.03-2.16-2.64-3.88-5.8-1.72-3.16-6.8-11.15-11.29-17.75-4.48-6.6-14-19.42-21.15-28.5-7.15-9.07-15.03-19.42-17.53-23-2.49-3.57-5.96-8.86-7.72-11.75-1.75-2.89-2.97-5.43-2.71-5.65 0.26-0.22 4.46 3.94 9.33 9.25zm-334.68-8.85c0.37 0-0.26 1.69-1.41 3.75-1.14 2.06-4.44 7.35-7.32 11.75-2.88 4.4-8.31 11.83-12.07 16.5-3.75 4.68-10.48 13.23-14.95 19-4.46 5.78-11.21 15.25-14.99 21.05-3.79 5.81-8.01 12.67-9.38 15.26-1.38 2.58-2.95 4.71-3.5 4.74-0.55 0.02-1.54-0.54-2.2-1.25-0.95-1.03 0.63-4.33 7.56-15.8 4.81-7.97 11.47-18.55 14.8-23.5 3.32-4.95 9.34-13.05 13.37-18 4.03-4.95 12.3-14.51 18.37-21.25 6.07-6.74 11.34-12.25 11.72-12.25z"/>
	<path id="triceps-front" fill-rule="evenodd" class="s1" d="m370 428.75c-0.68 1.51-2.78 7.25-4.65 12.75-1.88 5.5-4.28 13.38-5.34 17.5-1.05 4.13-2.62 12.79-3.47 19.25-0.84 6.46-1.55 16.36-1.57 22-0.01 5.64 0.21 10.02 0.5 9.75 0.28-0.27 1.83-6.35 3.43-13.5 1.6-7.15 4.11-17.73 5.57-23.5 1.46-5.77 4.49-16.13 6.73-23 3.87-11.85 4.02-12.8 3.02-18.25-0.59-3.16-1.49-5.75-2.02-5.75-0.52 0-1.51 1.24-2.2 2.75zm315.63-1c-0.27 0.96-0.78 3.55-1.15 5.75-0.52 3.16 0.19 6.64 3.36 16.5 2.2 6.88 5.17 17 6.59 22.5 1.41 5.5 3.92 16.52 5.58 24.5 1.65 7.98 3.28 14.73 3.62 15 0.34 0.27 0.37-6.93 0.07-16-0.3-9.07-1.26-20.32-2.13-25-0.87-4.68-2.53-11.88-3.69-16-1.16-4.13-3.86-12.34-5.99-18.25-2.14-5.91-4.32-10.75-4.84-10.75-0.52 0-1.16 0.79-1.42 1.75z"/>
	<path id="biceps" fill-rule="evenodd" class="s1" d="m413 407.03c0.27-0.04 1.4 0.58 2.5 1.37 1.88 1.36 2 2.57 1.96 20.27-0.03 15.54-0.42 20.58-2.22 28.83-1.2 5.5-3.58 14.28-5.28 19.5-1.71 5.23-5.19 13.78-7.75 19-2.55 5.23-7.35 13.55-10.66 18.5-3.35 5.02-10.07 12.98-15.2 18-5.05 4.95-10.35 9.67-11.76 10.5-1.41 0.83-2.91 1.12-3.33 0.67-0.42-0.46-0.91-6.76-1.09-14-0.22-8.38 0.21-16.81 1.18-23.17 0.83-5.5 3.1-16.52 5.04-24.5 1.95-7.97 5.39-20.12 7.66-27 2.26-6.87 6.22-16.53 8.78-21.46 2.57-4.92 6.69-11.17 9.17-13.88 2.48-2.71 6.52-6.09 9-7.51 2.48-1.43 6.07-3.15 8-3.83 1.93-0.68 3.73-1.26 4-1.29zm234.78 0.55c1.5 0.34 5.19 1.81 8.22 3.27 3.02 1.46 7.31 4.45 9.54 6.65 2.23 2.2 6.04 7.38 8.46 11.5 2.43 4.13 6.12 12.11 8.21 17.75 2.08 5.64 5.13 15.09 6.76 21 1.64 5.91 4.08 15.93 5.43 22.25 1.35 6.33 2.99 16.9 3.66 23.5 0.66 6.6 0.92 15.15 0.58 19-0.35 3.85-0.86 8.01-1.14 9.25-0.27 1.24-1.17 2.25-2 2.25-0.83 0-6.16-4.61-11.86-10.25-5.7-5.64-12.61-13.62-15.37-17.75-2.75-4.12-7.14-11.77-9.77-17-2.62-5.22-6.47-14.67-8.55-21-2.09-6.32-4.8-16.22-6.03-22-1.79-8.33-2.27-13.92-2.34-27.03-0.07-14.28 0.16-16.91 1.7-19.27 1.46-2.21 2.3-2.61 4.5-2.12z"/>
	<path id="shoulders" fill-rule="evenodd" class="s1" d="m420.75 323.58c-3.16 0.78-7.89 2.49-10.5 3.8-2.61 1.31-7.11 4.24-10 6.5-2.89 2.27-7.22 6.93-9.63 10.37-2.41 3.44-5.29 8.05-6.4 10.25-1.11 2.2-3.01 6.93-4.23 10.5-1.21 3.58-2.83 10.33-3.59 15-0.77 4.68-1.4 11.88-1.41 16 0 4.13 0.67 11.44 1.5 16.25 0.83 4.81 1.96 9.65 2.51 10.75 0.9 1.81 2.53 0.48 16.84-13.75 9.93-9.87 17.51-18.36 20.31-22.75 2.45-3.85 7.53-12.85 11.28-20 3.75-7.15 8.19-15.02 9.87-17.5 1.69-2.48 6.47-8 10.63-12.27 6.74-6.92 7.41-7.94 6.07-9.29-0.82-0.83-5.1-2.4-9.5-3.47-4.4-1.08-10.25-1.92-13-1.88-2.75 0.04-7.59 0.71-10.75 1.49zm194.75-0.23c-2.75 0.65-6.24 1.96-7.75 2.92-1.51 0.95-2.76 2.29-2.76 2.98-0.01 0.69 1.9 2.85 4.25 4.81 2.34 1.95 6.34 6.23 8.87 9.5 2.54 3.27 9 14.04 14.36 23.94 5.37 9.9 11.15 20.02 12.87 22.5 1.71 2.48 6.98 8.33 11.71 13 4.74 4.68 11.81 11.65 15.73 15.5l7.12 7c1.55-6.2 2.53-11.15 3.19-15 0.74-4.35 0.98-11.93 0.64-20-0.42-9.97-1.17-15.1-3.21-22-1.47-4.95-4.54-12.6-6.83-17-2.74-5.26-6.26-10.06-10.28-14-3.36-3.3-8.77-7.43-12.01-9.19-3.25-1.75-8.6-3.89-11.9-4.75-3.3-0.86-8.92-1.53-12.5-1.48-3.58 0.05-8.75 0.62-11.5 1.27z"/>
	<path id="chest" fill-rule="evenodd" class="s1" d="m468.97 329.93c-1.39 0.41-4.43 1.72-6.75 2.91-2.32 1.19-7.42 5.2-11.33 8.91-3.91 3.71-9.18 9.9-11.72 13.75-2.54 3.85-6.99 12.29-9.9 18.75-2.9 6.46-5.75 14.11-6.35 17-1.04 5.1-0.95 5.5 3.07 13.75 2.28 4.68 6.98 12.77 10.43 18 3.46 5.23 8.27 11.22 10.68 13.32 2.42 2.1 8 5.6 12.4 7.77 6.02 2.97 10.1 4.22 16.5 5.05 7.07 0.92 9.84 0.83 16.5-0.52 4.4-0.89 10.7-2.9 14-4.45 3.3-1.56 7.52-4.37 9.38-6.25 1.87-1.88 4.4-5.44 5.63-7.92 1.23-2.48 2.75-6.86 3.37-9.75 0.61-2.89 1.12-13.69 1.11-24 0-11.07-0.58-22.64-1.43-28.25-0.78-5.23-2.33-11.98-3.44-15-1.11-3.02-3.95-7.7-6.32-10.39-2.36-2.68-5.99-5.72-8.05-6.75-2.06-1.02-10.73-2.99-19.25-4.36-8.53-1.38-15.61-2.46-15.75-2.41-0.14 0.04-1.39 0.42-2.78 0.84zm101.53 1.72c-7.15 1.35-15.36 3.56-18.25 4.91-3.56 1.65-6.39 3.97-8.8 7.19-1.95 2.61-4.37 7-5.38 9.75-1 2.75-2.45 8.37-3.2 12.5q-1.37 7.49-1.37 31.5c0 22.45 0.14 24.36 2.21 29.5 1.22 3.02 3.92 7.47 6 9.87 2.48 2.86 6.21 5.52 10.79 7.68 3.85 1.81 9.92 3.85 13.5 4.52 3.95 0.75 9.35 0.98 13.75 0.58 3.99-0.36 10.06-1.58 13.5-2.72 3.44-1.14 9.12-3.96 12.64-6.25 3.51-2.3 8.03-5.98 10.03-8.18 2.01-2.2 5.02-6.02 6.7-8.5 1.68-2.48 5.67-9.23 8.87-15 5.42-9.79 5.77-10.84 5.28-15.5-0.28-2.75-2.61-9.95-5.15-16-2.55-6.05-6.54-14.22-8.88-18.16-2.33-3.94-6.49-9.75-9.24-12.91-2.75-3.17-7.7-7.68-11-10.03-3.3-2.35-8.03-4.99-10.5-5.86-2.48-0.87-5.4-1.53-6.5-1.47-1.1 0.07-7.85 1.22-15 2.58z"/>
	<path id="trazepius" fill-rule="evenodd" class="s1" d="m493.78 292c0.21 1.93-0.15 5.3-0.81 7.5-0.66 2.2-2.45 6.48-3.98 9.5-1.53 3.02-4.36 7.07-6.28 9-1.93 1.93-4.7 4.18-6.17 5-2.39 1.35-3.5 1.32-10.85-0.3-4.51-0.99-10.78-2.34-13.94-3-3.17-0.66-5.76-1.54-5.75-1.95 0-0.41 1.91-1.51 4.25-2.45 2.34-0.93 9.88-4.47 16.75-7.86 6.88-3.4 15.2-8.19 18.5-10.66 3.3-2.47 6.43-5.34 6.95-6.38 0.81-1.62 1.01-1.38 1.33 1.6zm71.62-3c0.39 0 3.27 2.49 6.4 5.54 4.2 4.09 8.98 7.19 18.2 11.81 6.88 3.45 14.86 7.26 17.75 8.46 2.89 1.2 5.25 2.53 5.25 2.94 0 0.41-4.39 1.77-9.75 3.02-5.36 1.24-11.77 2.56-14.25 2.92-4.13 0.59-4.94 0.33-9.87-3.27-4.41-3.22-6.07-5.35-9.29-11.92-2.53-5.14-4.15-10.05-4.54-13.75-0.34-3.16-0.29-5.75 0.1-5.75zm-2.84 8c0.26 0 0.97 2.36 1.59 5.25 0.62 2.89 1.94 7.05 2.94 9.25 1 2.2 3.64 6.14 5.87 8.75 2.22 2.61 4.04 4.98 4.04 5.25 0 0.27-4.16 1.21-9.25 2.07-5.09 0.86-10.26 1.76-11.5 2-1.85 0.35-2.25-0.02-2.25-2.07 0-1.38 1.08-5.99 2.4-10.25 1.32-4.26 2.96-10.23 3.63-13.25 0.68-3.02 1.42-5.84 1.65-6.25 0.23-0.41 0.63-0.75 0.88-0.75zm-65.43 1c0.51 0 1.16 1.91 1.45 4.25 0.28 2.34 1.59 7.85 2.91 12.25 1.32 4.4 2.73 9.8 3.14 12 0.6 3.27 0.48 3.89-0.7 3.38-0.78-0.34-5.93-1.41-11.43-2.38-5.5-0.98-10.22-1.93-10.5-2.12-0.27-0.18 1.5-2.49 3.95-5.11 2.45-2.62 5.23-6.57 6.18-8.77 0.95-2.2 2.25-6.14 2.9-8.75 0.64-2.61 1.58-4.75 2.1-4.75z"/>
	<path id="neck" fill-rule="evenodd" class="s3" d="m500.12 258.66c0.39 0.46 2.97 8.04 5.74 16.84 2.77 8.8 5.95 19.6 7.07 24 1.12 4.4 4.07 14.75 6.56 23 2.49 8.25 4.75 15.79 5.02 16.75 0.27 0.96 0.04 1.75-0.51 1.75-0.55 0-2.83-1.69-5.07-3.75-2.39-2.2-5.86-7.27-8.39-12.25-2.38-4.68-6.06-13.68-8.18-20-3.82-11.42-3.85-11.62-4.01-28.5-0.08-9.35 0.12-17.38 0.46-17.84 0.34-0.46 0.93-0.46 1.31 0zm59.95-0.66c0.51 0 0.99 5.06 1.06 11.25 0.08 6.19 0.04 13.27-0.07 15.75-0.12 2.47-0.87 7.2-1.68 10.5-0.81 3.3-2.74 9.6-4.3 14-1.56 4.4-4.46 11.26-6.46 15.25-1.99 3.99-5.53 9.29-7.87 11.79-2.34 2.5-4.7 4.51-5.25 4.48-0.55-0.04 1.15-7.37 3.79-16.29 2.63-8.93 5.91-20.51 7.28-25.73 1.37-5.23 4.76-16.59 7.53-25.25 2.77-8.66 5.46-15.75 5.97-15.75z"/>
</svg>