<svg version="1.2" xmlns="http://www.w3.org/2000/svg" viewBox="0 0 1058 1486" width="1058" height="1486">
	<style>
		.s0 { fill: #43434f } 
		.s1 { fill: #9895a5 } 
	</style>
	<path id="body-fill" fill-rule="evenodd" class="s0" d="m529.25 46.1c3.78-0.08 5.83 0.58 10 3.24 2.89 1.83 6.91 5.32 8.95 7.75 2.03 2.42 4.65 7.11 5.83 10.41 1.17 3.3 2.4 9.6 2.72 14 0.4 5.57 0.23 8.23-0.58 8.75q-1.18 0.77-1.16-2c0.01-1.51-1.45-5.1-3.25-7.97-1.79-2.88-5.51-7.05-8.26-9.29-3.35-2.72-6.65-4.39-10-5.08-3.9-0.8-5.77-0.72-12 1.82l6 0.06c3.3 0.03 7.58 0.72 9.5 1.52 1.92 0.81 4.97 2.99 6.78 4.83 1.8 1.85 4.03 4.93 4.96 6.86 0.94 1.95 1.87 6.82 2.09 11 0.33 6.1 0.03 8.24-1.62 11.5-1.12 2.2-3.54 5.44-5.37 7.2-1.84 1.76-5.14 3.96-7.34 4.89-2.65 1.12-6.52 1.65-11.5 1.59-4.76-0.06-9.88-0.88-14-2.24-3.57-1.18-7.74-2.78-9.25-3.54-1.51-0.77-2.98-1.85-3.25-2.4-0.29-0.57 1.95-0.38 5.25 0.46 3.16 0.81 7.1 1.49 8.75 1.53 1.65 0.03 5.92-0.85 9.5-1.94 3.58-1.1 8.86-3.59 11.75-5.53 2.89-1.93 6.04-4.66 7-6.05 0.96-1.38 1.41-2.73 1-3-0.41-0.26-2.21 0.9-4 2.57-1.79 1.67-5.73 4.22-8.75 5.67-4.04 1.93-7.63 2.76-13.5 3.11-4.6 0.27-10.12-0.04-13-0.74-2.75-0.67-7.21-2.65-9.9-4.4-2.7-1.75-6.65-5.43-8.79-8.18-3.21-4.14-3.88-5.77-3.86-9.5 0.02-2.47 0.71-6.86 1.54-9.75 0.9-3.13 3.22-7.31 5.76-10.36 2.34-2.82 6.73-6.65 9.75-8.51 3.02-1.87 7.3-3.65 9.5-3.96 3.99-0.56 4-0.56 1.5 1.07-1.38 0.89-3.94 3.74-5.71 6.32-1.76 2.58-3.65 6.72-4.19 9.19-0.63 2.91-0.64 6.27-0.01 9.5 0.53 2.75 2.08 6.69 3.44 8.75 1.36 2.06 3.93 4.86 5.72 6.22 1.79 1.36 3.7 2.48 4.25 2.49 0.55 0.01-0.46-1.1-2.25-2.47-1.79-1.37-4.25-4.4-5.46-6.74-1.62-3.11-2.22-6-2.22-10.75-0.01-5.13 0.62-7.85 2.96-12.86 1.64-3.52 4.31-7.36 5.97-8.59 1.65-1.23 4.13-2.84 5.5-3.57 1.38-0.73 3.85-1.65 5.5-2.05 1.65-0.4 5.14-0.77 7.75-0.83zm17.6 2.9l2.82 0.03c1.56 0.02 5.75 1.45 9.33 3.18 3.58 1.74 8.64 5.32 11.25 7.97 2.61 2.65 5.62 6.73 6.68 9.07 1.07 2.34 2.25 6.5 2.62 9.25 0.47 3.4 0.19 6.76-0.88 10.5q-1.57 5.5-5.14 9c-1.96 1.92-3.55 3.28-3.53 3 0.02-0.28 0.68-2.3 1.47-4.5 0.79-2.2 1.43-5.13 1.41-6.5-0.02-1.54-0.9-0.01-2.29 4-1.24 3.57-3.12 7.78-4.17 9.35-1.06 1.57-3.94 4.14-6.42 5.71-2.48 1.58-6.08 3.19-11.5 4.32l2.27-2.44c1.25-1.34 3.58-4.91 5.18-7.94 1.59-3.03 3.44-8.65 4.09-12.5 0.66-3.85 0.93-9.03 0.62-11.5-0.32-2.47-1.22-6.53-2-9-0.79-2.47-2.27-6.3-3.3-8.5-1.02-2.2-2.42-4.56-3.11-5.25-0.69-0.69-1.29-1.62-1.34-2.06-0.04-0.45-0.98-1.8-2.07-3zm-64.26 51c0.23 0 1.12 1.46 1.99 3.25 0.86 1.79 1.2 3.52 0.75 3.84-0.46 0.33-4.09 3.14-8.08 6.25-3.99 3.11-8.04 6.79-9 8.18-0.96 1.39-1.86 2.29-2 2-0.14-0.29 1.28-3.33 3.15-6.77 1.86-3.44 5.5-8.61 8.08-11.5 2.59-2.89 4.88-5.25 5.11-5.25zm95.15 1c0.69 0 3.29 2.36 5.77 5.25 2.48 2.89 6.03 8.17 7.87 11.75 1.85 3.57 3.64 7.85 3.98 9.5 0.54 2.66 0.47 2.78-0.62 1.05-0.68-1.07-3.26-4.16-5.74-6.87-2.47-2.72-7.2-6.75-10.5-8.96-3.3-2.22-6.11-4.19-6.25-4.38-0.14-0.19 0.76-1.92 1.99-3.84 1.23-1.93 2.81-3.5 3.5-3.5zm-87.99 9.01c0.14-0.01 1.6 0.89 3.25 1.99 1.65 1.1 3 2.45 3 3 0 0.55-3.39 4.94-7.54 9.75-5.35 6.21-9.12 11.93-13.01 19.75-3.68 7.41-5.95 13.53-6.96 18.75-0.82 4.26-1.49 10.11-1.5 13-0.01 2.89 0.58 7.27 1.3 9.75 0.73 2.47 2.98 7.54 5.01 11.25 2.04 3.71 3.96 6.64 4.28 6.5 0.31-0.14-0.33-3.18-1.44-6.75-1.11-3.58-2.57-10.55-3.26-15.5-1.07-7.8-1.02-10.17 0.44-17.75 0.93-4.81 2.83-11.56 4.22-15 1.4-3.44 3.84-8.28 5.42-10.75 1.58-2.48 5.05-6.63 7.71-9.22 2.66-2.6 6.41-5.87 8.33-7.27 1.93-1.4 4.51-2.54 5.75-2.53 1.24 0.01 2.27 0.36 2.28 0.77 0.02 0.41-0.93 1.65-2.11 2.75-1.19 1.1-4.09 4.7-6.46 8-2.37 3.3-5.68 8.92-7.36 12.5-1.69 3.57-4 10.32-5.14 15-1.14 4.67-1.86 8.72-1.59 9 0.26 0.27 1.24-1.98 2.17-5 0.93-3.03 3.79-9.55 6.35-14.5 2.56-4.95 6.23-10.95 8.14-13.33 1.91-2.39 5.83-6.1 8.72-8.25 4.39-3.28 5.82-3.84 8.75-3.42 1.93 0.27 3.5 0.72 3.5 1 0 0.27-1.52 2.86-3.38 5.75-1.86 2.89-5.21 10.65-7.44 17.25-2.24 6.6-5.03 17.4-6.21 24-1.93 10.84-2.03 13.11-1.02 23.5 0.61 6.33 2.27 15.32 3.69 20 1.42 4.67 3.66 10.64 4.97 13.25 1.7 3.38 3.4 5.18 5.89 6.25 1.93 0.82 4.18 1.5 5 1.5 0.94 0 0.34-1.02-1.61-2.75-1.72-1.51-4.88-6.35-7.02-10.75-2.15-4.4-4.66-11.38-5.58-15.5-1.13-5.06-1.66-11.89-1.63-21 0.03-11.34 0.46-15.1 2.69-23.5 1.46-5.5 4.39-13.6 6.51-18 2.13-4.4 5.84-10.22 8.25-12.92 2.42-2.71 6.19-5.74 8.39-6.73 2.2-0.99 4.79-1.82 5.75-1.83 1.51-0.02 1.75 0.99 1.75 7.48 0 4.12 0.63 10.76 1.41 14.75 0.77 3.99 2.38 10.17 3.58 13.75 1.2 3.57 3.11 10.32 4.23 15 1.36 5.62 2.07 12.05 2.11 19q0.07 10.5-1.67 17c-0.96 3.57-2.88 8.97-4.27 12-1.39 3.02-4.07 7.41-5.96 9.75-1.88 2.34-3.09 4.26-2.68 4.27 0.41 0 2.25-0.56 4.08-1.25 2.61-1 4.06-2.69 6.67-7.77 1.83-3.58 4.27-9.88 5.42-14 1.49-5.36 2.08-10.35 2.06-17.5-0.02-6.06-0.75-13.16-1.87-18-1.01-4.4-3.31-13.63-5.11-20.5-2.03-7.77-3.31-15.15-3.38-19.5-0.08-4.46 0.52-8.73 1.63-11.75 1.42-3.85 2.37-4.94 5-5.75 2.51-0.77 3.77-0.66 5.5 0.5 1.24 0.82 5.68 5.44 9.86 10.25 4.18 4.81 8.67 10.55 9.98 12.75 1.3 2.2 3.44 6.92 4.76 10.5 1.32 3.57 2.96 10.1 3.64 14.5 0.71 4.57 0.98 11.21 0.64 15.5-0.34 4.12-1.73 10.87-3.1 15-1.38 4.12-2.28 7.61-2.02 7.75 0.27 0.14 2.49-3.46 4.93-8 2.44-4.54 4.95-9.6 5.59-11.25 0.63-1.65 1.11-6.49 1.06-10.75-0.07-6.04-0.74-9.46-3.06-15.5-1.63-4.26-5.24-11.58-8.01-16.25-2.77-4.68-8.4-12.78-12.51-18-4.11-5.23-7.48-9.84-7.49-10.25-0.01-0.41 1.44-1.73 6.48-5.11l5.42 2.93c2.99 1.62 8.14 5.88 11.5 9.54 3.63 3.94 7.66 9.78 9.99 14.5 2.15 4.34 4.12 9.91 4.38 12.39 0.25 2.47-0.05 7.54-0.66 11.25-1.11 6.64-1.08 6.82 1.86 11.5 1.65 2.61 3.51 7 4.15 9.75 0.64 2.8 0.89 7.86 0.56 11.5-0.34 3.76-2.3 11.24-4.64 17.75-3.11 8.62-4.06 12.71-4.06 17.5 0 4.89 0.67 7.66 3.07 12.75 1.68 3.57 3.49 8.52 4.02 11 0.53 2.47 0.64 5.4 0.24 6.5-0.54 1.51-0.91 0.77-1.52-3-0.53-3.25-2.39-7.46-5.31-12-2.59-4.02-4.94-9.13-5.52-12-0.72-3.52-0.68-6.78 0.11-11 0.62-3.3 2.52-9.38 4.22-13.5 2.35-5.7 3.16-9.36 3.39-15.25 0.18-4.7-0.09-7.75-0.7-7.75-0.55 0-1 1.12-1 2.5 0 1.37-1.19 5.76-2.64 9.75-1.46 3.99-3.82 8.95-5.25 11.04-1.44 2.09-2.61 3.78-2.61 3.76 0-0.01-1.71 0.53-3.8 1.21-3.63 1.18-3.92 1.61-6.58 9.74-1.53 4.67-3.86 10.52-5.17 13-2.12 3.99-2.39 5.8-2.39 16 0 6.8 0.59 13.75 1.44 17 0.99 3.79 2.72 6.9 5.54 10 2.71 2.97 7.48 6.26 14.03 9.67 5.46 2.84 17.36 8.15 26.43 11.8 14.21 5.71 18.31 6.9 29.5 8.59 7.15 1.08 15.03 2.62 17.5 3.43 2.48 0.81 7.2 3.08 10.5 5.05 3.3 1.97 7.73 5.24 9.85 7.27 2.11 2.03 5.69 6.39 7.94 9.69 2.25 3.3 5.55 9.6 7.32 14 1.78 4.4 4.16 12.61 5.31 18.25 1.81 8.93 2.05 13.24 1.58 56.75l4.13 10c2.28 5.5 5.5 14.27 7.17 19.5 1.67 5.22 4.41 16.02 6.09 24 1.67 7.97 4 17.87 5.16 22 1.17 4.12 3.32 9.52 4.78 12 1.46 2.47 6.05 9.22 10.21 15 4.15 5.77 9.21 13.2 11.24 16.5 2.03 3.3 5.35 10.05 7.36 15 2.09 5.12 7.22 23.23 11.9 42 4.53 18.15 9.68 37.5 11.45 43 1.77 5.5 5.7 16.3 8.73 24 3.03 7.7 6.81 16.59 8.4 19.75 2.62 5.23 3.68 6.22 11.63 10.91 4.81 2.84 11.57 7.23 15.02 9.75 4.49 3.29 7.89 7 11.99 13.09 3.14 4.67 9.64 12.55 14.44 17.5 4.81 4.95 8.75 9.56 8.77 10.25 0.02 0.69-0.87 1.7-1.97 2.25-1.1 0.55-3.57 1-5.5 1-1.92 0-4.74-0.49-6.25-1.1-1.51-0.6-6.02-4.31-10.03-8.25-4-3.93-7.26-6.59-7.25-5.9 0.02 0.69 2.78 9.24 6.15 19 3.36 9.76 7.86 22.81 10 29 2.13 6.19 4.22 13.67 4.63 16.63 0.58 4.18 0.42 5.76-0.75 7.05-0.82 0.91-2.29 1.64-3.25 1.61-0.96-0.02-2.76-1.29-4-2.82-1.24-1.53-3-4.57-3.93-6.75-0.92-2.19-4.52-10.61-8-18.72-3.47-8.11-6.47-14.63-6.65-14.5-0.18 0.14 2.9 10.15 6.84 22.25 3.94 12.1 7.46 24.08 7.83 26.63 0.49 3.44 0.28 5.06-0.84 6.3-0.82 0.91-2.4 1.65-3.5 1.64-1.1-0.01-2.98-1.04-4.18-2.3-1.2-1.25-3.48-5.2-5.05-8.77-1.58-3.58-5.32-13.16-8.32-21.3-3-8.13-5.59-14.43-5.77-14-0.18 0.44 0.87 5.07 2.34 10.3 1.47 5.22 3.75 12.99 5.07 17.25 1.33 4.26 2.41 9.32 2.41 11.25 0 2.5-0.57 3.78-2 4.5-1.4 0.7-2.77 0.62-4.57-0.25-1.51-0.74-3.52-3.31-4.88-6.25-1.27-2.75-4.73-11.87-7.68-20.27-2.95-8.4-5.71-15.26-6.12-15.25-0.41 0.01-0.54 0.58-0.29 1.27 0.26 0.69 1.64 6.65 3.08 13.25 1.44 6.6 2.35 13.01 2.04 14.25-0.38 1.48-1.35 2.26-2.83 2.28-1.24 0.02-3.15-0.95-4.25-2.14-1.1-1.2-4.74-10.55-8.09-20.79-3.35-10.23-8.4-23.78-11.22-30.1-2.82-6.33-6-14.88-7.06-19-1.06-4.13-2.26-11.78-2.66-17-0.54-7.03-1.43-11.06-3.42-15.5-1.49-3.3-5.54-10.73-9.02-16.5-3.47-5.78-8.82-14.1-11.88-18.5-3.07-4.4-10.74-14.98-17.04-23.5-6.3-8.53-14.58-20.23-18.4-26-3.81-5.78-8.9-14.44-11.32-19.25-2.41-4.81-5.53-11.79-6.93-15.5-1.4-3.71-3.24-9.45-4.09-12.75-0.85-3.3-2.8-12.08-4.33-19.5-1.53-7.43-3.91-15.75-5.3-18.5-1.38-2.75-6.18-11.53-10.65-19.5-4.47-7.98-10.37-20.24-13.11-27.25-2.74-7.01-5.82-16.01-6.84-20-1.28-4.98-2.05-6.62-2.45-5.25-0.31 1.1-4.04 13.92-8.27 28.5-4.23 14.57-9.38 33.02-11.44 41-2.07 7.97-4.3 19-4.97 24.5-0.71 5.85-0.93 13.32-0.53 18 0.37 4.4 1.3 10.92 2.06 14.5 0.75 3.57 2.69 10.32 4.29 15 1.61 4.67 5.63 15.02 8.94 23 3.3 7.97 8.04 20.12 10.52 27 2.49 6.87 6.33 18.8 8.54 26.5 2.21 7.7 5.82 20.75 8.03 29 2.2 8.25 5.13 20.17 6.51 26.5 1.38 6.32 3.19 15.1 4.03 19.5 0.83 4.4 2.07 12.5 2.75 18 0.68 5.5 1.21 18.77 1.19 29.5-0.03 10.72-0.58 24.67-1.24 31-0.66 6.32-2.11 17.8-3.22 25.5-1.11 7.7-3.58 22.32-5.49 32.5-1.92 10.17-5.08 25.92-7.03 35-1.95 9.07-4.81 23.25-6.35 31.5-1.55 8.25-3.36 19.72-4.03 25.5-0.79 6.71-1.04 17.53-0.7 30 0.29 10.72 1.21 23.1 2.03 27.5 0.83 4.4 3.09 14.75 5.03 23 1.94 8.25 4.42 19.72 5.51 25.5 1.1 5.77 2.51 14.55 3.15 19.5 0.63 4.95 1.13 15.75 1.12 24-0.02 8.25-0.53 18.37-1.14 22.5-0.6 4.12-2.17 12.9-3.47 19.5-1.31 6.6-4.86 22.57-7.89 35.5-3.03 12.92-7.98 34.3-11 47.5-3.01 13.2-6.67 30.3-8.12 38-1.45 7.7-2.9 19.62-3.21 26.5-0.43 9.58-0.14 14.83 1.22 22.5 1.26 7.08 1.6 12.34 1.17 18-0.4 5.11-0.17 9.8 0.63 13 0.75 2.99 3.72 8.61 7.39 14 3.37 4.95 8.65 11.59 11.72 14.75 3.07 3.16 6.37 5.75 7.33 5.76 0.96 0 4.11 1.13 7 2.5 2.89 1.37 5.7 3.39 6.25 4.49 0.55 1.1 0.99 3.24 0.99 4.75-0.01 1.51-0.35 3.24-0.75 3.85-0.41 0.6-1.75 1.62-2.99 2.25-1.24 0.63-4.39 1.61-7 2.17-2.61 0.56-10.37 1.41-17.25 1.89-8.47 0.59-15.72 1.78-22.5 3.7-8.19 2.32-11.98 2.83-21 2.85-9.47 0.01-11.59-0.3-15.25-2.22-2.42-1.28-5.22-3.85-6.5-5.99-1.89-3.15-2.25-5.18-2.24-12.75 0.01-5.26 0.84-12.74 2-18 1.37-6.19 1.97-12.44 1.91-20-0.05-6.9-0.69-13.24-1.73-17-0.91-3.3-1.66-8.36-1.67-11.25-0.01-3.35 1.3-9.32 3.62-16.5 3.38-10.46 3.67-12.34 4.12-26.75 0.27-8.53-0.05-23.15-0.7-32.5-0.65-9.35-1.82-21.5-2.59-27-0.77-5.5-2.33-15.4-3.47-22-1.13-6.6-2.7-14.48-3.48-17.5-0.78-3.03-2.82-11.8-4.53-19.5-1.71-7.7-3.7-18.5-4.43-24-0.72-5.5-1.38-15.4-1.46-22-0.08-6.6 0.53-17.4 1.36-24 0.83-6.6 2.74-17.85 4.24-25 2.05-9.76 2.74-15.87 2.75-24.5 0.01-10.62-0.32-12.65-4.32-26.5-2.38-8.25-4.97-18.15-5.76-22-0.84-4.14-1.8-18.66-2.35-35.5-0.51-15.68-1.41-32.78-2-38-0.59-5.23-1.75-13.33-2.59-18-0.83-4.68-3.5-18.4-5.93-30.5-2.43-12.1-5.14-26.28-6.03-31.5-0.88-5.23-2.53-16.25-3.67-24.5-1.51-11.06-2.15-22.04-2.8-68.5l-7.5-8.85-8.62 9.35-0.32 25.5c-0.24 19.18-0.85 29.22-2.44 40.5-1.17 8.25-3.03 20.4-4.15 27-1.11 6.6-4.06 21.67-6.57 33.5-2.5 11.82-5.41 27.12-6.47 34-1.26 8.22-2.27 22.77-2.94 42.5-0.6 17.49-1.7 34.17-2.63 40-0.89 5.5-3.31 15.85-5.4 23-2.08 7.15-4.33 15.7-5 19-0.7 3.51-0.94 8.8-0.58 12.75 0.34 3.71 1.93 13.39 3.54 21.5 1.61 8.11 3.5 19.02 4.2 24.25 0.71 5.22 1.26 16.47 1.22 25-0.04 9.85-0.67 18.96-1.75 25-0.92 5.22-3.67 17.82-6.09 28-2.43 10.17-5.52 24.8-6.87 32.5-1.35 7.7-3.26 20.52-4.23 28.5-1.23 10.15-1.78 22.15-1.9 65.5l3.74 11c2.52 7.44 3.73 12.78 3.73 16.5 0 3.02-0.67 8.31-1.48 11.75-0.82 3.44-1.54 10.64-1.6 16-0.07 6.19 0.7 14.13 2.1 21.75 1.43 7.81 2.08 14.68 1.86 19.67-0.27 5.9-0.84 8.33-2.47 10.5-1.17 1.56-3.19 3.62-4.5 4.59-1.31 0.97-5.3 2.3-8.88 2.95-4.91 0.89-8.57 0.91-15 0.05-4.67-0.62-11.42-2.07-15-3.22-4.06-1.31-11.39-2.45-19.5-3.03-7.15-0.52-15.47-1.41-18.5-1.99-3.02-0.58-6.29-1.27-7.25-1.54-0.96-0.26-2.42-1.83-3.25-3.48-0.82-1.65-1.27-4.01-0.99-5.25 0.27-1.24 1.51-3.18 2.75-4.32 1.23-1.14 5.36-3.39 9.17-5 5.33-2.25 8.06-4.21 11.8-8.43 2.68-3.03 7.19-8.88 10.03-13 2.85-4.13 5.78-9.3 6.52-11.5 0.98-2.92 1.16-6.84 0.67-14.5-0.49-7.84-0.25-12.66 0.96-19 0.89-4.68 1.61-12.89 1.6-18.25 0-6.22-1.09-16.08-3.01-27.25-1.65-9.63-5.27-27.74-8.05-40.25-2.77-12.51-7.3-32.43-10.06-44.25-2.76-11.83-6.09-26.45-7.4-32.5-1.31-6.05-3.18-15.95-4.14-22-1.21-7.55-1.75-16.49-1.73-28.5 0.02-11.48 0.63-21.46 1.78-29 0.97-6.33 3.54-19.15 5.73-28.5 2.19-9.35 4.85-21.39 5.92-26.75 1.08-5.36 2.45-16.61 3.05-25 0.6-8.39 0.81-20.43 0.45-26.75-0.36-6.33-1.33-16.23-2.16-22-0.83-5.78-2.82-17.03-4.42-25-1.6-7.98-5.19-25.53-7.97-39-2.78-13.48-6.36-33.05-7.95-43.5-1.59-10.45-3.47-23.95-4.18-30-0.72-6.15-1.25-21.15-1.22-34 0.06-18.51 0.49-25.64 2.23-36.5 1.19-7.43 3.32-18.68 4.73-25 1.4-6.33 5.01-21.18 8.01-33 3-11.83 7.29-27.35 9.54-34.5 2.24-7.15 6.01-18.18 8.37-24.5 2.36-6.33 6.62-17.13 9.47-24 2.85-6.88 6.24-15.43 7.53-19 1.3-3.58 3.31-9.88 4.47-14 1.3-4.62 2.33-11.92 2.67-19 0.45-9.15 0.14-13.85-1.52-23-1.15-6.33-5.27-22.53-9.16-36-3.88-13.48-8.64-30.35-10.57-37.5-1.93-7.15-3.75-13.68-4.05-14.5-0.3-0.83-1.6 2.1-2.88 6.5-1.29 4.4-3.76 11.82-5.49 16.5-1.73 4.67-5.82 13.79-9.07 20.25-3.26 6.46-7.66 14.56-9.77 18-2.12 3.44-4.82 8.16-6 10.5-1.19 2.34-3.69 11.79-5.56 21-1.87 9.21-4.61 20.35-6.08 24.75-1.48 4.4-5.06 12.72-7.96 18.5-2.9 5.77-7.2 13.65-9.55 17.5-2.35 3.85-6.34 9.92-8.86 13.5-2.53 3.57-9.09 12.57-14.6 20-5.51 7.42-14.08 19.57-19.06 27-4.98 7.42-11.42 18.22-14.31 24-4.98 9.94-5.31 11.09-6.22 21.5-0.53 6.05-1.9 14.15-3.05 18-1.14 3.85-4.69 13.07-7.89 20.5-3.19 7.42-8.22 20.89-11.16 29.92-3.74 11.47-6.04 16.97-7.61 18.25-1.71 1.39-2.73 1.59-4.25 0.83-1.4-0.7-1.99-1.98-1.96-4.25 0.01-1.79 1.48-9.43 3.25-16.98 1.76-7.55 2.99-13.75 2.71-13.77-0.27-0.02-2.48 5.7-4.89 12.73-2.42 7.02-5.94 16.59-7.82 21.27-1.88 4.67-4.51 9.51-5.85 10.75-1.34 1.24-3.23 2.26-4.19 2.27-0.96 0-2.32-0.56-3.02-1.25-0.69-0.7-1.26-2.4-1.26-3.77 0-1.38 2.37-10.5 5.27-20.27 2.89-9.78 5.04-18.01 4.76-18.29-0.27-0.28-1.98 3.44-3.79 8.27-1.81 4.83-5.09 13.51-7.29 19.29-2.2 5.77-5.1 12.19-6.46 14.25-1.94 2.95-3.1 3.75-5.46 3.75-2.25 0-3.31-0.66-4.25-2.62-1.04-2.18-0.93-3.8 0.64-9.75 1.04-3.92 4.52-15.12 7.75-24.88 3.22-9.76 5.86-18.31 5.86-19 0-0.69-1.4 1.67-3.11 5.25-1.7 3.57-5.28 11.9-7.94 18.5-2.66 6.6-5.99 13.46-7.4 15.25-1.4 1.79-3.34 3.27-4.3 3.29-0.96 0.03-2.34-0.53-3.06-1.25-0.92-0.91-1.13-2.92-0.72-6.79 0.32-3.03 2.78-11.8 5.47-19.5 2.68-7.7 7.39-21.09 10.47-29.75 3.07-8.66 5.59-15.98 5.59-16.25 0-0.28-3.26 2.43-7.25 6.02-3.99 3.58-8.71 7.18-10.5 8-1.79 0.81-5.05 1.48-7.25 1.48-2.22 0-4.67-0.67-5.5-1.5-0.82-0.83-1.52-1.61-1.54-1.75-0.02-0.14 3.92-4.32 8.75-9.28 4.84-4.97 11.49-13.05 14.79-17.95 3.9-5.79 7.93-10.39 11.5-13.1 3.03-2.3 9.51-6.6 14.42-9.55 4.9-2.95 9.74-6.5 10.74-7.87 1.01-1.38 4.25-8.13 7.21-15 2.96-6.88 8.09-20.38 11.39-30 3.31-9.63 8.08-26.5 10.6-37.5 2.53-11 6.21-25.85 8.18-33 1.97-7.15 5.05-16.15 6.84-20 1.79-3.85 4.97-9.7 7.06-13 2.1-3.3 7.29-10.73 11.54-16.5 4.25-5.78 8.69-12.41 9.87-14.75 1.19-2.34 3.03-7.51 4.11-11.5 1.08-3.99 3.6-14.9 5.6-24.25 2-9.35 5.42-21.95 7.61-28 2.19-6.05 4.94-13.48 6.12-16.5 1.94-4.98 2.2-8.14 2.78-33.5 0.59-26.59 0.76-28.45 3.33-37 1.49-4.95 4.45-12.6 6.58-17 2.13-4.4 6.08-10.48 8.77-13.5 2.69-3.03 7.78-7.44 11.32-9.81 3.54-2.37 9.81-5.37 13.93-6.66 4.13-1.3 11.89-2.84 17.25-3.44 8.54-0.96 12.26-2.1 30-9.22 11.14-4.47 22.5-9.25 25.25-10.63 2.75-1.38 6.8-3.74 9-5.24 2.2-1.49 5.24-4.58 6.75-6.86 1.51-2.28 3.43-6.73 4.26-9.89 0.85-3.25 1.49-9.89 1.47-15.25-0.03-7.74-0.48-10.52-2.42-15-1.3-3.03-3.65-9.43-5.21-14.24-2.56-7.84-3.1-8.74-5.35-8.79-1.52-0.04-3.91-1.51-6.09-3.77-2.54-2.61-4.59-6.49-10.41-22.7l-0.3 5c-0.23 3.64 0.66 7.98 3.27 16 1.97 6.05 3.86 12.8 4.19 15 0.33 2.2 0.09 6.25-0.53 9-0.62 2.75-3.26 8.37-5.86 12.5-4.04 6.41-4.73 8.25-4.75 12.65-0.01 2.84-0.35 4.64-0.75 4-0.41-0.63-0.73-3.18-0.73-5.65 0.01-2.61 1.1-7.03 2.59-10.5 1.42-3.3 3.22-8.25 4-11 1.14-4.03 1.19-5.97 0.25-10-0.65-2.75-2.73-9.05-4.64-14-2.36-6.14-3.64-11.39-4.01-16.5-0.46-6.18-0.14-8.82 1.83-15 1.31-4.13 3.18-8.29 4.16-9.25 1.62-1.59 1.68-2.56 0.67-10.5-0.61-4.81-0.83-10.44-0.5-12.5 0.34-2.06 1.93-6.34 3.53-9.5 1.61-3.16 3.97-7.15 5.25-8.86 1.28-1.71 4.36-5.36 6.83-8.12 2.48-2.76 6.53-6.19 9-7.63 2.48-1.44 4.61-2.62 4.75-2.63zm60.25 34.24c0 0.41 1.63 4.01 3.62 8 1.98 3.99 5.21 9.5 7.17 12.25 1.96 2.75 4.8 7.7 6.3 11 1.51 3.3 3.28 9.15 3.95 13 0.96 5.53 0.95 8.15-0.03 12.5-0.69 3.02-2.55 8.09-4.13 11.25-1.58 3.16-5.24 8.21-8.13 11.23-2.89 3.01-5.14 5.49-5 5.5 0.14 0.01 1.49-0.62 3-1.4 1.51-0.78 4.59-3.37 6.85-5.75 2.25-2.38 5.03-5.68 6.17-7.33 1.14-1.65 2.79-5.7 3.66-9 0.87-3.3 1.58-7.46 1.58-9.25-0.01-1.79-1.1-6.51-2.43-10.5-1.34-3.99-4.15-10.25-6.25-13.92-2.11-3.66-6.64-11.54-10.08-17.5-3.44-5.96-6.25-10.49-6.25-10.08zm-64.65 45.75c0.2 12.16 0.31 12.73 4.06 21 2.11 4.67 4.8 9.55 5.97 10.84 1.17 1.29 3.47 3.06 5.12 3.93l3 1.58c-5.71-6.86-8.46-11.33-9.81-14.35-1.34-3.03-3.25-7.75-4.24-10.5-0.98-2.75-2.36-9.5-3.05-15l-1.25-10zm-26.71-8.74c-0.34 1.23-0.64 4.26-0.66 6.74-0.02 2.47 0.17 4.27 0.42 4 0.26-0.28 0.83-3.12 1.28-6.32 0.45-3.21 0.54-6.01 0.2-6.24-0.34-0.23-0.89 0.59-1.24 1.82z"/>
	<path id="non-involved-parts" fill-rule="evenodd" class="s1" d="m373.08 482c0.47 0 1.1 2.36 1.38 5.25 0.29 2.89 0.53 8.96 0.53 13.5 0.01 4.54-0.87 13.31-1.95 19.5-1.08 6.19-3.35 15.3-5.06 20.25-1.7 4.95-4.08 10.35-5.28 12-1.21 1.65-5.29 6.38-9.07 10.5-3.78 4.13-8.73 9.88-11 12.8-2.27 2.91-4.47 5.27-4.88 5.25-0.41-0.03-0.52-0.84-0.25-1.8 0.28-0.96 0.92-10.08 1.42-20.25 0.86-17.56 1.09-19.03 4.57-29 2.01-5.77 5.49-13.88 7.73-18 2.24-4.13 5.44-9.52 7.12-12 1.67-2.48 5.48-7.54 8.45-11.25 2.98-3.71 5.81-6.75 6.29-6.75zm314.03 0c0.49 0 3.26 3.04 6.16 6.75 2.89 3.71 6.43 8.32 7.87 10.25 1.43 1.93 5.09 8.45 8.13 14.5 3.04 6.05 6.7 14.49 8.13 18.75 1.43 4.26 2.81 10.34 3.07 13.5 0.27 3.16 0.71 12.5 1.53 35.75l-2.75-3.5c-1.51-1.92-7.41-8.89-13.1-15.5-5.69-6.6-10.8-13.13-11.35-14.5-0.55-1.38-2.31-6.77-3.92-12-1.61-5.23-3.58-13.77-4.39-19-0.82-5.23-1.48-13.55-1.47-18.5 0-4.95 0.27-10.69 0.6-12.75 0.34-2.06 1.01-3.75 1.49-3.75zm-239.89 497c0.45 0 1.56 3.04 2.47 6.75 0.9 3.71 3.59 12.04 10.31 30.25l-2.45 3.25c-1.35 1.79-4.02 6.85-5.95 11.25-1.92 4.4-3.86 8.12-4.3 8.28-0.44 0.15-1.14-1.2-1.55-3-0.41-1.81-2.14-6.2-3.84-9.78-1.7-3.58-4.36-8.08-8.73-13.5l3.36-7c1.85-3.85 4.83-11.39 6.61-16.75 1.78-5.36 3.61-9.75 4.07-9.75zm165.04 0c0.52 0 2.08 3.94 3.47 8.75 1.39 4.81 4.27 12.24 10.27 24.25l-3.53 4.75c-1.95 2.61-4.81 7.9-6.36 11.75-1.56 3.85-3.12 7.79-3.47 8.75-0.35 0.96-0.98 1.59-1.39 1.39-0.41-0.2-2.03-3.46-3.6-7.25-1.56-3.79-4.19-8.91-5.83-11.39-1.65-2.48-2.77-5.17-2.51-6 0.27-0.83 2.49-6.67 4.93-13 2.43-6.33 5.02-13.86 5.75-16.75 0.73-2.89 1.75-5.25 2.27-5.25z"/>
	<path id="forearms" fill-rule="evenodd" class="s1" d="m332.63 512c0.32 0 0.33 3.94 0.02 8.75-0.32 4.81-1.4 11.45-2.42 14.75-1.2 3.89-4.94 10.56-10.67 19-4.85 7.15-10.4 16.15-12.33 20-1.93 3.85-5.05 10.6-6.93 15-1.88 4.4-4.71 12.5-6.31 18-1.59 5.5-4.98 18.33-7.53 28.5-2.55 10.17-6.8 25.02-9.46 33-2.65 7.98-5.76 17.09-6.91 20.25-1.6 4.39-2.56 5.75-4.09 5.75-1.26 0-2.4-1.02-3.07-2.75-0.93-2.41-0.08-5.23 6.89-22.75 4.38-11 9.78-25.63 12.01-32.5 2.23-6.88 6.34-22.85 9.14-35.5 2.8-12.65 6.48-27.27 8.18-32.5 1.7-5.23 5.29-13.77 7.99-19 2.69-5.23 8.76-14.67 13.47-21 4.72-6.33 9.22-12.74 10.01-14.25 0.78-1.51 1.69-2.75 2.01-2.75zm394.4 0.15c0.44 0.19 5.61 7.1 11.48 15.35 5.88 8.25 12.39 18.38 14.46 22.5 2.08 4.13 4.97 11.1 6.44 15.5 1.47 4.4 4.02 13.85 5.67 21 1.66 7.15 4.18 17.95 5.61 24 1.42 6.05 4.13 16.4 6.01 23 1.88 6.6 7.44 22.01 12.36 34.25 6.94 17.26 8.75 22.75 8.09 24.5-0.46 1.24-1.59 2.59-2.5 3-0.98 0.44-2 0.24-2.5-0.5-0.47-0.69-2.22-4.63-3.9-8.75-1.67-4.13-4.48-12-6.23-17.5-1.75-5.5-6.09-21.25-9.64-35-3.56-13.75-7.97-29.5-9.8-35-1.84-5.5-5.87-15.06-8.96-21.25-3.09-6.19-9.4-16.99-14.01-24-4.62-7.01-9.08-14.77-9.91-17.25-0.84-2.48-1.81-7.88-2.17-12-0.35-4.13-0.79-8.56-0.97-9.85-0.19-1.29 0.03-2.19 0.47-2zm-395.68 37.11c0.63 0.22 1.44 2.84 1.8 5.82 0.35 2.98 0.23 10.37-0.28 16.42-0.52 6.05-1.84 14.83-2.95 19.5-1.1 4.67-3.61 12.55-5.57 17.5-1.95 4.95-11.11 23.85-20.35 42-9.24 18.15-18.76 36.6-21.16 41-3.64 6.7-4.76 8-6.85 8-2.13 0-2.47-0.44-2.37-3 0.06-1.65 1.72-7.5 3.7-13 1.97-5.5 4.75-14.05 6.18-19 1.42-4.95 5.32-19.58 8.65-32.5 3.34-12.92 7.42-27.33 9.09-32 1.66-4.67 4.46-11.65 6.22-15.5 1.76-3.85 4.98-9.92 7.15-13.5 2.18-3.58 6.57-10.02 9.77-14.31 3.2-4.3 6.34-7.64 6.97-7.43zm397.28-0.26c0.75 0 4.3 3.94 7.89 8.75 3.59 4.81 8.72 13.02 11.41 18.25 2.69 5.23 6.29 12.99 7.98 17.25 1.7 4.26 4.63 13.26 6.52 20 1.88 6.74 5.26 19.45 7.5 28.25 2.25 8.8 7.12 25.12 10.83 36.26 6 18.05 6.58 20.43 5.24 21.8-1.35 1.38-1.72 1.35-3.71-0.26-1.21-0.99-6.28-9.68-11.27-19.3-4.98-9.63-14-27.29-20.04-39.25-6.04-11.96-12.76-25.91-14.93-31-2.18-5.09-4.87-13.08-5.97-17.75-1.11-4.67-2.49-12.77-3.07-18-0.58-5.23-0.76-12.99-0.4-17.25 0.47-5.57 1.04-7.75 2.02-7.75zm-358.13 2.62l0.3 3.44c0.17 1.89-0.81 7.71-2.18 12.94-1.36 5.23-4.11 13.33-6.11 18-2 4.67-5.72 12.33-8.26 17-2.55 4.67-7.55 12.77-11.12 18-3.57 5.23-11.18 15.8-16.92 23.5-5.74 7.7-14.16 19.63-18.71 26.5-4.56 6.88-10.69 16.96-13.64 22.41-2.95 5.45-5.92 10.07-6.61 10.25-0.69 0.19-1.92-0.11-2.75-0.66-1.26-0.84 1.97-7.89 19.8-43.25 11.72-23.24 23.82-47.65 26.9-54.25 3.07-6.6 8.34-16.16 11.69-21.25 3.36-5.09 10.95-14.51 16.86-20.94zm319.26 0.49c0.47 0.22 4.66 4.51 9.3 9.54 4.64 5.03 11 12.68 14.13 17 3.77 5.2 15.31 26.98 34.25 64.6 15.71 31.21 28.56 57.43 28.56 58.25 0 0.83-0.79 1.8-1.75 2.17-1.14 0.43-2.21 0-3.06-1.25-0.72-1.06-3.58-5.97-6.36-10.92-2.77-4.95-8.73-14.62-13.25-21.5-4.51-6.87-14.01-20.37-21.11-30-7.1-9.62-15.33-21.32-18.28-26-2.95-4.67-7.52-12.77-10.16-18-2.63-5.22-6.41-14.56-8.41-20.75-1.99-6.19-3.87-14.01-4.17-17.39-0.3-3.37-0.16-5.96 0.31-5.75z"/>
	<path id="triceps" fill-rule="evenodd" class="s1" d="m658.08 392.02c1.06 0.54 3.03 2.89 4.39 5.23 1.36 2.34 4 7.85 5.87 12.25 1.87 4.4 4.41 12.05 5.65 17 1.24 4.95 2.9 12.6 3.68 17 0.85 4.79 1.78 20.85 2.32 40 0.49 17.6 1.34 33.58 1.88 35.5 0.53 1.92 0.67 3.84 0.3 4.25-0.37 0.41-3.49-3.64-6.95-9-3.45-5.36-8.01-13.12-10.14-17.25-2.12-4.12-5.45-11.77-7.4-17-1.94-5.23-4.47-14.11-5.61-19.75-1.44-7.15-2.06-13.95-2.04-22.5 0.02-6.74 0.92-19.32 2-27.95 1.08-8.64 2.46-16.39 3.05-17.23 0.8-1.13 1.58-1.27 3-0.55zm-254.71 0.17c1.62 0.24 2.3 1.27 2.83 4.31 0.38 2.2 1.4 10.52 2.25 18.5 0.86 7.98 1.56 18.77 1.57 24 0 5.23-0.7 13.55-1.56 18.5-0.86 4.95-2.91 13.05-4.56 18-1.66 4.95-5.33 13.73-8.16 19.5-2.83 5.77-7.76 14.44-10.94 19.25-3.19 4.81-6.03 8.75-6.3 8.75-0.28 0-0.26-1.24 0.03-2.75 0.29-1.51 0.93-17.37 1.42-35.25 0.71-26.09 1.31-34.87 3.05-44.5 1.19-6.6 3.64-16.5 5.45-22 1.81-5.5 4.53-12.48 6.05-15.5 1.51-3.02 3.65-6.76 4.75-8.31 1.32-1.85 2.72-2.7 4.12-2.5zm-15.17 6.83c0.39-0.01 0.55 0.99 0.38 2.23-0.18 1.24-2.2 8.55-4.48 16.25-2.29 7.7-5.07 19.4-6.2 26-1.12 6.6-2.73 14.7-3.57 18-0.84 3.3-2.9 8.7-4.58 12-1.68 3.3-6.91 11.63-11.64 18.5-4.73 6.88-10.04 15.2-11.8 18.5-2.69 5.05-3.31 5.68-3.92 4-0.4-1.1-0.45-8.75-0.12-17 0.33-8.25 1.3-18.82 2.16-23.5 0.86-4.67 2.41-11.42 3.45-15 1.04-3.57 2.84-8.98 4.02-12 1.17-3.02 4.49-9.72 7.36-14.88 2.88-5.15 8.09-12.82 11.58-17.03 3.49-4.22 8.66-9.55 11.5-11.86 2.84-2.31 5.48-4.2 5.86-4.21zm285.84 1.45c1.63 0.84 4.82 3.22 7.09 5.28 2.27 2.06 6.8 7.35 10.06 11.75 3.26 4.4 8.32 12.73 11.26 18.5 2.93 5.77 6.69 14.77 8.34 20 1.66 5.23 3.77 14 4.7 19.5 0.93 5.5 1.87 16.41 2.1 24.25 0.26 8.92 0.04 14.44-0.59 14.75-0.55 0.27-2.63-2.54-4.63-6.25-2-3.71-7.11-11.7-11.36-17.75-4.25-6.05-9.14-13.81-10.87-17.25-1.72-3.44-3.82-8.84-4.65-12-0.82-3.16-2.61-12.05-3.97-19.75-1.36-7.7-4.28-19.96-6.49-27.25-2.22-7.29-4.01-13.71-3.99-14.28 0.03-0.59 1.29-0.38 3 0.5z"/>
	<path id="calves" fill-rule="evenodd" class="s1" d="m430.5 1019.87l1.9 2.31c1.04 1.28 2.94 4.57 4.21 7.32 1.28 2.75 3.28 8.6 4.45 13 1.98 7.49 2.15 11.15 2.62 57 0.27 26.95 0.5 53.72 0.51 59.5 0 6.51-0.6 12.78-1.6 16.5-0.88 3.3-2.72 7.91-4.1 10.25-1.37 2.34-3.95 4.97-5.74 5.85-1.79 0.87-4.26 1.32-5.5 1-1.24-0.33-3.66-1.84-5.39-3.35-1.73-1.51-4.43-5.34-6-8.5-1.57-3.16-4.18-9.69-5.79-14.5-1.62-4.81-3.74-12.58-4.72-17.25-1.3-6.2-1.77-12.96-1.75-25 0.01-10.81 0.64-20.47 1.81-28 0.98-6.33 3.51-18.47 5.62-27 2.11-8.53 5.26-19.78 7.01-25 1.76-5.22 4.31-11.75 5.68-14.5 1.38-2.75 3.46-6.04 4.64-7.32zm199.17 0.95c0.89 0.38 3.52 4.74 5.86 9.69 2.33 4.95 5.47 12.6 6.96 17 1.5 4.4 4.47 15.42 6.6 24.5 2.13 9.07 4.61 22.35 5.52 29.5 1.16 9.16 1.49 17.13 1.13 27-0.29 7.7-1.24 17.37-2.11 21.5-0.87 4.12-2.75 11.1-4.17 15.5-1.43 4.4-4.02 10.87-5.78 14.39-1.75 3.52-4.64 7.68-6.43 9.25-1.79 1.57-4.26 3.11-5.5 3.41-1.24 0.31-3.49 0.09-5-0.5-1.51-0.58-4.12-2.97-5.81-5.3-1.68-2.34-3.79-6.73-4.69-9.75-1.2-4.02-1.61-9.15-1.54-19 0.06-7.43 0.32-34.88 0.58-61 0.44-44.79 0.59-47.96 2.63-55.5 1.2-4.4 3.31-10.25 4.71-13 1.39-2.75 3.18-5.76 3.98-6.69 0.87-1.01 2.1-1.41 3.06-1zm-167.02 6.19c0.74 0 2.23 1.91 3.3 4.25 1.07 2.33 3.34 10.1 5.04 17.25 1.7 7.15 5.09 21.32 7.54 31.5 2.45 10.17 5.24 23.45 6.21 29.5 1.28 8 1.75 16.72 1.74 32-0.02 18.26-0.33 22.37-2.35 31.5-1.28 5.77-3.41 13.98-4.73 18.25-1.32 4.26-3.3 8.65-4.4 9.75-1.1 1.1-2.45 2-3 2-0.55 0-2.42-1.24-4.16-2.75-1.74-1.52-4.29-4.55-5.65-6.75-1.37-2.2-3.59-6.93-4.92-10.5-1.34-3.58-3.1-9.43-3.93-13-0.82-3.58-2.14-11.45-2.92-17.5-0.77-6.05-1.7-21.58-2.05-34.5-0.4-14.49-0.19-30.79 0.54-42.5 0.71-11.46 1.98-22.38 3.19-27.5 1.1-4.68 2.91-10.53 4.01-13 1.11-2.48 2.73-5.29 3.6-6.25 0.87-0.97 2.19-1.75 2.94-1.75zm133.41 0c1.11 0 2.8 1.39 3.96 3.25 1.1 1.78 3.13 6.73 4.5 11 1.36 4.26 2.96 10.78 3.54 14.5 0.58 3.71 1.44 14.62 1.92 24.25 0.48 9.88 0.48 28.82-0.02 43.5-0.6 17.75-1.5 29.65-2.85 37.5-1.09 6.32-3.36 15.32-5.04 20-1.69 4.67-4.53 10.73-6.32 13.45-1.79 2.73-4.6 5.77-6.25 6.77-2.87 1.74-3.09 1.74-5.21 0.05-1.27-1.02-3.26-4.97-4.68-9.27-1.35-4.13-3.14-10.88-3.98-15-0.84-4.13-2-11.33-2.58-16-0.58-4.68-1.05-14.58-1.04-22 0-8.35 0.77-18.66 2.02-27 1.1-7.43 4.26-23.18 7-35 2.75-11.83 5.96-25.55 7.13-30.5 1.17-4.95 2.99-11.37 4.04-14.25 1.41-3.88 2.42-5.25 3.86-5.25zm-147.36 155c0.17 0 2.39 4.16 4.94 9.25 2.56 5.08 5.6 10.52 6.75 12.07 1.16 1.55 4.47 4.37 7.36 6.25 2.89 1.88 5.24 3.76 5.23 4.18-0.01 0.41-0.66 5.25-1.44 10.75-0.78 5.5-2.11 16.97-2.96 25.5-0.84 8.52-1.98 24.05-2.52 34.5-0.55 10.45-1.3 34.3-1.66 53-0.37 18.7-1 34.67-1.4 35.5-0.41 0.82-1.7 1.83-2.87 2.25-1.55 0.54-2.77 0.13-4.45-1.5-2.22-2.15-2.35-3.11-3-21.75-0.37-10.73-1.14-24.68-1.72-31-0.57-6.33-1.72-16.68-2.55-23-0.83-6.33-2.41-16.45-3.52-22.5-1.11-6.05-3.53-17.3-5.37-25-1.85-7.7-5.85-21.88-8.88-31.5-4.31-13.67-5.25-17.79-4.33-18.8 0.66-0.71 2.54-1.27 4.19-1.25 1.65 0.02 4.38-0.84 6.07-1.92 1.69-1.08 4.51-3.89 6.28-6.25 1.76-2.36 3.1-4.76 2.98-5.33-0.13-0.58 0.4-1.59 1.17-2.25 0.77-0.66 1.54-1.2 1.7-1.2zm161.23-0.04c0.31-0.02 1.25 1.43 2.07 3.23 0.83 1.79 2.74 4.96 4.25 7.04 1.51 2.07 3.99 4.4 5.5 5.17 1.51 0.77 4.51 1.78 6.65 2.25 2.15 0.47 4.08 1.3 4.3 1.85 0.22 0.55-1.68 7.75-4.23 16-2.55 8.25-6.43 22.42-8.64 31.5-2.2 9.07-5.29 24.15-6.86 33.5-1.57 9.35-3.57 24.65-4.44 34-0.87 9.35-1.87 25.55-2.23 36-0.62 18-0.77 19.11-2.93 21.25-1.25 1.23-2.75 2.25-3.32 2.25-0.58 0-1.86-0.79-2.86-1.75-1.64-1.59-1.87-4.8-2.53-34.75-0.4-18.15-1.17-41.78-1.71-52.5-0.54-10.73-1.45-24.45-2.02-30.5-0.57-6.05-1.94-18.2-5.05-43l2.7-2c1.49-1.1 4.89-4.14 7.56-6.75 3.39-3.31 6.13-7.48 9.04-13.75 2.3-4.95 4.44-9.02 4.75-9.04zm-194.65 14.04c0.3 0.27 2.42 4.77 4.72 10 2.29 5.22 5.97 14.9 8.18 21.5 2.2 6.6 5.53 18.75 7.38 27 1.86 8.25 4.26 20.62 5.34 27.5 1.08 6.87 2.48 16.77 3.12 22 0.63 5.22 1 11.07 0.82 13-0.26 2.66-1.15 0.15-3.72-10.5-1.87-7.7-6.93-27.05-11.26-43-4.32-15.95-9.17-35.53-10.77-43.5-1.6-7.98-3.24-16.75-3.63-19.5-0.39-2.75-0.47-4.78-0.18-4.5zm228.58 1.12c0.2 0.76-0.15 4.3-0.78 7.88-0.63 3.57-2.31 11.9-3.73 18.5-1.41 6.6-4.81 20.1-7.55 30-2.73 9.9-7.79 29.25-11.24 43-3.45 13.75-6.52 24.55-6.82 24-0.31-0.55 0.08-6.63 0.86-13.5 0.78-6.88 2.57-19.48 3.98-28 1.42-8.53 4.53-23.15 6.93-32.5 2.39-9.35 5.76-21.05 7.49-26 1.73-4.95 4.8-12.55 6.82-16.88 2.02-4.33 3.84-7.26 4.04-6.5z"/>
	<path id="hamstrings" fill-rule="evenodd" class="s1" d="m407.06 725c0.38 1.38 1.22 7 1.85 12.5 0.64 5.5 3.24 17.88 5.78 27.5 4.59 17.38 4.62 17.62 4.71 34.5 0.09 15.6-0.17 18.23-3.13 32-1.78 8.25-3.92 19.27-4.77 24.5-0.85 5.23-1.96 16.25-2.47 24.5-0.57 9.06-0.58 20.54-0.04 29 0.49 7.7 1.18 16.7 1.52 20q0.62 6-0.34 4.5c-0.53-0.83-1.66-5.77-2.5-11-0.85-5.23-3.11-18.27-5.03-29-1.92-10.73-4.4-26.7-5.51-35.5-1.11-8.8-2.55-23.65-3.19-33-0.66-9.58-0.88-22.67-0.51-30 0.36-7.15 1.29-17.5 2.07-23 0.77-5.5 2.06-13.38 2.85-17.5 0.79-4.13 2.92-13.13 4.73-20 2.57-9.78 3.43-11.96 3.98-10zm246.95-1c0.41 0.83 2.35 8.25 4.3 16.5 1.95 8.25 4.22 19.27 5.03 24.5 0.81 5.23 1.73 11.98 2.04 15 0.31 3.02 0.84 10.23 1.18 16 0.33 5.77 0.11 18.38-0.5 28-0.61 9.63-1.8 22.9-2.64 29.5-0.83 6.6-2.85 20.1-4.47 30-1.62 9.9-4.53 27-6.45 38-1.93 11-3.5 20.34-3.5 20.75 0 0.41-0.34 0.56-0.75 0.33-0.41-0.23-0.19-4.39 0.5-9.25 0.69-4.86 1.53-18.73 1.87-30.83 0.48-16.91 0.26-25.12-0.95-35.5-0.87-7.42-3.44-22.95-5.71-34.5-3.99-20.25-4.12-21.52-3.62-35.5 0.4-11.33 1.08-16.58 3.1-24 1.43-5.23 3.7-14.23 5.06-20 1.35-5.77 2.98-15 3.61-20.5 0.67-5.78 1.47-9.37 1.9-8.5zm-105.14 59.23c0.34 0.21 4.01 2 8.13 3.99 4.13 1.99 10.42 4.41 14 5.36 3.58 0.96 7.4 2.57 8.5 3.58 1.99 1.83 1.99 1.87-1.7 16.59-2.04 8.11-4.4 18.35-5.24 22.75-0.84 4.4-2.17 13.17-2.96 19.5-0.79 6.33-2.2 19.83-3.14 30-0.94 10.17-2.24 22.55-4.07 36.5l-2.19-9.5c-1.21-5.23-3.52-16.48-5.14-25-1.62-8.52-3.91-22.7-5.1-31.5-1.5-11.12-2.32-23.77-2.71-41.5-0.3-14.02-0.21-26.77 0.22-28.32 0.42-1.55 1.05-2.65 1.4-2.45zm-38.05 0.81c0.86-0.02 1.48 1.62 1.76 4.71 0.24 2.61 0.43 11.5 0.43 19.75 0 8.25-0.68 21.98-1.52 30.5-0.83 8.52-2.4 20.9-3.49 27.5-1.08 6.6-3.88 21.56-6.23 33.24-2.35 11.68-4.58 20.9-4.95 20.5-0.37-0.41-1.62-11.76-2.78-25.24-1.16-13.48-2.77-30.35-3.59-37.5-0.82-7.15-2.6-18.4-3.95-25-1.35-6.6-3.78-16.95-5.41-23-2.04-7.63-2.66-11.54-2.02-12.75 0.51-0.96 2.84-2.22 5.18-2.79 2.34-0.58 7.4-2.19 11.25-3.59 3.85-1.4 8.57-3.39 10.5-4.41 1.93-1.03 4.1-1.89 4.82-1.92zm80.26 13.43c0.51 0.29 2.14 2.67 3.63 5.28 1.49 2.61 3.76 7.9 5.04 11.75 1.28 3.85 3.2 11.27 4.26 16.5 1.07 5.23 2.63 16.7 3.48 25.5 0.85 8.8 1.82 27.92 2.16 42.5 0.37 16.06 0.17 33.3-0.52 43.75-0.62 9.49-2.06 22.09-3.19 28-1.14 5.91-2.76 13.23-3.6 16.25-0.84 3.02-2.12 7.3-2.84 9.5-0.71 2.2-3.76 10.52-6.77 18.5-3.01 7.98-6.09 16.87-6.85 19.76-0.76 2.9-1.72 5.26-2.13 5.25-0.41 0-1.03-4.4-1.38-9.76-0.35-5.36-0.1-16.05 0.55-23.75 0.65-7.7 1.63-20.52 2.17-28.5 0.68-9.94 0.66-19.37-0.08-30-0.59-8.52-1.92-20.23-2.95-26-1.03-5.77-3.11-17.25-4.61-25.5-2.16-11.84-2.74-18.05-2.74-29.5-0.01-7.98 0.54-18.1 1.21-22.5 0.68-4.4 2.3-12.27 3.6-17.5 1.3-5.23 3.57-12.88 5.04-17 1.48-4.13 3.34-8.75 4.14-10.28 0.8-1.53 1.87-2.55 2.38-2.25zm-121.74 0.78c0.64 0.21 2.6 3.96 4.37 8.32 1.77 4.36 4.57 13.55 6.23 20.43 1.66 6.87 3.47 15.65 4.02 19.5 0.55 3.85 1.01 12.85 1.01 20 0.01 7.15-0.45 15.92-1.01 19.5-0.56 3.58-2.36 13.48-3.99 22-1.63 8.52-3.65 20.45-4.5 26.5-0.96 6.82-1.53 18.03-1.51 29.5 0.02 10.17 0.71 24.8 1.53 32.5 0.82 7.7 1.49 18.95 1.49 25 0 6.05-0.33 12.7-0.74 14.77-0.41 2.07-0.97 3.76-1.24 3.76-0.27 0-1.11-2.37-1.86-5.27-0.75-2.89-3.73-11.34-6.63-18.76-2.91-7.42-6.67-18.23-8.36-24-1.7-5.77-4-15.9-5.13-22.5-1.13-6.6-2.55-21.67-3.15-33.5-0.8-15.71-0.8-28.43 0.01-47.25 0.62-14.16 1.8-31.04 2.62-37.5 0.83-6.46 2.45-16.25 3.6-21.75 1.14-5.5 3.39-13.38 4.98-17.5 1.6-4.13 3.85-9 5-10.82 1.15-1.83 2.62-3.15 3.26-2.93zm-17.09 2.76c0.41-0.01 0.75 1 0.74 2.24 0 1.24-0.43 5.85-0.95 10.25-0.52 4.4-1.85 15.87-2.97 25.5-1.11 9.62-2.48 23.58-3.04 31-0.56 7.42-1.21 29.48-1.45 49-0.24 19.52-0.94 39.1-1.56 43.5-0.62 4.4-2.3 12.5-3.73 18-1.43 5.5-4.31 14.05-6.4 19-2.08 4.95-5.8 12.83-12.73 26l0.04-23c0.03-17.94-0.56-28.94-2.68-50-1.57-15.67-2.94-36.44-3.24-49.5-0.35-14.7-0.11-26.14 0.68-33 0.67-5.77 2.25-14.55 3.5-19.5 1.26-4.95 3.74-12.6 5.51-17 1.77-4.4 4.75-10.36 6.63-13.25 1.87-2.89 5.09-7.11 7.15-9.38 2.06-2.27 6-5.42 8.75-6.99 2.75-1.57 5.34-2.87 5.75-2.87zm156.52 0.97c0.95-0.01 3.98 1.56 6.73 3.5 2.75 1.94 7.18 6.34 9.84 9.77 2.66 3.44 6.32 9.4 8.13 13.25 1.82 3.85 4.5 10.83 5.97 15.5 1.47 4.67 3.43 12.55 4.36 17.5 1.34 7.09 1.69 14.64 1.65 35.5-0.04 22.54-0.48 30.24-2.93 51.5-2.42 20.97-2.89 29.15-2.95 50.75-0.04 14.16-0.3 25.76-0.57 25.77-0.27 0.02-3.5-6.17-7.17-13.74-3.67-7.58-7.85-17.16-9.3-21.28-1.44-4.12-3.55-11.77-4.67-17-1.81-8.37-2.15-14.97-2.9-55.5-0.54-29.46-1.4-51.04-2.4-60-0.86-7.7-2.23-20.75-3.04-29-0.81-8.25-1.71-17.59-1.98-20.75-0.44-4.98-0.27-5.75 1.23-5.77zm-119.64 96.52c0.38 2.75 1.67 13.77 2.86 24.5 1.18 10.73 1.9 21.3 1.59 23.5-0.31 2.2-1.03 16.38-1.59 31.5-0.56 15.13-1.73 32.45-2.59 38.5-0.87 6.05-2.7 14.83-4.07 19.5-1.37 4.67-3.13 9.63-3.9 11-1.25 2.23-1.32 1.59-0.66-6 0.4-4.67 0.69-14.58 0.65-22-0.04-7.42-0.66-18.45-1.38-24.5-0.72-6.05-1.32-19.77-1.33-30.5-0.02-13.13 0.53-23.42 1.68-31.5 0.94-6.6 2.84-17.17 4.22-23.5 1.38-6.33 2.8-12.4 3.16-13.5 0.46-1.42 0.86-0.55 1.36 3zm83.97 3c1.02 3.85 3.02 14.42 4.45 23.5 1.42 9.08 2.84 22.8 3.14 30.5 0.34 8.77-0.05 21.29-1.03 33.5-0.86 10.73-1.82 23.55-2.13 28.5-0.32 4.95-0.23 13.2 0.2 18.34 0.42 5.14 0.54 9.51 0.27 9.71-0.27 0.2-1.7-3.1-3.18-7.34-1.47-4.24-3.39-11.76-4.27-16.71-0.88-4.95-2.3-22.73-3.17-39.5-0.86-16.77-1.6-35.23-1.63-41-0.02-5.77 0.94-17.92 2.15-27 1.21-9.08 2.46-17.17 2.78-18 0.32-0.84 1.39 1.6 2.42 5.5z"/>
	<path id="glutes" fill-rule="evenodd" class="s1" d="m455.5 634.09c-2.2 0.56-7.15 2.68-11 4.71-4.17 2.2-9.43 6.16-13 9.8-3.3 3.36-7.42 8.76-9.16 12-1.75 3.25-4.07 8.6-5.18 11.9-1.1 3.3-2.72 10.05-3.58 15-0.87 4.95-1.58 14.06-1.58 20.25 0 6.19 0.34 11.45 0.75 11.69 0.41 0.24 1.59-2.12 2.62-5.25 1.02-3.13 3.09-8.56 4.59-12.08 1.5-3.51 5.25-10.04 8.32-14.5 3.08-4.46 8.89-11.29 12.91-15.18 4.02-3.89 10.24-9.04 13.81-11.44 3.57-2.4 9.65-5.79 13.5-7.53 3.85-1.73 9.48-3.95 12.5-4.93 3.02-0.97 6.18-2.38 7-3.13 1.32-1.2 1.2-1.67-1-3.98-1.38-1.44-4.64-3.7-7.25-5.02-3.37-1.7-7.01-2.54-12.5-2.86-4.26-0.26-9.55-0.01-11.75 0.55zm131.25-0.05c-2.06 0.53-4.99 1.58-6.5 2.34-1.51 0.76-4.21 2.56-6 4-1.79 1.44-3.25 3.29-3.25 4.12q-0.01 1.5 8.25 4.11c4.54 1.43 10.73 3.72 13.75 5.07 3.02 1.35 8.63 4.57 12.45 7.14 3.83 2.57 10.13 7.85 14 11.73 3.88 3.87 9.16 10.17 11.73 14 2.58 3.82 6.48 10.78 8.68 15.45 2.21 4.67 4.6 10.64 5.32 13.26 0.73 2.62 1.66 4.76 2.07 4.75 0.41-0.01 0.75-5.3 0.75-11.76-0.01-6.46-0.67-15.8-1.49-20.75-0.81-4.95-2.37-11.7-3.47-15-1.1-3.3-3.7-8.81-5.77-12.24-2.07-3.43-6.02-8.56-8.77-11.4-2.75-2.84-7.25-6.6-10-8.34-2.75-1.75-7.02-3.97-9.5-4.94-2.48-0.97-7.65-1.93-11.5-2.14-3.85-0.2-8.69 0.07-10.75 0.6zm-104.75 20.49c-3.57 0.81-9.88 3.08-14 5.05-4.13 1.97-10.2 5.5-13.5 7.85-3.3 2.35-9.38 7.89-13.5 12.31-4.13 4.42-9.41 11.35-11.74 15.4-2.33 4.05-5.81 11.75-7.75 17.11-2.17 6.04-3.92 13.27-4.58 19-0.77 6.61-0.77 11.68 0 17.75 0.59 4.67 2.18 12.1 3.53 16.5 1.35 4.4 3.34 11.83 4.42 16.5 1.08 4.67 2.25 11.65 2.6 15.5 0.35 3.85 0.95 7.59 1.33 8.31 0.51 0.95 2.55 0.03 7.71-3.5 3.86-2.65 9.71-5.8 13-7 3.29-1.2 11.83-3.81 18.98-5.78 7.15-1.98 16.82-5.5 21.5-7.81 6.62-3.29 10.41-6.1 17.13-12.72 6.44-6.35 9.55-10.34 12.25-15.75 1.99-3.99 4.35-10.29 5.24-14 1.02-4.23 1.62-11.04 1.61-18.25-0.01-8.2-0.59-13.79-2.03-19.5-1.11-4.4-2.96-10.48-4.09-13.5-1.14-3.03-4.08-8.88-6.53-13-2.45-4.13-6.17-9.71-8.27-12.41-2.1-2.7-4.94-5.73-6.31-6.72-1.38-1-4.3-2.04-6.5-2.31-2.2-0.27-6.93 0.17-10.5 0.97zm79.99 0.91c-1.93 1.34-5.81 5.51-8.63 9.25-2.81 3.75-6.5 9.28-8.19 12.31-1.69 3.02-4.26 8.65-5.7 12.5-1.45 3.85-3.3 9.92-4.11 13.5-0.84 3.67-1.5 11.51-1.51 18-0.02 7.1 0.58 14.08 1.56 18.25 0.87 3.71 3.22 10.01 5.22 14 2.63 5.24 5.88 9.48 11.75 15.31 6.23 6.19 10.21 9.14 17.12 12.68 4.95 2.54 13.95 6.01 20 7.72 6.05 1.71 14.15 4.1 18 5.31 3.88 1.23 10.57 4.56 15 7.48 4.4 2.89 8.23 4.86 8.5 4.37 0.27-0.49 1.04-5.33 1.71-10.75 0.66-5.43 3.02-16.17 5.23-23.87 2.21-7.7 4.52-17.6 5.12-22 0.8-5.77 0.81-10.51 0.03-17-0.59-4.95-1.76-11.7-2.61-15-0.84-3.3-3.24-9.6-5.32-14-2.09-4.4-5.62-10.7-7.85-14-2.23-3.3-6.94-8.92-10.47-12.5-3.52-3.58-9.54-8.6-13.38-11.16-3.83-2.56-9.66-5.83-12.96-7.28-3.3-1.44-9.26-3.28-13.25-4.09-3.99-0.81-8.26-1.47-9.5-1.47-1.24-0.01-3.83 1.09-5.76 2.44z"/>
	<path id="obliques" fill-rule="evenodd" class="s1" d="m451.17 545.8c0.37 0.38 3.64 6.1 7.27 12.7 3.63 6.6 7.8 15.6 9.27 20 2.21 6.61 2.68 9.83 2.7 18.5 0.03 9.14-0.29 11.21-2.49 16-1.38 3.03-3.69 7.08-5.12 9-1.91 2.58-4.54 4.26-9.95 6.38-4.04 1.59-8.93 3.8-10.85 4.92-1.93 1.12-5.41 3.53-7.75 5.37-2.34 1.83-4.59 3.34-5 3.35-0.41 0.02-0.41-1.33 0-3 0.41-1.66 4.32-11.68 8.69-22.27 4.36-10.59 8.97-22.85 10.25-27.25 2.04-7.06 2.31-10.15 2.31-26.2 0-10.01 0.3-17.89 0.67-17.5zm158.43-0.8c0.24 0 0.15 5.51-0.21 12.25-0.41 7.76-0.2 15.55 0.57 21.25 0.67 4.95 2.12 11.92 3.22 15.5 1.1 3.58 4.87 13.25 8.37 21.5 3.51 8.25 7.29 17.59 8.41 20.75 1.12 3.16 1.7 5.75 1.29 5.76-0.41 0-3.45-2.02-6.75-4.49-3.3-2.46-9.83-6.12-14.5-8.11-4.67-2-9.56-4.59-10.85-5.77-1.29-1.18-3.38-4.16-4.64-6.64-1.26-2.47-3.02-6.97-3.91-10-0.89-3.02-1.61-7.75-1.59-10.5 0.01-2.75 0.69-8.15 1.51-12 0.81-3.85 3.31-10.83 5.54-15.5 2.24-4.67 6.1-11.99 8.58-16.25 2.48-4.26 4.71-7.75 4.96-7.75z"/>
	<path id="lower-back" fill-rule="evenodd" class="s1" d="m514.32 534.19c-3.91 5.12-10.2 12.65-13.97 16.73-3.77 4.08-10.9 10.89-15.85 15.14l-9 7.71c-0.01 26.14-0.43 36.88-0.93 40.73-0.81 6.29-0.71 7.18 1.01 8.78 1.06 0.98 5.52 4.4 9.92 7.61 5.3 3.85 10.58 9 15.64 15.22 4.2 5.16 10.56 13.89 14.13 19.39 3.58 5.5 7.25 10.67 8.16 11.5q1.65 1.5 2.65 0.5c0.65-0.65 0.85-25.24 0.58-71-0.27-44.94-0.8-71.61-1.49-74.5-0.59-2.48-1.67-5.09-2.41-5.81-1.1-1.09-2.54 0.28-8.44 8zm22.23-6.94c-0.82 1.24-1.94 6.52-2.5 11.75-0.58 5.37-1.02 37.41-1.03 73.75-0.02 50.42 0.25 64.38 1.23 64.86 0.69 0.34 1.99-0.22 2.9-1.25 0.9-1.02 5.12-7.04 9.38-13.36 4.25-6.33 10.26-14.56 13.35-18.29 3.09-3.74 8.32-8.98 11.62-11.64 3.3-2.67 7.69-5.8 9.75-6.96 2.4-1.35 3.99-3.1 4.42-4.86 0.36-1.51-0.12-8.38-1.07-15.25-1.43-10.33-1.54-13.97-0.63-21 0.61-4.68 0.86-9.29 0.57-10.25-0.3-0.96-3.8-4.39-7.79-7.62-3.99-3.22-10.64-9.41-14.77-13.75-4.14-4.33-11-12.49-15.25-18.13-4.25-5.64-7.95-10.25-8.21-10.25-0.26 0-1.15 1.01-1.97 2.25z"/>
	<path id="back" fill-rule="evenodd" class="s1" d="m419.79 384.13c-0.82 0.54-2.35 2.41-3.39 4.17-1.61 2.7-1.9 5.21-1.89 16.2 0.01 11.84 0.23 13.44 2.5 17.95 1.37 2.73 4.51 6.94 6.99 9.36 2.48 2.42 7.65 5.93 11.5 7.79 4.25 2.06 9.75 3.78 14 4.37 4.29 0.6 9.13 0.63 12.5 0.08 3.02-0.49 6.17-1.13 7-1.43 0.82-0.3 1.87-1.35 2.33-2.33 0.65-1.42-0.29-2.72-4.5-6.24-2.93-2.44-9.18-8.29-13.89-13-4.71-4.7-11.03-11.92-14.06-16.05-3.02-4.12-7.38-10.31-9.69-13.75-2.3-3.44-5.03-6.66-6.05-7.17-1.15-0.56-2.43-0.54-3.35 0.05zm215.62 0.62c-0.95 0.96-4.42 5.8-7.72 10.75-3.3 4.95-9 12.6-12.67 17-3.67 4.4-9.57 10.51-13.1 13.58-3.53 3.06-8.13 6.89-10.22 8.5-2.08 1.6-3.77 3.71-3.75 4.67 0.03 0.96 1.06 2.26 2.3 2.89 1.24 0.62 4.95 1.49 8.25 1.92 3.32 0.44 8.9 0.36 12.5-0.16 3.58-0.53 9.31-2.29 12.75-3.93 3.44-1.63 8.74-5.33 11.78-8.22 3.32-3.15 6.32-7.15 7.5-10 1.08-2.61 2.26-8.24 2.61-12.5 0.41-4.93 0.17-10.3-0.67-14.75-0.91-4.81-2.05-7.7-3.65-9.25-1.27-1.24-2.74-2.25-3.25-2.25-0.51 0-1.71 0.79-2.66 1.75zm-214.29 56.67c-0.07 1.42 1.67 9.67 3.85 18.33 2.18 8.66 5.96 21.6 8.41 28.75 2.44 7.15 6.56 17.95 9.14 24 2.59 6.05 6.4 14.38 8.47 18.5 2.07 4.13 6.35 11.77 9.51 17 3.16 5.23 6.93 11.18 8.37 13.23 1.5 2.13 3.49 3.75 4.63 3.77 1.1 0.02 4.25-1.41 7-3.19 2.75-1.78 8.84-7.08 13.53-11.77 4.69-4.7 11.34-12.81 14.79-18.04 3.44-5.23 6.88-11.52 7.62-14 1.05-3.47 1.12-5.64 0.3-9.5-0.59-2.75-4.55-11.98-8.81-20.5-4.26-8.52-10.9-20.23-14.75-26-3.85-5.77-7.98-11.4-9.17-12.5-2.04-1.89-2.6-1.93-9.84-0.74-4.22 0.69-11.5 1.25-16.17 1.25-4.68 0-11.2-0.68-14.5-1.52-3.3-0.84-9.38-3.2-13.5-5.26-4.13-2.05-7.79-3.88-8.13-4.06-0.35-0.19-0.69 0.83-0.75 2.25zm208.88 1.61c-4.13 2.14-10.31 4.59-13.75 5.44-3.44 0.84-10.3 1.53-15.25 1.53-4.95 0-12.11-0.56-15.92-1.25-6.48-1.17-7.05-1.12-9.12 0.75-1.21 1.1-5.64 7.18-9.85 13.5-4.2 6.32-10.65 17.57-14.33 25-3.68 7.43-7.39 16.31-8.24 19.75-1.37 5.57-1.38 6.71-0.04 10.5 0.82 2.34 2.96 6.65 4.75 9.59 1.79 2.93 5.99 8.78 9.35 13 3.35 4.21 8.97 10.18 12.5 13.25 3.52 3.08 8.2 6.79 10.4 8.26 2.2 1.46 4.9 2.67 6 2.67 1.42 0.02 3.79-2.67 8.17-9.25 3.4-5.1 9.11-14.89 12.69-21.77 3.58-6.87 8.52-17.45 10.98-23.5 2.47-6.05 6.12-15.73 8.12-21.5 2.01-5.77 5.25-16.8 7.21-24.5 1.95-7.7 3.77-16.59 4.03-19.75 0.26-3.16 0.32-5.72 0.14-5.69-0.19 0.03-3.72 1.82-7.84 3.97z"/>
	<path id="teres" fill-rule="evenodd" class="s1" d="m454.81 344.75c-0.81 0.96-3.54 4.9-6.07 8.75-2.52 3.85-7.6 10.38-11.29 14.5-6.21 6.94-6.66 7.76-6.11 11 0.33 1.93 2.39 7.1 4.58 11.5 2.19 4.4 6.83 11.6 10.32 16 3.48 4.4 9.47 10.72 13.3 14.04 3.83 3.32 9.1 7.26 11.71 8.75 3.93 2.24 5.03 2.49 6.37 1.46 1.24-0.96 1.5-2.4 1.11-6.25-0.27-2.75-1.47-11.98-2.65-20.5-1.19-8.52-2.78-20.23-3.54-26-0.84-6.33-2.69-14.08-4.67-19.5-1.81-4.95-4.55-10.46-6.08-12.25-1.53-1.79-3.4-3.25-4.14-3.25-0.75 0-2.02 0.79-2.84 1.75zm142.9 1.95c-1.46 2.09-3.74 6.5-5.08 9.8-1.35 3.3-3.14 9.38-3.98 13.5-0.85 4.13-2.04 12.45-2.66 18.5-0.62 6.05-2.2 17.52-3.5 25.5-1.6 9.76-2.07 15.07-1.43 16.25 0.51 0.96 1.5 1.77 2.19 1.79 0.69 0.02 3.95-1.76 7.25-3.95 3.3-2.19 8.25-5.96 11-8.39 2.75-2.42 7.55-7.5 10.67-11.3 3.11-3.79 7.29-9.6 9.28-12.9 1.99-3.3 4.51-8.81 5.59-12.25 1.57-5.01 1.73-6.7 0.8-8.5-0.64-1.24-3.59-4.95-6.55-8.25-2.97-3.3-7.96-9.82-11.11-14.5-3.63-5.4-6.46-8.61-7.77-8.8-1.45-0.21-2.86 0.85-4.7 3.5z"/>
	<path id="shoulders" fill-rule="evenodd" class="s1" d="m404.5 319.87c-3.85 0.95-9.42 3.06-12.38 4.68-2.96 1.62-8.03 5.76-11.25 9.2-3.8 4.04-7.27 9.16-9.83 14.5-2.18 4.54-4.96 12.3-6.18 17.25-1.73 7.03-2.23 12.07-2.28 23-0.04 8.55 0.44 15.75 1.22 18.5l1.28 4.5c10.4-10.17 15.44-14.5 17.92-16.18 2.48-1.68 9.23-5.42 15-8.31 5.77-2.89 14.1-7.6 18.5-10.47 4.4-2.88 11.04-8.23 14.75-11.89 3.71-3.66 9.02-10.14 11.79-14.4 2.77-4.26 5.47-9.21 6-11 0.73-2.46 0.6-3.86-0.54-5.75-0.88-1.47-4.48-3.88-8.75-5.86-3.99-1.85-10.4-4.77-14.25-6.49-3.85-1.71-8.57-3.09-10.5-3.06-1.93 0.03-6.65 0.83-10.5 1.78zm227.5 2.22c-5.23 2.19-11.86 5.1-14.75 6.45-2.89 1.35-5.76 3.47-6.39 4.71-0.91 1.79-0.77 3.27 0.71 7.25 1.01 2.75 3.64 7.7 5.84 11 2.2 3.3 6.95 8.97 10.55 12.61 3.6 3.63 10.14 8.94 14.54 11.81 4.4 2.86 10.48 6.35 13.5 7.75 3.02 1.4 9.55 4.85 14.5 7.66 5.24 2.98 12.24 8.15 16.75 12.39l7.75 7.28c1.47-9.69 2.15-14.75 2.46-17.5 0.31-2.75 0.09-9.5-0.48-15-0.57-5.5-1.74-12.7-2.6-16-0.86-3.3-3.32-9.71-5.47-14.25-2.69-5.67-5.87-10.32-10.16-14.85-4.47-4.71-8.25-7.56-13.25-9.98-3.85-1.86-9.92-3.83-13.5-4.39-3.58-0.56-7.4-1-8.5-0.98-1.1 0.03-6.27 1.84-11.5 4.04z"/>
	<path id="trazepius" fill-rule="evenodd" class="s1" d="m510.9 240.97c1.43-0.01 4.15 1 6.04 2.25 1.89 1.26 4.59 4.52 6 7.25 2.2 4.28 2.61 6.53 2.89 16 0.23 7.38-0.18 13.52-1.24 18.53-0.9 4.34-3.68 11.82-6.58 17.75-2.75 5.64-5 11.04-4.99 12 0 0.96 1.77 4.68 3.93 8.25 2.15 3.57 4.84 9.31 5.98 12.75 1.14 3.44 2.51 10.41 3.05 15.5 0.55 5.16 0.99 40.88 0.99 80.75 0 45.61-0.36 72.04-0.99 73-0.84 1.27-1.3 1.12-2.97-1-1.08-1.38-6.67-11.95-12.41-23.5-5.74-11.55-12.45-25.73-14.9-31.5-2.45-5.77-5.89-14.77-7.65-20-1.75-5.23-4.05-13.1-5.11-17.5-1.05-4.4-2.4-14.98-3-23.5-0.59-8.52-1.7-18.43-2.46-22-0.75-3.57-2.1-8.52-2.98-11-0.89-2.48-3.13-6.98-4.97-10-1.84-3.02-5.75-7.91-8.69-10.86-3.91-3.91-8.03-6.63-15.34-10.1-5.5-2.61-11.24-5.27-12.75-5.9-1.51-0.62-2.75-1.82-2.75-2.64 0-0.82 1.91-2.47 4.25-3.66 2.34-1.19 12.13-5.48 21.75-9.54 9.63-4.05 19.52-8.56 22-10.02 2.48-1.46 6.9-4.93 9.84-7.71 3.64-3.46 6.59-7.62 9.26-13.07 2.29-4.66 4.78-11.97 5.98-17.5 1.13-5.22 2.76-10.29 3.63-11.25 0.87-0.96 2.76-1.76 4.19-1.78zm38.03 0c1.41-0.02 3.29 0.77 4.18 1.75 0.88 0.98 2.6 6.28 3.81 11.78 1.21 5.5 3.71 13.15 5.56 17 2.27 4.74 5.24 8.8 9.19 12.57 3.21 3.06 8.75 7.19 12.33 9.17 3.58 1.98 14.6 7.04 24.5 11.25 9.9 4.2 18.9 8.27 20 9.05 1.31 0.92 1.74 1.94 1.25 2.93-0.41 0.84-4.46 2.93-9 4.64-4.54 1.71-10.27 4.29-12.74 5.75-2.47 1.45-6.74 4.92-9.5 7.71-2.75 2.79-6.9 8.64-9.21 13-2.31 4.36-5.13 11.53-6.26 15.93-1.17 4.53-2.49 14.39-3.05 22.75-0.54 8.11-1.9 18.91-3.01 24-1.11 5.09-3.63 13.98-5.61 19.75-1.97 5.77-6.49 17.02-10.03 25-3.55 7.98-10.59 22.6-15.64 32.5-5.75 11.25-9.76 18-10.7 18-1.32 0-1.5-9.44-1.5-79 0-73.86 0.12-79.42 1.85-85.5 1.02-3.57 3.32-9.43 5.13-13 1.8-3.57 4-7.85 4.89-9.5 0.89-1.65 1.61-3.45 1.6-4-0.02-0.55-2.24-5.5-4.95-11q-4.92-10-6.59-18.5c-1.14-5.79-1.55-11.86-1.3-19.03 0.31-8.87 0.77-11.3 2.93-15.5 1.41-2.73 4.08-5.98 5.93-7.22 1.85-1.24 4.53-2.26 5.94-2.28z"/>
</svg>