<svg version="1.2" xmlns="http://www.w3.org/2000/svg" viewBox="0 0 1746 2432" width="1200" height="1671">
	<style>
		.s0 { fill: #403f4d } 
		.s1 { fill: #8c97a9 } 
		.s2 { fill: #8f97aa } 
	</style>
	<path id="body-bg" fill-rule="evenodd" class="s0" d="m873.5 91.1c7.7 0 16.9 0.4 20.5 0.9 3.6 0.6 10.8 2.5 16 4.2 5.2 1.7 13.3 5 18 7.4 4.7 2.4 11.1 6.4 14.3 8.9 3.1 2.5 8.2 7.5 11.2 11.3 3.1 3.7 7.3 10.1 9.4 14.2 2.2 4.1 4.6 10 5.5 13 0.9 3 2.3 9.8 3.1 15 0.8 5.2 1.5 15.3 1.5 22.5 0 7.2-0.7 17.5-1.5 23-0.7 5.5-1.3 10.1-1.2 10.2 0.1 0.1 2-0.4 4.3-1 3.5-1 4.5-0.9 6.8 0.6 1.4 0.9 3.3 3.4 4.2 5.5 1.3 2.8 1.5 5.6 1.1 12.2-0.3 4.7-1.7 13-3.1 18.5-1.5 5.7-5 14.9-8.1 21.3-3 6.1-6.3 11.6-7.3 12.1-0.9 0.5-3.4 1.2-5.5 1.5-2.8 0.5-3.8 1.1-4.2 2.9-0.2 1.2-1.2 8.3-2 15.7-1.2 9.6-2.3 14.9-4 18.5-1.7 3.6-6 8.4-15.2 17.2-7 6.8-16.9 15.5-22 19.5-5 4-11.5 8.8-14.5 10.5-2.9 1.8-8 3.8-11.3 4.4-3.4 0.6-11.8 0.9-19.5 0.7-13.1-0.4-13.7-0.5-19.9-3.9-3.5-1.8-11.2-7.2-17-11.8-5.8-4.7-16.5-14.4-23.8-21.5-10.5-10.5-13.3-13.9-14.2-17.1-0.5-2.2-1.7-10.1-2.6-17.5-0.9-7.4-1.8-14.5-2-15.7-0.4-1.9-1.2-2.3-4-2.3-1.9 0-4.4-0.4-5.5-1-1.1-0.6-3.4-3.8-5.1-7.2-1.8-3.5-4.7-10.4-6.6-15.3-1.9-4.9-4.3-13.1-5.4-18-1-4.9-1.9-11.7-1.9-15 0-3.7 0.7-7.3 1.7-9.5 1-1.9 3-4.1 4.5-5 2.1-1.2 3.6-1.3 6.8-0.5 4 1 4.1 1 3.6-1.5-0.3-1.4-1.1-9.7-1.7-18.5-1-12.2-1-18.6-0.1-27 0.6-6.1 2.1-14.5 3.2-18.7 1.1-4.3 3-10.2 4.3-13 1.3-2.9 4.2-8 6.5-11.3 2.3-3.3 5.8-7.8 7.9-10.1 2.1-2.2 6.3-6.1 9.3-8.5 3-2.4 8.9-6.2 13-8.3 4.1-2.2 11.3-5.2 16-6.8 4.7-1.6 11.6-3.6 15.5-4.3 3.8-0.7 13.3-1.4 21-1.4zm-77.2 248.9q-0.03 0-0.06 0.01-0.03-0.01-0.04-0.01zm24.2 22.8c12.6 12.6 24.6 23.8 26.5 25 2.5 1.5 6.5 2.4 14.5 3.3 6.5 0.7 15.7 0.9 22.5 0.5 8.2-0.5 12.8-1.3 16-2.7 3.2-1.5 11.4-8.8 27.9-25 12.9-12.6 23.7-22.9 24-22.9 0.3 0 0.9 8.2 1.4 18.3 0.4 10 1.2 20 1.8 22.2 0.8 3 3.2 6.1 9.8 12.5 4.8 4.7 11.2 10 14.1 11.7 3 1.8 10.7 5.6 17 8.3 6.3 2.8 16.2 7.4 22 10.1 5.8 2.8 15.9 8.1 22.5 11.8 6.6 3.8 15.9 8.9 20.7 11.5 8.1 4.2 9.4 4.6 15.8 4.6 3.8 0 11.6 0.7 17.2 1.5 5.7 0.9 14.3 2.9 19.3 4.6 5 1.6 12.6 4.8 17 7.1 4.4 2.2 10.7 5.9 14 8.3 3.3 2.3 8.2 6.2 10.9 8.6 2.7 2.4 7.4 7.8 10.5 11.9 3.1 4.1 8.2 12.7 11.4 19 3.1 6.3 7.4 16.9 9.6 23.5 2.1 6.6 4.7 16.7 5.7 22.5 1.2 7.2 1.8 15.9 1.8 27.5 0.1 9.4-0.5 22.6-2.7 42l5.7 14c3.2 7.7 7.8 19.2 10.3 25.5 2.5 6.3 5.9 16 7.5 21.5 1.6 5.5 3.8 15.9 4.8 23 1 7.1 2.4 19.8 3 28 0.7 8.3 1.8 18.6 2.5 23 0.9 4.9 2.8 10.7 4.9 15 2 3.9 7.9 13.5 13.2 21.5 5.3 8 13 19.9 17.2 26.5 4.1 6.6 10.4 17.9 13.8 25 3.5 7.1 7.4 16.4 8.8 20.5 1.4 4.1 4.3 17 6.6 28.5 2.2 11.5 5.2 26.9 6.6 34 1.3 7.1 4.1 19.1 6.1 26.5 1.9 7.4 6.2 20 9.3 28 3.2 8 9.2 23 13.5 33.5 4.2 10.5 8.5 20.7 9.6 22.8 1 2 3.1 4.6 4.6 5.7 1.6 1.1 3.2 2.1 3.8 2 0.5 0 9.3 4.2 19.5 9.3 12.8 6.4 19.6 10.4 22.5 13.2 2.2 2.3 6 6.8 8.5 10 2.5 3.2 7.5 8.4 11.2 11.5 3.7 3 8.9 8.2 11.6 11.5 2.9 3.5 8.1 8.1 12.6 11 4.2 2.8 7.9 5.9 8.2 7 0.4 1.2-0.2 3.2-1.2 4.8-1.1 1.6-3.7 3.5-5.9 4.3-3.3 1.3-5.1 1.3-10.5 0.4-3.6-0.7-9-2.3-12-3.7q-5.5-2.5-14.5-11.2c-5-4.9-10.4-9.5-12-10.4-1.7-0.8-5-1.6-7.5-1.7-2.5 0-9.5 0.2-15.5 0.6-9.7 0.5-11.8 0.4-17.5-1.6-3.6-1.2-9.3-3.9-12.8-6.1-3.4-2.1-6.2-3.6-6.2-3.2 0 0.5 2.3 3.1 5.2 6 3.2 3.1 8.1 6.5 12.3 8.5 6.9 3.2 7.3 3.3 37 3.6l2.2 2.9c1.2 1.5 8.7 16.3 16.7 32.8 7.9 16.5 17.1 37.2 20.4 46 3.3 8.8 6.3 18 6.7 20.5 0.5 3.2 0.2 5.6-0.9 8.2-0.9 2.1-2.6 4.3-3.9 4.9-1.8 0.9-3 0.8-6.2-0.8-2.2-1.1-5.4-3.7-7-5.9-1.7-2.1-5-8.9-7.4-14.9-2.4-6.1-8.7-19-14-28.8-5.3-9.8-10.2-18-10.9-18.2-0.9-0.4-1.1 0.4-0.7 2.7 0.3 1.8 2.6 8.5 5.1 14.8 2.6 6.3 7.9 20 11.9 30.5 4 10.4 8.2 22.4 9.4 26.5 1.1 4.1 2.1 8.7 2.1 10.2 0 1.6-0.7 4.1-1.5 5.8-0.8 1.6-2.4 3.4-3.5 4-1.1 0.5-3.2 1-4.8 1-1.5 0-4.1-1.1-5.7-2.4-1.7-1.2-4.9-5.8-7.2-10.2-2.2-4.3-6.8-14.2-10.1-21.9-3.3-7.7-8.8-21-12.1-29.5-3.4-8.5-6.8-16.4-7.7-17.5-1.5-1.9-1.5-1.9-0.9 1 0.3 1.6 3.8 11.8 7.7 22.5 3.9 10.7 8.4 23.8 10 29 1.5 5.2 3.1 11.5 3.4 14 0.4 2.5 0.4 5.7 0 7.2-0.4 1.7-1.8 3.4-3.6 4.3-1.7 0.8-4.2 1.3-5.8 1-1.5-0.3-4.1-1.8-5.7-3.3-1.7-1.6-4.5-6.4-6.4-10.8-1.8-4.3-8.4-20.5-14.7-35.9-6.3-15.4-11.7-28.2-11.9-28.5-0.3-0.3-0.7-0.3-1 0-0.3 0.3 0.6 5.4 2 11.5 1.4 6 4.1 16.6 6 23.5 1.9 6.9 3.5 14.6 3.5 17.2 0 3.7-0.5 5.3-2.3 6.8-1.2 1.1-3.1 2-4.2 2-1.1 0-3-0.7-4.3-1.5-1.2-0.8-3.3-3.4-4.7-5.8-1.3-2.3-4.7-10.3-7.4-17.7-2.7-7.4-7.4-19.4-10.4-26.5-3-7.2-8.4-19.3-11.9-27-3.6-7.7-8.2-18.5-10.3-24-2-5.5-4.5-13.8-5.6-18.5-1-4.7-2.3-14.1-2.8-21-1-12.1-1.2-12.8-5.7-21.5-2.6-5-7.2-13.1-10.2-18-3.1-5-10.7-16-17.1-24.5-6.3-8.5-14.7-19.6-18.7-24.5-3.9-5-10.8-13.5-15.4-19-4.5-5.5-13.2-16.3-19.4-24-6.3-7.7-14.1-18.3-17.6-23.5-3.4-5.2-9.5-16.3-13.5-24.5-4.1-8.3-8.9-19.5-10.8-25-1.9-5.5-4.6-15-6-21-1.4-6.1-3.5-17.3-4.7-25-1.1-7.7-2.7-17.8-3.4-22.5-1.2-7.6-2.1-9.7-8-19.5-3.6-6.1-9-16.4-12-23-3-6.6-7-16.5-9.1-22-2-5.5-5-15-9.3-32l-1.8 6c-0.9 3.3-3.7 11.6-6.1 18.5-2.5 6.9-7.3 18.3-10.8 25.5-3.5 7.1-9.8 18.4-14 25-4.3 6.6-8.6 13.8-9.6 16-1.5 3.2-2.3 10.1-3.9 33.5-1.1 16.2-2 32.1-2 35.2 0 4.2 0.9 8.2 3.4 14.5 1.8 4.9 4 11.3 4.9 14.3 0.9 3 2.3 9.5 3.2 14.5 0.8 5 1.5 14.6 1.5 21.5 0 6.9-0.4 15.2-0.9 18.5-0.5 3.3-1.2 9.5-1.5 13.7-0.6 7.5-0.4 8.4 5.3 25.5 3.3 9.8 6.7 21.6 7.5 26.3 0.9 4.7 3 19.5 4.7 33 1.6 13.5 3.9 29.7 4.9 36 1.1 6.3 3.9 20.7 6.4 32 2.4 11.3 6.3 29.7 8.5 41 2.2 11.3 4.9 26.3 6 33.5 1.1 7.1 2.9 20.2 4 29 1.1 8.8 2.8 24.1 3.6 34 0.9 9.9 1.9 32.4 2.2 50 0.3 18.2 0.1 43.9-0.6 59.5-0.6 15.1-1.6 33.6-2.2 41-0.5 7.4-1.9 19.6-3 27-1.1 7.4-3 19.1-4.4 26-1.3 6.9-3.5 17.2-4.9 23-1.3 5.8-4.7 19.5-7.6 30.5-2.9 11-6.4 23.9-7.6 28.7-1.9 7.1-2.3 10.4-1.9 17 0.2 4.6 0.7 13.2 1 19.3 0.2 6 0.7 27 1 46.5 0.5 24.4 1.1 38.5 2.2 45 0.8 5.2 2.9 14.9 4.5 21.5 1.6 6.6 5.1 22.1 7.8 34.5 2.6 12.4 5.7 28.3 6.9 35.5 1.1 7.1 2.5 18.8 3.2 26 0.7 8.1 1 21.2 0.6 35-0.3 12.1-1.3 27.2-2.2 33.5-0.8 6.3-2.5 16.2-3.6 22-1.1 5.8-3.6 17.7-5.5 26.5-1.9 8.8-5.7 25-8.4 36-2.7 11-5.8 24.5-6.9 30-1.2 5.5-3.2 16.1-4.6 23.5-1.5 7.4-4.6 24.1-7 37-2.4 12.9-5.5 31.4-6.9 41-1.4 9.6-3.2 23.1-4.1 30-0.8 6.9-1.5 15.5-1.5 19.2 0 5 0.8 9.2 3 15.5 1.7 4.9 3.3 11.3 3.7 14.3 0.3 3.5-0.1 9.3-3.2 26.7l4.4 5.9c2.5 3.2 9 11.3 14.5 17.9 5.6 6.6 13.2 15.3 17.1 19.4 3.8 4 9.7 9.5 13 12.1 3.3 2.6 10.5 7.7 16 11.5 5.5 3.7 15.1 10.7 21.4 15.4 6.3 4.7 12.8 10.4 14.3 12.6 1.8 2.5 2.8 5.2 2.8 7.2 0 2.3-1 4.4-3.3 6.9-1.8 2-6.3 5.1-10.2 6.9-3.9 1.8-10.2 4-14 5-3.9 0.9-10.6 2.3-15 3.1-4.4 0.8-11.5 1.4-15.8 1.4-5.1 0-9.6-0.7-19.2-4l-4.5 3.6c-2.5 1.9-6.3 4-8.5 4.5-2.2 0.6-6.7 0.8-10 0.5-3.3-0.3-9.6-1.7-14-3.1-4.4-1.5-11.7-4.4-16.3-6.6-4.5-2.1-9.8-5.4-11.8-7.2-2.1-1.7-5.8-6.1-8.3-9.6-2.5-3.5-5.7-7.4-7.1-8.5-1.6-1.4-6.3-3-13-4.4-5.8-1.2-13.3-3.6-16.8-5.2-4.5-2.2-6.9-4.1-9-7.2-2.4-3.8-2.7-5-2.6-12.7 0.1-6 1.5-15.5 4.8-31.1 2.5-12.4 4.6-23.9 4.6-25.5 0-1.7-1.4-8.6-3.1-15.5-1.8-7.2-3.1-15.1-3.1-18.5 0-4.2 1.2-9.7 4-18.5 2.2-6.9 4.6-14.8 5.2-17.5 0.6-2.8 1.4-16.7 1.7-31 0.3-16.1 0.1-31.4-0.6-40-0.7-7.7-1.9-19.6-2.7-26.5-0.8-6.9-2.6-20.6-4-30.5-1.4-9.9-3.4-23.2-4.4-29.5-1.1-6.3-3.6-16.9-5.5-23.5-1.9-6.6-5.5-19-8-27.5-2.5-8.5-5.9-21.6-7.5-29-1.6-7.4-3.6-19.4-4.5-26.5-0.8-7.2-1.5-18-1.5-24 0-6.1 0.7-17.3 1.5-25 0.8-7.7 2.9-21.7 4.5-31 1.7-9.4 4.4-24.7 6.1-34 1.7-9.4 3.3-20.6 3.6-25 0.3-4.4 0-12.1-0.5-17-0.6-5-2.7-14.2-4.7-20.5-2-6.3-5.2-17.8-7-25.5-1.9-7.7-4.5-19.6-5.9-26.5-1.3-6.9-3.2-17.5-4-23.5-0.9-6.1-2.3-17.8-3.1-26-0.9-8.3-2.3-20.9-3.1-28-0.8-7.2-1.9-21.1-2.4-31-0.6-9.9-1.4-27.9-2-40-0.5-12.1-1.4-28.3-2-36-0.6-7.7-1.5-19.9-2-27-0.6-7.2-2.2-20.7-3.6-30-1.4-9.4-3.8-24.7-5.4-34-1.6-9.4-3.8-24-4.9-32.5-1.1-8.5-2.7-22.7-3.5-31.5-0.9-8.8-2-22.5-2.5-30.5-0.6-8-1.3-21.5-2.3-45.5h-10.4c-8.6 0-10.4 0.3-10.4 1.5 0 0.8-0.5 11.4-1 23.5-0.6 12.1-1.7 29.9-2.5 39.5-0.9 9.6-2.7 26.9-4.1 38.5-1.4 11.5-4.1 30.4-5.9 42-1.9 11.5-4.4 27.2-5.5 34.7-1.1 7.6-2.7 24.5-3.5 37.5-0.8 13.1-1.7 25.5-2 27.5-0.3 2.1-1.2 19-2 37.5-0.8 18.6-2.4 42.6-3.5 53.3-1.1 10.7-2.5 24-3.1 29.5-0.5 5.5-1.9 16.5-3 24.5-1.1 8-3.6 22.4-5.5 32-1.9 9.6-5.4 24-7.6 32-2.3 8-5.1 18.3-6.4 23-1.8 6.7-2.3 11.2-2.4 21.2 0 9.5 0.6 16.3 2.4 26 1.4 7.3 3.8 21.6 5.5 31.8 1.7 10.2 3.8 23 4.7 28.5 0.8 5.5 1.8 18.8 2.1 29.5 0.4 12.3 0.1 23.2-0.6 29.5-0.6 5.5-2.3 15.6-3.7 22.5-1.4 6.9-4.1 18.3-6 25.5-1.8 7.1-5.9 20.9-8.9 30.5-4 12.6-6.2 22-8 33.5-1.4 8.8-3.8 26.6-5.4 39.5-1.7 12.9-3.7 30.2-4.6 38.5-0.9 8.7-1.5 24-1.5 36.5 0 12.7 0.6 25.8 1.4 32 0.8 5.9 3.3 16.2 5.6 23.5 3.2 10.1 4.1 14.5 4.1 20 0 3.8-0.7 9-1.6 11.5-0.9 2.5-2.3 8.3-3.1 13-1.3 6.9-1.3 9.8-0.4 15.5 0.6 3.8 2.7 14.2 4.6 23 2 8.8 3.8 19.6 4.1 24 0.5 6.7 0.2 8.6-1.4 12-1.1 2.2-3.6 5.3-5.4 6.9-1.9 1.5-5.2 3.7-7.4 4.8-2.2 1.1-8.1 2.9-13 4-5 1-10.6 2.7-12.5 3.6-1.9 0.9-5 3.7-6.8 6.2-1.8 2.5-4.7 6.4-6.5 8.6-1.8 2.3-5.2 5.4-7.7 6.9-2.5 1.5-9.9 5-16.5 7.8-7.2 3-14.9 5.4-19.2 6.1-5.7 0.9-8.3 0.8-12-0.2-2.6-0.8-6.8-2.8-13.8-7.9l-5 1.8c-3.1 1.1-8 1.8-13 1.8-4.4 0.1-12.3-0.6-17.5-1.4-5.2-0.9-12.8-2.4-16.8-3.5-3.9-1.1-9.8-3.3-13-4.9-3.1-1.6-7.2-4.5-9-6.5-1.9-2.2-3.2-4.7-3.2-6.4 0-1.5 1.3-4.8 3-7.5 2.1-3.2 6.5-7.3 14.2-13 6.2-4.6 16.9-12.1 23.8-16.7 9-6 15.7-11.5 24-19.9 6.4-6.4 15.4-16.3 20.1-22.1 4.7-5.8 10.7-13.4 18.4-23.2l-1.9-9.6c-1.3-6.8-1.7-11.7-1.3-16.2 0.4-3.6 2-10.8 3.8-16 3-9.1 3.1-10 2.5-21-0.3-6.3-2.4-23.7-4.6-38.5-2.1-14.9-6-38.3-8.5-52-2.5-13.8-5.9-32.2-7.5-41-1.6-8.8-5.9-27.7-9.4-42-3.6-14.3-8.5-36.1-11-48.5-2.5-12.4-5.2-27.5-6-33.5-0.8-6.1-2-18.9-2.6-28.5-0.8-12.8-0.8-21.9 0-34 0.6-9.1 2-23 3-31 1.1-8 4-24.2 6.4-36 2.5-11.8 6.6-30.3 13.8-60.5l0.9-38c0.4-20.9 1.3-47.7 1.8-59.5 1.1-21.1 1-21.7-1.3-31.5-1.4-5.5-4.3-16.5-6.5-24.5-2.2-8-5.6-21.3-7.5-29.5-1.9-8.3-4.3-19.5-5.5-25-1.1-5.5-2.9-16.3-4-24-1.2-7.7-2.8-22.8-3.6-33.5-0.9-11.3-1.8-38.6-2.2-65-0.4-30.3-0.2-52.2 0.6-65.5 0.7-11 2.1-28.1 3.1-38 1.1-9.9 2.4-21.6 3-26 0.6-4.4 1.7-12.3 2.6-17.5 0.8-5.2 2.6-15.6 4-23 1.4-7.4 5.2-25.7 8.4-40.5 3.3-14.9 6.8-32.4 7.9-39 1.2-6.6 3.4-23.4 5.1-37.3 1.6-13.8 3.9-29.6 5.1-35 1.2-5.3 3.4-13.5 4.9-18.2 1.5-4.7 4-11.7 5.5-15.5 2.5-6.4 2.7-7.8 2.2-17-0.3-5.5-1.1-14.1-1.7-19-0.7-5-0.9-13.2-0.6-18.5 0.4-5.2 1.3-13.3 2.1-18 0.8-4.7 2.2-10.8 3.1-13.5 0.9-2.8 3.2-9.3 5.1-14.5 3.4-9.2 3.5-9.8 2.9-19.5-0.3-5.5-1.3-19.2-2.1-30.5-0.9-11.3-2-23-2.6-26-0.5-3-1.8-6.9-2.8-8.5-1-1.7-5.6-8.9-10.1-16-4.5-7.2-10.2-17.1-12.5-22-2.4-5-5.5-11.9-7-15.5-1.5-3.6-4.9-13-7.6-21-2.6-8-4.8-13.8-4.8-13-0.1 0.8-1.7 7.1-3.6 14-2 6.9-5.8 18.1-8.6 25-2.7 6.9-8.6 19.2-13.1 27.5-4.5 8.2-8.9 16.6-9.9 18.5-1 1.9-2.5 8.9-3.4 15.5-0.9 6.6-2.8 18.3-4.1 26-1.4 7.7-3.8 18.7-5.5 24.5-1.7 5.8-4.6 14.8-6.6 20-1.9 5.2-6.2 14.7-9.4 21-3.2 6.3-9.1 16.4-13.1 22.5-4 6-13.4 18.4-20.8 27.4-7.4 9-18.6 22.7-24.9 30.5-6.2 7.7-16.4 20.8-22.6 29.1-6.3 8.2-15 20.8-19.5 28-4.5 7.1-9.7 16.1-11.6 20-3.1 6.4-3.5 8.2-4.4 20.5-0.6 8-2.1 17.6-3.6 23.5-1.4 5.5-4.5 14.7-6.8 20.5-2.4 5.8-6.3 14.3-8.6 19-2.3 4.7-6.2 13.2-8.6 19-2.3 5.8-5.4 13-6.7 16-1.4 3-4.4 10.9-6.7 17.5-2.3 6.6-5.2 13.8-6.3 16-1.1 2.2-3.2 5-4.6 6.3-1.4 1.2-3.8 2.2-5.4 2.2-1.5 0-3.4-0.7-4.2-1.5-0.8-0.8-1.7-2.5-2-3.8-0.3-1.2 0.1-5.1 0.8-8.7 0.8-3.6 3.6-14.6 6.1-24.5 2.6-9.9 4.5-19.1 4.3-20.5-0.3-2.3-0.4-2.4-1.2-0.5-0.5 1.1-7.3 17.5-15.2 36.5-7.9 19-15.3 35.5-16.6 36.8-1.2 1.2-3.7 2.7-5.5 3.2-2.3 0.7-4 0.6-5.9-0.3-1.5-0.6-3.2-2.1-3.8-3.2-0.7-1.3-0.8-4.2-0.3-8.5 0.5-3.6 3.7-14.8 7.2-25 3.5-10.2 8.3-23.9 10.5-30.5 2.3-6.6 3.9-12.1 3.6-12.3-0.3-0.1-1.1 1-1.9 2.5-0.8 1.6-4.6 10.7-8.6 20.3-4 9.6-9.7 23.1-12.7 30-3.1 6.9-6.8 15-8.3 18-1.5 3-4.2 7-5.9 8.7-2.3 2.5-4 3.3-6.6 3.3-1.9 0-4.4-0.5-5.5-1-1.1-0.6-2.7-2.6-3.5-4.5-1.3-3.1-1.3-4.4-0.1-10.3 0.8-3.7 4.5-15 8.4-25.2 3.9-10.2 9.8-25.5 13.2-34 3.4-8.5 6.5-16.8 6.8-18.3 0.5-1.9 0.3-2.7-0.6-2.7-0.6 0-5 7.1-9.6 15.7-4.7 8.7-10.1 19.4-12.1 23.8-2 4.4-5.5 11.7-7.6 16.2-2.5 5.4-5 9.1-7.2 10.7-1.7 1.3-4.3 2.7-5.7 3.1-1.9 0.5-3.1 0-5.3-2.2-2.4-2.5-2.8-3.5-2.7-8.8 0-3.7 1-8.5 2.4-12.5 1.3-3.6 4.4-11.9 6.9-18.5 2.5-6.6 11-25.3 19-41.5 7.9-16.2 15.3-30.3 16.3-31.2 1.7-1.6 2.8-1.7 9.9-0.7 5.8 0.8 10.1 0.8 15.5-0.1 4.1-0.6 10.2-2.3 13.5-3.9 3.3-1.5 8.4-4.9 11.2-7.5 2.9-2.5 5.1-5.1 4.8-5.6-0.3-0.6-1.6-0.2-3.3 0.9-1.5 1.1-5.6 3.3-9.2 5-3.9 1.8-9.3 3.4-13.5 3.9-3.9 0.5-9.7 0.6-13 0.1-3.3-0.4-8.4-0.8-11.3-0.8-3.2-0.1-6.6 0.6-9 1.8-2 1-7.3 5.5-11.7 10-5.6 5.8-9.8 9.1-14 11.1-3.3 1.5-8.5 3.3-11.5 4-3 0.7-7.2 1-9.3 0.6-2-0.3-5.3-2-7.2-3.6-2.3-1.9-3.5-3.9-3.5-5.5 0-2.1 1.4-3.4 7.7-7.2 5.7-3.5 12.1-9.1 23.8-20.9 8.8-8.8 17.6-18.1 19.5-20.4 1.9-2.4 5.7-5.8 8.5-7.6 2.7-1.7 13.2-7.3 41.5-21.4l4.4-9.3c2.5-5 8.7-19.6 13.9-32.2 5.2-12.7 10.3-25.5 11.4-28.5 1.2-3 3.3-9.8 4.7-15 1.4-5.2 3.7-14.5 5-20.5 1.3-6.1 4.3-21.1 6.6-33.5 2.3-12.4 5.3-26.8 6.6-32 1.4-5.2 5.1-15.1 8.2-22 3.2-6.9 8.4-17 11.7-22.5 3.2-5.5 11.8-18.8 18.9-29.5 7.2-10.7 14.5-22.4 16.3-26 1.9-3.9 3.8-10 4.7-15 0.9-4.7 2.2-17.1 3.1-27.5 0.9-10.5 2-21.9 2.6-25.5 0.5-3.6 1.9-10.3 3-15 1.1-4.7 3.3-12.3 4.9-17 1.6-4.7 5.4-14.4 8.5-21.5 3.1-7.2 7.1-16.8 11.9-30l-1.5-14c-0.8-7.7-1.3-20.5-1.3-28.5 0.1-8 0.9-18.8 1.7-24 0.9-5.2 3.2-14.9 5.2-21.5 2-6.6 5.8-16.5 8.4-22 2.6-5.5 6.9-13.4 9.5-17.5 2.7-4.1 8.7-11.4 13.5-16.1 6-6 11.6-10.3 18.6-14.4 5.5-3.3 13.6-7.3 18-9.1 4.4-1.7 12.3-4.1 17.5-5.3 5.4-1.3 14.5-2.5 32.5-3.4l15-8c8.2-4.4 16.6-9 18.5-10.2 1.9-1.2 8.2-4.6 14-7.5 5.8-2.9 16.6-7.9 24-11.2 7.4-3.2 15.9-7.3 18.9-9.1 3-1.8 9.4-7 14.2-11.7 6.6-6.4 9-9.5 9.8-12.5 0.6-2.2 1.1-12.4 1.1-22.8 0-13.99 0.29-18.51 1.24-18.69 0.97 0.28 11.84 10.47 24.26 22.79zm137.4 2068.7c25.6 0 35.9 0.1 23 0.2-12.9 0.2-33.9 0.2-46.5 0-12.6-0.1-2.1-0.2 23.5-0.2z"/>
	<path id="calves" fill-rule="evenodd" class="s1" d="m695.8 1709c0.4 0 1.5 0.7 2.4 1.7 1 1 3.6 6.1 5.9 11.3 2.3 5.2 5.4 13.5 7.1 18.5 1.6 5 4.2 14 5.8 20 1.5 6 4.2 17.8 5.9 26 1.6 8.3 4.1 24.2 5.5 35.5 1.4 11.3 3.1 28.6 3.7 38.5 0.6 9.9 1.2 42.5 1.4 72.5 0.2 30 0.8 61.5 1.4 70 0.6 8.5 1.8 22.3 2.6 30.5 0.8 8.3 2.8 25.3 4.4 38 1.6 12.7 3.9 30.7 5.1 40 1.5 11.4 1.8 17.3 1.2 18q-1 1-2-1c-0.5-1.1-3.3-10.1-6.2-20-2.9-9.9-7.5-25.7-10.2-35-2.6-9.3-7.5-27.6-10.8-40.5-3.2-12.9-9.3-37.7-13.4-55-4.1-17.3-8.8-38.3-10.5-46.5-1.6-8.3-3.7-19.7-4.5-25.5-0.9-5.8-2.2-16.8-3-24.5-0.8-7.7-2-23.5-2.7-35-0.7-12.5-0.9-29.9-0.5-43 0.3-12.1 1.5-30.5 2.6-41 1.1-10.5 2.8-25.1 3.9-32.5 1.1-7.4 2.5-15.2 3.1-17.3 0.6-2 1.4-3.7 1.8-3.7zm357.9 0c1.4 0 2 2.1 3.5 11.3 1 6.1 2.7 17.9 3.8 26.2 1 8.3 2.4 22.4 3.1 31.5 0.7 10.7 1 28.3 0.6 50-0.3 19.8-1.2 39.6-2.1 48.5-0.9 8.3-2.3 19.7-3.2 25.5-0.8 5.8-2.6 16.3-4 23.5-1.4 7.2-4.5 21.8-6.9 32.5-2.4 10.7-8.7 36.8-13.9 58-5.2 21.2-14.3 54.9-20.1 75-5.8 20.1-11 36.9-11.5 37.5-0.5 0.6-1.3 0.6-1.7 0.2-0.5-0.5 1.4-18.7 4.1-40.5 2.7-21.9 5.7-47.8 6.7-57.7 1-9.9 2.3-26.6 2.9-37 0.5-10.5 1-38.6 1-62.5 0-23.9 0.5-51.8 1-62 0.5-10.2 1.5-23.5 2.1-29.5 0.6-6.1 1.9-17.3 3-25 1-7.7 3-19.9 4.4-27 1.4-7.2 4.2-19.1 6.1-26.5 2-7.4 5.4-18.7 7.6-25 2.2-6.3 5.8-15 7.9-19.3 2.6-5 4.5-7.7 5.6-7.7zm16.2 24.5c0.5 0.5 2.6 7.5 4.6 15.5 2 8 4.8 19.9 6.1 26.5 1.4 6.6 3.1 16.3 4 21.5 0.8 5.2 1.8 17.4 2.1 27 0.4 10.8 0.1 22.5-0.6 30.5-0.7 7.2-2.4 19.8-3.7 28-1.4 8.3-4.3 22.4-6.4 31.5-2.1 9.1-5 20.5-6.4 25.5-1.4 5-5.1 16-8.3 24.5-3.1 8.5-5.8 15-6 14.5-0.2-0.5 0.7-6.8 2.1-14 1.3-7.2 3.1-16.8 4-21.5 0.9-4.7 2.7-16.4 4-26 1.4-9.6 3.2-23.6 4-31 0.9-7.4 2.1-19.8 2.7-27.5 0.6-7.7 1.2-26.2 1.2-41 0-15.4-0.7-36-1.6-48-0.9-11.5-1.9-24.6-2.2-29-0.5-5.4-0.3-7.7 0.4-7zm-390 0.5c0.4 0 0.6 1.9 0.4 4.3-0.2 2.3-0.7 9.8-1.3 16.7-0.6 6.9-1.5 23.5-2.1 37-0.5 13.5-0.7 30.6-0.4 38 0.3 7.4 1 20.3 1.6 28.5 0.5 8.3 1.6 20.8 2.5 28 0.8 7.2 2.3 19.5 3.5 27.5 1.1 8 3.1 21.5 4.4 30 1.3 8.5 3.2 19.7 4.2 24.8 1 5.1 1.6 9.5 1.3 9.8-0.3 0.2-1.1-1-1.8-2.8-0.7-1.8-3.7-10.3-6.6-18.8-3-8.5-7.2-22.7-9.4-31.5-2.2-8.8-5.4-23-7.1-31.5-1.6-8.5-3.7-21.6-4.5-29-0.8-7.4-1.8-18-2.1-23.5-0.4-5.5-0.2-17 0.5-25.5 0.6-8.5 2.2-21.6 3.6-29 1.4-7.4 4.5-21.4 6.9-31 2.5-9.6 4.8-18.5 5.1-19.7 0.3-1.3 0.9-2.3 1.3-2.3zm115.5 13.3c0.6 0.2 2.5 7.3 4.3 15.8 1.8 8.5 4.3 22.6 5.7 31.4 1.4 8.8 3 22.8 3.7 31 0.6 8.3 0.8 20.2 0.5 26.5-0.4 6.3-1.1 15.5-1.7 20.5-0.6 5-2.2 14.6-3.5 21.5-1.4 6.9-3.4 15.7-4.5 19.5-1.1 3.8-3.1 10.3-4.4 14.3-1.4 3.9-2.9 7.2-3.5 7.2-0.5 0-2.8-3-4.9-6.7-2.2-3.8-6.5-12-9.5-18.3-3-6.3-7-16.2-8.9-22-2-5.8-4.3-14.5-5.3-19.5-1.3-6.3-1.8-13.5-1.8-24 0.1-11.3 0.6-17.4 2.2-25 1.2-5.5 3.5-14 5.3-19 1.7-5 4.9-13.3 7.1-18.5 2.2-5.2 6.1-13.5 8.6-18.5 2.4-5 5.6-10.7 6.9-12.8 1.4-2.1 3-3.7 3.7-3.4zm159.2-0.3c0.8 0 3.4 3.5 5.9 7.8 2.4 4.2 6.4 12 8.8 17.2 2.5 5.2 6.1 13.8 8.2 19 2 5.2 5 14.6 6.6 20.8 1.7 6.7 3.3 16 3.8 23 0.5 6.7 0.5 15.5 0 20.7-0.5 5-1.6 12.4-2.4 16.5-0.9 4.1-2.9 11.3-4.5 16-1.5 4.7-4.4 12.3-6.4 17-2 4.7-6.2 13.2-9.4 19-3.2 5.8-6.5 10.5-7.3 10.5-0.9 0-2.7-3.8-5.1-11-2-6-4.8-16.2-6.2-22.5-1.4-6.3-3.3-16.2-4.1-22-0.8-5.8-1.8-17.7-2.2-26.5-0.3-9.7-0.1-21.9 0.6-31 0.7-8.2 2.3-21.3 3.6-29 1.3-7.7 3.8-21.1 5.6-29.7 2.2-11.1 3.6-15.8 4.5-15.8zm-196.7 145.5c0.5 0.5 2.1 3.9 3.6 7.5 1.5 3.6 6.5 14.4 11.2 24 4.6 9.6 9.3 20.4 10.4 24 1.1 3.6 2.2 9.2 2.5 12.5 0.3 3.5-0.1 10.3-1 16.5-0.9 5.8-3.7 27.4-6.1 48-2.5 20.6-4.7 37.7-5 38-0.2 0.3-0.7-1.1-1-3-0.2-1.9-1.4-11.6-2.5-21.5-1.1-9.9-2.9-24.7-4-33-1.1-8.2-3.1-25.8-4.5-39-1.3-13.2-2.9-31.4-3.5-40.5-0.5-9.1-1-20.5-1-25.5 0-5.6 0.3-8.6 0.9-8zm233.6-1l0.3 10.5c0.2 5.8-0.2 19-0.8 29.5-0.6 10.5-2.5 30.7-4.1 45-1.6 14.3-4.6 38.9-6.7 54.7-2 15.7-3.9 28.9-4.2 29.2-0.3 0.3-1.1-4.6-1.8-10.7-0.7-6.2-2.5-20.7-3.8-32.2-1.4-11.5-3.4-27-4.4-34.2-1.1-7.3-2-16.3-2-20 0-3.8 0.7-9.5 1.5-12.8 0.9-3.3 6-15.2 11.5-26.5 5.5-11.3 10-20.8 10-21.2 0-0.5 1-3.2 2.3-6z"/>
	<path id="quadriceps" fill-rule="evenodd" class="s1" d="m1005 1059.5c0.4 1.1 1 7 1.4 13 0.4 6 1.3 15.5 2.1 21 0.8 5.5 2.5 15.2 3.9 21.5 1.4 6.3 4 16.5 5.9 22.5 1.8 6 5.5 17.8 8.1 26 2.6 8.3 7.2 24.5 10.1 36 3 11.5 6.7 29.1 8.4 39 1.6 9.9 3.7 24.3 4.5 32 0.9 7.7 2 20.1 2.6 27.5 0.5 7.4 1 21.2 1 30.5 0 9.3-0.5 23.3-1 31-0.6 7.7-1.9 21.4-3.1 30.5-1.1 9.1-3.6 23.9-5.4 33-1.9 9.1-5.3 23.3-7.5 31.5-2.3 8.3-5.9 20.4-8.1 27-2.2 6.6-5.9 16-8.3 21-2.4 5-5.4 9.9-6.5 11-1.2 1.1-2.3 1.8-2.5 1.5-0.2-0.3-4.9-12.7-10.6-27.5-5.6-14.8-13.3-35.1-17-45-3.8-9.9-8.5-23.4-10.4-30-1.9-6.6-4.8-18.8-6.6-27-1.7-8.3-4.3-22.4-5.7-31.5-2.4-14.7-2.7-19.3-2.8-67.5l6.4-24c3.5-13.2 8.5-33 11.1-44 2.7-11 6.4-27.2 8.4-36 1.9-8.8 5.1-24.5 7-35 1.9-10.5 5.6-33.4 8.1-51 2.5-17.6 4.8-33.6 5.2-35.5 0.5-2.9 0.7-3.2 1.3-1.5zm-258.9 5c0.5 2.8 2.2 14.2 3.9 25.5 1.8 11.3 4.7 29.6 6.6 40.8 1.9 11.1 4.9 27.7 6.8 37 1.9 9.2 5.8 26.6 8.6 38.7 2.8 12.1 7 29 9.1 37.5 2.3 8.5 5.3 20.5 6.9 26.5 1.5 6 3.3 15 3.9 20 0.6 5 1.1 14.4 1.1 21 0 6.6-0.5 17-1 23-0.6 6-2.2 17.8-3.6 26-1.3 8.3-4.1 22-6 30.5-2 8.5-5.2 20.7-7.1 27-1.9 6.3-8.6 24.5-14.8 40.5-6.2 16-12.5 32.4-14 36.5-1.4 4.1-3.6 10.3-4.8 13.8-1.2 3.4-2.5 6.2-2.9 6.2-0.5 0-1.7-1.2-2.7-2.8-1-1.5-3.8-6.5-6-11.2-2.3-4.7-6.8-16.6-10-26.5-3.3-9.9-7.3-23.4-8.9-30-1.7-6.6-4.2-17.8-5.6-25-1.4-7.2-3.2-17.7-4-23.5-0.8-5.8-2.1-16.1-2.8-23-0.8-7.6-1.3-25.2-1.3-45 0.1-23.7 0.5-37.2 1.8-50 1-9.6 3.1-25.4 4.8-35 1.6-9.6 4.1-22.5 5.5-28.5 1.5-6 4.6-18.2 7-27 2.3-8.8 6.4-22.8 8.9-31 2.6-8.3 5.8-18.6 7.1-23 1.3-4.4 3.5-13 4.9-19 1.3-6 3.1-16.4 3.9-23 0.8-6.6 1.8-15.8 2.1-20.5 0.4-4.7 0.9-9.2 1.2-10 0.4-0.8 1 0.7 1.4 3.5zm-46.3 144.5c0.2 0.8-1 8.2-2.7 16.5-1.7 8.2-3.9 20.6-5 27.5-1.1 6.9-2.8 19-3.8 27-1.3 11.4-1.7 22.6-1.7 52.5 0 33.6 0.2 39.9 2.2 54.8 1.2 9.2 3.6 23.3 5.2 31.5 1.7 8.1 4.3 19.7 6 25.7 1.6 6 5.7 19.8 9 30.5 3.4 10.7 7.1 23.8 8.2 29 1.5 6.8 2.2 13.2 2.2 22.5 0 7.2-0.5 15.3-1.2 18-0.6 2.8-2.3 6.2-3.7 7.8q-2.5 2.7-5.5 2.7c-2.1 0-4.3-1.2-7.1-3.7-2.9-2.6-5.8-7.2-9.5-14.8-2.9-6-7.6-17.7-10.3-26-2.8-8.2-6.8-22-9-30.5-2.1-8.5-5.1-22-6.5-30-1.4-8-3.3-20.3-4.1-27.5-0.8-7.2-2-21.8-2.6-32.5-0.6-10.7-0.9-28.5-0.6-39.5 0.4-11 1.1-24.3 1.7-29.5 0.6-5.2 2.3-15.3 3.7-22.5 1.3-7.2 4-18.2 5.9-24.5 1.9-6.3 5.8-17.8 8.6-25.5 2.8-7.7 7-18 9.4-23 2.3-5 5.7-11 7.6-13.5 2.1-2.9 3.4-4 3.6-3zm350.3-1.5l2.5 3c1.3 1.7 4.9 8 7.8 14 3 6 7.7 17.2 10.5 24.8 2.8 7.5 6.8 19.9 9 27.5 2.1 7.5 4.6 17.3 5.5 21.7 0.9 4.4 2.3 13.2 3.1 19.5 0.9 6.3 1.9 22.1 2.2 35 0.3 13.9 0.1 31-0.6 42-0.7 10.2-2.1 25.3-3.2 33.5-1.1 8.3-3.4 21.8-5 30-1.7 8.3-4.8 21.1-6.9 28.5-2.1 7.4-6.2 20-9 28-2.9 8-7.4 18.8-10 24-2.7 5.4-6.4 10.9-8.4 12.8-2.4 2.1-4.6 3.2-6.6 3.2-1.8 0-3.9-0.9-5.2-2.3-1.3-1.3-2.9-4.3-3.6-6.8-0.7-2.4-1.6-9.6-1.9-15.9-0.4-9.3-0.1-13.6 1.6-22.5 1.1-6 4.9-20 8.5-31 3.5-11 8.4-28.1 10.9-38 2.6-9.9 5.5-23.2 6.6-29.5 1.1-6.3 2.8-18 3.8-26 1.4-11.3 1.8-22.3 1.8-50 0-22-0.5-40.2-1.3-48-0.7-6.9-2.2-18.1-3.3-25-1.1-6.9-3.5-20.4-5.4-30-1.9-9.6-3.5-18.6-3.5-20zm-246.4 114.7c0.1 0.2 2 7.7 4.2 16.8 2.2 9.1 4.9 21.2 6.1 27 1.1 5.8 3.2 19.3 4.5 30 1.3 10.7 3.1 26.5 4 35 0.8 8.5 2 22.9 2.5 32 0.6 9.1 1.1 22.3 1.1 29.5 0 7.2-0.5 19.3-1.1 27-0.6 7.7-1.9 19-2.9 25-1.1 6-3.1 15-4.6 20-1.4 5-4.3 12.6-6.4 17-2 4.4-5.8 10.7-8.3 14-2.8 3.7-6.4 7-9.4 8.7-3.3 1.9-6.3 2.8-9.6 2.8-2.6 0-6.2-0.6-8-1.3-1.8-0.7-4.8-3-6.7-4.9-2-1.9-4.8-5.7-6.2-8.4-1.5-2.7-3.9-9.2-5.2-14.4-1.4-5.2-3.1-14.2-3.7-20-0.7-6.1-0.9-14.7-0.6-20.5 0.4-5.5 1.4-14.2 2.2-19.2 0.8-5.1 3-15.5 5-23 1.9-7.6 9.1-30.4 15.9-50.8 6.9-20.3 14.1-43.5 16-51.5 1.9-8 4.6-21.9 6-31 1.3-9.1 2.7-21.4 3.1-27.5 0.4-6 1-11.4 1.3-11.8 0.3-0.5 0.6-0.7 0.8-0.5zm143.6 0.3c0.5 0.3 0.9 3.4 0.9 6.8-0.1 3.4 0.3 10.9 0.9 16.7 0.6 5.8 1.9 15.9 3 22.5 1.2 6.6 3.4 17.6 5.1 24.5 1.7 6.9 8.7 29.4 15.5 50 6.9 20.6 14.3 44.5 16.4 53 2.2 8.5 4.6 20 5.4 25.5 0.9 5.5 1.6 16.1 1.6 23.5 0 7.8-0.7 17.3-1.6 22.5-0.8 5-2.7 12.4-4.1 16.5-1.4 4.1-4.2 9.9-6.2 12.9-2 2.9-5.2 6.3-7.1 7.4-2 1.2-5.1 2.4-7 2.9-2.4 0.5-5.3 0.2-9-0.9-4.3-1.2-6.7-2.8-11.1-7.2-3.3-3.3-7.2-8.8-9.6-13.6-2.3-4.4-5.5-12.5-7.2-18-1.7-5.5-3.9-14.7-5-20.5-1.1-5.8-2.6-16.3-3.2-23.5-0.8-8.8-1-22.6-0.6-42.5 0.3-16.2 1.3-36 2.1-44 0.8-8 2.6-24 4-35.5 1.5-11.5 4-27.6 5.6-35.8 1.6-8.1 4.5-21.1 6.5-29 1.9-7.8 3.5-14.3 3.6-14.5 0-0.2 0.5 0 1.1 0.3z"/>
	<path id="adductors" fill-rule="evenodd" class="s1" d="m762.1 1065c1 1.4 4.5 7.2 7.8 13 3.3 5.8 7.9 14.5 10.1 19.5 2.3 5 8.4 18.9 13.5 31 5.1 12.1 12 30.1 15.4 40 3.4 9.9 8.9 26.8 12.1 37.5 3.2 10.7 7.3 25.1 8.9 32 1.7 6.9 4.1 18.6 5.5 26 1.4 7.4 3.2 19.6 4 27 0.8 7.4 1.8 19.1 2.2 26 0.3 6.9 0.1 20.4-0.6 30-0.6 9.6-1.8 22.2-2.5 28-0.8 5.8-2.4 16.3-3.6 23.5-1.2 7.2-2.6 13.5-3.1 14q-0.8 1-0.8-0.3c0-0.6-3.2-17.9-7-38.2-3.9-20.3-9.4-46.6-12.4-58.3-3-11.6-8.4-31.8-12.1-44.7-3.7-12.9-9.4-33.4-12.6-45.5-3.3-12.1-7.5-29-9.4-37.5-1.9-8.5-5.4-26.3-7.9-39.5-2.4-13.2-5.4-31.4-6.5-40.5-1.1-9.1-2.5-22.5-3.1-29.7-0.5-7.3-0.7-13.9-0.4-14.5 0.5-0.9 1.2-0.5 2.5 1.2zm227.7-1c0.4 0 0.6 3.7 0.4 8.3-0.2 4.5-1.2 16.1-2.3 25.7-1.1 9.6-3.1 24.3-4.5 32.5-1.4 8.3-4.3 24-6.5 35-2.2 11-6.2 29-8.9 40-2.6 11-9 34.6-14 52.5-5 17.9-11.1 39.9-13.6 49-2.4 9.1-6.4 26.2-8.9 38-2.4 11.8-6 31.2-8 43-2 11.8-4 22.4-4.4 23.5-0.6 1.5-1.2 0.3-2.4-5-0.9-3.8-2.3-11.7-3.1-17.5-0.8-5.8-2.3-17.5-3.2-26-1-9.1-1.7-24.2-1.8-36.5 0-11.5 0.5-26 1.2-32 0.7-6 2.6-18.9 4.3-28.5 1.6-9.6 4.4-22.9 6-29.5 1.7-6.6 5.9-21.5 9.5-33 3.6-11.5 8.6-27.1 11.1-34.5 2.5-7.4 7.4-20.5 10.8-29 3.5-8.5 9.8-23.2 14-32.5 4.2-9.3 9.9-21 12.7-26 2.8-5 6.4-10.9 8-13.2 1.6-2.4 3.2-4.3 3.6-4.3z"/>
	<path id="abductors" fill-rule="evenodd" class="s1" d="m711.7 1004.9c-0.2 0.5-0.9 4.7-1.6 9.3-0.6 4.6-1.6 12.3-2.2 17.3-0.6 5-2.1 13.7-3.4 19.5-1.3 5.8-5.1 19.5-8.4 30.5-3.3 11-7.3 25.2-9 31.5-1.7 6.3-4.4 17.8-6 25.5-1.7 7.7-4.1 21.9-5.5 31.5-1.4 9.6-3.2 25.2-4.1 34.5-0.9 9.3-1.5 21.3-1.3 26.5l0.3 9.5c8.8-17.8 14.4-28.2 18-34.5 3.7-6.3 10.6-18.5 15.3-27 4.7-8.5 10.2-19.5 12.3-24.5 2-5 5-14 6.7-20 1.7-6 4-15.5 5.1-21 1.1-5.5 2.7-15.6 3.6-22.5 0.9-7.2 1.5-20.3 1.5-31 0-10.2-0.5-21.7-1-25.5-0.6-3.9-2.3-9.4-3.8-12.4-1.5-2.9-5-7.8-7.7-10.8-2.8-3.1-5.8-6-6.7-6.4-1-0.5-1.8-0.5-2.1 0zm318.3 5.9c-3.4 3.7-7.5 9.4-9.1 12.7-2.2 4.5-3.2 8.5-4 16-0.7 5.8-0.9 17.1-0.5 27 0.3 9.3 1.5 23.3 2.7 31 1.1 7.7 3.3 19.4 4.9 26 1.6 6.6 4 15.6 5.5 20 1.4 4.4 5 13 7.9 19 2.9 6 10.6 20.2 17 31.5 6.5 11.3 14.4 26 17.7 32.8 3.2 6.7 6.3 12.2 6.9 12.2 0.6 0 0.8-4.2 0.4-11.7-0.2-6.5-1.2-19.7-2-29.3-0.8-9.6-2.4-23.6-3.5-31-1.1-7.4-2.9-18-4-23.5-1.1-5.5-3.4-15.6-5.1-22.5-1.6-6.9-5.9-22-9.4-33.5-3.6-11.5-7.6-25.3-8.9-30.5-1.3-5.2-3.1-14-3.9-19.5-0.8-5.5-1.7-13.6-2.1-18-0.4-4.4-1.1-9.7-1.6-11.7-0.5-2.1-1.3-3.8-1.8-3.8-0.5 0-3.7 3-7.1 6.8z"/>
	<path id="obliques" fill-rule="evenodd" class="s1" d="m683.9 650c2.5 3 6.6 7.4 9.1 9.8 2.5 2.3 8.3 6.9 13 10.1 4.7 3.2 12.2 7.7 16.8 10 4.5 2.2 8 4.6 7.7 5.1-0.3 0.5-3.5 1.9-7.2 3-4.5 1.4-9.5 2.1-14.5 2-4.8 0-9.3-0.6-11.5-1.6-2.1-0.9-5.8-3-8.1-4.7-2.4-1.8-5.9-5.2-11.3-12.2l0.1-11c0-6 0.3-12.1 0.6-13.5 0.6-2.4 0.8-2.3 5.3 3zm386.3-4.1c0.4 0.3 1.1 5.3 1.4 11.1 0.4 5.8 0.4 11.7 0.1 13.3-0.4 1.5-3.1 5.3-6 8.4-3.7 4-7.4 6.7-11.8 8.8-5.5 2.5-7.5 2.9-14.4 2.8-5.9-0.1-9.7-0.7-14.5-2.6-3.6-1.3-6.6-2.8-6.7-3.3-0.1-0.5 4.2-3 9.5-5.6 5.3-2.6 13.5-7.6 18.2-11.1 4.7-3.6 11.8-10 16-14.5 4-4.4 7.8-7.7 8.2-7.3zm-392.1 37.1c0.5 0 6.6 5.2 13.7 11.6 7 6.4 16.6 15.2 21.5 19.5 4.8 4.4 8.6 8.4 8.5 9-0.2 0.7-2.1 1.8-4.3 2.6-2.2 0.8-6.7 1.5-10 1.5-3.8 0-8-0.7-11.5-2-3-1.2-7.5-3.8-9.9-5.9-2.4-2.1-5.4-5.8-6.6-8.3-1.2-2.5-2.6-7-3-10-0.4-3-0.4-8.3 0-11.7 0.3-3.5 1.1-6.3 1.6-6.3zm393.3 0c0.5 0 1.1 1.7 1.4 3.7 0.3 2.1 0.3 7.2 0 11.3-0.3 4.6-1.3 9.2-2.6 12-1.1 2.5-4 6.3-6.4 8.4-2.3 2.2-6.8 5.1-9.8 6.5-4.1 1.9-7.1 2.5-12 2.4-3.7 0-8.1-0.7-10.2-1.7-3-1.2-3.6-2-3-3.3 0.4-1 9.9-10.2 21.2-20.5 11.3-10.3 20.9-18.8 21.4-18.8zm-331.4 8.3c2.5 0.2 6.3 1.2 8.4 2.3 2.2 1 6 3.7 8.4 5.9 2.5 2.3 5.7 6.6 7.3 10 1.6 3.3 3.7 10.5 4.8 16 1.1 5.5 2.2 12.1 2.5 14.7 0.5 4.3 0.4 4.8-1.4 4.8-1.1 0-4.1-0.9-6.7-2.1-2.7-1.1-7.7-4-11.3-6.4-3.6-2.4-9.5-7.3-13.2-10.9-3.8-3.6-8.6-9.4-10.8-12.9-2.2-3.4-4.3-7.6-4.6-9.2-0.4-1.7-0.1-4 0.5-5.3 0.6-1.2 3.5-3.4 6.4-4.8 3.9-1.8 6.4-2.4 9.7-2.1zm269.5-0.2c1.1-0.1 3.8 0.4 6 1 2.2 0.6 5.2 2 6.8 3 1.5 1 3.1 2.9 3.6 4.1 0.6 1.6 0.3 3.7-0.8 6.8-0.9 2.5-3.7 7.2-6.3 10.5-2.5 3.3-6.6 7.9-9 10.1-2.3 2.3-6.5 5.8-9.3 7.9-2.7 2.1-7.5 5-10.5 6.5-3 1.6-6.8 3-8.5 3.2-2.7 0.3-3 0-3.3-2.7-0.2-1.7 0.9-8.4 2.3-15 1.4-6.6 3.6-14.3 4.9-17 1.3-2.8 4.8-7.3 7.8-10 2.9-2.8 7.3-5.8 9.8-6.7 2.5-0.9 5.4-1.7 6.5-1.7zm-330 29.1c0.1 0.2 6.2 7.7 13.6 16.8 7.4 9.1 14.7 18.2 16.2 20.2 1.6 2.2 2.5 4.5 2.1 5.5-0.4 1.6-1.2 1.7-6 1-3-0.4-7.5-1.6-10.2-2.7-2.6-1.1-5.7-3-6.9-4.2-1.2-1.3-3.1-4.3-4.2-6.8-1.1-2.5-2.9-9.8-4.1-16.3-1.1-6.4-1.7-12.2-1.3-12.8 0.3-0.6 0.7-0.9 0.8-0.7zm390.6 0.7c0.4 0.3 0.1 4.9-0.7 10.1-0.8 5.2-2.2 12.2-3.1 15.5-1.3 4.4-2.8 7.1-5.8 10-2.4 2.5-5.8 4.6-8.5 5.4-2.5 0.7-6.5 1.5-9 1.8-2.9 0.4-4.8 0.2-5.3-0.6-0.4-0.6 0.2-2.6 1.3-4.4 1-1.7 8.3-11.1 16.2-20.8 7.8-9.7 14.5-17.4 14.9-17zm-45.1 12.8c1.9 0.3 4.6 1.1 6 1.8 1.4 0.7 3.1 2.5 3.8 4.1 1.1 2.4 1 3.6-0.3 7.4-0.8 2.5-3 6.9-4.8 9.9-1.7 2.9-6.1 8.5-9.7 12.4-3.6 3.8-10.1 9.9-14.5 13.4-4.4 3.5-11.3 8.6-15.3 11.4-3.9 2.7-8.3 4.9-9.7 4.9-1.6 0-2.9-0.8-3.6-2.3-0.8-1.5-1-6.2-0.6-15.2 0.3-7.1 1.1-14.7 1.7-16.8 0.6-2.2 2.7-5.4 5.2-7.7 2.4-2.3 8.3-7 13.3-10.5 5-3.5 11.2-7.6 14-9.1 2.7-1.5 6.4-3.1 8-3.5 1.6-0.4 4.6-0.5 6.5-0.2zm-298.3 0.3c3.4 0 6.8 0.7 9.6 2.1 2.3 1.2 7.6 4.4 11.7 7.2 4.1 2.8 10.4 7.3 13.9 10.1 3.5 2.8 7.2 6.5 8.2 8.1 1.2 2 2.2 6.7 3 14 0.7 6 0.9 13.5 0.6 16.5-0.4 3-1.3 6.1-2.2 6.7-1.2 1.1-2.3 0.9-5.7-0.8-2.4-1.2-6.5-3.8-9.3-5.7-2.7-2-9.5-7.2-14.9-11.7-5.5-4.4-12.4-10.9-15.3-14.5-3-3.6-7-9.6-8.9-13.5-2.6-5.1-3.4-7.9-3.1-10.4 0.3-2.4 1.4-4.1 3.8-5.8 2.4-1.7 4.6-2.3 8.6-2.3zm-11.8 42.3c2.5 0.3 7.4 2.1 10.9 3.9 3.4 1.8 12.2 7.6 19.4 12.8 7.3 5.2 15.8 12 18.9 15 4.6 4.4 6 6.7 7.5 11.5 1.5 4.7 1.9 9.3 1.9 21.2 0 10.7-0.4 15.6-1.2 16.5-1 1.1-2 1-5.5-0.4-2.4-0.9-7.9-4-12.3-6.9-4.4-2.9-11.4-8.6-15.5-12.8-4.1-4.2-9.8-11-12.6-15.1-2.9-4.1-6.8-10.6-8.7-14.5-1.9-3.9-4.4-9.9-5.5-13.5-1.1-3.6-2.3-8.5-2.7-11-0.4-2.5-0.4-5.1 0.1-5.9 0.5-0.9 2.1-1.2 5.3-0.8zm321.4-0.2c2.3-0.1 3.7 0.4 3.8 1.1 0.1 0.7 0 2.7-0.1 4.3 0 1.6-1 6.3-2.1 10.2-1 4-3.3 10.1-5 13.5-1.7 3.5-5.9 10.3-9.3 15.2-3.3 4.9-9 12.1-12.6 15.9-3.6 3.8-10.3 9.5-15 12.6-4.7 3.2-10.7 6.6-13.3 7.7-4.3 1.7-5 1.7-5.8 0.4-0.6-0.9-0.8-8.1-0.6-18 0.3-12.2 0.9-17.7 2.2-21 0.9-2.5 2.6-5.8 3.8-7.4 1.2-1.7 7.6-7 14.2-12 6.6-5 15.6-11.3 20-14 4.4-2.7 9.8-5.7 12-6.7 2.2-1 5.7-1.8 7.8-1.8zm-9.1 56.9c0.4 0 1 3.3 1.3 7.3 0.3 3.9 0.1 13.7-0.5 21.7-0.6 8-1.8 17.6-2.6 21.5-0.8 3.9-2.3 8.8-3.4 11-1 2.2-4.5 7.1-7.7 11-3.3 3.9-11.3 11.8-17.8 17.8-6.6 5.9-13.9 11.7-16.1 13-3.8 2-4.4 2-5.8 0.7-1.4-1.2-1.7-3.6-1.6-14 0-6.9 0.7-17 1.5-22.5 0.7-5.5 1.9-12.2 2.6-15 0.6-2.7 2.3-7.2 3.8-9.9 2-3.8 6.1-7.8 18.1-17.7 8.5-7 18.2-15.4 21.5-18.8 3.3-3.3 6.3-6.1 6.7-6.1zm-304.4 1c0.4 0 5 3.9 10.2 8.7 5.3 4.9 14.7 13.1 20.9 18.3 6.2 5.2 12.6 11.5 14.2 14 1.6 2.5 3.6 7.5 4.4 11.3 0.8 3.7 2.2 12.4 3 19.5 0.8 7 1.5 16.1 1.5 20.2 0 4.1-0.6 8.6-1.3 10-0.9 1.6-2 2.4-3.3 2.2-1-0.2-5.3-2.9-9.4-6-4.1-3.2-12.3-10.4-18.1-16.2-5.8-5.8-12.2-13-14.1-16-1.9-3-4.2-7.3-5-9.5-0.9-2.2-2.1-8-2.6-13-0.6-5-1.4-14.2-1.8-20.5-0.4-6.3-0.3-14.1 0-17.3 0.4-3.1 1-5.7 1.4-5.7zm306.6 69c0.5 0 2.2 4.6 3.7 10.3 1.6 5.6 3.6 14.2 4.6 19.2 1.1 6 1.6 13.7 1.6 23 0 8.9-0.7 16.7-1.7 21.5-0.9 4.1-3 10.3-4.6 13.8-2.5 5.2-4.9 7.9-15.7 17.6-7.1 6.2-16.2 14.9-20.4 19.2-4.1 4.4-9.6 10.8-12.1 14.4-2.5 3.6-8.6 13-13.5 21-4.9 8-11.1 17.7-13.8 21.5-2.7 3.8-9.2 12.6-14.4 19.5-5.3 6.8-11.2 14-13.1 15.9-3.1 3.1-3.5 3.3-3.8 1.6-0.2-1.1 1.5-9.4 3.7-18.5 2.3-9.1 6.8-27.8 10.2-41.5 3.4-13.8 9-34.5 12.4-46 3.5-11.5 7.9-25.3 9.8-30.5 1.9-5.2 4.7-12 6.2-15 1.5-3 4.9-8.4 7.6-12 2.7-3.6 11.5-12.8 19.7-20.6 8.1-7.7 18.8-18.6 23.7-24.2 5-5.6 9.4-10.2 9.9-10.2zm-283 26.7c13.8 14.1 26.5 27.5 28.3 29.7 1.7 2.3 4.6 7 6.4 10.6 1.7 3.6 5.6 13.7 8.5 22.5 2.9 8.8 7.8 24.8 11 35.5 3.1 10.7 9 33 13.1 49.5 4.1 16.5 8.1 33.2 8.8 37 0.9 4.3 1 7.3 0.4 7.8-0.5 0.4-4.2-3.5-8.2-8.5-4.1-5.1-11.2-14.3-15.8-20.5-4.6-6.1-12.7-17.9-17.9-26.2-5.2-8.4-12.4-19.3-15.9-24.4-3.6-5-11.5-14.2-17.5-20.2-6.1-6-14.9-14.4-19.5-18.5-4.6-4.1-9.4-9.3-10.7-11.5-1.2-2.2-2.9-6.7-3.8-10-0.9-3.3-2-10.7-2.7-16.5-0.8-7.8-0.8-13.5 0-22 0.6-6.3 2.2-16 3.6-21.5 1.3-5.5 3-11.6 3.9-13.5 0.8-1.9 1.7-3.8 2.2-4.2 0.4-0.4 12 10.8 25.8 24.9z"/>
	<path id="abs" fill-rule="evenodd" class="s1" d="m849 669.1c0.8 0 3.2 0.4 5.3 0.9 2 0.5 5.1 2.2 6.8 3.7 1.8 1.6 4 4.5 5 6.5 1.1 2.1 2.4 7.3 3.1 11.5 0.9 6 0.9 9.3 0 14.3-0.6 3.6-2 7.6-3 9-1.1 1.4-3.4 3.5-5.3 4.8-1.9 1.2-10.6 4.6-19.4 7.4-10.6 3.4-20.9 7.6-45 19.9l-4.4-1.8c-2.5-1-5.9-3.5-7.8-5.8-1.8-2.2-4.1-6.3-5.1-9-1.1-3.4-1.7-8.1-1.7-14.5 0-7.8 0.4-10.3 2.2-14 1.3-2.5 4.2-6.5 6.5-8.9 2.4-2.4 6.9-5.6 10-7.2 3.2-1.6 14-5.6 24-8.9 10.1-3.3 20.3-6.4 22.8-6.9 2.5-0.5 5.2-0.9 6-1zm52.5 0.4c1.1 0.2 3.8 0.7 6 1 2.2 0.4 12.3 3.4 22.5 6.7 10.2 3.3 20.5 7.1 23 8.3 2.5 1.3 6.3 3.9 8.5 5.8 2.2 1.9 5.2 5.6 6.7 8.3 1.5 2.7 3.2 7.3 3.8 10.2 0.7 3.9 0.7 7.1-0.4 13-0.7 4.2-2.2 9.5-3.4 11.7-1.1 2.2-3.3 5.2-4.9 6.6-1.5 1.5-4.4 3.4-9.8 6.1l-15-7.6c-9.3-4.6-20.5-9.3-29.5-12.2-8-2.6-16.1-5.5-18-6.4-1.9-1-4.6-3-6.1-4.6-1.8-2.1-2.9-5.1-3.9-10.4-1.1-6-1.1-8.9-0.2-14.7 0.7-4 2-9 3.1-11 1-2.1 3.2-5 5-6.5 1.7-1.6 4.3-3.1 5.8-3.4 1.6-0.3 3.3-0.7 3.8-0.9 0.5-0.1 1.9-0.1 3 0zm-50.5 66.5c1.4 0 4.1 0.5 6 1 1.9 0.6 4.8 2.3 6.3 3.8 1.5 1.5 3.5 4.9 4.3 7.7 0.8 2.7 1.8 11.1 2.2 18.5 0.4 7.4 0.4 18-0.1 23.5-0.5 7.4-1.4 11.4-3.2 15.2-2 4.3-3.3 5.7-6.8 7.2-2.8 1.2-7.7 2.1-15.2 2.5-6 0.3-15 1.3-20 2.1-5 0.8-11.9 1.9-15.5 2.4-3.9 0.6-7.9 0.6-10 0.1-2.1-0.5-5-2.5-7.3-4.9-2-2.3-4.2-5.8-4.7-7.9-0.5-2-1-8.4-1-14.2-0.1-10.3 0-10.7 3.9-18.5 2.5-4.9 6.1-10.1 9.3-13.4 2.9-3 8.5-7.5 12.3-10 3.9-2.6 10.6-6.2 15-8 4.4-1.8 11.1-4.2 15-5.2 3.9-1 8.1-1.8 9.5-1.9zm50.5 0.7c2.7 0.3 8.3 1.6 12.2 2.9 4 1.3 10.6 4 14.5 6 4 2 10 5.5 13.3 7.9 3.3 2.3 7.9 6.3 10.2 8.9 2.4 2.5 6 8.1 8 12.3 3.6 7.4 3.8 8.3 3.8 17.8 0 6.1-0.6 11.9-1.5 15-0.8 2.7-2.9 6.4-4.5 8.1-1.6 1.7-4.8 3.6-7 4.2-3.2 0.9-6.8 0.6-18.5-1.4-8-1.3-20.1-2.8-27-3.2-9.4-0.6-13.4-1.3-15.9-2.8-2.1-1.1-4.4-3.7-5.8-6.4-1.5-3-2.6-7.7-3.4-14.5-0.7-7.1-0.7-14.4 0-25 0.6-8.3 1.6-16.6 2.2-18.5 0.7-1.9 2-4.7 2.9-6.1 1-1.5 3-3.1 4.6-3.7 1.6-0.6 3.8-1.3 4.9-1.6 1.1-0.2 4.3-0.2 7 0.1zm-56.5 87.8c4.7 0.2 10.2 0.9 12.2 1.5 2.1 0.5 5.4 2.6 7.3 4.5 2.5 2.5 3.8 5 4.6 8.7 0.7 3.4 1 12.2 0.6 24.3-0.3 12.2-1 21.5-2.1 26-0.9 4.1-2.8 8.7-4.6 11.2-1.6 2.4-4.5 5.2-6.3 6.4-2.9 1.9-4.2 2-15.7 1.5-6.9-0.3-18.1-1.5-25-2.6-6.9-1.2-13.5-2.7-14.8-3.5-1.2-0.8-3.3-2.7-4.7-4.3-1.4-1.5-3.2-4.7-4-7.2-0.8-2.5-2.4-9.1-3.5-14.8-1.1-5.6-2-13.4-2-17.2 0-3.9 0.5-9.4 1.2-12.3 0.7-3.2 2.3-6.5 4.2-8.6 1.7-1.9 4.9-4.2 7.1-5.2 2.2-1 7.8-2.7 12.5-4 4.7-1.2 12.1-2.8 16.5-3.5 4.4-0.7 11.8-1.1 16.5-0.9zm66-0.1c5.2 0.3 14.1 1.4 19.8 2.5 5.6 1.2 12.8 3.1 15.9 4.3 3.2 1.2 7.2 3.4 8.8 4.8 1.6 1.5 3.8 4.5 4.7 6.8 1 2.3 2.1 6.6 2.4 9.4 0.4 2.9 0.1 9.8-0.6 15.3-0.6 5.5-2.3 13.8-3.7 18.5-1.3 4.7-3.5 10-4.9 11.7-1.3 1.8-3.9 4-5.7 4.9-1.7 0.9-8.6 2.6-15.2 3.7-7.1 1.1-17.3 2-25 2.1-11.8 0.1-13.3-0.1-16-2-1.6-1.2-4.2-4.3-5.7-7-1.5-2.7-3.4-8.1-4.3-11.9-1-4.9-1.5-12.9-1.5-26.5 0-12.3 0.4-20.8 1.1-23 0.7-1.9 1.9-4.7 2.8-6.1 1-1.5 3.5-3.4 5.6-4.4 2.2-1 5.8-2.1 8-2.6 2.2-0.4 8.3-0.7 13.5-0.5zm-90.5 91.8c4.4 0.3 12.7 1.6 18.5 2.8 5.8 1.2 11.9 2.9 13.5 3.7 1.6 0.8 4.3 2.7 5.8 4.2 1.6 1.4 3.7 4.2 4.7 6.1 1 1.9 2.3 5.3 2.9 7.5 0.6 2.2 1.8 12.3 2.7 22.5 1.2 14.5 1.6 35.1 1.7 96.1 0.2 76.4 0.2 77.7-1.8 79.8-1.3 1.4-3.2 2.2-5.5 2.1-2.1 0-5.3-1.1-8-2.8-2.5-1.6-6.1-4.7-8-6.9-1.9-2.2-4.9-6.9-6.6-10.4-1.8-3.5-5.4-12.5-8.2-19.9-2.8-7.4-7.7-22.3-11.1-33-3.3-10.7-7.3-24.7-9-31-1.7-6.3-5.1-20.7-7.6-32-2.5-11.3-5.5-26.1-6.6-33-1.1-6.9-2.2-17.9-2.6-24.5-0.4-8.1-0.1-13.9 0.7-18 0.9-4.2 2.3-7 4.4-9.3 2.2-2.3 4.4-3.5 7.6-4 2.5-0.4 8.1-0.4 12.5 0zm119-0.2c2.8 0.3 6.3 1.3 7.8 2.2 1.5 1 3.4 2.8 4.2 4 0.8 1.3 1.9 5.9 2.5 10.3 0.6 5.4 0.7 11.6 0 19-0.5 6-1.9 16.6-3 23.5-1.1 6.9-4.5 23.3-7.5 36.5-3 13.2-7.5 31.2-10 40-2.6 8.8-7.7 25.2-11.4 36.5-3.8 11.3-8.8 24.8-11.3 30-2.6 5.6-6.2 11.5-8.8 14.4-2.5 2.6-6.2 5.7-8.3 6.7-2.2 1.2-5.3 1.8-7.9 1.6-3.4-0.2-4.5-0.7-5.6-2.7-1.1-2.1-1.3-16.8-0.8-84 0.3-44.8 1-87.1 1.6-94 0.6-6.9 1.8-15.2 2.6-18.5 0.8-3.3 2.6-7.9 4-10.3 1.6-2.8 4.1-5.2 7.7-7.2 2.8-1.6 9.3-3.9 14.2-5.1 5-1.1 12.6-2.4 17-2.7 4.4-0.4 10.3-0.5 13-0.2z"/>
	<path id="forearms" fill-rule="evenodd" class="s1" d="m636.5 766.5l0.3 3c0.2 1.6-0.5 5.5-1.4 8.5-0.9 3-2.7 8.2-4.1 11.5-1.4 3.3-4.4 9.1-6.8 13-2.4 3.9-6.5 9.1-9.1 11.6-3 2.8-7.2 5.4-10.9 6.8-3.3 1.3-8 2.4-10.5 2.5-3.8 0.1-4.5-0.2-4.8-1.9-0.1-1.1 1.2-4.2 3-6.9 1.8-2.8 9.1-10.2 16.2-16.5 7-6.4 15.2-14.5 18-18.1 2.9-3.6 6.4-8.1 7.7-10zm476.8 2.5c0.8 0.8 4.9 5.7 9.1 10.8 4.1 5 12.8 13.8 19.1 19.5 6.4 5.6 13.2 12.5 15.1 15.2 2 2.8 3.4 5.9 3.2 7-0.3 1.7-1.1 2-5.4 1.7-3-0.1-7.6-1.5-11.8-3.5-4.5-2.1-8.5-4.9-11.5-8.2-2.6-2.7-6.6-8.4-8.8-12.5-2.3-4.1-5.2-10.6-6.6-14.5-1.4-3.9-2.8-9.2-3.2-12-0.7-4.4-0.6-4.8 0.8-3.5zm-584.2 15c0.5 0 1.8 1.5 2.9 3.3 1.1 1.7 3.1 6.6 4.4 10.7 1.3 4.1 3.2 12.5 4.1 18.5 1.1 6.5 1.8 16.6 1.8 24.5 0 9.1-0.6 16.1-1.7 21.5-1 4.4-3.4 12.3-5.3 17.5-1.9 5.2-6 14.7-9 21-3 6.3-8 15.3-11 20-3.1 4.7-9.3 13.7-13.8 20-4.6 6.3-14 18.7-21 27.5-6.9 8.8-15.8 20.7-19.8 26.5-3.9 5.8-11.3 17.5-16.4 26-5.1 8.5-10.4 17.4-11.8 19.8-1.7 2.7-3.1 4.1-4.3 3.9-1.3-0.2-1.7-1.2-1.6-3.7 0-2.1 3.3-10.6 7.9-20.5 4.2-9.4 9.9-22.4 12.7-29 2.7-6.6 6.7-18.1 8.9-25.5 2.2-7.4 6.2-25.4 9-40 2.7-14.6 6.1-31.5 7.5-37.5 1.5-6 4.2-15.3 6.1-20.5 2-5.2 6-14.3 8.9-20.2 3-6 7.2-13.8 9.5-17.5 2.3-3.8 9.5-14.9 16.2-24.8 6.6-9.9 12.6-18.8 13.5-19.7 0.8-1 1.9-1.8 2.3-1.8zm691.6 0.2c0.9 0.2 8.8 11.4 17.7 24.9 8.8 13.5 18.4 29 21.2 34.5 2.8 5.4 6.8 14.2 8.9 19.4 2 5.2 5 14.7 6.5 21 1.6 6.3 5 22.5 7.5 36 2.6 13.5 5.5 28.3 6.6 33 1.1 4.7 3.9 14.1 6.1 21 2.2 6.9 8.7 22.9 14.3 35.5 5.6 12.7 11 25.3 11.9 28 1.4 4.4 1.5 5.2 0.2 6.5-1.2 1.1-1.9 1.2-2.8 0.4-0.7-0.6-3.8-5.6-6.9-11-3.1-5.5-9.5-16.2-14.2-23.9-4.7-7.7-12.8-19.6-17.9-26.5-5.2-6.9-14.7-19.3-21.2-27.5-6.4-8.3-15.8-21.1-20.8-28.5-5.1-7.4-11.8-18.9-14.9-25.5-3.2-6.6-7.4-16.4-9.3-21.8-2-5.3-4.4-13.9-5.2-19-1.3-7.1-1.5-13.1-1.1-26.2 0.4-11.6 1.2-20 2.6-26.5 1.1-5.2 2.7-11.5 3.5-14 0.8-2.5 2.5-5.8 3.7-7.3 1.2-1.5 2.8-2.7 3.6-2.5zm-606.6 40.9c0.4-0.1 0.4 1.6 0.2 3.7-0.3 2-1.3 5.2-2.2 7.1-0.9 1.9-3.4 4.6-5.6 6.1-2.2 1.5-10.8 6.3-19 10.6-8.3 4.4-20.1 11.3-26.3 15.2-6.2 4-11.7 7.2-12.2 7.2-0.6 0-0.8-0.8-0.5-1.7 0.2-1 1.1-6.1 1.8-11.3 0.8-5.2 2.1-10.9 2.9-12.5 0.9-1.6 2.4-3.8 3.4-4.7 1-0.9 4.4-2.8 7.4-4.2 3-1.4 15.4-5.4 27.5-9 12.1-3.5 22.3-6.5 22.6-6.5zm522.3 0.9c0.9 0 11.8 3 24.3 6.5 12.5 3.6 25 7.8 27.7 9.3 2.6 1.5 5.7 4 6.9 5.7 1.3 1.9 2.5 6.2 3.3 11.5 0.6 4.7 1.5 10.2 1.8 12.3 0.3 2 0.2 3.7-0.2 3.7-0.4 0-5.9-3.3-12.2-7.4-6.4-4-18.1-10.7-26-14.8-8-4.1-16.3-8.6-18.4-9.9-2.2-1.3-4.7-4-5.6-5.9-1-1.9-2.1-5.2-2.4-7.2-0.6-3.1-0.4-3.8 0.8-3.8zm-528.9 27c0.9 0 1.5 0.9 1.5 2.3 0 1.2-1 6-2.1 10.7-1.1 4.7-3 10.8-4.2 13.5-1.1 2.8-4.4 8.6-7.2 13-2.9 4.4-6.7 9.8-8.5 12-1.7 2.2-9.9 10.8-18 19-8.2 8.3-22.4 22.4-31.5 31.5-9.2 9.1-20.7 21-25.4 26.5-4.8 5.5-12.1 14.5-16.2 20-4.2 5.5-10.9 15-15 21-4.1 6-10.7 16.1-14.7 22.3-5.2 8.1-7.8 11.2-9.2 11.2-1.1 0-2.9-0.5-4-1-1.1-0.5-2-1.6-2-2.2 0-0.7 4.3-9 9.6-18.3 5.3-9.3 16.7-29.7 25.5-45.2 8.7-15.6 22.1-38.8 29.8-51.5 7.6-12.8 16.5-26.9 19.8-31.3 3.3-4.4 10.3-12.4 15.4-17.9 5.8-6.1 12.6-12 17.9-15.5 4.7-3.1 14.9-8.9 22.7-12.8 7.8-4 14.9-7.3 15.8-7.3zm534 0c0.3 0 3.1 1.1 6.2 2.4 3.2 1.3 10.5 5 16.3 8.1 5.8 3.2 12.7 7.2 15.5 9.1 2.7 1.8 7.5 5.4 10.6 8.1 3.2 2.6 8.7 8.2 12.4 12.3 3.7 4.1 8.9 10.6 11.7 14.5 2.7 3.8 12.5 19.6 21.7 35 9.2 15.4 21.3 36.3 26.8 46.5 5.6 10.2 15.8 28.4 22.7 40.5 6.9 12.1 12.6 22.6 12.6 23.3 0 0.6-0.9 1.7-2 2.2-1.1 0.5-2.9 1-4 1-1.4 0-3.4-2.2-6.7-7.2-2.5-4-8.3-12.9-12.8-19.8-4.5-6.9-12.9-18.8-18.7-26.5-5.8-7.7-15.5-19.6-21.6-26.5-6-6.9-20.4-21.5-31.9-32.4-11.4-11-24.7-24.1-29.3-29.1-4.7-5-10.9-12.2-13.8-16-2.8-3.9-6.7-10.1-8.6-14-1.9-3.9-4.3-10.6-5.5-15-1.1-4.4-2.1-9.6-2.2-11.5-0.1-1.9-0.1-3.8 0-4.2 0-0.5 0.3-0.8 0.6-0.8zm-557.5 70c0.3 0-0.5 2.4-1.8 5.3-1.4 2.8-4.8 8.8-7.7 13.2-2.9 4.4-8.4 12-12.2 17-3.9 5-16.4 20-27.8 33.5-11.4 13.5-24.4 29.5-29 35.5-4.5 6-10.1 13.9-12.4 17.5-2.3 3.6-5.9 10-7.9 14.3-3 6.3-4.1 7.7-6 7.7-1.2 0-3.8-0.7-5.7-1.5-2.1-0.9-3.5-2.2-3.5-3.2 0-1 1.4-4.3 3.1-7.3 1.8-3 7.8-12.5 13.4-21 5.6-8.5 14.6-21.4 20-28.5 5.3-7.1 13.6-17.5 18.3-23 4.7-5.5 19.8-21.1 33.6-34.7 13.8-13.7 25.3-24.8 25.6-24.8zm580.8 0c0.7 0 13 11.8 27.5 26.3 14.6 14.4 29.8 30.2 33.9 35.2 4.1 5 11.2 14 15.8 20 4.5 6 12.2 16.9 17 24 4.7 7.2 11 16.9 13.8 21.8 2.8 4.8 5.4 9.8 5.7 11.2 0.4 2.1-0.1 2.7-3 4-2 0.8-4.5 1.5-5.8 1.5-1.8 0.1-3-1.4-6.3-8.2-2.2-4.6-6.5-11.9-9.4-16.3-3-4.4-9.2-13-13.9-19-4.7-6-15.3-19.1-23.6-29-8.3-9.9-18.9-22.7-23.6-28.5-4.7-5.8-11.3-14.3-14.6-19-3.4-4.7-8-12-10.3-16.2-2.4-4.3-3.8-7.8-3.2-7.8z"/>
	<path id="triceps-front" fill-rule="evenodd" class="s1" d="m1187.5 645c0.3 0 2.3 3.6 4.5 8 2.2 4.4 5.8 12.4 7.9 17.8 2.1 5.3 5.2 14 6.9 19.2 1.7 5.2 3.8 14.7 4.7 21 1.2 8 1.5 14.1 1.1 20-0.4 4.7-1.8 14.4-3.3 21.5-1.4 7.1-3 13.5-3.4 14-0.5 0.5-1.1 0.8-1.3 0.5-0.3-0.3-2.5-12.4-5-27-2.5-14.6-6.1-32.1-8.1-39-2-6.9-5.4-17.2-7.6-23-2.1-5.8-3.9-11.7-3.9-13.3 0-1.5 1.1-5.5 2.4-8.9 1.2-3.5 2.8-7.3 3.5-8.5 0.6-1.3 1.4-2.3 1.6-2.3zm-625.6 1c0.3-0.1 1.8 2.5 3.3 5.7 1.4 3.2 3.1 7.6 3.7 9.8 1 3.7 0.7 5-3.4 16-2.5 6.6-5.9 16.5-7.5 22-1.6 5.5-3.8 14.5-4.9 20-1.1 5.5-3.2 18-4.8 27.9-1.5 9.8-3.1 18.4-3.5 19-0.4 0.6-0.9 0.9-1.2 0.6-0.2-0.3-1.6-5.9-3.1-12.5-1.5-6.6-3-16.3-3.4-21.5-0.3-5.2-0.3-13.1 0.1-17.5 0.4-4.4 1.8-12.3 3.1-17.5 1.4-5.2 4.1-14 6.2-19.5 2-5.5 5.8-14.5 8.3-20 2.4-5.5 4.9-10.6 5.4-11.2 0.6-0.7 1.3-1.3 1.7-1.3z"/>
	<path id="biceps" fill-rule="evenodd" class="s1" d="m638.5 615.7c-1.1 0.2-4.9 1.3-8.5 2.5-3.6 1.1-9.4 3.6-13 5.5-3.6 1.9-8.9 5.2-11.8 7.4-2.8 2.1-7.6 7.2-10.6 11.1-3 4-7.4 11.1-9.9 15.8-2.5 4.7-6.5 13.4-9 19.5-2.4 6-5.6 14.6-7 19-1.4 4.4-3.5 11.4-4.6 15.5-1.1 4.1-3.2 13.1-4.6 20-1.4 6.9-3.2 18.1-4 25-0.8 6.9-1.5 18.1-1.5 25 0 6.9 0.7 17.2 1.5 23 0.8 5.8 2.1 13.2 3 16.5 0.8 3.3 1.7 6.2 2 6.5 0.3 0.3 2.1-0.3 4-1.3 1.9-0.9 6.5-4.3 10.3-7.5 3.7-3.2 10.7-9.7 15.6-14.3 4.9-4.6 12.9-12.9 17.9-18.4 4.9-5.5 11.7-14.3 15.2-19.5 3.5-5.2 8.4-13.3 10.9-18 2.5-4.7 6.1-12.8 8.1-18 2.1-5.2 5.2-14.9 7-21.5 1.8-6.6 4.1-17.9 5.1-25 1.2-8.7 1.8-19.4 1.8-32 0-10.5-0.3-21.7-0.8-25-0.7-4.9-1.4-6.6-4.2-9.3-2.7-2.5-4.2-3.2-7.1-3.1-2.1 0.1-4.7 0.3-5.8 0.6zm461.5 1c-1.9 1-4.1 3.1-4.9 4.8-1.1 2.2-1.6 8.6-1.9 24-0.3 13 0 25 0.7 31.5 0.7 5.8 2.1 15.2 3.3 21 1.1 5.8 4 16.6 6.4 24 2.4 7.4 6.6 18 9.3 23.5 2.7 5.5 8.5 15.4 12.9 22 4.4 6.6 11.9 16.2 16.8 21.4 4.9 5.2 15.5 15.4 23.6 22.8 8.2 7.3 16.4 14.1 18.3 15 1.9 1 3.7 1.6 3.9 1.3 0.3-0.3 1.7-5 3.1-10.5 1.4-5.5 3-15 3.6-21 0.6-6.1 0.7-16 0.4-22-0.4-6.1-1.3-16.2-2.1-22.5-0.8-6.3-2.6-16.7-4-23-1.4-6.3-4-16.9-6-23.5-1.9-6.6-5.1-16.3-7.1-21.5-1.9-5.2-6.1-14.7-9.2-21-3.1-6.3-7.5-14.2-9.7-17.5-2.3-3.3-7-8.6-10.5-11.8-3.5-3.2-9.8-7.5-13.9-9.6-4.1-2.2-10.4-4.8-14-5.9-3.6-1.1-8.5-2.2-11-2.6-3.3-0.5-5.4-0.2-8 1.1z"/>
	<path id="chest" fill-rule="evenodd" class="s1" d="m760.5 479.6c1.6 0.2 14.9 1.9 29.5 3.9 14.6 1.9 30.1 4 34.5 4.5 4.5 0.6 10.3 2.1 13.3 3.5 2.8 1.4 7.6 4.9 10.5 7.8 2.9 2.8 7 7.9 9.2 11.2 2.1 3.3 4.7 8.5 5.6 11.5 1 3 2.3 10.5 3 16.5 0.7 6.7 1.3 25.2 1.3 47 0.1 32.7-0.1 36.5-1.8 41.5-1 3-3.1 8-4.7 11-1.6 3-5 7.7-7.6 10.3-2.6 2.7-6.6 5.9-8.8 7.2-2.2 1.3-7.8 3.7-12.5 5.3-4.7 1.6-13.4 4.1-19.5 5.5-6 1.5-16.8 3.6-24 4.8-9.1 1.6-17.4 2.2-27.5 2.2-13.1 0.1-15.4-0.2-23.5-2.7-4.9-1.5-11.5-4.1-14.5-5.7-3-1.6-8.2-5-11.5-7.4-3.3-2.5-8.4-6.7-11.4-9.3-3-2.6-8.8-8.5-12.9-13.2-4.1-4.7-11.1-14.1-15.7-21-4.5-6.9-8.8-14.1-9.4-16-0.6-1.9-1.1-4.5-1.1-5.8 0-1.2 1.2-5.7 2.6-10 1.4-4.2 6.5-15.8 11.4-25.7 4.8-9.9 11.6-22.2 14.9-27.3 3.4-5 9.8-13.1 14.4-17.8 4.5-4.8 11.8-11.3 16.2-14.6 4.4-3.3 12.5-8.2 18-10.9 5.5-2.8 12-5.3 14.5-5.8 2.5-0.4 5.9-0.6 7.5-0.5zm233.5 0.1c2.6 0.2 8.8 2.5 15 5.4 5.8 2.8 13.9 7.4 18 10.2 4.1 2.9 11.3 9 16 13.7 4.7 4.7 11.4 12.8 14.9 18 3.5 5.2 10.5 18 15.7 28.5 5.1 10.5 10.4 22.3 11.8 26.2 1.4 4 2.6 9.1 2.6 11.3 0 2.6-1.2 6.3-3.5 10.7-2 3.8-7.2 11.8-11.7 17.8-4.5 6-12.2 15.1-17.2 20.1-5 4.9-12.5 11.5-16.6 14.6-4.1 3.1-10 6.9-13 8.6-3 1.7-9.5 4.3-14.5 5.8-7.9 2.4-10.6 2.8-22.5 2.8-7.6-0.1-18.5-0.8-25-1.8-6.3-0.9-17.8-3.2-25.5-5.1-7.7-1.9-16.5-4.2-19.5-5.3-3-1.1-8.2-3.2-11.4-4.8-3.2-1.6-8.2-5.2-11-7.9-2.8-2.8-6.5-7.8-8.3-11-1.7-3.3-3.9-8.9-4.9-12.5-1.6-5.7-1.8-10.4-1.7-38 0.1-17.3 0.6-36.9 1.3-43.5 0.6-6.6 1.8-14.7 2.6-18 0.8-3.3 3-8.7 4.7-12 1.8-3.3 5.7-8.7 8.8-12 3.1-3.3 7.8-7.2 10.5-8.7 2.7-1.4 6.7-3.1 8.9-3.7 2.2-0.5 9-1.5 15-2.1 6-0.6 19.5-2.4 30-4 10.5-1.6 20.6-3.1 22.5-3.3 1.9-0.3 5.5-0.3 8 0z"/>
	<path id="shoulders" fill-rule="evenodd" class="s2" d="m677.5 462.5c5.1 0.3 14 1.7 20.5 3.4 6.3 1.6 14.1 3.8 17.3 5 3.1 1.2 6.4 2.8 7.2 3.6 0.8 0.8 1.5 2.1 1.5 2.8 0 0.6-1 2.1-2.2 3.3-1.3 1.2-4.6 3.6-7.3 5.4-2.8 1.9-9.5 7.9-15 13.4-5.5 5.6-12.5 13.9-15.6 18.6-3.2 4.7-11 18-17.4 29.5-6.4 11.5-13.8 24.1-16.3 28-2.5 3.9-10.5 12.9-17.6 20-7.2 7.2-18.5 17.2-25.1 22.2-6.6 5-13.5 10.6-15.4 12.4-1.9 1.9-5.2 5.8-7.5 8.7-2.3 2.9-4.9 5.3-5.8 5.2-1 0-2.7-1.2-3.8-2.8-1.1-1.5-3-6.7-4.1-11.7-1.1-5-2.8-14.2-3.6-20.5-1.1-8.3-1.4-16-1-27.5 0.5-12 1.2-18.6 3.1-26.5 1.3-5.8 3.6-14.1 5.1-18.5 1.5-4.4 4.2-11.4 6.1-15.5 2-4.1 5.6-10.6 8.2-14.5 2.6-3.8 7.6-9.9 11.2-13.5 3.6-3.6 9.9-8.9 14-11.7 4.1-2.7 10.2-6.4 13.5-8.1 3.3-1.6 9.4-4 13.5-5.3 4.1-1.2 12-3 17.5-4 6.9-1.3 12.8-1.7 19-1.4zm395.5-0.4c1.4 0 6.3 0.4 11 0.9 4.7 0.6 12.3 2 17 3.1 4.7 1.1 11.9 3.4 16 5 4.1 1.7 11.1 5.4 15.5 8.3 4.4 2.9 10.9 7.9 14.5 11.3 3.6 3.3 9 9.6 12 13.9 3 4.3 7.1 11.5 9.1 15.9 2 4.4 5 12.3 6.7 17.5 1.7 5.2 4 14 5.2 19.5 1.4 6.5 2.3 15.4 2.7 25.5 0.4 11 0.1 18.8-1 27-0.8 6.3-2.5 15.8-3.8 21-1.5 6.5-2.9 10.2-4.5 11.7-1.3 1.3-2.7 2.3-3.1 2.3-0.4 0-3.6-3.6-7-8-4.9-6.2-9.4-10.4-20.5-18.7-7.9-5.9-19.5-16-25.8-22.3-6.3-6.3-13.8-14.9-16.6-19-2.9-4.1-10.4-17-16.9-28.5-6.4-11.5-14.3-24.8-17.4-29.5-3.1-4.6-9-12.1-13.2-16.5-4.2-4.4-11.9-11.3-17.2-15.3-5.4-3.9-10-8-10.4-9-0.4-1.1 0.2-2.4 2-4 1.5-1.2 6.9-3.5 12-5.1 5-1.6 12.8-3.6 17.2-4.5 4.4-0.8 9.4-1.7 11-1.9 1.7-0.2 4.1-0.5 5.5-0.6z"/>
	<path id="trazepius" fill-rule="evenodd" class="s2" d="m796.9 396.6c0.3 0.3 0.4 4 0.3 8.2-0.2 4.2-1 10.8-1.8 14.7-0.8 3.9-2.7 9.7-4.1 13-1.5 3.3-5 9.6-7.7 13.9-2.8 4.4-7.6 10.2-10.6 12.9-3 2.7-6.9 5.6-8.5 6.5-1.6 0.8-5 1.5-7.5 1.4-2.5 0-8.8-0.8-14-1.7-5.2-0.8-17.1-3.4-26.5-5.6-9.3-2.3-17.7-4.3-18.5-4.6-1.1-0.3-0.8-1.1 1.5-2.9 1.6-1.3 8.9-5.9 16-10.1 7.1-4.3 23.8-13.1 37-19.7 13.2-6.5 27.8-14.5 32.5-17.6 4.7-3.2 9.1-6.5 9.9-7.4 0.8-0.9 1.7-1.4 2-1zm155.4-0.8l2.6 2.1c1.4 1.2 5.7 4.5 9.6 7.3 3.9 2.8 17.4 10.1 30 16.3 12.6 6.2 27.5 13.8 33 17 5.5 3.2 13.6 8.2 18 11.1 5 3.4 7.4 5.5 6.5 5.8-0.8 0.2-9.2 2.3-18.5 4.5-9.3 2.3-22.9 5-30 6-12.5 1.9-13.2 1.9-17 0.3-2.2-1-6-3.4-8.3-5.3-2.4-1.9-6.8-6.6-9.7-10.4-3-3.9-7.2-10.8-9.4-15.5-2.2-4.7-4.7-12-5.5-16.3-0.9-4.2-1.5-11.1-1.5-15.3zm-147 16.7c0.5 0.3 0.9 1.1 0.8 1.8 0 0.6 4 13.6 8.9 28.7 5 15.1 9.3 28.8 9.7 30.5 0.3 1.7 0.1 3.3-0.5 3.7-0.7 0.4-3.7 0.3-6.9-0.2-3.2-0.6-13.5-1.9-23-3-9.5-1.1-17.7-2.2-18.3-2.5-0.5-0.3 2.1-3.8 5.9-7.8 3.7-4 8-9 9.4-11.2 1.5-2.2 3.8-6.9 5.1-10.5 1.4-3.6 3.4-10.1 4.5-14.5 1.1-4.4 2.3-9.7 2.7-11.8 0.4-2.1 1.1-3.5 1.7-3.2zm139.4 0.6c0.2 0.2 1.2 4.4 2.3 9.4 1.1 4.9 2.9 11.7 4 15 1.2 3.3 3.5 8.5 5.1 11.5 1.6 3 6.1 8.6 9.9 12.5 3.9 3.8 7 7.5 7 8.2 0 0.7-0.5 1.5-1.2 1.7-0.7 0.3-10.7 1.7-22.3 3.2-11.5 1.4-21.9 2.7-23 2.8-1.6 0.1-1.9-0.5-1.7-3.2 0.1-1.8 4.3-15.7 9.3-31 4.9-15.2 9.3-28.3 9.7-29.1 0.3-0.8 0.8-1.2 0.9-1z"/>
	<path id="neck" fill-rule="evenodd" class="s2" d="m941.3 354.8c-2.7 3.1-6.3 7.5-8 9.7-1.7 2.2-6 9.6-9.6 16.5-3.6 6.9-7.9 16.8-9.6 22-1.6 5.2-4.4 14.4-6.2 20.5-1.8 6.1-5.9 18.4-9.1 27.5-3.2 9.1-8.4 22.9-11.6 30.7-3.1 7.9-5.4 14.6-4.9 15 0.4 0.5 2.6-0.3 5-1.6 2.3-1.3 6.1-3.7 8.4-5.3 2.9-1.9 6.6-6.2 11.4-13.5 3.9-6 11.3-19.1 16.3-29.3 5.8-11.5 11-23.8 13.8-32.5 2.6-7.7 5.6-18.7 6.8-24.5 1.4-6.7 2.4-16 2.7-25.7 0.3-8.4 0.3-15.3 0-15.3-0.3 0-2.7 2.6-5.4 5.7zm-139.1 9c0.4 7.6 1.5 17.9 2.3 22.8 0.9 4.9 2.5 12.1 3.6 16 1.1 3.9 3.2 10.4 4.6 14.5 1.5 4.1 5.1 12.9 8 19.5 3 6.6 8.1 16.9 11.5 23 3.4 6.1 8 13.9 10.4 17.5 2.3 3.6 6.3 8.4 8.8 10.7 2.5 2.4 6.9 5.4 9.6 6.8 2.8 1.4 5.4 2.4 5.9 2.2 0.5-0.1-0.9-4.5-3-9.7-2.2-5.2-6.6-16.9-9.9-26-3.2-9.1-7-19.9-8.4-24-1.4-4.1-4.1-13.1-6.1-20-2-6.9-4.5-15-5.6-18-1.1-3-4.3-10-7.1-15.5-2.8-5.5-6.7-12.5-8.8-15.5-2.1-3-6.1-8.2-9-11.5-2.9-3.3-5.8-6.1-6.4-6.3-0.8-0.2-0.9 3.7-0.4 13.5z"/>
</svg>